<svg width="720" height="427" viewBox="0 0 720 427" fill="none" xmlns="http://www.w3.org/2000/svg">
<g clip-path="url(#clip0_922_2405)">
<rect width="720" height="427" fill="url(#paint0_linear_922_2405)"/>
<path fill-rule="evenodd" clip-rule="evenodd" d="M262 0H-620V427H262V426.995C262.5 426.998 263 427 263.5 427C381.413 427 477 331.413 477 213.5C477 95.5872 381.413 0 263.5 0C263 0 262.5 0.00172155 262 0.00515905V0Z" fill="url(#paint1_linear_922_2405)"/>
<path fill-rule="evenodd" clip-rule="evenodd" d="M432 0H-450V427H432V426.995C432.5 426.998 433 427 433.5 427C551.413 427 647 331.413 647 213.5C647 95.5872 551.413 0 433.5 0C433 0 432.5 0.00172155 432 0.00515905V0Z" fill="url(#paint2_linear_922_2405)"/>
<path fill-rule="evenodd" clip-rule="evenodd" d="M42 0H-840V427H42V426.995C42.4996 426.998 42.9996 427 43.5 427C161.413 427 257 331.413 257 213.5C257 95.5872 161.413 0 43.5 0C42.9996 0 42.4996 0.00172155 42 0.00515905V0Z" fill="url(#paint3_linear_922_2405)"/>
</g>
<defs>
<linearGradient id="paint0_linear_922_2405" x1="720" y1="-3.03774e-05" x2="115.5" y2="145.5" gradientUnits="userSpaceOnUse">
<stop stop-color="white"/>
<stop offset="0.625" stop-color="#4671F6"/>
<stop offset="1" stop-color="#F2F4F8"/>
</linearGradient>
<linearGradient id="paint1_linear_922_2405" x1="477" y1="214" x2="-691" y2="214" gradientUnits="userSpaceOnUse">
<stop stop-color="#F3F5F9"/>
<stop offset="1" stop-color="#F3F5F9" stop-opacity="0"/>
</linearGradient>
<linearGradient id="paint2_linear_922_2405" x1="647" y1="214" x2="-414.554" y2="214" gradientUnits="userSpaceOnUse">
<stop stop-color="#F3F5F9"/>
<stop offset="1" stop-color="#F3F5F9" stop-opacity="0"/>
</linearGradient>
<linearGradient id="paint3_linear_922_2405" x1="257" y1="214" x2="-911" y2="214" gradientUnits="userSpaceOnUse">
<stop stop-color="#F3F5F9"/>
<stop offset="1" stop-color="#F3F5F9" stop-opacity="0"/>
</linearGradient>
<clipPath id="clip0_922_2405">
<rect width="720" height="427" fill="white"/>
</clipPath>
</defs>
</svg>
