<svg width="428" height="170" viewBox="0 0 428 170" fill="none" xmlns="http://www.w3.org/2000/svg">
<g clip-path="url(#clip0_982_6320)">
<rect width="768" height="255" fill="url(#paint0_linear_982_6320)"/>
<path fill-rule="evenodd" clip-rule="evenodd" d="M181 42H-701V469H181V468.995C181.5 468.998 182 469 182.5 469C300.413 469 396 373.413 396 255.5C396 137.587 300.413 42 182.5 42C182 42 181.5 42.0017 181 42.0052V42Z" fill="url(#paint1_linear_982_6320)"/>
<path fill-rule="evenodd" clip-rule="evenodd" d="M351 42H-531V469H351V468.995C351.5 468.998 352 469 352.5 469C470.413 469 566 373.413 566 255.5C566 137.587 470.413 42 352.5 42C352 42 351.5 42.0017 351 42.0052V42Z" fill="url(#paint2_linear_982_6320)"/>
<path fill-rule="evenodd" clip-rule="evenodd" d="M-39 42H-921V469H-39V468.995C-38.5004 468.998 -38.0004 469 -37.5 469C80.4128 469 176 373.413 176 255.5C176 137.587 80.4128 42 -37.5 42C-38.0004 42 -38.5004 42.0017 -39 42.0052V42Z" fill="url(#paint3_linear_982_6320)"/>
</g>
<defs>
<linearGradient id="paint0_linear_982_6320" x1="384" y1="0" x2="384" y2="255" gradientUnits="userSpaceOnUse">
<stop stop-color="#EDF1FC"/>
<stop offset="1" stop-color="#4671F6"/>
</linearGradient>
<linearGradient id="paint1_linear_982_6320" x1="396" y1="256" x2="-772" y2="256" gradientUnits="userSpaceOnUse">
<stop stop-color="#F3F5F9"/>
<stop offset="1" stop-color="#F3F5F9" stop-opacity="0"/>
</linearGradient>
<linearGradient id="paint2_linear_982_6320" x1="566" y1="256" x2="-495.554" y2="256" gradientUnits="userSpaceOnUse">
<stop stop-color="#F3F5F9"/>
<stop offset="1" stop-color="#F3F5F9" stop-opacity="0"/>
</linearGradient>
<linearGradient id="paint3_linear_982_6320" x1="176" y1="256" x2="-992" y2="256" gradientUnits="userSpaceOnUse">
<stop stop-color="#F3F5F9"/>
<stop offset="1" stop-color="#F3F5F9" stop-opacity="0"/>
</linearGradient>
<clipPath id="clip0_982_6320">
<rect width="768" height="255" fill="white"/>
</clipPath>
</defs>
</svg>
