<svg width="60" height="60" viewBox="0 0 60 60" fill="none" xmlns="http://www.w3.org/2000/svg">
<path d="M30.0003 5C16.1928 5 5.00029 16.1925 5.00029 30C5.00029 33.98 5.95529 37.7275 7.60779 41.0675L5.09529 51.115C4.52279 53.4025 6.59529 55.4775 8.88529 54.905L18.9328 52.3925C22.2728 54.045 26.0203 55 30.0003 55C43.8078 55 55.0003 43.8075 55.0003 30C55.0003 16.1925 43.8078 5 30.0003 5Z" fill="#D1DCFB"/>
<path d="M29.7079 34.9325H29.6929C28.0179 34.9325 26.7254 33.42 27.0129 31.77C27.8879 26.7375 31.8054 26.5625 31.8054 23.4375C31.8054 22.57 31.6554 20.6275 29.5654 20.6275C28.4354 20.6275 27.7704 21.35 27.3829 22.12C26.8604 23.1625 25.6554 23.675 24.5079 23.4725C22.7679 23.1625 21.7004 21.2975 22.4379 19.6925C23.4929 17.4 25.6529 15 29.9304 15C36.8704 15 37.8004 20.435 37.8004 22.99C37.8004 29.03 33.3029 29.255 32.3704 32.735C32.0329 33.99 31.0079 34.9325 29.7079 34.9325ZM33.3129 41.3325C33.3129 42.3625 32.9954 43.2325 32.3579 43.94C31.7179 44.645 30.8804 45 29.8504 45C28.8154 45 27.9804 44.645 27.3429 43.94C26.7054 43.2325 26.3829 42.3625 26.3829 41.3325C26.3829 40.325 26.7054 39.4575 27.3429 38.72C27.9804 37.9875 28.8154 37.6225 29.8504 37.6225C30.8804 37.6225 31.7179 37.9875 32.3579 38.72C32.9954 39.4575 33.3129 40.3275 33.3129 41.3325Z" fill="#4F86EF"/>
</svg>
