<svg width="48" height="48" viewBox="0 0 48 48" fill="none" xmlns="http://www.w3.org/2000/svg">
<g clip-path="url(#clip0_221_2193)">
<path d="M38 30C40.21 30 42 28.21 42 26V22C42 19.79 40.21 18 38 18C40.21 18 42 16.21 42 14V10C42 7.79 40.21 6 38 6H10C7.79 6 6 7.79 6 10V14C6 16.21 7.79 18 10 18C7.79 18 6 19.79 6 22V26C6 28.21 7.79 30 10 30C7.79 30 6 31.79 6 34V38C6 40.21 7.79 42 10 42H31.11C32.496 44.382 35.046 46 38 46C42.418 46 46 42.418 46 38C46 33.582 42.418 30 38 30Z" fill="#D1DCFB"/>
<path d="M42 14V12L10 18H38C40.21 18 42 16.21 42 14Z" fill="url(#paint0_linear_221_2193)"/>
<path d="M24.068 39.3621L10 42.0001H24.588C24.334 41.1521 24.156 40.2701 24.068 39.3621Z" fill="url(#paint1_linear_221_2193)"/>
<path d="M24.782 27.228L10 30H24C24.002 28.996 24.288 28.048 24.782 27.228Z" fill="url(#paint2_linear_221_2193)"/>
<path fill-rule="evenodd" clip-rule="evenodd" d="M34.5269 33.1869L36.146 34.806C37.018 35.678 36.4 37.17 35.166 37.17H29.386C28.622 37.17 28.002 36.55 28.002 35.786V30.006C28.002 28.772 29.494 28.154 30.366 29.026L31.675 30.335C33.3971 28.9267 35.5984 28.0801 38.0001 28.0801C43.5227 28.0801 48.0001 32.5575 48.0001 38.0801C48.0001 43.6026 43.5227 48.0801 38.0001 48.0801C34.6263 48.0801 31.6457 46.409 29.8369 43.8593C29.1978 42.9584 29.41 41.7099 30.3109 41.0708C31.2118 40.4317 32.4602 40.644 33.0993 41.5449C34.1906 43.0831 35.9779 44.0801 38.0001 44.0801C41.3135 44.0801 44.0001 41.3935 44.0001 38.0801C44.0001 34.7666 41.3135 32.0801 38.0001 32.0801C36.7067 32.0801 35.5081 32.4891 34.5269 33.1869Z" fill="url(#paint3_linear_221_2193)"/>
</g>
<defs>
<linearGradient id="paint0_linear_221_2193" x1="26" y1="12" x2="26" y2="18" gradientUnits="userSpaceOnUse">
<stop stop-color="#578FF9"/>
<stop offset="1" stop-color="#2558B9"/>
</linearGradient>
<linearGradient id="paint1_linear_221_2193" x1="17.294" y1="39.3621" x2="17.294" y2="42.0001" gradientUnits="userSpaceOnUse">
<stop stop-color="#578FF9"/>
<stop offset="1" stop-color="#2558B9"/>
</linearGradient>
<linearGradient id="paint2_linear_221_2193" x1="17.391" y1="27.228" x2="17.391" y2="30" gradientUnits="userSpaceOnUse">
<stop stop-color="#578FF9"/>
<stop offset="1" stop-color="#2558B9"/>
</linearGradient>
<linearGradient id="paint3_linear_221_2193" x1="38.001" y1="28.0801" x2="38.001" y2="48.0801" gradientUnits="userSpaceOnUse">
<stop stop-color="#578FF9"/>
<stop offset="1" stop-color="#2558B9"/>
</linearGradient>
<clipPath id="clip0_221_2193">
<rect width="48" height="48" fill="white"/>
</clipPath>
</defs>
</svg>
