<svg width="48" height="48" viewBox="0 0 48 48" fill="none" xmlns="http://www.w3.org/2000/svg">
<path d="M42 14V10C42 7.79 40.21 6 38 6H10C7.79 6 6 7.79 6 10V14C6 16.21 7.79 18 10 18C7.79 18 6 19.79 6 22V26C6 28.21 7.79 30 10 30C7.79 30 6 31.79 6 34V38C6 40.21 7.79 42 10 42H38C40.21 42 42 40.21 42 38V34C42 31.79 40.21 30 38 30C40.21 30 42 28.21 42 26V22C42 19.79 40.21 18 38 18C40.21 18 42 16.21 42 14Z" fill="#D1DCFB"/>
<path d="M47.9968 32.572C48.0588 31.46 47.2788 30.442 46.1808 30.26C41.6148 29.508 41.9668 26 37.0548 26C32.1428 26 32.4948 29.508 27.9288 30.26C26.8308 30.44 26.0508 31.46 26.1128 32.572C26.5828 40.966 29.9428 44.952 37.0548 48C44.1688 44.952 47.5268 40.964 47.9968 32.572Z" fill="url(#paint0_linear_224_2231)"/>
<path d="M42 14V12L10 18H38C40.21 18 42 16.21 42 14Z" fill="url(#paint1_linear_224_2231)"/>
<path d="M23.308 39.5039L10 41.9999H24.296C23.91 41.2139 23.59 40.3759 23.308 39.5039Z" fill="url(#paint2_linear_224_2231)"/>
<path d="M25.004 27.186L10 30H22.63C23.122 28.844 23.94 27.858 25.004 27.186Z" fill="url(#paint3_linear_224_2231)"/>
<defs>
<linearGradient id="paint0_linear_224_2231" x1="37.0548" y1="26" x2="37.0548" y2="48" gradientUnits="userSpaceOnUse">
<stop stop-color="#578FF9"/>
<stop offset="1" stop-color="#265ABB"/>
</linearGradient>
<linearGradient id="paint1_linear_224_2231" x1="26" y1="12" x2="26" y2="18" gradientUnits="userSpaceOnUse">
<stop stop-color="#578FF9"/>
<stop offset="1" stop-color="#265ABB"/>
</linearGradient>
<linearGradient id="paint2_linear_224_2231" x1="17.148" y1="39.5039" x2="17.148" y2="41.9999" gradientUnits="userSpaceOnUse">
<stop stop-color="#578FF9"/>
<stop offset="1" stop-color="#265ABB"/>
</linearGradient>
<linearGradient id="paint3_linear_224_2231" x1="17.502" y1="27.186" x2="17.502" y2="30" gradientUnits="userSpaceOnUse">
<stop stop-color="#578FF9"/>
<stop offset="1" stop-color="#265ABB"/>
</linearGradient>
</defs>
</svg>
