<svg width="254" height="33" viewBox="0 0 254 33" fill="none" xmlns="http://www.w3.org/2000/svg">
<path d="M56.6952 20.9155C56.6952 25.0099 53.3254 28.3128 48.8802 28.3128C44.4351 28.3128 41.0918 25.0765 41.0918 20.9155C41.0918 16.7545 44.4351 13.4996 48.8802 13.4996C53.3254 13.4996 56.6952 16.7914 56.6952 20.9155ZM44.9576 20.9155C44.9576 23.1828 46.5706 24.873 48.7818 24.873C49.3119 24.8761 49.8372 24.7754 50.3268 24.5769C50.8164 24.3783 51.2603 24.086 51.6323 23.7171C52.0043 23.3482 52.2968 22.9102 52.4927 22.429C52.6885 21.9478 52.7837 21.4332 52.7726 20.9155C52.7726 18.6186 51.0725 16.9875 48.8651 16.9875C46.6577 16.9875 44.9728 18.6186 44.9728 20.9155H44.9576Z" fill="#1E1E1E"/>
<path d="M63.272 15.2158C63.8147 14.6615 64.4707 14.225 65.1973 13.9344C65.924 13.6438 66.7051 13.5058 67.4899 13.5292C70.8976 13.5292 73.0974 15.8261 73.0974 19.2548V27.9688H69.19V19.9205C69.19 18.2339 68.2282 17.0689 66.5395 17.0689C64.6123 17.0689 63.3401 18.2339 63.3401 20.2238V27.9688H59.4023V13.777H63.2833L63.272 15.2158Z" fill="#1E1E1E"/>
<path d="M215.258 15.1185C215.801 14.5643 216.457 14.1277 217.184 13.8371C217.91 13.5465 218.691 13.4085 219.476 13.4319C222.884 13.4319 225.084 15.7288 225.084 19.1575V27.8716H221.176V19.8232C221.176 18.1366 220.215 16.9716 218.526 16.9716C216.599 16.9716 215.326 18.1367 215.326 20.1265V27.8716H211.389V13.6798H215.27L215.258 15.1185Z" fill="#1E1E1E"/>
<path d="M90.3777 24.9285C88.9313 27.0294 86.7504 28.3017 83.4942 28.3017C78.8484 28.3017 75.8496 25.1208 75.8496 20.9044C75.8496 16.8099 78.962 13.4885 83.5245 13.4885C88.087 13.4885 90.8851 16.6176 90.8851 20.712C90.8851 21.2631 90.832 21.9844 90.832 22.0657H79.7344C79.9039 22.9299 80.3873 23.7052 81.0955 24.2489C81.8038 24.7925 82.6892 25.0681 83.5888 25.0247C84.3411 25.0532 85.0885 24.8956 85.7617 24.5664C86.4349 24.2373 87.012 23.7473 87.4395 23.1421L90.3777 24.9285ZM79.8707 19.2289H86.9284C86.5043 17.4868 85.0882 16.6398 83.5018 16.6398C82.6838 16.5967 81.8758 16.8308 81.2141 17.3026C80.5525 17.7743 80.078 18.4548 79.8707 19.2289Z" fill="#1E1E1E"/>
<path d="M241.819 24.4995C240.373 26.6003 238.192 27.8727 234.936 27.8727C230.29 27.8727 227.291 24.6918 227.291 20.4753C227.291 16.3809 230.403 13.0595 234.966 13.0595C239.528 13.0595 242.326 16.1886 242.326 20.283C242.326 20.8341 242.273 21.5554 242.273 21.6367H231.176C231.345 22.5009 231.829 23.2762 232.537 23.8198C233.245 24.3635 234.131 24.639 235.03 24.5957C235.782 24.6242 236.53 24.4665 237.203 24.1374C237.876 23.8083 238.453 23.3183 238.881 22.713L241.819 24.4995ZM231.312 18.7998H238.37C237.946 17.0578 236.53 16.2108 234.943 16.2108C234.125 16.1677 233.317 16.4018 232.656 16.8735C231.994 17.3453 231.519 18.0257 231.312 18.7998Z" fill="#1E1E1E"/>
<path d="M173.299 26.6806V32.6281H169.361V13.5651H173.299V14.6747C174.543 13.827 176.032 13.3914 177.547 13.432C178.515 13.4339 179.472 13.6224 180.365 13.9866C181.257 14.3508 182.068 14.8835 182.749 15.5543C183.43 16.2251 183.969 17.0206 184.335 17.8954C184.701 18.7701 184.887 19.7068 184.881 20.6518C184.896 22.5691 184.132 24.4139 182.758 25.7828C181.383 27.1516 179.51 27.9333 177.547 27.9567C176.028 27.9867 174.539 27.5394 173.299 26.6806ZM173.227 20.7332C173.237 21.7521 173.66 22.7257 174.403 23.441C175.146 24.1563 176.148 24.5551 177.191 24.5502C177.963 24.54 178.714 24.3071 179.35 23.881C179.986 23.4548 180.479 22.8544 180.767 22.1552C181.055 21.456 181.125 20.6893 180.968 19.9515C180.81 19.2137 180.433 18.5378 179.884 18.0087C179.335 17.4797 178.637 17.1212 177.88 16.9784C177.122 16.8355 176.339 16.9147 175.627 17.2059C174.915 17.4971 174.308 17.9873 173.881 18.6149C173.454 19.2426 173.226 19.9796 173.227 20.7332Z" fill="#1E1E1E"/>
<path d="M253.553 13.7512V17.1835H249.983V22.8832C249.983 24.1814 250.577 24.6512 251.91 24.6512H253.553V27.943H251.626C247.745 27.943 246.049 26.286 246.049 23.0755V17.1835H243.951V13.7512H246.049V10.1006H249.983V13.7512H253.553Z" fill="#1E1E1E"/>
<path d="M132.777 20.5456C132.777 24.64 129.407 27.9429 124.958 27.9429C120.509 27.9429 117.17 24.7066 117.17 20.5456C117.17 16.3846 120.513 13.1298 124.958 13.1298C129.403 13.1298 132.777 16.4216 132.777 20.5456ZM121.04 20.5456C121.04 22.8129 122.653 24.5032 124.864 24.5032C125.394 24.5063 125.919 24.4055 126.409 24.207C126.898 24.0085 127.342 23.7161 127.714 23.3472C128.086 22.9783 128.379 22.5403 128.575 22.0591C128.77 21.578 128.866 21.0633 128.854 20.5456C128.854 18.2487 127.158 16.6176 124.947 16.6176C122.736 16.6176 121.051 18.2487 121.051 20.5456H121.04Z" fill="#0090F0"/>
<path d="M108.189 24.6771C106.803 26.8963 104.622 28.3018 101.419 28.3018C96.9171 28.3018 93.7441 25.0099 93.7441 20.9044C93.7441 16.7989 96.9171 13.4886 101.419 13.4886C102.792 13.441 104.152 13.7603 105.353 14.4121C106.554 15.0638 107.55 16.0233 108.234 17.1873L105.145 19.0662C104.387 17.8789 103.388 16.9912 101.578 16.9912C99.2835 16.9912 97.7236 18.5706 97.7236 20.8933C97.7236 23.2161 99.2835 24.8213 101.578 24.8213C103.388 24.8213 104.38 23.9373 105.145 22.7464L108.189 24.6771Z" fill="#0090F0"/>
<path d="M186.963 27.9689V9.02057H190.927V27.9689H186.963Z" fill="#1E1E1E"/>
<path d="M110.48 27.9689V9.02057H114.445V27.9689H110.48Z" fill="#0090F0"/>
<path d="M204.657 26.9184C203.415 27.7689 201.926 28.2059 200.409 28.1649C198.466 28.122 196.618 27.3381 195.26 25.9808C193.901 24.6235 193.141 22.8007 193.141 20.9025C193.141 19.0043 193.901 17.1815 195.26 15.8243C196.618 14.467 198.466 13.683 200.409 13.6402C201.928 13.6072 203.418 14.0534 204.657 14.9125V13.777H208.595V27.9688H204.657V26.9184ZM196.926 20.9451C196.915 21.4423 197.006 21.9366 197.194 22.3991C197.381 22.8615 197.661 23.2828 198.017 23.6382C198.373 23.9937 198.798 24.2762 199.268 24.4691C199.737 24.6621 200.241 24.7617 200.75 24.7621C201.269 24.7735 201.785 24.683 202.267 24.4959C202.75 24.3088 203.189 24.029 203.559 23.673C203.929 23.317 204.221 22.8921 204.42 22.4235C204.618 21.9549 204.718 21.4522 204.714 20.9451C204.705 19.9255 204.283 18.9509 203.54 18.2348C202.797 17.5187 201.794 17.1194 200.75 17.1243C200.241 17.1272 199.738 17.2286 199.27 17.4227C198.801 17.6168 198.377 17.8997 198.021 18.255C197.666 18.6103 197.386 19.0311 197.198 19.4928C197.01 19.9546 196.917 20.4482 196.926 20.9451Z" fill="#1E1E1E"/>
<path d="M162.533 26.9184V27.9689H166.471V9.02057H162.533V14.9126C161.294 14.0534 159.804 13.6072 158.285 13.6402C156.342 13.683 154.494 14.467 153.135 15.8243C151.777 17.1816 151.016 19.0044 151.016 20.9025C151.016 22.8007 151.777 24.6235 153.135 25.9808C154.494 27.3381 156.342 28.1221 158.285 28.1649C159.801 28.2059 161.291 27.7689 162.533 26.9184ZM154.801 20.9451C154.793 20.4488 154.885 19.9558 155.073 19.4945C155.26 19.0333 155.54 18.6129 155.894 18.2576C156.249 17.9024 156.673 17.6194 157.14 17.4248C157.608 17.2303 158.11 17.1282 158.618 17.1244C159.662 17.1194 160.665 17.5187 161.408 18.2349C162.151 18.951 162.573 19.9255 162.582 20.9451C162.586 21.4522 162.486 21.9549 162.288 22.4235C162.089 22.8921 161.797 23.317 161.427 23.673C161.057 24.029 160.618 24.3088 160.135 24.4959C159.653 24.683 159.137 24.7735 158.618 24.7621C158.109 24.7608 157.606 24.6604 157.138 24.467C156.67 24.2736 156.245 23.991 155.89 23.6356C155.535 23.2803 155.255 22.8593 155.068 22.3974C154.882 21.9354 154.791 21.4417 154.801 20.9451Z" fill="#0090F0"/>
<mask id="mask0_503_3760" style="mask-type:alpha" maskUnits="userSpaceOnUse" x="0" y="0" width="34" height="33">
<path fill-rule="evenodd" clip-rule="evenodd" d="M28.9566 17.4338C31.4276 15.8059 33.0526 13.0461 33.0526 9.91563C33.0526 4.91096 28.8994 0.853882 23.7761 0.853882C20.5715 0.853882 17.7463 2.4413 16.0798 4.85509L14.9787 3.7795C11.6518 0.529549 6.25772 0.529548 2.93076 3.7795C-0.396192 7.02944 -0.396192 12.2986 2.93076 15.5486L18.1915 30.4561C21.5185 33.7061 26.9125 33.7061 30.2395 30.4561C33.5664 27.2062 33.5664 21.937 30.2395 18.687L28.9566 17.4338Z" fill="#181B2D"/>
</mask>
<g mask="url(#mask0_503_3760)">
<path fill-rule="evenodd" clip-rule="evenodd" d="M28.9566 17.4338C31.4276 15.8059 33.0526 13.0461 33.0526 9.91563C33.0526 4.91096 28.8994 0.853882 23.7761 0.853882C20.5715 0.853882 17.7463 2.4413 16.0798 4.85509L14.9787 3.7795C11.6518 0.529549 6.25772 0.529548 2.93076 3.7795C-0.396192 7.02944 -0.396192 12.2986 2.93076 15.5486L18.1915 30.4561C21.5185 33.7061 26.9125 33.7061 30.2395 30.4561C33.5664 27.2062 33.5664 21.937 30.2395 18.687L28.9566 17.4338Z" fill="#0090F0"/>
<path d="M13.1911 9.64767L13.1895 9.64602C12.7165 9.17004 12.1088 8.84289 11.4443 8.70651C10.7798 8.57013 10.0887 8.63073 9.45965 8.88056L9.65016 9.33829L9.45965 8.88056C8.83062 9.13038 8.2923 9.55804 7.91372 10.1087C7.53513 10.6594 7.33354 11.3079 7.33478 11.9712C7.33602 12.6346 7.54004 13.2824 7.92068 13.8317C8.30132 14.381 8.84124 14.8067 9.4712 15.0543C10.1012 15.3019 10.7925 15.36 11.4565 15.2213C12.1205 15.0825 12.727 14.7532 13.1981 14.2756L13.1981 14.2756L13.2023 14.2713C13.6016 13.8567 14.0824 13.5252 14.6161 13.2964C15.1489 13.0681 15.7233 12.9469 16.305 12.9403L16.7039 12.9403C16.7042 12.9403 16.7046 12.9403 16.705 12.9403C17.3038 12.9431 17.896 13.0633 18.4464 13.2939C18.9972 13.5247 19.4948 13.8612 19.9098 14.2835L19.9097 14.2836L19.917 14.2908L19.9731 14.3455L19.973 14.3456L19.9803 14.3524C20.4126 14.7582 20.7574 15.2444 20.9941 15.7825C21.2306 16.3201 21.3545 16.8985 21.3585 17.4837C21.3585 17.4842 21.3585 17.4847 21.3585 17.4852L21.3585 17.7843C21.3585 17.7848 21.3585 17.7853 21.3585 17.7858C21.3545 18.3709 21.2306 18.9493 20.9941 19.4869C20.7574 20.025 20.4126 20.5113 19.9803 20.917L19.9802 20.917L19.9731 20.924L19.92 20.9758L19.9199 20.9758L19.9136 20.9822C19.4956 21.4056 18.9949 21.7427 18.4412 21.9735C17.8877 22.2043 17.2924 22.3243 16.6906 22.3263C16.6903 22.3263 16.69 22.3263 16.6898 22.3263L16.3973 22.3263C16.3971 22.3263 16.397 22.3263 16.3968 22.3263C15.7945 22.3253 15.1985 22.2062 14.6442 21.9761C14.0897 21.7459 13.5883 21.4092 13.1695 20.9861L13.1683 20.9849C12.6948 20.5097 12.0869 20.1835 11.4224 20.0479C10.7579 19.9124 10.0671 19.9738 9.4385 20.2242C8.80993 20.4746 8.27221 20.9027 7.89426 21.4535C7.5163 22.0043 7.31531 22.6528 7.31705 23.316C7.31878 23.9791 7.52316 24.6266 7.90399 25.1755C8.28483 25.7245 8.82478 26.1498 9.45465 26.3971C10.0845 26.6444 10.7756 26.7023 11.4394 26.5634C12.1032 26.4246 12.7094 26.0953 13.1804 25.6178L13.1805 25.6178L13.1846 25.6136C13.5839 25.199 14.0648 24.8674 14.5984 24.6387C15.1314 24.4102 15.7062 24.2891 16.2882 24.2825C16.2888 24.2825 16.2894 24.2825 16.2901 24.2825L16.6833 24.2811C17.283 24.285 17.8758 24.406 18.4269 24.637C18.9787 24.8683 19.4776 25.2052 19.8941 25.6277L19.894 25.6278L19.9008 25.6344C20.5397 26.2585 21.4062 26.6091 22.3096 26.6091C23.2131 26.6091 24.0796 26.2585 24.7185 25.6344C25.3573 25.0104 25.7163 24.1639 25.7163 23.2814C25.7163 22.3988 25.3573 21.5524 24.7185 20.9283L24.7185 20.9282L24.7116 20.9217C24.2793 20.5152 23.9351 20.0281 23.6993 19.4891C23.4636 18.9504 23.341 18.3709 23.339 17.785C23.339 17.7848 23.3389 17.7846 23.3389 17.7843L23.3389 17.4829C23.3389 17.4826 23.3389 17.4822 23.3389 17.4819C23.342 16.8973 23.4651 16.3193 23.7012 15.7822C23.9372 15.2451 24.2813 14.7598 24.7129 14.3551C25.0428 14.0493 25.3068 13.6822 25.4892 13.2752C25.6719 12.8678 25.7692 12.4288 25.7753 11.984C25.7814 11.5393 25.6962 11.0978 25.5248 10.6858C25.3533 10.2737 25.0991 9.89938 24.7772 9.58487C24.4552 9.27036 24.072 9.02205 23.6502 8.85459L23.4598 9.31235L23.6502 8.85459C23.2284 8.68714 22.7765 8.60393 22.3212 8.60989C21.8659 8.61585 21.4165 8.71086 20.9994 8.88929C20.5829 9.0675 20.207 9.3253 19.8941 9.64753C19.4789 10.0695 18.9814 10.4058 18.4308 10.6366C17.8802 10.8674 17.2877 10.988 16.6886 10.9913C16.6881 10.9913 16.6877 10.9913 16.6873 10.9913L16.3964 10.9913C15.7976 10.9879 15.2055 10.8674 14.6551 10.6368C14.1043 10.406 13.6065 10.0697 13.1911 9.64767Z" fill="white" stroke="white"/>
</g>
<path d="M149.091 13.0994V27.8527H145.247V25.9886C144.757 26.6277 144.112 27.1337 143.312 27.5065C142.53 27.8616 141.676 28.0391 140.749 28.0391C139.568 28.0391 138.523 27.7994 137.614 27.3201C136.706 26.823 135.988 26.104 135.461 25.163C134.952 24.2043 134.697 23.0681 134.697 21.7543V13.0994H138.514V21.2217C138.514 22.3934 138.849 22.9616 139.448 23.6007C140.048 24.2221 140.963 24.5254 141.891 24.3804C142.932 24.2178 143.748 23.8344 144.348 23.2131C144.948 22.5739 145.247 21.6685 145.247 20.4968V13.0994H149.091Z" fill="#0090F0"/>
</svg>
