<svg width="254" height="33" viewBox="0 0 254 33" fill="none" xmlns="http://www.w3.org/2000/svg">
<path d="M56.6952 20.9155C56.6952 25.0099 53.3254 28.3128 48.8802 28.3128C44.4351 28.3128 41.0918 25.0765 41.0918 20.9155C41.0918 16.7545 44.4351 13.4996 48.8802 13.4996C53.3254 13.4996 56.6952 16.7914 56.6952 20.9155ZM44.9576 20.9155C44.9576 23.1828 46.5706 24.873 48.7818 24.873C49.3119 24.8761 49.8372 24.7754 50.3268 24.5769C50.8164 24.3783 51.2603 24.086 51.6323 23.7171C52.0043 23.3482 52.2968 22.9102 52.4927 22.429C52.6885 21.9478 52.7837 21.4332 52.7726 20.9155C52.7726 18.6186 51.0725 16.9875 48.8651 16.9875C46.6577 16.9875 44.9728 18.6186 44.9728 20.9155H44.9576Z" fill="#1E1E1E"/>
<path d="M63.272 15.2158C63.8147 14.6615 64.4707 14.225 65.1973 13.9344C65.924 13.6438 66.7051 13.5058 67.4899 13.5292C70.8976 13.5292 73.0974 15.8261 73.0974 19.2548V27.9688H69.19V19.9205C69.19 18.2339 68.2282 17.0689 66.5395 17.0689C64.6123 17.0689 63.3401 18.2339 63.3401 20.2238V27.9688H59.4023V13.777H63.2833L63.272 15.2158Z" fill="#1E1E1E"/>
<path d="M215.258 15.1185C215.801 14.5643 216.457 14.1277 217.184 13.8371C217.91 13.5465 218.691 13.4085 219.476 13.4319C222.884 13.4319 225.084 15.7288 225.084 19.1575V27.8716H221.176V19.8232C221.176 18.1366 220.215 16.9716 218.526 16.9716C216.599 16.9716 215.326 18.1367 215.326 20.1265V27.8716H211.389V13.6798H215.27L215.258 15.1185Z" fill="#1E1E1E"/>
<path d="M90.3777 24.9285C88.9313 27.0294 86.7504 28.3017 83.4942 28.3017C78.8484 28.3017 75.8496 25.1208 75.8496 20.9044C75.8496 16.8099 78.962 13.4885 83.5245 13.4885C88.087 13.4885 90.8851 16.6176 90.8851 20.712C90.8851 21.2631 90.832 21.9844 90.832 22.0657H79.7344C79.9039 22.9299 80.3873 23.7052 81.0955 24.2489C81.8038 24.7925 82.6892 25.0681 83.5888 25.0247C84.3411 25.0532 85.0885 24.8956 85.7617 24.5664C86.4349 24.2373 87.012 23.7473 87.4395 23.1421L90.3777 24.9285ZM79.8707 19.2289H86.9284C86.5043 17.4868 85.0882 16.6398 83.5018 16.6398C82.6838 16.5967 81.8758 16.8308 81.2141 17.3026C80.5525 17.7743 80.078 18.4548 79.8707 19.2289Z" fill="#1E1E1E"/>
<path d="M241.819 24.4995C240.373 26.6003 238.192 27.8727 234.936 27.8727C230.29 27.8727 227.291 24.6918 227.291 20.4753C227.291 16.3809 230.403 13.0595 234.966 13.0595C239.528 13.0595 242.326 16.1886 242.326 20.283C242.326 20.8341 242.273 21.5554 242.273 21.6367H231.176C231.345 22.5009 231.829 23.2762 232.537 23.8198C233.245 24.3635 234.131 24.639 235.03 24.5957C235.782 24.6242 236.53 24.4665 237.203 24.1374C237.876 23.8083 238.453 23.3183 238.881 22.713L241.819 24.4995ZM231.312 18.7998H238.37C237.946 17.0578 236.53 16.2108 234.943 16.2108C234.125 16.1677 233.317 16.4018 232.656 16.8735C231.994 17.3453 231.519 18.0257 231.312 18.7998Z" fill="#1E1E1E"/>
<path d="M173.298 26.6806V32.6281H169.36V13.5651H173.298V14.6747C174.542 13.827 176.031 13.3914 177.546 13.432C178.514 13.4339 179.471 13.6224 180.364 13.9866C181.256 14.3508 182.067 14.8835 182.748 15.5543C183.429 16.2251 183.969 17.0206 184.334 17.8954C184.7 18.7701 184.886 19.7068 184.88 20.6518C184.895 22.5691 184.131 24.4139 182.757 25.7828C181.382 27.1516 179.509 27.9333 177.546 27.9567C176.027 27.9867 174.538 27.5394 173.298 26.6806ZM173.226 20.7332C173.236 21.7521 173.659 22.7257 174.402 23.441C175.145 24.1563 176.147 24.5551 177.19 24.5502C177.962 24.54 178.713 24.3071 179.349 23.881C179.985 23.4548 180.479 22.8544 180.766 22.1552C181.054 21.456 181.124 20.6893 180.967 19.9515C180.81 19.2137 180.433 18.5378 179.883 18.0087C179.334 17.4797 178.636 17.1212 177.879 16.9784C177.121 16.8355 176.338 16.9147 175.626 17.2059C174.915 17.4971 174.307 17.9873 173.88 18.6149C173.453 19.2426 173.225 19.9796 173.226 20.7332Z" fill="#1E1E1E"/>
<path d="M253.553 13.7512V17.1835H249.983V22.8832C249.983 24.1814 250.577 24.6512 251.91 24.6512H253.553V27.943H251.626C247.745 27.943 246.049 26.286 246.049 23.0755V17.1835H243.951V13.7512H246.049V10.1006H249.983V13.7512H253.553Z" fill="#1E1E1E"/>
<path d="M132.777 20.5456C132.777 24.64 129.407 27.9429 124.958 27.9429C120.509 27.9429 117.17 24.7066 117.17 20.5456C117.17 16.3846 120.513 13.1298 124.958 13.1298C129.403 13.1298 132.777 16.4216 132.777 20.5456ZM121.04 20.5456C121.04 22.8129 122.653 24.5032 124.864 24.5032C125.394 24.5063 125.919 24.4055 126.409 24.207C126.898 24.0085 127.342 23.7161 127.714 23.3472C128.086 22.9783 128.379 22.5403 128.575 22.0591C128.77 21.578 128.866 21.0633 128.854 20.5456C128.854 18.2487 127.158 16.6176 124.947 16.6176C122.736 16.6176 121.051 18.2487 121.051 20.5456H121.04Z" fill="#0090F0"/>
<path d="M108.189 24.6771C106.803 26.8963 104.622 28.3018 101.419 28.3018C96.9171 28.3018 93.7441 25.0099 93.7441 20.9044C93.7441 16.7989 96.9171 13.4886 101.419 13.4886C102.792 13.441 104.152 13.7603 105.353 14.4121C106.554 15.0638 107.55 16.0233 108.234 17.1873L105.145 19.0662C104.387 17.8789 103.388 16.9912 101.578 16.9912C99.2835 16.9912 97.7236 18.5706 97.7236 20.8933C97.7236 23.2161 99.2835 24.8213 101.578 24.8213C103.388 24.8213 104.38 23.9373 105.145 22.7464L108.189 24.6771Z" fill="#0090F0"/>
<path d="M186.963 27.9689V9.02057H190.927V27.9689H186.963Z" fill="#1E1E1E"/>
<path d="M110.479 27.9689V9.02057H114.444V27.9689H110.479Z" fill="#0090F0"/>
<path d="M204.656 26.9184C203.414 27.7689 201.925 28.2059 200.408 28.1649C198.466 28.122 196.617 27.3381 195.259 25.9808C193.9 24.6235 193.14 22.8007 193.14 20.9025C193.14 19.0043 193.9 17.1815 195.259 15.8243C196.617 14.467 198.466 13.683 200.408 13.6402C201.927 13.6072 203.417 14.0534 204.656 14.9125V13.777H208.594V27.9688H204.656V26.9184ZM196.925 20.9451C196.914 21.4423 197.005 21.9366 197.193 22.3991C197.38 22.8615 197.66 23.2828 198.016 23.6382C198.372 23.9937 198.797 24.2762 199.267 24.4691C199.736 24.6621 200.24 24.7617 200.749 24.7621C201.268 24.7735 201.784 24.683 202.267 24.4959C202.749 24.3088 203.188 24.029 203.558 23.673C203.928 23.317 204.22 22.8921 204.419 22.4235C204.617 21.9549 204.717 21.4522 204.713 20.9451C204.704 19.9255 204.282 18.9509 203.539 18.2348C202.796 17.5187 201.793 17.1194 200.749 17.1243C200.24 17.1272 199.737 17.2286 199.269 17.4227C198.8 17.6168 198.376 17.8997 198.021 18.255C197.665 18.6103 197.385 19.0311 197.197 19.4928C197.009 19.9546 196.916 20.4482 196.925 20.9451Z" fill="#1E1E1E"/>
<path d="M162.533 26.9184V27.9689H166.471V9.02057H162.533V14.9126C161.294 14.0534 159.804 13.6072 158.285 13.6402C156.342 13.683 154.494 14.467 153.135 15.8243C151.777 17.1816 151.016 19.0044 151.016 20.9025C151.016 22.8007 151.777 24.6235 153.135 25.9808C154.494 27.3381 156.342 28.1221 158.285 28.1649C159.801 28.2059 161.291 27.7689 162.533 26.9184ZM154.801 20.9451C154.793 20.4488 154.885 19.9558 155.073 19.4945C155.26 19.0333 155.54 18.6129 155.894 18.2576C156.249 17.9024 156.673 17.6194 157.14 17.4248C157.608 17.2303 158.11 17.1282 158.618 17.1244C159.662 17.1194 160.665 17.5187 161.408 18.2349C162.151 18.951 162.573 19.9255 162.582 20.9451C162.586 21.4522 162.486 21.9549 162.288 22.4235C162.089 22.8921 161.797 23.317 161.427 23.673C161.057 24.029 160.618 24.3088 160.135 24.4959C159.653 24.683 159.137 24.7735 158.618 24.7621C158.109 24.7608 157.606 24.6604 157.138 24.467C156.67 24.2736 156.245 23.991 155.89 23.6356C155.535 23.2803 155.255 22.8593 155.068 22.3974C154.882 21.9354 154.791 21.4417 154.801 20.9451Z" fill="#0090F0"/>
<mask id="mask0_831_2457" style="mask-type:alpha" maskUnits="userSpaceOnUse" x="0" y="0" width="34" height="33">
<path fill-rule="evenodd" clip-rule="evenodd" d="M28.9576 17.4338C31.4285 15.8059 33.0536 13.0461 33.0536 9.91563C33.0536 4.91096 28.9004 0.853882 23.7771 0.853882C20.5724 0.853882 17.7473 2.4413 16.0808 4.85509L14.9797 3.7795C11.6528 0.529549 6.2587 0.529548 2.93174 3.7795C-0.395216 7.02944 -0.395215 12.2986 2.93174 15.5486L18.1925 30.4561C21.5195 33.7061 26.9135 33.7061 30.2405 30.4561C33.5674 27.2062 33.5674 21.937 30.2405 18.687L28.9576 17.4338Z" fill="#181B2D"/>
</mask>
<g mask="url(#mask0_831_2457)">
<path fill-rule="evenodd" clip-rule="evenodd" d="M28.9576 17.4338C31.4285 15.8059 33.0536 13.0461 33.0536 9.91563C33.0536 4.91096 28.9004 0.853882 23.7771 0.853882C20.5724 0.853882 17.7473 2.4413 16.0808 4.85509L14.9797 3.7795C11.6528 0.529549 6.2587 0.529548 2.93174 3.7795C-0.395216 7.02944 -0.395215 12.2986 2.93174 15.5486L18.1925 30.4561C21.5195 33.7061 26.9135 33.7061 30.2405 30.4561C33.5674 27.2062 33.5674 21.937 30.2405 18.687L28.9576 17.4338Z" fill="#0090F0"/>
<path d="M13.1921 9.64767L13.1904 9.64602C12.7175 9.17004 12.1098 8.84289 11.4453 8.70651C10.7807 8.57013 10.0897 8.63073 9.46063 8.88056L9.65114 9.33829L9.46063 8.88056C8.83159 9.13038 8.29328 9.55804 7.91469 10.1087C7.53611 10.6594 7.33451 11.3079 7.33576 11.9712C7.337 12.6346 7.54101 13.2824 7.92165 13.8317C8.3023 14.381 8.84221 14.8067 9.47218 15.0543C10.1021 15.3019 10.7934 15.36 11.4575 15.2213C12.1215 15.0825 12.7279 14.7532 13.1991 14.2756L13.1991 14.2756L13.2032 14.2713C13.6025 13.8567 14.0834 13.5252 14.617 13.2964C15.1498 13.0681 15.7243 12.9469 16.306 12.9403L16.7048 12.9403C16.7052 12.9403 16.7056 12.9403 16.7059 12.9403C17.3048 12.9431 17.897 13.0633 18.4474 13.2939C18.9981 13.5247 19.4958 13.8612 19.9108 14.2835L19.9107 14.2836L19.918 14.2908L19.974 14.3455L19.974 14.3456L19.9813 14.3524C20.4136 14.7582 20.7583 15.2444 20.995 15.7825C21.2316 16.3201 21.3555 16.8985 21.3595 17.4837C21.3595 17.4842 21.3595 17.4847 21.3595 17.4852L21.3595 17.7843C21.3595 17.7848 21.3595 17.7853 21.3595 17.7858C21.3555 18.3709 21.2316 18.9493 20.995 19.4869C20.7583 20.025 20.4136 20.5113 19.9813 20.917L19.9812 20.917L19.974 20.924L19.921 20.9758L19.9209 20.9758L19.9145 20.9822C19.4966 21.4056 18.9959 21.7427 18.4421 21.9735C17.8886 22.2043 17.2934 22.3243 16.6916 22.3263C16.6913 22.3263 16.691 22.3263 16.6907 22.3263L16.3983 22.3263C16.3981 22.3263 16.398 22.3263 16.3978 22.3263C15.7955 22.3253 15.1995 22.2062 14.6452 21.9761C14.0907 21.7459 13.5892 21.4092 13.1705 20.9861L13.1693 20.9849C12.6958 20.5097 12.0878 20.1835 11.4233 20.0479C10.7588 19.9124 10.068 19.9738 9.43947 20.2242C8.81091 20.4746 8.27319 20.9027 7.89523 21.4535C7.51727 22.0043 7.31629 22.6528 7.31802 23.316C7.31976 23.9791 7.52413 24.6266 7.90497 25.1755C8.2858 25.7245 8.82575 26.1498 9.45562 26.3971C10.0855 26.6444 10.7766 26.7023 11.4404 26.5634C12.1042 26.4246 12.7104 26.0953 13.1814 25.6178L13.1814 25.6178L13.1855 25.6136C13.5849 25.199 14.0657 24.8674 14.5993 24.6387C15.1324 24.4102 15.7071 24.2891 16.2892 24.2825C16.2898 24.2825 16.2904 24.2825 16.291 24.2825L16.6843 24.2811C17.284 24.285 17.8768 24.406 18.4279 24.637C18.9797 24.8683 19.4786 25.2052 19.8951 25.6277L19.895 25.6278L19.9018 25.6344C20.5406 26.2585 21.4071 26.6091 22.3106 26.6091C23.2141 26.6091 24.0806 26.2585 24.7195 25.6344C25.3583 25.0104 25.7172 24.1639 25.7172 23.2814C25.7172 22.3988 25.3583 21.5524 24.7195 20.9283L24.7195 20.9282L24.7126 20.9217C24.2803 20.5152 23.936 20.0281 23.7002 19.4891C23.4645 18.9504 23.342 18.3709 23.3399 17.785C23.3399 17.7848 23.3399 17.7846 23.3399 17.7843L23.3399 17.4829C23.3399 17.4826 23.3399 17.4822 23.3399 17.4819C23.3429 16.8973 23.4661 16.3193 23.7022 15.7822C23.9382 15.2451 24.2822 14.7598 24.7139 14.3551C25.0438 14.0493 25.3078 13.6822 25.4902 13.2752C25.6729 12.8678 25.7701 12.4288 25.7762 11.984C25.7823 11.5393 25.6972 11.0978 25.5257 10.6858C25.3543 10.2737 25.1001 9.89938 24.7782 9.58487C24.4562 9.27036 24.073 9.02205 23.6512 8.85459L23.4607 9.31235L23.6512 8.85459C23.2293 8.68714 22.7774 8.60393 22.3222 8.60989C21.8669 8.61585 21.4174 8.71086 21.0004 8.88929C20.5838 9.0675 20.208 9.3253 19.8951 9.64753C19.4799 10.0695 18.9823 10.4058 18.4318 10.6366C17.8812 10.8674 17.2887 10.988 16.6895 10.9913C16.6891 10.9913 16.6887 10.9913 16.6883 10.9913L16.3974 10.9913C15.7985 10.9879 15.2065 10.8674 14.6561 10.6368C14.1053 10.406 13.6075 10.0697 13.1921 9.64767Z" fill="white" stroke="white"/>
</g>
<path d="M149.091 13.0994V27.8527H145.247V25.9886C144.757 26.6277 144.112 27.1337 143.312 27.5065C142.53 27.8616 141.676 28.0391 140.749 28.0391C139.568 28.0391 138.523 27.7994 137.614 27.3201C136.706 26.823 135.988 26.104 135.461 25.163C134.952 24.2043 134.697 23.0681 134.697 21.7543V13.0994H138.514V21.2217C138.514 22.3934 138.849 22.9616 139.448 23.6007C140.048 24.2221 140.963 24.5254 141.891 24.3804C142.932 24.2178 143.748 23.8344 144.348 23.2131C144.948 22.5739 145.247 21.6685 145.247 20.4968V13.0994H149.091Z" fill="#0090F0"/>
</svg>
