<svg width="254" height="34" viewBox="0 0 254 34" fill="none" xmlns="http://www.w3.org/2000/svg">
<path d="M56.6952 21.4155C56.6952 25.5099 53.3254 28.8128 48.8802 28.8128C44.4351 28.8128 41.0918 25.5765 41.0918 21.4155C41.0918 17.2545 44.4351 13.9996 48.8802 13.9996C53.3254 13.9996 56.6952 17.2914 56.6952 21.4155ZM44.9576 21.4155C44.9576 23.6828 46.5706 25.373 48.7818 25.373C49.3119 25.3761 49.8372 25.2754 50.3268 25.0769C50.8164 24.8783 51.2603 24.586 51.6323 24.2171C52.0043 23.8482 52.2968 23.4102 52.4927 22.929C52.6885 22.4478 52.7837 21.9332 52.7726 21.4155C52.7726 19.1186 51.0725 17.4875 48.8651 17.4875C46.6577 17.4875 44.9728 19.1186 44.9728 21.4155H44.9576Z" fill="white"/>
<path d="M63.272 15.7158C63.8147 15.1615 64.4707 14.725 65.1973 14.4344C65.924 14.1438 66.7051 14.0058 67.4899 14.0292C70.8976 14.0292 73.0974 16.3261 73.0974 19.7548V28.4688H69.19V20.4205C69.19 18.7339 68.2282 17.5689 66.5395 17.5689C64.6123 17.5689 63.3401 18.7339 63.3401 20.7238V28.4688H59.4023V14.277H63.2833L63.272 15.7158Z" fill="white"/>
<path d="M215.258 15.6185C215.801 15.0643 216.457 14.6277 217.184 14.3371C217.91 14.0465 218.691 13.9085 219.476 13.9319C222.884 13.9319 225.084 16.2288 225.084 19.6575V28.3716H221.176V20.3232C221.176 18.6366 220.215 17.4716 218.526 17.4716C216.599 17.4716 215.326 18.6367 215.326 20.6265V28.3716H211.389V14.1798H215.27L215.258 15.6185Z" fill="white"/>
<path d="M90.3777 25.4285C88.9313 27.5294 86.7504 28.8017 83.4942 28.8017C78.8484 28.8017 75.8496 25.6208 75.8496 21.4044C75.8496 17.3099 78.962 13.9885 83.5245 13.9885C88.087 13.9885 90.8851 17.1176 90.8851 21.212C90.8851 21.7631 90.832 22.4844 90.832 22.5657H79.7344C79.9039 23.4299 80.3873 24.2052 81.0955 24.7489C81.8038 25.2925 82.6892 25.5681 83.5888 25.5247C84.3411 25.5532 85.0885 25.3956 85.7617 25.0664C86.4349 24.7373 87.012 24.2473 87.4395 23.6421L90.3777 25.4285ZM79.8707 19.7289H86.9284C86.5043 17.9868 85.0882 17.1398 83.5018 17.1398C82.6838 17.0967 81.8758 17.3308 81.2141 17.8026C80.5525 18.2743 80.078 18.9548 79.8707 19.7289Z" fill="white"/>
<path d="M241.819 24.9995C240.373 27.1003 238.192 28.3727 234.936 28.3727C230.29 28.3727 227.291 25.1918 227.291 20.9753C227.291 16.8809 230.403 13.5595 234.966 13.5595C239.528 13.5595 242.326 16.6886 242.326 20.783C242.326 21.3341 242.273 22.0554 242.273 22.1367H231.176C231.345 23.0009 231.829 23.7762 232.537 24.3198C233.245 24.8635 234.131 25.139 235.03 25.0957C235.782 25.1242 236.53 24.9665 237.203 24.6374C237.876 24.3083 238.453 23.8183 238.881 23.213L241.819 24.9995ZM231.312 19.2998H238.37C237.946 17.5578 236.53 16.7108 234.943 16.7108C234.125 16.6677 233.317 16.9018 232.656 17.3735C231.994 17.8453 231.519 18.5257 231.312 19.2998Z" fill="white"/>
<path d="M173.298 27.1806V33.1281H169.36V14.0651H173.298V15.1747C174.542 14.327 176.031 13.8914 177.546 13.932C178.514 13.9339 179.471 14.1224 180.364 14.4866C181.256 14.8508 182.067 15.3835 182.748 16.0543C183.429 16.7251 183.969 17.5206 184.334 18.3954C184.7 19.2701 184.886 20.2068 184.88 21.1518C184.895 23.0691 184.131 24.9139 182.757 26.2828C181.382 27.6516 179.509 28.4333 177.546 28.4567C176.027 28.4867 174.538 28.0394 173.298 27.1806ZM173.226 21.2332C173.236 22.2521 173.659 23.2257 174.402 23.941C175.145 24.6563 176.147 25.0551 177.19 25.0502C177.962 25.04 178.713 24.8071 179.349 24.381C179.985 23.9548 180.479 23.3544 180.766 22.6552C181.054 21.956 181.124 21.1893 180.967 20.4515C180.81 19.7137 180.433 19.0378 179.883 18.5087C179.334 17.9797 178.636 17.6212 177.879 17.4784C177.121 17.3355 176.338 17.4147 175.626 17.7059C174.915 17.9971 174.307 18.4873 173.88 19.1149C173.453 19.7426 173.225 20.4796 173.226 21.2332Z" fill="white"/>
<path d="M253.553 14.2512V17.6835H249.983V23.3832C249.983 24.6814 250.577 25.1512 251.91 25.1512H253.553V28.443H251.626C247.745 28.443 246.049 26.786 246.049 23.5755V17.6835H243.951V14.2512H246.049V10.6006H249.983V14.2512H253.553Z" fill="white"/>
<path d="M132.777 21.0456C132.777 25.14 129.407 28.4429 124.958 28.4429C120.509 28.4429 117.17 25.2066 117.17 21.0456C117.17 16.8846 120.513 13.6298 124.958 13.6298C129.403 13.6298 132.777 16.9216 132.777 21.0456ZM121.04 21.0456C121.04 23.3129 122.653 25.0032 124.864 25.0032C125.394 25.0063 125.919 24.9055 126.409 24.707C126.898 24.5085 127.342 24.2161 127.714 23.8472C128.086 23.4783 128.379 23.0403 128.575 22.5591C128.77 22.078 128.866 21.5633 128.854 21.0456C128.854 18.7487 127.158 17.1176 124.947 17.1176C122.736 17.1176 121.051 18.7487 121.051 21.0456H121.04Z" fill="#6DB7F9"/>
<path d="M108.189 25.1771C106.803 27.3963 104.622 28.8018 101.419 28.8018C96.9171 28.8018 93.7441 25.5099 93.7441 21.4044C93.7441 17.2989 96.9171 13.9886 101.419 13.9886C102.792 13.941 104.152 14.2603 105.353 14.9121C106.554 15.5638 107.55 16.5233 108.234 17.6873L105.145 19.5662C104.387 18.3789 103.388 17.4912 101.578 17.4912C99.2835 17.4912 97.7236 19.0706 97.7236 21.3933C97.7236 23.7161 99.2835 25.3213 101.578 25.3213C103.388 25.3213 104.38 24.4373 105.145 23.2464L108.189 25.1771Z" fill="#6DB7F9"/>
<path d="M186.963 28.4689V9.52057H190.927V28.4689H186.963Z" fill="white"/>
<path d="M110.479 28.4689V9.52057H114.444V28.4689H110.479Z" fill="#6DB7F9"/>
<path d="M204.656 27.4184C203.414 28.2689 201.925 28.7059 200.408 28.6649C198.466 28.622 196.617 27.8381 195.259 26.4808C193.9 25.1235 193.14 23.3007 193.14 21.4025C193.14 19.5043 193.9 17.6815 195.259 16.3243C196.617 14.967 198.466 14.183 200.408 14.1402C201.927 14.1072 203.417 14.5534 204.656 15.4125V14.277H208.594V28.4688H204.656V27.4184ZM196.925 21.4451C196.914 21.9423 197.005 22.4366 197.193 22.8991C197.38 23.3615 197.66 23.7828 198.016 24.1382C198.372 24.4937 198.797 24.7762 199.267 24.9691C199.736 25.1621 200.24 25.2617 200.749 25.2621C201.268 25.2735 201.784 25.183 202.267 24.9959C202.749 24.8088 203.188 24.529 203.558 24.173C203.928 23.817 204.22 23.3921 204.419 22.9235C204.617 22.4549 204.717 21.9522 204.713 21.4451C204.704 20.4255 204.282 19.4509 203.539 18.7348C202.796 18.0187 201.793 17.6194 200.749 17.6243C200.24 17.6272 199.737 17.7286 199.269 17.9227C198.8 18.1168 198.376 18.3997 198.021 18.755C197.665 19.1103 197.385 19.5311 197.197 19.9928C197.009 20.4546 196.916 20.9482 196.925 21.4451Z" fill="white"/>
<path d="M162.533 27.4184V28.4689H166.471V9.52057H162.533V15.4126C161.294 14.5534 159.804 14.1072 158.285 14.1402C156.342 14.183 154.494 14.967 153.135 16.3243C151.777 17.6816 151.016 19.5044 151.016 21.4025C151.016 23.3007 151.777 25.1235 153.135 26.4808C154.494 27.8381 156.342 28.6221 158.285 28.6649C159.801 28.7059 161.291 28.2689 162.533 27.4184ZM154.801 21.4451C154.793 20.9488 154.885 20.4558 155.073 19.9945C155.26 19.5333 155.54 19.1129 155.894 18.7576C156.249 18.4024 156.673 18.1194 157.14 17.9248C157.608 17.7303 158.11 17.6282 158.618 17.6244C159.662 17.6194 160.665 18.0187 161.408 18.7349C162.151 19.451 162.573 20.4255 162.582 21.4451C162.586 21.9522 162.486 22.4549 162.288 22.9235C162.089 23.3921 161.797 23.817 161.427 24.173C161.057 24.529 160.618 24.8088 160.135 24.9959C159.653 25.183 159.137 25.2735 158.618 25.2621C158.109 25.2608 157.606 25.1604 157.138 24.967C156.67 24.7736 156.245 24.491 155.89 24.1356C155.535 23.7803 155.255 23.3593 155.068 22.8974C154.882 22.4354 154.791 21.9417 154.801 21.4451Z" fill="#6DB7F9"/>
<mask id="mask0_146_1187" style="mask-type:alpha" maskUnits="userSpaceOnUse" x="0" y="1" width="34" height="33">
<path fill-rule="evenodd" clip-rule="evenodd" d="M28.9576 17.9338C31.4285 16.3059 33.0536 13.5461 33.0536 10.4156C33.0536 5.41096 28.9004 1.35388 23.7771 1.35388C20.5724 1.35388 17.7473 2.9413 16.0808 5.35509L14.9797 4.2795C11.6528 1.02955 6.2587 1.02955 2.93174 4.2795C-0.395216 7.52944 -0.395215 12.7986 2.93174 16.0486L18.1925 30.9561C21.5195 34.2061 26.9135 34.2061 30.2405 30.9561C33.5674 27.7062 33.5674 22.437 30.2405 19.187L28.9576 17.9338Z" fill="#181B2D"/>
</mask>
<g mask="url(#mask0_146_1187)">
<path fill-rule="evenodd" clip-rule="evenodd" d="M28.9576 17.9338C31.4285 16.3059 33.0536 13.5461 33.0536 10.4156C33.0536 5.41096 28.9004 1.35388 23.7771 1.35388C20.5724 1.35388 17.7473 2.9413 16.0808 5.35509L14.9797 4.2795C11.6528 1.02955 6.2587 1.02955 2.93174 4.2795C-0.395216 7.52944 -0.395215 12.7986 2.93174 16.0486L18.1925 30.9561C21.5195 34.2061 26.9135 34.2061 30.2405 30.9561C33.5674 27.7062 33.5674 22.437 30.2405 19.187L28.9576 17.9338Z" fill="#6DB7F9"/>
<path d="M13.1921 10.1477L13.1904 10.146C12.7175 9.67004 12.1098 9.34289 11.4453 9.20651C10.7807 9.07013 10.0897 9.13073 9.46063 9.38056L9.65114 9.83829L9.46063 9.38056C8.83159 9.63038 8.29328 10.058 7.91469 10.6087C7.53611 11.1594 7.33451 11.8079 7.33576 12.4712C7.337 13.1346 7.54101 13.7824 7.92165 14.3317C8.3023 14.881 8.84221 15.3067 9.47218 15.5543C10.1021 15.8019 10.7934 15.86 11.4575 15.7213C12.1215 15.5825 12.7279 15.2532 13.1991 14.7756L13.1991 14.7756L13.2032 14.7713C13.6025 14.3567 14.0834 14.0252 14.617 13.7964C15.1498 13.5681 15.7243 13.4469 16.306 13.4403L16.7048 13.4403C16.7052 13.4403 16.7056 13.4403 16.7059 13.4403C17.3048 13.4431 17.897 13.5633 18.4474 13.7939C18.9981 14.0247 19.4958 14.3612 19.9108 14.7835L19.9107 14.7836L19.918 14.7908L19.974 14.8455L19.974 14.8456L19.9813 14.8524C20.4136 15.2582 20.7583 15.7444 20.995 16.2825C21.2316 16.8201 21.3555 17.3985 21.3595 17.9837C21.3595 17.9842 21.3595 17.9847 21.3595 17.9852L21.3595 18.2843C21.3595 18.2848 21.3595 18.2853 21.3595 18.2858C21.3555 18.8709 21.2316 19.4493 20.995 19.9869C20.7583 20.525 20.4136 21.0113 19.9813 21.417L19.9812 21.417L19.974 21.424L19.921 21.4758L19.9209 21.4758L19.9145 21.4822C19.4966 21.9056 18.9959 22.2427 18.4421 22.4735C17.8886 22.7043 17.2934 22.8243 16.6916 22.8263C16.6913 22.8263 16.691 22.8263 16.6907 22.8263L16.3983 22.8263C16.3981 22.8263 16.398 22.8263 16.3978 22.8263C15.7955 22.8253 15.1995 22.7062 14.6452 22.4761C14.0907 22.2459 13.5892 21.9092 13.1705 21.4861L13.1693 21.4849C12.6958 21.0097 12.0878 20.6835 11.4233 20.5479C10.7588 20.4124 10.068 20.4738 9.43947 20.7242C8.81091 20.9746 8.27319 21.4027 7.89523 21.9535C7.51727 22.5043 7.31629 23.1528 7.31802 23.816C7.31976 24.4791 7.52413 25.1266 7.90497 25.6755C8.2858 26.2245 8.82575 26.6498 9.45562 26.8971C10.0855 27.1444 10.7766 27.2023 11.4404 27.0634C12.1042 26.9246 12.7104 26.5953 13.1814 26.1178L13.1814 26.1178L13.1855 26.1136C13.5849 25.699 14.0657 25.3674 14.5993 25.1387C15.1324 24.9102 15.7071 24.7891 16.2892 24.7825C16.2898 24.7825 16.2904 24.7825 16.291 24.7825L16.6843 24.7811C17.284 24.785 17.8768 24.906 18.4279 25.137C18.9797 25.3683 19.4786 25.7052 19.8951 26.1277L19.895 26.1278L19.9018 26.1344C20.5406 26.7585 21.4071 27.1091 22.3106 27.1091C23.2141 27.1091 24.0806 26.7585 24.7195 26.1344C25.3583 25.5104 25.7172 24.6639 25.7172 23.7814C25.7172 22.8988 25.3583 22.0524 24.7195 21.4283L24.7195 21.4282L24.7126 21.4217C24.2803 21.0152 23.936 20.5281 23.7002 19.9891C23.4645 19.4504 23.342 18.8709 23.3399 18.285C23.3399 18.2848 23.3399 18.2846 23.3399 18.2843L23.3399 17.9829C23.3399 17.9826 23.3399 17.9822 23.3399 17.9819C23.3429 17.3973 23.4661 16.8193 23.7022 16.2822C23.9382 15.7451 24.2822 15.2598 24.7139 14.8551C25.0438 14.5493 25.3078 14.1822 25.4902 13.7752C25.6729 13.3678 25.7701 12.9288 25.7762 12.484C25.7823 12.0393 25.6972 11.5978 25.5257 11.1858C25.3543 10.7737 25.1001 10.3994 24.7782 10.0849C24.4562 9.77036 24.073 9.52205 23.6512 9.35459L23.4607 9.81235L23.6512 9.35459C23.2293 9.18714 22.7774 9.10393 22.3222 9.10989C21.8669 9.11585 21.4174 9.21086 21.0004 9.38929C20.5838 9.5675 20.208 9.8253 19.8951 10.1475C19.4799 10.5695 18.9823 10.9058 18.4318 11.1366C17.8812 11.3674 17.2887 11.488 16.6895 11.4913C16.6891 11.4913 16.6887 11.4913 16.6883 11.4913L16.3974 11.4913C15.7985 11.4879 15.2065 11.3674 14.6561 11.1368C14.1053 10.906 13.6075 10.5697 13.1921 10.1477Z" fill="#2457B8" stroke="#2457B8"/>
</g>
<path d="M149.091 13.5994V28.3527H145.247V26.4886C144.757 27.1277 144.112 27.6337 143.312 28.0065C142.53 28.3616 141.676 28.5391 140.749 28.5391C139.568 28.5391 138.523 28.2994 137.614 27.8201C136.706 27.323 135.988 26.604 135.461 25.663C134.952 24.7043 134.697 23.5681 134.697 22.2543V13.5994H138.514V21.7217C138.514 22.8934 138.849 23.4616 139.448 24.1007C140.048 24.7221 140.963 25.0254 141.891 24.8804C142.932 24.7178 143.748 24.3344 144.348 23.7131C144.948 23.0739 145.247 22.1685 145.247 20.9968V13.5994H149.091Z" fill="#6DB7F9"/>
</svg>
