<svg width="224" height="36" viewBox="0 0 224 36" fill="none" xmlns="http://www.w3.org/2000/svg">
<path d="M58.1967 17.907C58.1967 21.4056 55.3686 24.2278 51.638 24.2278C47.9074 24.2278 45.1016 21.4624 45.1016 17.907C45.1016 14.3516 47.9074 11.5705 51.638 11.5705C55.3686 11.5705 58.1967 14.3832 58.1967 17.907ZM48.3459 17.907C48.3459 19.8443 49.6996 21.2886 51.5554 21.2886C52.0003 21.2913 52.4411 21.2052 52.852 21.0356C53.2629 20.8659 53.6354 20.6161 53.9476 20.3009C54.2598 19.9857 54.5054 19.6114 54.6697 19.2003C54.8341 18.7891 54.914 18.3494 54.9046 17.907C54.9046 15.9444 53.4779 14.5507 51.6253 14.5507C49.7727 14.5507 48.3587 15.9444 48.3587 17.907H48.3459Z" fill="white"/>
<path d="M63.7153 13.0368C64.1708 12.5631 64.7214 12.1901 65.3312 11.9418C65.9411 11.6935 66.5966 11.5756 67.2553 11.5956C70.1151 11.5956 71.9614 13.5582 71.9614 16.4879V23.9337H68.682V17.0567C68.682 15.6156 67.8749 14.6201 66.4577 14.6201C64.8402 14.6201 63.7725 15.6156 63.7725 17.3159V23.9337H60.4678V11.8074H63.7249L63.7153 13.0368Z" fill="white"/>
<path d="M191.27 12.9539C191.726 12.4803 192.276 12.1073 192.886 11.859C193.496 11.6107 194.151 11.4928 194.81 11.5128C197.67 11.5128 199.516 13.4754 199.516 16.4051V23.8509H196.237V16.9739C196.237 15.5328 195.43 14.5373 194.012 14.5373C192.395 14.5373 191.327 15.5328 191.327 17.2331V23.8509H188.022V11.7246H191.28L191.27 12.9539Z" fill="white"/>
<path d="M86.4661 21.3357C85.2522 23.1308 83.4219 24.2179 80.6891 24.2179C76.7901 24.2179 74.2734 21.5 74.2734 17.8972C74.2734 14.3987 76.8855 11.5607 80.7146 11.5607C84.5436 11.5607 86.8919 14.2343 86.8919 17.7329C86.8919 18.2038 86.8474 18.82 86.8474 18.8896H77.5337C77.676 19.628 78.0817 20.2904 78.6761 20.755C79.2705 21.2195 80.0135 21.4549 80.7686 21.4179C81.3999 21.4422 82.0271 21.3075 82.5921 21.0263C83.1571 20.7451 83.6415 20.3264 84.0003 19.8092L86.4661 21.3357ZM77.6481 16.4656H83.5713C83.2154 14.977 82.0269 14.2533 80.6955 14.2533C80.009 14.2165 79.3309 14.4165 78.7756 14.8196C78.2204 15.2227 77.8221 15.8041 77.6481 16.4656Z" fill="white"/>
<path d="M213.563 20.9695C212.349 22.7646 210.519 23.8518 207.786 23.8518C203.887 23.8518 201.37 21.1339 201.37 17.5311C201.37 14.0325 203.982 11.1945 207.811 11.1945C211.64 11.1945 213.989 13.8682 213.989 17.3667C213.989 17.8376 213.944 18.4539 213.944 18.5234H204.63C204.773 19.2618 205.178 19.9242 205.773 20.3888C206.367 20.8534 207.11 21.0888 207.865 21.0517C208.497 21.0761 209.124 20.9414 209.689 20.6601C210.254 20.3789 210.738 19.9603 211.097 19.4431L213.563 20.9695ZM204.745 16.0994H210.668C210.312 14.6109 209.124 13.8871 207.792 13.8871C207.106 13.8503 206.428 14.0504 205.872 14.4535C205.317 14.8566 204.919 15.438 204.745 16.0994Z" fill="white"/>
<path d="M156.059 22.8333V27.9152H152.754V11.6266H156.059V12.5747C157.102 11.8504 158.352 11.4782 159.624 11.5128C160.436 11.5145 161.239 11.6755 161.989 11.9867C162.738 12.2979 163.418 12.7531 163.989 13.3263C164.561 13.8994 165.014 14.5792 165.321 15.3266C165.628 16.0741 165.784 16.8745 165.779 17.6819C165.791 19.3201 165.15 20.8964 163.997 22.0661C162.843 23.2357 161.271 23.9036 159.624 23.9236C158.349 23.9493 157.099 23.5671 156.059 22.8333ZM155.998 17.7514C156.007 18.6221 156.361 19.454 156.985 20.0652C157.608 20.6764 158.45 21.0171 159.325 21.0129C159.973 21.0042 160.603 20.8052 161.137 20.4411C161.671 20.077 162.085 19.5639 162.326 18.9665C162.568 18.3691 162.626 17.7139 162.494 17.0835C162.363 16.4531 162.046 15.8755 161.585 15.4235C161.124 14.9715 160.539 14.6651 159.903 14.5431C159.267 14.421 158.61 14.4887 158.012 14.7375C157.415 14.9863 156.905 15.4052 156.547 15.9415C156.189 16.4778 155.998 17.1075 155.998 17.7514Z" fill="white"/>
<path d="M223.413 11.7853V14.7181H220.416V19.5883C220.416 20.6975 220.915 21.0989 222.034 21.0989H223.413V23.9116H221.796C218.539 23.9116 217.115 22.4958 217.115 19.7526V14.7181H215.354V11.7853H217.115V8.66602H220.416V11.7853H223.413Z" fill="white"/>
<path d="M122.051 17.5909C122.051 21.0895 119.223 23.9117 115.49 23.9117C111.756 23.9117 108.953 21.1463 108.953 17.5909C108.953 14.0355 111.759 11.2544 115.49 11.2544C119.22 11.2544 122.051 14.0671 122.051 17.5909ZM112.201 17.5909C112.201 19.5282 113.554 20.9725 115.41 20.9725C115.855 20.9752 116.296 20.8891 116.707 20.7195C117.118 20.5498 117.49 20.3 117.802 19.9848C118.115 19.6696 118.36 19.2953 118.524 18.8842C118.689 18.473 118.769 18.0333 118.759 17.5909C118.759 15.6283 117.336 14.2346 115.48 14.2346C113.624 14.2346 112.21 15.6283 112.21 17.5909H112.201Z" fill="#6DB7F9"/>
<path d="M101.412 21.1211C100.249 23.0174 98.4185 24.2183 95.7302 24.2183C91.9519 24.2183 89.2891 21.4056 89.2891 17.8976C89.2891 14.3896 91.9519 11.561 95.7302 11.561C96.8825 11.5204 98.0241 11.7932 99.032 12.3501C100.04 12.907 100.876 13.7269 101.45 14.7214L98.857 16.3269C98.2214 15.3124 97.3826 14.5539 95.8636 14.5539C93.938 14.5539 92.6288 15.9034 92.6288 17.8881C92.6288 19.8728 93.938 21.2444 95.8636 21.2444C97.3826 21.2444 98.2151 20.4891 98.857 19.4714L101.412 21.1211Z" fill="#6DB7F9"/>
<path d="M167.524 23.9337V7.74316H170.852V23.9337H167.524Z" fill="white"/>
<path d="M103.336 23.9337V7.74316H106.664V23.9337H103.336Z" fill="#6DB7F9"/>
<path d="M182.371 23.0363C181.329 23.7629 180.079 24.1364 178.806 24.1013C177.176 24.0647 175.625 23.3949 174.484 22.2351C173.344 21.0754 172.706 19.5179 172.706 17.8959C172.706 16.274 173.344 14.7165 174.484 13.5567C175.625 12.397 177.176 11.7271 178.806 11.6905C180.081 11.6624 181.331 12.0436 182.371 12.7777V11.8075H185.676V23.9338H182.371V23.0363ZM175.883 17.9323C175.874 18.3571 175.95 18.7795 176.108 19.1747C176.265 19.5698 176.5 19.9297 176.799 20.2335C177.098 20.5372 177.454 20.7786 177.848 20.9434C178.242 21.1083 178.665 21.1934 179.092 21.1938C179.528 21.2035 179.961 21.1262 180.366 20.9663C180.771 20.8065 181.139 20.5673 181.45 20.2632C181.76 19.959 182.006 19.5959 182.172 19.1955C182.339 18.7951 182.423 18.3656 182.419 17.9323C182.412 17.0611 182.057 16.2284 181.434 15.6165C180.81 15.0046 179.968 14.6634 179.092 14.6676C178.665 14.6701 178.243 14.7567 177.85 14.9225C177.457 15.0884 177.101 15.3301 176.802 15.6337C176.504 15.9373 176.269 16.2968 176.111 16.6914C175.953 17.0859 175.876 17.5077 175.883 17.9323Z" fill="white"/>
<path d="M147.023 23.0362V23.9337H150.328V7.74316H147.023V12.7776C145.983 12.0435 144.733 11.6623 143.458 11.6905C141.828 11.7271 140.276 12.3969 139.136 13.5567C137.996 14.7164 137.358 16.2739 137.358 17.8958C137.358 19.5178 137.996 21.0753 139.136 22.235C140.276 23.3948 141.828 24.0646 143.458 24.1012C144.731 24.1363 145.981 23.7629 147.023 23.0362ZM140.535 17.9322C140.527 17.5082 140.605 17.0869 140.762 16.6928C140.92 16.2986 141.154 15.9394 141.452 15.6359C141.75 15.3323 142.105 15.0905 142.497 14.9243C142.89 14.7581 143.311 14.6708 143.738 14.6675C144.614 14.6633 145.456 15.0045 146.079 15.6164C146.703 16.2283 147.057 17.061 147.065 17.9322C147.068 18.3655 146.984 18.7951 146.818 19.1955C146.651 19.5959 146.405 19.9589 146.095 20.2631C145.785 20.5673 145.416 20.8064 145.011 20.9662C144.606 21.1261 144.173 21.2034 143.738 21.1937C143.311 21.1925 142.889 21.1068 142.496 20.9415C142.103 20.7763 141.746 20.5348 141.448 20.2311C141.15 19.9275 140.916 19.5678 140.759 19.1731C140.602 18.7784 140.526 18.3565 140.535 17.9322Z" fill="#6DB7F9"/>
<path d="M135.74 11.2284V23.8345H132.514V22.2416C132.103 22.7878 131.561 23.2201 130.89 23.5387C130.234 23.8421 129.517 23.9937 128.739 23.9937C127.748 23.9937 126.871 23.789 126.108 23.3794C125.346 22.9546 124.743 22.3402 124.301 21.5362C123.874 20.7171 123.66 19.7462 123.66 18.6237V11.2284H126.863V18.1686C126.863 19.1698 127.144 19.6552 127.647 20.2013C128.151 20.7322 128.919 20.9914 129.698 20.8675C130.571 20.7286 131.256 20.401 131.759 19.8701C132.263 19.324 132.514 18.5503 132.514 17.5491V11.2284H135.74Z" fill="#6DB7F9"/>
<path d="M16.0437 1.15018C17.2796 0.438234 18.8011 0.438234 20.037 1.15018L31.6604 7.84595C32.8999 8.55997 33.6638 9.88154 33.6638 11.312V24.688C33.6638 26.1185 32.8999 27.44 31.6604 28.1541L20.037 34.8498C18.8011 35.5618 17.2796 35.5618 16.0437 34.8498L4.42031 28.1541C3.18081 27.44 2.41695 26.1185 2.41695 24.688V11.312C2.41695 9.88154 3.18081 8.55997 4.42031 7.84595L16.0437 1.15018Z" fill="#0090F0"/>
<g opacity="0.5">
<path fill-rule="evenodd" clip-rule="evenodd" d="M28.5152 17.6298C28.5152 17.6965 28.5144 17.7624 28.5128 17.8275C29.3902 18.7688 30.0267 20.2923 30.0267 21.6055C30.0267 23.2249 29.0588 23.9111 27.8649 23.1384C27.8084 23.1018 27.7525 23.0627 27.6972 23.0211L24.4959 20.9491C24.3771 20.8853 24.2569 20.8143 24.1356 20.7358C24.0144 20.6573 23.8942 20.5728 23.7754 20.4828L18.8709 17.3084C18.7788 17.2607 18.6854 17.2063 18.591 17.1452C16.9783 16.1014 15.6709 13.4821 15.6709 11.2948C15.6709 9.10749 16.9783 8.18052 18.591 9.22433C19.0649 9.53104 19.5124 9.97376 19.9081 10.5016C20.4125 8.30249 22.1141 7.54604 24.1356 8.85445C26.5544 10.42 28.5152 14.3488 28.5152 17.6298Z" fill="url(#paint0_linear_1378_5686)"/>
</g>
<path fill-rule="evenodd" clip-rule="evenodd" d="M23.7961 21.0057C23.7961 21.0733 23.7952 21.14 23.7936 21.2059C24.67 22.1474 25.3056 23.6696 25.3056 24.9818C25.3056 26.6012 24.3376 27.2875 23.1437 26.5147C23.0906 26.4803 23.0379 26.4436 22.9858 26.4048L19.7517 24.3116C19.641 24.2513 19.5293 24.1847 19.4165 24.1117C19.3037 24.0387 19.1919 23.9606 19.0813 23.8776L14.1441 20.6821C14.0536 20.635 13.962 20.5815 13.8693 20.5215C12.2566 19.4777 10.9492 16.8584 10.9492 14.6711C10.9492 12.4838 12.2566 11.5568 13.8693 12.6007C14.3439 12.9078 14.7921 13.3515 15.1882 13.8804C15.6919 11.6791 17.3941 10.9214 19.4165 12.2304C21.8352 13.7959 23.7961 17.7248 23.7961 21.0057Z" fill="url(#paint1_linear_1378_5686)"/>
<path fill-rule="evenodd" clip-rule="evenodd" d="M18.486 24.4803C18.486 24.5472 18.4851 24.6133 18.4835 24.6787C19.3607 25.62 19.997 27.1432 19.997 28.4561C19.997 30.0755 19.0291 30.7618 17.8351 29.989C17.7795 29.953 17.7245 29.9145 17.67 29.8737L14.4606 27.7965C14.3438 27.7335 14.2256 27.6635 14.1064 27.5863C13.9871 27.5091 13.869 27.4262 13.7521 27.3379L8.84261 24.1603C8.74984 24.1123 8.65581 24.0576 8.56071 23.996C6.94799 22.9522 5.64062 20.3329 5.64062 18.1456C5.64062 15.9583 6.94799 15.0313 8.56071 16.0751C9.03487 16.382 9.48263 16.8251 9.87852 17.3534C10.3826 15.1533 12.0845 14.3964 14.1064 15.705C16.5251 17.2705 18.486 21.1994 18.486 24.4803Z" fill="white"/>
<defs>
<linearGradient id="paint0_linear_1378_5686" x1="29.8261" y1="10.6877" x2="15.3111" y2="6.92104" gradientUnits="userSpaceOnUse">
<stop stop-color="#B8E2FF"/>
<stop offset="1" stop-color="#B8E2FF" stop-opacity="0"/>
</linearGradient>
<linearGradient id="paint1_linear_1378_5686" x1="25.105" y1="14.0623" x2="10.5894" y2="10.2954" gradientUnits="userSpaceOnUse">
<stop stop-color="#B8E2FF"/>
<stop offset="1" stop-color="#B8E2FF" stop-opacity="0"/>
</linearGradient>
</defs>
</svg>
