<svg width="48" height="48" viewBox="0 0 48 48" fill="none" xmlns="http://www.w3.org/2000/svg">
<path d="M42 12V35.374H6V12C6 8.7 8.7 6 12 6H36C39.3 6 42 8.7 42 12Z" fill="#D1DCFB"/>
<path d="M42 34V36C42 39.32 39.32 42 36 42H12C8.68 42 6 39.32 6 36V34H42Z" fill="url(#paint0_linear_146_1286)"/>
<path d="M16 18H14C12.896 18 12 17.104 12 16V14C12 12.896 12.896 12 14 12H16C17.104 12 18 12.896 18 14V16C18 17.104 17.104 18 16 18Z" fill="url(#paint1_linear_146_1286)"/>
<path d="M16 28H14C12.896 28 12 27.104 12 26V24C12 22.896 12.896 22 14 22H16C17.104 22 18 22.896 18 24V26C18 27.104 17.104 28 16 28Z" fill="url(#paint2_linear_146_1286)"/>
<defs>
<linearGradient id="paint0_linear_146_1286" x1="24" y1="34" x2="24" y2="42" gradientUnits="userSpaceOnUse">
<stop stop-color="#568EF8"/>
<stop offset="1" stop-color="#275ABB"/>
</linearGradient>
<linearGradient id="paint1_linear_146_1286" x1="15" y1="12" x2="15" y2="18" gradientUnits="userSpaceOnUse">
<stop stop-color="#568EF8"/>
<stop offset="1" stop-color="#275ABB"/>
</linearGradient>
<linearGradient id="paint2_linear_146_1286" x1="15" y1="22" x2="15" y2="28" gradientUnits="userSpaceOnUse">
<stop stop-color="#568EF8"/>
<stop offset="1" stop-color="#275ABB"/>
</linearGradient>
</defs>
</svg>
