<svg width="48" height="48" viewBox="0 0 48 48" fill="none" xmlns="http://www.w3.org/2000/svg">
<path d="M44.0178 38.4298L39.584 34.4384C38.4459 33.4136 36.6299 34.2207 36.6299 35.7535V37.0899H20.6999C13.8695 37.0899 8.30998 31.5303 8.30998 24.6999C8.30998 17.8695 13.8695 12.31 20.6999 12.31C22.1655 12.31 23.3549 11.1205 23.3549 9.65499C23.3549 8.18944 22.1655 7 20.6999 7C10.9402 7 3 14.9402 3 24.6999C3 34.4597 10.9402 42.3999 20.6999 42.3999H36.6299V43.7362C36.6299 45.269 38.4459 46.0779 39.584 45.0513L44.0178 41.06C44.7984 40.3573 44.7984 39.1325 44.0178 38.4298Z" fill="#D1DCFB"/>
<path d="M22.6999 6.686V5.25939C22.6999 3.72658 20.8839 2.91769 19.7458 3.94429L15.312 7.93562C14.5314 8.63831 14.5314 9.86314 15.312 10.5658L19.7458 14.5572C20.8839 15.582 22.6999 14.7749 22.6999 13.2421V12.0473C28.6931 12.9111 33.3199 18.0671 33.3199 24.2957C33.3199 31.1261 27.7603 36.6856 20.9299 36.6856H7.65499C6.18944 36.6856 5 37.875 5 39.3406C5 40.8062 6.18944 41.9956 7.65499 41.9956H20.9299C30.6897 41.9956 38.6299 34.0554 38.6299 24.2957C38.6299 15.1342 31.6313 7.57631 22.6999 6.686Z" fill="url(#paint0_linear_146_1279)"/>
<defs>
<linearGradient id="paint0_linear_146_1279" x1="21.8149" y1="3.4856" x2="21.8149" y2="41.9956" gradientUnits="userSpaceOnUse">
<stop stop-color="#578FF9"/>
<stop offset="1" stop-color="#2457B8"/>
</linearGradient>
</defs>
</svg>
