<svg width="48" height="48" viewBox="0 0 48 48" fill="none" xmlns="http://www.w3.org/2000/svg">
<path d="M40.6801 11.74C32.3401 10.38 32.9801 4 24.0001 4C15.0201 4 15.6601 10.38 7.32009 11.74C5.32009 12.08 3.90009 13.92 4.00009 15.94C4.86009 31.2 11.0001 38.46 24.0001 44C37.0001 38.46 43.1401 31.2 44.0001 15.94C44.1001 13.92 42.6801 12.08 40.6801 11.74Z" fill="#D1DCFB"/>
<path d="M24 12C17.382 12 12 17.382 12 24C12 30.618 17.382 36 24 36C30.618 36 36 30.618 36 24C36 17.382 30.618 12 24 12ZM24 32V30C24 28.896 23.104 28 22 28H20V26C20 24.9 19.1 24 18 24H16C16 19.588 19.588 16 24 16V19C24 20.656 25.344 22 27 22H29C29.56 22 30 22.44 30 23C30 23.56 29.56 24 29 24H28C26.9 24 26 24.9 26 26C26 27.1 26.9 28 28 28H30.888C29.5 30.38 26.948 32 24 32Z" fill="url(#paint0_linear_146_1622)"/>
<defs>
<linearGradient id="paint0_linear_146_1622" x1="24" y1="12" x2="24" y2="36" gradientUnits="userSpaceOnUse">
<stop stop-color="#4F86EE"/>
<stop offset="1" stop-color="#275ABB"/>
</linearGradient>
</defs>
</svg>
