<svg width="48" height="48" viewBox="0 0 48 48" fill="none" xmlns="http://www.w3.org/2000/svg">
<g clip-path="url(#clip0_146_1630)">
<path d="M41 10C40.228 10 7.772 10 7 10C5.344 10 4 11.344 4 13C4 14.656 5.344 16 7 16C7.772 16 40.228 16 41 16C42.656 16 44 14.656 44 13C44 11.344 42.656 10 41 10Z" fill="url(#paint0_linear_146_1630)"/>
<path d="M8 16L15.218 24.662C17.016 26.818 18 29.538 18 32.344V43.152C18 45.108 19.414 46.776 21.342 47.098L26.506 47.958C28.336 48.264 30 46.854 30 45V32.346C30 29.538 30.984 26.82 32.782 24.664L40 16H8Z" fill="#D1DCFB"/>
<path d="M21.6942 1.8L17.9722 5.592C17.4362 6.136 16.5642 6.136 16.0302 5.592L12.3062 1.8C11.6502 1.132 12.1182 0 13.0482 0H20.9502C21.8822 0 22.3502 1.132 21.6942 1.8Z" fill="url(#paint1_linear_146_1630)"/>
<path d="M26.3061 4.2L30.0301 0.408C30.5661 -0.136 31.4381 -0.136 31.9721 0.408L35.6941 4.2C36.3501 4.868 35.8821 6 34.9521 6H27.0501C26.1181 6 25.6501 4.868 26.3061 4.2Z" fill="url(#paint2_linear_146_1630)"/>
</g>
<defs>
<linearGradient id="paint0_linear_146_1630" x1="24" y1="10" x2="24" y2="16" gradientUnits="userSpaceOnUse">
<stop stop-color="#4F85ED"/>
<stop offset="1" stop-color="#295CBD"/>
</linearGradient>
<linearGradient id="paint1_linear_146_1630" x1="17.0001" y1="0" x2="17.0001" y2="6" gradientUnits="userSpaceOnUse">
<stop stop-color="#4F85ED"/>
<stop offset="1" stop-color="#295CBD"/>
</linearGradient>
<linearGradient id="paint2_linear_146_1630" x1="31.0001" y1="0" x2="31.0001" y2="6" gradientUnits="userSpaceOnUse">
<stop stop-color="#4F85ED"/>
<stop offset="1" stop-color="#295CBD"/>
</linearGradient>
<clipPath id="clip0_146_1630">
<rect width="48" height="48" fill="white"/>
</clipPath>
</defs>
</svg>
