<svg width="48" height="48" viewBox="0 0 48 48" fill="none" xmlns="http://www.w3.org/2000/svg">
<path d="M14.7998 16.3999H4.7998C2.5898 16.3999 0.799805 14.6099 0.799805 12.3999V6.3999C0.799805 4.1899 2.5898 2.3999 4.7998 2.3999H14.7998C17.0098 2.3999 18.7998 4.1899 18.7998 6.3999V12.3999C18.7998 14.6099 17.0098 16.3999 14.7998 16.3999Z" fill="#D1DCFB"/>
<path d="M43.2002 46.3999H33.2002C30.9902 46.3999 29.2002 44.6099 29.2002 42.3999V36.3999C29.2002 34.1899 30.9902 32.3999 33.2002 32.3999H43.2002C45.4102 32.3999 47.2002 34.1899 47.2002 36.3999V42.3999C47.2002 44.6099 45.4102 46.3999 43.2002 46.3999Z" fill="#D1DCFB"/>
<path d="M9.7998 26.3999C11.4567 26.3999 12.7998 25.0568 12.7998 23.3999C12.7998 21.743 11.4567 20.3999 9.7998 20.3999C8.14295 20.3999 6.7998 21.743 6.7998 23.3999C6.7998 25.0568 8.14295 26.3999 9.7998 26.3999Z" fill="url(#paint0_linear_146_1560)"/>
<path d="M22.2002 42C23.857 42 25.2002 40.6569 25.2002 39C25.2002 37.3431 23.857 36 22.2002 36C20.5433 36 19.2002 37.3431 19.2002 39C19.2002 40.6569 20.5433 42 22.2002 42Z" fill="url(#paint1_linear_146_1560)"/>
<path d="M12.7998 42H6.3998C5.51607 42 4.7998 41.3094 4.7998 40.4572V36.3429C4.7998 35.4907 5.51607 34.8 6.3998 34.8H12.7998C13.6835 34.8 14.3998 35.4907 14.3998 36.3429V40.4572C14.3998 41.3094 13.6835 42 12.7998 42Z" fill="#2B5FC1"/>
<path d="M7.2 34.8C7.2 33.4746 8.2746 32.4 9.6 32.4C10.9254 32.4 12 33.4746 12 34.8H13.2C13.2 32.8116 11.5884 31.2 9.6 31.2C7.6116 31.2 6 32.8116 6 34.8H7.2Z" fill="#2B5FC1"/>
<defs>
<linearGradient id="paint0_linear_146_1560" x1="9.7998" y1="20.3999" x2="9.7998" y2="26.3999" gradientUnits="userSpaceOnUse">
<stop stop-color="#5087F0"/>
<stop offset="1" stop-color="#2558B9"/>
</linearGradient>
<linearGradient id="paint1_linear_146_1560" x1="22.2002" y1="36" x2="22.2002" y2="42" gradientUnits="userSpaceOnUse">
<stop stop-color="#5087F0"/>
<stop offset="1" stop-color="#2558B9"/>
</linearGradient>
</defs>
</svg>
