<svg width="254" height="33" viewBox="0 0 254 33" fill="none" xmlns="http://www.w3.org/2000/svg">
<path d="M56.6952 20.9153C56.6952 25.0098 53.3254 28.3127 48.8802 28.3127C44.4351 28.3127 41.0918 25.0763 41.0918 20.9153C41.0918 16.7543 44.4351 13.4995 48.8802 13.4995C53.3254 13.4995 56.6952 16.7913 56.6952 20.9153ZM44.9576 20.9153C44.9576 23.1826 46.5706 24.8729 48.7818 24.8729C49.3119 24.876 49.8372 24.7753 50.3268 24.5768C50.8164 24.3782 51.2603 24.0859 51.6323 23.717C52.0043 23.3481 52.2968 22.9101 52.4927 22.4289C52.6885 21.9477 52.7837 21.4331 52.7726 20.9153C52.7726 18.6185 51.0725 16.9874 48.8651 16.9874C46.6577 16.9874 44.9728 18.6185 44.9728 20.9153H44.9576Z" fill="white"/>
<path d="M63.272 15.216C63.8147 14.6617 64.4707 14.2251 65.1973 13.9346C65.924 13.644 66.7051 13.506 67.4899 13.5294C70.8976 13.5294 73.0974 15.8263 73.0974 19.255V27.969H69.19V19.9207C69.19 18.2341 68.2282 17.069 66.5395 17.069C64.6123 17.069 63.3401 18.2341 63.3401 20.224V27.969H59.4023V13.7772H63.2833L63.272 15.216Z" fill="white"/>
<path d="M215.258 15.1183C215.801 14.5641 216.457 14.1275 217.184 13.8369C217.91 13.5464 218.691 13.4083 219.476 13.4318C222.884 13.4318 225.084 15.7286 225.084 19.1573V27.8714H221.176V19.8231C221.176 18.1365 220.215 16.9714 218.526 16.9714C216.599 16.9714 215.326 18.1365 215.326 20.1264V27.8714H211.389V13.6796H215.27L215.258 15.1183Z" fill="white"/>
<path d="M90.3777 24.9288C88.9313 27.0296 86.7504 28.3019 83.4942 28.3019C78.8484 28.3019 75.8496 25.1211 75.8496 20.9046C75.8496 16.8102 78.962 13.4888 83.5245 13.4888C88.087 13.4888 90.8851 16.6178 90.8851 20.7123C90.8851 21.2634 90.832 21.9846 90.832 22.066H79.7344C79.9039 22.9302 80.3873 23.7054 81.0955 24.2491C81.8038 24.7928 82.6892 25.0683 83.5888 25.0249C84.3411 25.0534 85.0885 24.8958 85.7617 24.5667C86.4349 24.2375 87.012 23.7476 87.4395 23.1423L90.3777 24.9288ZM79.8707 19.2291H86.9284C86.5043 17.487 85.0882 16.64 83.5018 16.64C82.6838 16.5969 81.8758 16.8311 81.2141 17.3028C80.5525 17.7746 80.078 18.455 79.8707 19.2291Z" fill="white"/>
<path d="M241.819 24.4996C240.373 26.6004 238.192 27.8727 234.936 27.8727C230.29 27.8727 227.291 24.6919 227.291 20.4754C227.291 16.381 230.403 13.0596 234.966 13.0596C239.528 13.0596 242.326 16.1886 242.326 20.2831C242.326 20.8342 242.273 21.5554 242.273 21.6368H231.176C231.345 22.501 231.829 23.2762 232.537 23.8199C233.245 24.3636 234.131 24.6391 235.03 24.5957C235.782 24.6242 236.53 24.4666 237.203 24.1375C237.876 23.8083 238.453 23.3184 238.881 22.7131L241.819 24.4996ZM231.312 18.7999H238.37C237.946 17.0578 236.53 16.2108 234.943 16.2108C234.125 16.1677 233.317 16.4019 232.656 16.8736C231.994 17.3454 231.519 18.0258 231.312 18.7999Z" fill="white"/>
<path d="M173.298 26.6804V32.6279H169.36V13.565H173.298V14.6746C174.542 13.8269 176.031 13.3912 177.546 13.4318C178.514 13.4337 179.471 13.6222 180.364 13.9864C181.256 14.3506 182.067 14.8834 182.748 15.5541C183.429 16.2249 183.969 17.0205 184.334 17.8952C184.7 18.7699 184.886 19.7067 184.88 20.6516C184.895 22.5689 184.131 24.4137 182.757 25.7826C181.382 27.1515 179.509 27.9331 177.546 27.9565C176.027 27.9865 174.538 27.5392 173.298 26.6804ZM173.226 20.733C173.236 21.7519 173.659 22.7255 174.402 23.4408C175.145 24.1561 176.147 24.5549 177.19 24.55C177.962 24.5398 178.713 24.307 179.349 23.8808C179.985 23.4547 180.479 22.8542 180.766 22.155C181.054 21.4558 181.124 20.6891 180.967 19.9513C180.81 19.2135 180.433 18.5376 179.883 18.0086C179.334 17.4795 178.636 17.121 177.879 16.9782C177.121 16.8353 176.338 16.9145 175.626 17.2057C174.915 17.4969 174.307 17.9871 173.88 18.6148C173.453 19.2424 173.225 19.9794 173.226 20.733Z" fill="white"/>
<path d="M253.553 13.7512V17.1835H249.983V22.8832C249.983 24.1814 250.577 24.6512 251.91 24.6512H253.553V27.943H251.626C247.745 27.943 246.049 26.286 246.049 23.0755V17.1835H243.951V13.7512H246.049V10.1006H249.983V13.7512H253.553Z" fill="white"/>
<path d="M132.777 20.5457C132.777 24.6401 129.407 27.9431 124.958 27.9431C120.509 27.9431 117.17 24.7067 117.17 20.5457C117.17 16.3847 120.513 13.1299 124.958 13.1299C129.403 13.1299 132.777 16.4217 132.777 20.5457ZM121.04 20.5457C121.04 22.813 122.653 24.5033 124.864 24.5033C125.394 24.5064 125.919 24.4057 126.409 24.2071C126.898 24.0086 127.342 23.7162 127.714 23.3473C128.086 22.9784 128.379 22.5404 128.575 22.0593C128.77 21.5781 128.866 21.0634 128.854 20.5457C128.854 18.2488 127.158 16.6177 124.947 16.6177C122.736 16.6177 121.051 18.2488 121.051 20.5457H121.04Z" fill="#6DB7F9"/>
<path d="M108.189 24.677C106.803 26.8962 104.622 28.3017 101.419 28.3017C96.9171 28.3017 93.7441 25.0099 93.7441 20.9044C93.7441 16.7988 96.9171 13.4885 101.419 13.4885C102.792 13.4409 104.152 13.7602 105.353 14.412C106.554 15.0638 107.55 16.0233 108.234 17.1872L105.145 19.0661C104.387 17.8788 103.388 16.9912 101.578 16.9912C99.2835 16.9912 97.7236 18.5705 97.7236 20.8933C97.7236 23.216 99.2835 24.8212 101.578 24.8212C103.388 24.8212 104.38 23.9373 105.145 22.7463L108.189 24.677Z" fill="#6DB7F9"/>
<path d="M186.963 27.9688V9.02051H190.927V27.9688H186.963Z" fill="white"/>
<path d="M110.479 27.9688V9.02051H114.444V27.9688H110.479Z" fill="#6DB7F9"/>
<path d="M204.656 26.9186C203.414 27.769 201.925 28.2061 200.408 28.1651C198.466 28.1222 196.617 27.3383 195.259 25.981C193.9 24.6237 193.14 22.8009 193.14 20.9027C193.14 19.0045 193.9 17.1817 195.259 15.8244C196.617 14.4672 198.466 13.6832 200.408 13.6404C201.927 13.6074 203.417 14.0536 204.656 14.9127V13.7772H208.594V27.969H204.656V26.9186ZM196.925 20.9453C196.914 21.4425 197.005 21.9368 197.193 22.3992C197.38 22.8617 197.66 23.283 198.016 23.6384C198.372 23.9939 198.797 24.2763 199.267 24.4693C199.736 24.6623 200.24 24.7619 200.749 24.7623C201.268 24.7737 201.784 24.6832 202.267 24.4961C202.749 24.309 203.188 24.0292 203.558 23.6732C203.928 23.3172 204.22 22.8923 204.419 22.4237C204.617 21.9551 204.717 21.4524 204.713 20.9453C204.704 19.9257 204.282 18.9511 203.539 18.235C202.796 17.5189 201.793 17.1196 200.749 17.1245C200.24 17.1274 199.737 17.2288 199.269 17.4229C198.8 17.617 198.376 17.8999 198.021 18.2552C197.665 18.6105 197.385 19.0312 197.197 19.493C197.009 19.9547 196.916 20.4484 196.925 20.9453Z" fill="white"/>
<path d="M162.533 26.9184V27.9688H166.471V9.02051H162.533V14.9125C161.294 14.0534 159.804 13.6072 158.285 13.6402C156.342 13.683 154.494 14.4669 153.135 15.8242C151.777 17.1815 151.016 19.0043 151.016 20.9025C151.016 22.8007 151.777 24.6235 153.135 25.9808C154.494 27.3381 156.342 28.122 158.285 28.1648C159.801 28.2059 161.291 27.7688 162.533 26.9184ZM154.801 20.945C154.793 20.4488 154.885 19.9557 155.073 19.4945C155.26 19.0332 155.54 18.6128 155.894 18.2576C156.249 17.9023 156.673 17.6193 157.14 17.4248C157.608 17.2303 158.11 17.1281 158.618 17.1243C159.662 17.1194 160.665 17.5187 161.408 18.2348C162.151 18.9509 162.573 19.9255 162.582 20.945C162.586 21.4521 162.486 21.9549 162.288 22.4235C162.089 22.8921 161.797 23.317 161.427 23.6729C161.057 24.0289 160.618 24.3088 160.135 24.4959C159.653 24.6829 159.137 24.7735 158.618 24.7621C158.109 24.7607 157.606 24.6604 157.138 24.467C156.67 24.2735 156.245 23.9909 155.89 23.6356C155.535 23.2802 155.255 22.8593 155.068 22.3973C154.882 21.9354 154.791 21.4417 154.801 20.945Z" fill="#6DB7F9"/>
<mask id="mask0_982_4640" style="mask-type:alpha" maskUnits="userSpaceOnUse" x="0" y="0" width="34" height="33">
<path fill-rule="evenodd" clip-rule="evenodd" d="M28.9576 17.4339C31.4285 15.806 33.0536 13.0462 33.0536 9.91575C33.0536 4.91109 28.9004 0.854004 23.7771 0.854004C20.5724 0.854004 17.7473 2.44142 16.0808 4.85522L14.9797 3.77962C11.6528 0.529671 6.2587 0.52967 2.93174 3.77962C-0.395216 7.02957 -0.395215 12.2988 2.93174 15.5487L18.1925 30.4562C21.5195 33.7062 26.9135 33.7062 30.2405 30.4562C33.5674 27.2063 33.5674 21.9371 30.2405 18.6871L28.9576 17.4339Z" fill="#181B2D"/>
</mask>
<g mask="url(#mask0_982_4640)">
<path fill-rule="evenodd" clip-rule="evenodd" d="M28.9576 17.4339C31.4285 15.806 33.0536 13.0462 33.0536 9.91575C33.0536 4.91109 28.9004 0.854004 23.7771 0.854004C20.5724 0.854004 17.7473 2.44142 16.0808 4.85522L14.9797 3.77962C11.6528 0.529671 6.2587 0.52967 2.93174 3.77962C-0.395216 7.02957 -0.395215 12.2988 2.93174 15.5487L18.1925 30.4562C21.5195 33.7062 26.9135 33.7062 30.2405 30.4562C33.5674 27.2063 33.5674 21.9371 30.2405 18.6871L28.9576 17.4339Z" fill="#6DB7F9"/>
<path d="M13.1921 9.64797L13.1904 9.64632C12.7175 9.17034 12.1098 8.84319 11.4453 8.70681C10.7807 8.57043 10.0897 8.63104 9.46063 8.88086L9.65114 9.33859L9.46063 8.88086C8.83159 9.13069 8.29328 9.55835 7.91469 10.109C7.53611 10.6597 7.33451 11.3082 7.33576 11.9715C7.337 12.6349 7.54101 13.2827 7.92165 13.832C8.3023 14.3813 8.84221 14.8071 9.47218 15.0546C10.1021 15.3022 10.7934 15.3604 11.4575 15.2216C12.1215 15.0828 12.7279 14.7535 13.1991 14.2759L13.1991 14.2759L13.2032 14.2716C13.6025 13.857 14.0834 13.5255 14.617 13.2968C15.1498 13.0684 15.7243 12.9473 16.306 12.9406L16.7048 12.9406C16.7052 12.9406 16.7056 12.9406 16.7059 12.9406C17.3048 12.9434 17.897 13.0636 18.4474 13.2943C18.9981 13.525 19.4958 13.8615 19.9108 14.2838L19.9107 14.2839L19.918 14.2911L19.974 14.3458L19.974 14.3459L19.9813 14.3527C20.4136 14.7585 20.7583 15.2447 20.995 15.7828C21.2316 16.3204 21.3555 16.8988 21.3595 17.484C21.3595 17.4845 21.3595 17.485 21.3595 17.4855L21.3595 17.7846C21.3595 17.7851 21.3595 17.7856 21.3595 17.7861C21.3555 18.3712 21.2316 18.9497 20.995 19.4873C20.7583 20.0253 20.4136 20.5116 19.9813 20.9173L19.9812 20.9173L19.974 20.9243L19.921 20.9761L19.9209 20.9761L19.9145 20.9825C19.4966 21.4059 18.9959 21.743 18.4421 21.9738C17.8886 22.2046 17.2934 22.3246 16.6916 22.3266C16.6913 22.3266 16.691 22.3266 16.6907 22.3266L16.3983 22.3266C16.3981 22.3266 16.398 22.3266 16.3978 22.3266C15.7955 22.3256 15.1995 22.2065 14.6452 21.9764C14.0907 21.7462 13.5892 21.4095 13.1705 20.9864L13.1693 20.9852C12.6958 20.51 12.0878 20.1838 11.4233 20.0482C10.7588 19.9127 10.068 19.9741 9.43947 20.2245C8.81091 20.4749 8.27319 20.903 7.89523 21.4538C7.51727 22.0046 7.31629 22.6531 7.31802 23.3163C7.31976 23.9794 7.52413 24.6269 7.90497 25.1758C8.2858 25.7248 8.82575 26.1501 9.45562 26.3974C10.0855 26.6447 10.7766 26.7026 11.4404 26.5637C12.1042 26.4249 12.7104 26.0956 13.1814 25.6181L13.1814 25.6181L13.1855 25.6139C13.5849 25.1993 14.0657 24.8677 14.5993 24.639C15.1324 24.4105 15.7071 24.2894 16.2892 24.2828C16.2898 24.2828 16.2904 24.2828 16.291 24.2828L16.6843 24.2814C17.284 24.2853 17.8768 24.4064 18.4279 24.6373C18.9797 24.8686 19.4786 25.2055 19.8951 25.628L19.895 25.6281L19.9018 25.6347C20.5406 26.2588 21.4071 26.6094 22.3106 26.6094C23.2141 26.6094 24.0806 26.2588 24.7195 25.6347C25.3583 25.0107 25.7172 24.1642 25.7172 23.2817C25.7172 22.3991 25.3583 21.5527 24.7195 20.9286L24.7195 20.9285L24.7126 20.922C24.2803 20.5155 23.936 20.0284 23.7002 19.4894C23.4645 18.9507 23.342 18.3712 23.3399 17.7853C23.3399 17.7851 23.3399 17.7849 23.3399 17.7846L23.3399 17.4833C23.3399 17.4829 23.3399 17.4825 23.3399 17.4822C23.3429 16.8976 23.4661 16.3196 23.7022 15.7825C23.9382 15.2454 24.2822 14.7601 24.7139 14.3554C25.0438 14.0496 25.3078 13.6825 25.4902 13.2755C25.6729 12.8681 25.7701 12.4291 25.7762 11.9843C25.7823 11.5396 25.6972 11.0981 25.5257 10.6861C25.3543 10.274 25.1001 9.89969 24.7782 9.58518C24.4562 9.27066 24.073 9.02235 23.6512 8.8549L23.4607 9.31265L23.6512 8.8549C23.2293 8.68744 22.7774 8.60424 22.3222 8.6102C21.8669 8.61616 21.4174 8.71116 21.0004 8.8896C20.5838 9.0678 20.208 9.32561 19.8951 9.64783C19.4799 10.0698 18.9823 10.4061 18.4318 10.6369C17.8812 10.8677 17.2887 10.9883 16.6895 10.9916C16.6891 10.9916 16.6887 10.9916 16.6883 10.9916L16.3974 10.9916C15.7985 10.9882 15.2065 10.8677 14.6561 10.6371C14.1053 10.4063 13.6075 10.07 13.1921 9.64797Z" fill="#0F2948" stroke="#0F2948"/>
</g>
<path d="M149.091 13.0996V27.8529H145.247V25.9887C144.757 26.6279 144.112 27.1338 143.312 27.5067C142.53 27.8617 141.676 28.0393 140.749 28.0393C139.568 28.0393 138.523 27.7996 137.614 27.3203C136.706 26.8232 135.988 26.1041 135.461 25.1632C134.952 24.2045 134.697 23.0683 134.697 21.7545V13.0996H138.514V21.2219C138.514 22.3936 138.849 22.9617 139.448 23.6009C140.048 24.2223 140.963 24.5255 141.891 24.3806C142.932 24.218 143.748 23.8346 144.348 23.2133C144.948 22.5741 145.247 21.6687 145.247 20.497V13.0996H149.091Z" fill="#6DB7F9"/>
</svg>
