<svg width="70" height="70" viewBox="0 0 70 70" fill="none" xmlns="http://www.w3.org/2000/svg">
<g clip-path="url(#clip0_166_163)">
<rect width="70" height="70" rx="8" fill="#F2F4F8"/>
<g filter="url(#filter0_f_166_163)">
<path d="M20 59L50 59L50 61L20 61L20 59Z" fill="#7888DC"/>
</g>
<path d="M19.57 50.0827L30.9752 54.3014L53.1515 40.0528L38.68 36.1452C38.3282 36.0502 37.9572 36.0531 37.607 36.1536L19.7123 41.2886C18.8548 41.5346 18.2639 42.3189 18.2639 43.211L18.2639 48.2069C18.2638 49.0439 18.785 49.7923 19.57 50.0827Z" fill="url(#paint0_linear_166_163)"/>
<path d="M30.0588 47.3222C30.0823 46.4369 30.6852 45.6725 31.5407 45.4434L51.7109 40.0419C53.0103 39.6939 54.2758 40.7021 54.2269 42.0464L54.0522 46.8527C54.0206 47.7225 53.4302 48.4719 52.592 48.7062L32.4627 54.3334C31.1662 54.6958 29.8892 53.6998 29.925 52.354L30.0588 47.3222Z" fill="#4671F6"/>
<path d="M19.57 38.8775L30.9752 43.0962L53.1515 28.8476L38.68 24.94C38.3282 24.845 37.9572 24.8479 37.607 24.9484L19.7123 30.0834C18.8548 30.3294 18.2639 31.1137 18.2639 32.0058L18.2639 37.0017C18.2638 37.8387 18.785 38.5871 19.57 38.8775Z" fill="url(#paint1_linear_166_163)"/>
<path d="M30.0588 36.117C30.0823 35.2317 30.6852 34.4673 31.5407 34.2382L51.7109 28.8367C53.0103 28.4887 54.2758 29.4969 54.2269 30.8412L54.0522 35.6475C54.0206 36.5173 53.4302 37.2667 52.592 37.501L32.4627 43.1282C31.1662 43.4906 29.8892 42.4946 29.925 41.1488L30.0588 36.117Z" fill="#4671F6"/>
<path d="M19.569 27.6723L30.9742 31.891L53.1506 17.6424L38.679 13.7348C38.3273 13.6398 37.9562 13.6427 37.606 13.7432L19.7113 18.8782C18.8538 19.1242 18.263 19.9085 18.263 20.8006L18.2629 25.7965C18.2629 26.6335 18.784 27.3819 19.569 27.6723Z" fill="url(#paint2_linear_166_163)"/>
<path d="M30.0578 24.9118C30.0813 24.0265 30.6843 23.2621 31.5397 23.033L51.7099 17.6315C53.0093 17.2835 54.2748 18.2917 54.226 19.636L54.0512 24.4423C54.0196 25.3121 53.4292 26.0615 52.591 26.2958L32.4617 31.923C31.1652 32.2854 29.8882 31.2894 29.924 29.9436L30.0578 24.9118Z" fill="#4671F6"/>
</g>
<defs>
<filter id="filter0_f_166_163" x="5" y="44" width="60" height="32" filterUnits="userSpaceOnUse" color-interpolation-filters="sRGB">
<feFlood flood-opacity="0" result="BackgroundImageFix"/>
<feBlend mode="normal" in="SourceGraphic" in2="BackgroundImageFix" result="shape"/>
<feGaussianBlur stdDeviation="7.5" result="effect1_foregroundBlur_166_163"/>
</filter>
<linearGradient id="paint0_linear_166_163" x1="34.1774" y1="21.9434" x2="15.7545" y2="58.7092" gradientUnits="userSpaceOnUse">
<stop stop-color="#5780FF"/>
<stop offset="0.536458" stop-color="#698EFF"/>
<stop offset="0.635417" stop-color="#A4BCFD"/>
<stop offset="1" stop-color="#A4BCFD"/>
</linearGradient>
<linearGradient id="paint1_linear_166_163" x1="34.1774" y1="10.7382" x2="15.7545" y2="47.504" gradientUnits="userSpaceOnUse">
<stop stop-color="#5780FF"/>
<stop offset="0.536458" stop-color="#698EFF"/>
<stop offset="0.635417" stop-color="#A4BCFD"/>
<stop offset="1" stop-color="#A4BCFD"/>
</linearGradient>
<linearGradient id="paint2_linear_166_163" x1="34.1764" y1="-0.466951" x2="15.7535" y2="36.2988" gradientUnits="userSpaceOnUse">
<stop stop-color="#5780FF"/>
<stop offset="0.536458" stop-color="#698EFF"/>
<stop offset="0.635417" stop-color="#A4BCFD"/>
<stop offset="1" stop-color="#A4BCFD"/>
</linearGradient>
<clipPath id="clip0_166_163">
<rect width="70" height="70" rx="8" fill="white"/>
</clipPath>
</defs>
</svg>
