<svg width="30" height="30" viewBox="0 0 30 30" fill="none" xmlns="http://www.w3.org/2000/svg">
<path d="M15 27.5C21.9036 27.5 27.5 21.9036 27.5 15C27.5 8.09644 21.9036 2.5 15 2.5C8.09644 2.5 2.5 8.09644 2.5 15C2.5 21.9036 8.09644 27.5 15 27.5Z" fill="#D1DCFB"/>
<path d="M13.7503 19.9998C13.4303 19.9998 13.1103 19.8773 12.8666 19.6336L9.11656 15.8836C8.62781 15.3948 8.62781 14.6048 9.11656 14.1161C9.60531 13.6273 10.3953 13.6273 10.8841 14.1161L13.7503 16.9823L25.3666 5.36607C25.8553 4.87732 26.6453 4.87732 27.1341 5.36607C27.6228 5.85482 27.6228 6.64482 27.1341 7.13357L14.6341 19.6336C14.3903 19.8773 14.0703 19.9998 13.7503 19.9998Z" fill="#2457B8"/>
</svg>
