<svg width="48" height="48" viewBox="0 0 48 48" fill="none" xmlns="http://www.w3.org/2000/svg">
<path d="M40 22C39.628 22 8.372 22 8 22C6.896 22 6 22.896 6 24C6 25.104 6.896 26 8 26C8.372 26 39.628 26 40 26C41.104 26 42 25.104 42 24C42 22.896 41.104 22 40 22Z" fill="#D1DCFB"/>
<path d="M30 30C33.3137 30 36 27.3137 36 24C36 20.6863 33.3137 18 30 18C26.6863 18 24 20.6863 24 24C24 27.3137 26.6863 30 30 30Z" fill="url(#paint0_linear_146_1574)"/>
<path d="M40 8C39.628 8 8.372 8 8 8C6.896 8 6 8.896 6 10C6 11.104 6.896 12 8 12C8.372 12 39.628 12 40 12C41.104 12 42 11.104 42 10C42 8.896 41.104 8 40 8Z" fill="#D1DCFB"/>
<path d="M18 16C21.3137 16 24 13.3137 24 10C24 6.68629 21.3137 4 18 4C14.6863 4 12 6.68629 12 10C12 13.3137 14.6863 16 18 16Z" fill="url(#paint1_linear_146_1574)"/>
<path d="M40 36C39.628 36 8.372 36 8 36C6.896 36 6 36.896 6 38C6 39.104 6.896 40 8 40C8.372 40 39.628 40 40 40C41.104 40 42 39.104 42 38C42 36.896 41.104 36 40 36Z" fill="#D1DCFB"/>
<path d="M20 44C23.3137 44 26 41.3137 26 38C26 34.6863 23.3137 32 20 32C16.6863 32 14 34.6863 14 38C14 41.3137 16.6863 44 20 44Z" fill="url(#paint2_linear_146_1574)"/>
<defs>
<linearGradient id="paint0_linear_146_1574" x1="30" y1="18" x2="30" y2="30" gradientUnits="userSpaceOnUse">
<stop stop-color="#5087EF"/>
<stop offset="1" stop-color="#2558B9"/>
</linearGradient>
<linearGradient id="paint1_linear_146_1574" x1="18" y1="4" x2="18" y2="16" gradientUnits="userSpaceOnUse">
<stop stop-color="#5087EF"/>
<stop offset="1" stop-color="#2558B9"/>
</linearGradient>
<linearGradient id="paint2_linear_146_1574" x1="20" y1="32" x2="20" y2="44" gradientUnits="userSpaceOnUse">
<stop stop-color="#5087EF"/>
<stop offset="1" stop-color="#2558B9"/>
</linearGradient>
</defs>
</svg>
