<svg width="48" height="48" viewBox="0 0 48 48" fill="none" xmlns="http://www.w3.org/2000/svg">
<path d="M38.2002 38.2L32.6002 36.2L31.2002 31.2C33.0002 29.4 34.2002 26.8 34.2002 24.2C34.2002 18.6 29.8002 14.2 24.2002 14.2L21.2002 9.6L24.0002 4C35.0002 4 44.0002 13 44.0002 24C44.0002 29.4 42.0002 34.4 38.2002 38.2Z" fill="#D1DCFB"/>
<path d="M31 31C29.2 32.8 26.8 34 24 34C18.4 34 14 29.6 14 24C14 18.4 18.4 14 24 14V4C13 4 4 13 4 24C4 35 13 44 24 44C29.6 44 34.6 41.8 38.2 38.2L31 31Z" fill="url(#paint0_linear_146_1350)"/>
<defs>
<linearGradient id="paint0_linear_146_1350" x1="21.1" y1="4" x2="21.1" y2="44" gradientUnits="userSpaceOnUse">
<stop stop-color="#5087F0"/>
<stop offset="1" stop-color="#2457B8"/>
</linearGradient>
</defs>
</svg>
