<svg width="254" height="33" fill="none" xmlns="http://www.w3.org/2000/svg"><path d="M56.695 20.916c0 4.094-3.37 7.397-7.815 7.397s-7.788-3.236-7.788-7.397c0-4.162 3.343-7.416 7.788-7.416s7.815 3.291 7.815 7.416zm-11.737 0c0 2.267 1.613 3.957 3.824 3.957a4.05 4.05 0 001.545-.296c.49-.199.933-.491 1.305-.86a3.87 3.87 0 00.86-1.288c.197-.481.292-.996.28-1.513 0-2.297-1.7-3.928-3.907-3.928s-3.892 1.63-3.892 3.928h-.015zm18.314-5.7a5.607 5.607 0 011.925-1.282 5.718 5.718 0 012.293-.405c3.408 0 5.607 2.297 5.607 5.726v8.714H69.19V19.92c0-1.686-.962-2.851-2.65-2.851-1.928 0-3.2 1.165-3.2 3.155v7.745h-3.938V13.777h3.881l-.011 1.439zm151.986-.098a5.61 5.61 0 011.926-1.28 5.712 5.712 0 012.292-.406c3.408 0 5.608 2.297 5.608 5.725v8.715h-3.908v-8.049c0-1.686-.961-2.851-2.65-2.851-1.927 0-3.2 1.165-3.2 3.154v7.746h-3.937V13.68h3.881l-.012 1.438zm-124.88 9.81c-1.447 2.101-3.628 3.374-6.884 3.374-4.646 0-7.644-3.181-7.644-7.398 0-4.094 3.112-7.415 7.675-7.415 4.562 0 7.36 3.129 7.36 7.223 0 .551-.053 1.272-.053 1.354H79.734c.17.864.653 1.64 1.362 2.183a3.79 3.79 0 002.493.776c.752.028 1.5-.13 2.173-.459s1.25-.819 1.677-1.424l2.939 1.787zm-10.507-5.7h7.057c-.424-1.741-1.84-2.588-3.426-2.588a3.615 3.615 0 00-2.288.663 3.472 3.472 0 00-1.343 1.926zM241.819 24.5c-1.446 2.1-3.627 3.373-6.883 3.373-4.646 0-7.645-3.181-7.645-7.398 0-4.094 3.112-7.416 7.675-7.416 4.562 0 7.36 3.13 7.36 7.224 0 .551-.053 1.272-.053 1.354h-11.097c.169.864.653 1.64 1.361 2.183a3.803 3.803 0 002.493.776c.752.028 1.5-.13 2.173-.459s1.25-.819 1.678-1.424l2.938 1.787zm-10.507-5.7h7.058c-.424-1.742-1.84-2.59-3.427-2.59a3.613 3.613 0 00-2.287.663 3.47 3.47 0 00-1.344 1.927zm-58.014 7.88v5.948h-3.938V13.565h3.938v1.11a7.206 7.206 0 014.248-1.243c.968.002 1.925.19 2.818.555a7.363 7.363 0 012.384 1.567 7.159 7.159 0 011.586 2.341c.366.875.552 1.812.546 2.757a7.163 7.163 0 01-2.123 5.13 7.514 7.514 0 01-5.211 2.175 7.215 7.215 0 01-4.248-1.276zm-.072-5.947a3.81 3.81 0 001.176 2.708 3.993 3.993 0 002.788 1.11 3.975 3.975 0 002.159-.67 3.835 3.835 0 001.417-1.726 3.739 3.739 0 00.201-2.204 3.792 3.792 0 00-1.084-1.942 3.941 3.941 0 00-2.004-1.03 3.997 3.997 0 00-2.253.227 3.895 3.895 0 00-1.746 1.409 3.756 3.756 0 00-.654 2.118zm80.327-6.982v3.432h-3.57v5.7c0 1.298.594 1.768 1.927 1.768h1.643v3.292h-1.927c-3.881 0-5.577-1.657-5.577-4.867v-5.893h-2.098v-3.432h2.098v-3.65h3.934v3.65h3.57z" fill="#1E1E1E"/><path d="M132.777 20.546c0 4.094-3.37 7.397-7.819 7.397s-7.788-3.236-7.788-7.397 3.343-7.416 7.788-7.416 7.819 3.292 7.819 7.416zm-11.737 0c0 2.267 1.613 3.957 3.824 3.957a4.052 4.052 0 001.545-.296c.489-.198.933-.49 1.305-.86.372-.369.665-.807.861-1.288.195-.481.291-.996.279-1.513 0-2.297-1.696-3.928-3.907-3.928-2.211 0-3.896 1.63-3.896 3.928h-.011zm-12.851 4.131c-1.386 2.22-3.567 3.625-6.77 3.625-4.502 0-7.675-3.292-7.675-7.398 0-4.105 3.173-7.415 7.675-7.415a7.693 7.693 0 013.934.923 7.467 7.467 0 012.881 2.775l-3.089 1.88c-.758-1.188-1.757-2.076-3.567-2.076-2.294 0-3.854 1.58-3.854 3.902 0 2.323 1.56 3.928 3.854 3.928 1.81 0 2.802-.884 3.567-2.075l3.044 1.931z" fill="#0090F0"/><path d="M186.963 27.969V9.02h3.964v18.948h-3.964z" fill="#1E1E1E"/><path d="M110.479 27.969V9.02h3.965v18.948h-3.965z" fill="#0090F0"/><path d="M204.656 26.918a7.178 7.178 0 01-4.248 1.247 7.52 7.52 0 01-5.149-2.184 7.175 7.175 0 01-2.119-5.079c0-1.898.76-3.72 2.119-5.078a7.52 7.52 0 015.149-2.184 7.186 7.186 0 014.248 1.272v-1.135h3.938v14.192h-3.938v-1.05zm-7.731-5.973c-.011.497.08.992.268 1.454.187.462.467.884.823 1.24a3.897 3.897 0 002.733 1.123 3.962 3.962 0 001.518-.266 3.894 3.894 0 001.291-.823c.37-.356.662-.78.861-1.25.198-.468.298-.97.294-1.478a3.81 3.81 0 00-1.174-2.71 3.994 3.994 0 00-2.79-1.11 3.923 3.923 0 00-1.48.298 3.837 3.837 0 00-1.248.832 3.745 3.745 0 00-.824 1.238 3.674 3.674 0 00-.272 1.452z" fill="#1E1E1E"/><path d="M162.533 26.918v1.05h3.938V9.022h-3.938v5.892a7.186 7.186 0 00-4.248-1.273 7.522 7.522 0 00-5.15 2.184 7.18 7.18 0 00-2.119 5.079 7.18 7.18 0 002.119 5.078 7.522 7.522 0 005.15 2.184 7.18 7.18 0 004.248-1.247zm-7.732-5.973c-.008-.496.084-.99.272-1.45.187-.462.467-.882.821-1.237a3.861 3.861 0 011.246-.833c.468-.195.97-.297 1.478-.3a3.993 3.993 0 012.79 1.11 3.81 3.81 0 011.174 2.71 3.722 3.722 0 01-.294 1.479 3.788 3.788 0 01-.861 1.249c-.37.356-.809.636-1.292.823a3.954 3.954 0 01-1.517.266 3.902 3.902 0 01-1.48-.295 3.833 3.833 0 01-1.248-.831 3.69 3.69 0 01-1.089-2.69z" fill="#0090F0"/><mask id="a" style="mask-type:alpha" maskUnits="userSpaceOnUse" x="0" y="0" width="34" height="33"><path fill-rule="evenodd" clip-rule="evenodd" d="M28.958 17.434c2.47-1.628 4.096-4.388 4.096-7.518 0-5.005-4.154-9.062-9.277-9.062-3.205 0-6.03 1.587-7.696 4.001L14.98 3.78C11.653.53 6.259.53 2.932 3.78a8.186 8.186 0 000 11.77l15.26 14.907c3.328 3.25 8.721 3.25 12.049 0a8.187 8.187 0 000-11.769l-1.283-1.253z" fill="#181B2D"/></mask><g mask="url(#a)"><path fill-rule="evenodd" clip-rule="evenodd" d="M28.958 17.434c2.47-1.628 4.096-4.388 4.096-7.518 0-5.005-4.154-9.062-9.277-9.062-3.205 0-6.03 1.587-7.696 4.001L14.98 3.78C11.653.53 6.259.53 2.932 3.78a8.186 8.186 0 000 11.77l15.26 14.907c3.328 3.25 8.721 3.25 12.049 0a8.187 8.187 0 000-11.769l-1.283-1.253z" fill="#0090F0"/><path d="M13.192 9.648l-.002-.002a3.432 3.432 0 00-1.745-.94 3.484 3.484 0 00-1.984.175l.19.457-.19-.457a3.394 3.394 0 00-1.546 1.228 3.28 3.28 0 00-.58 1.862c.002.664.206 1.311.587 1.86.38.55.92.976 1.55 1.223a3.48 3.48 0 001.986.167 3.432 3.432 0 001.741-.945h0l.004-.005c.4-.414.88-.746 1.414-.975a4.417 4.417 0 011.689-.356h.399s0 0 0 0a4.563 4.563 0 011.742.354c.551.23 1.049.567 1.464.99h0l.007.007.056.054h0l.007.007a4.38 4.38 0 011.014 1.43 4.29 4.29 0 01.364 1.702v.301s0 0 0 0a4.294 4.294 0 01-.364 1.702 4.382 4.382 0 01-1.014 1.43h0l-.007.007-.053.052h0l-.006.006a4.5 4.5 0 01-1.473.992 4.59 4.59 0 01-1.75.352h-.294s0 0 0 0a4.593 4.593 0 01-1.753-.35 4.503 4.503 0 01-1.474-.99l-.002-.001a3.433 3.433 0 00-1.746-.937 3.484 3.484 0 00-1.984.176 3.394 3.394 0 00-1.544 1.23 3.27 3.27 0 00.01 3.722c.38.549.92.974 1.55 1.221.63.247 1.322.305 1.985.166a3.43 3.43 0 001.741-.945h0l.005-.004c.399-.415.88-.747 1.413-.975a4.418 4.418 0 011.69-.357h.395c.6.003 1.193.124 1.744.355.552.231 1.05.568 1.467.99h0l.007.007a3.448 3.448 0 002.409.975c.903 0 1.77-.35 2.409-.975a3.29 3.29 0 00.997-2.353 3.29 3.29 0 00-.997-2.353h0l-.007-.006a4.374 4.374 0 01-1.013-1.433 4.288 4.288 0 01-.36-1.704s0 0 0 0v-.303a4.277 4.277 0 01.362-1.7 4.362 4.362 0 011.012-1.427 3.33 3.33 0 00.776-1.08 3.264 3.264 0 00.036-2.59 3.325 3.325 0 00-.748-1.1 3.417 3.417 0 00-1.127-.73l-.19.457.19-.457a3.48 3.48 0 00-2.65.034 3.409 3.409 0 00-1.106.759 4.485 4.485 0 01-1.463.989 4.58 4.58 0 01-1.742.354h-.292a4.575 4.575 0 01-1.742-.354 4.486 4.486 0 01-1.464-.99z" fill="#fff" stroke="#fff"/></g><path d="M149.091 13.1v14.753h-3.844v-1.864c-.49.639-1.135 1.145-1.935 1.517a6.124 6.124 0 01-2.563.533c-1.181 0-2.226-.24-3.135-.719-.908-.497-1.626-1.216-2.153-2.157-.509-.959-.764-2.095-.764-3.409V13.1h3.817v8.123c0 1.171.335 1.74.934 2.379.6.621 1.515.924 2.443.78 1.041-.163 1.857-.547 2.457-1.168.6-.64.899-1.544.899-2.716V13.1h3.844z" fill="#0090F0"/></svg>