<svg width="224" height="36" fill="none" xmlns="http://www.w3.org/2000/svg"><path d="M58.197 17.907c0 3.499-2.828 6.32-6.559 6.32-3.73 0-6.536-2.765-6.536-6.32s2.805-6.337 6.536-6.337c3.73 0 6.559 2.813 6.559 6.337zm-9.851 0c0 1.937 1.354 3.382 3.21 3.382a3.345 3.345 0 002.392-.988 3.31 3.31 0 00.957-2.394c0-1.963-1.427-3.356-3.28-3.356-1.852 0-3.266 1.393-3.266 3.356h-.013zm15.369-4.87a4.7 4.7 0 013.54-1.441c2.86 0 4.706 1.962 4.706 4.892v7.446h-3.279v-6.877c0-1.441-.807-2.437-2.224-2.437-1.618 0-2.685.996-2.685 2.696v6.618h-3.305V11.807h3.257l-.01 1.23zm127.555-.083a4.705 4.705 0 013.54-1.441c2.86 0 4.706 1.962 4.706 4.892v7.446h-3.279v-6.877c0-1.441-.807-2.437-2.225-2.437-1.617 0-2.685.996-2.685 2.696v6.618h-3.305V11.725h3.258l-.01 1.229zM86.466 21.336c-1.214 1.795-3.044 2.882-5.777 2.882-3.899 0-6.416-2.718-6.416-6.32 0-3.5 2.612-6.337 6.442-6.337 3.829 0 6.177 2.673 6.177 6.172 0 .47-.045 1.087-.045 1.157h-9.313c.142.738.548 1.4 1.142 1.865.594.465 1.337.7 2.093.663a3.768 3.768 0 001.823-.392c.565-.28 1.05-.7 1.408-1.217l2.466 1.527zm-8.818-4.87h5.923c-.356-1.489-1.544-2.213-2.876-2.213a2.996 2.996 0 00-1.92.567 2.968 2.968 0 00-1.127 1.646zm135.915 4.504c-1.214 1.795-3.044 2.882-5.777 2.882-3.899 0-6.416-2.718-6.416-6.32 0-3.5 2.612-6.338 6.441-6.338 3.829 0 6.178 2.674 6.178 6.173 0 .47-.045 1.087-.045 1.156h-9.314a3.119 3.119 0 001.143 1.866 3.15 3.15 0 002.092.663 3.766 3.766 0 003.232-1.609l2.466 1.526zm-8.818-4.87h5.923c-.356-1.49-1.544-2.213-2.876-2.213a2.998 2.998 0 00-1.92.566 2.968 2.968 0 00-1.127 1.646zm-48.686 6.733v5.082h-3.305V11.627h3.305v.948a5.967 5.967 0 013.565-1.062 6.203 6.203 0 012.365.474 6.157 6.157 0 013.332 3.34 6.1 6.1 0 01.458 2.355 6.18 6.18 0 01-1.782 4.384 6.25 6.25 0 01-4.373 1.858 5.976 5.976 0 01-3.565-1.09zm-.061-5.082c.009.871.363 1.703.987 2.314a3.32 3.32 0 002.34.948 3.294 3.294 0 001.812-.572 3.264 3.264 0 001.357-3.357 3.253 3.253 0 00-.909-1.66 3.3 3.3 0 00-3.573-.686 3.26 3.26 0 00-2.014 3.014zm67.415-5.966v2.933h-2.997v4.87c0 1.11.499 1.51 1.618 1.51h1.379v2.814h-1.617c-3.257 0-4.681-1.416-4.681-4.16v-5.034h-1.761v-2.933h1.761V8.666h3.301v3.12h2.997z" fill="#181B2D"/><path d="M122.051 17.59c0 3.5-2.828 6.322-6.561 6.322-3.734 0-6.537-2.766-6.537-6.321 0-3.556 2.806-6.337 6.537-6.337 3.73 0 6.561 2.813 6.561 6.337zm-9.85 0c0 1.938 1.353 3.383 3.209 3.383a3.347 3.347 0 002.392-.988 3.293 3.293 0 00.957-2.394c0-1.963-1.423-3.356-3.279-3.356-1.856 0-3.27 1.393-3.27 3.356h-.009zm-10.789 3.531c-1.163 1.896-2.994 3.097-5.682 3.097-3.778 0-6.44-2.812-6.44-6.32 0-3.508 2.662-6.337 6.44-6.337a6.365 6.365 0 013.302.79 6.319 6.319 0 012.418 2.37l-2.593 1.606c-.636-1.015-1.474-1.773-2.993-1.773-1.926 0-3.235 1.35-3.235 3.334 0 1.985 1.309 3.356 3.235 3.356 1.519 0 2.351-.755 2.993-1.773l2.555 1.65z" fill="#0090F0"/><path d="M167.524 23.934V7.744h3.328v16.19h-3.328z" fill="#181B2D"/><path d="M103.336 23.934V7.744h3.328v16.19h-3.328z" fill="#0090F0"/><path d="M182.371 23.036a5.947 5.947 0 01-3.565 1.065 6.26 6.26 0 01-4.322-1.866 6.19 6.19 0 01-1.778-4.34 6.19 6.19 0 011.778-4.338 6.26 6.26 0 014.322-1.867 5.955 5.955 0 013.565 1.088v-.97h3.305v12.126h-3.305v-.898zm-6.488-5.104a3.188 3.188 0 001.965 3.011c.394.165.817.25 1.244.25a3.27 3.27 0 002.358-.93 3.23 3.23 0 00.969-2.33 3.284 3.284 0 00-.985-2.316 3.322 3.322 0 00-2.342-.95 3.244 3.244 0 00-2.29.967 3.195 3.195 0 00-.919 2.299z" fill="#181B2D"/><path d="M147.023 23.036v.898h3.305V7.744h-3.305v5.034a5.954 5.954 0 00-3.565-1.088 6.258 6.258 0 00-4.322 1.867 6.19 6.19 0 00-1.778 4.339 6.19 6.19 0 001.778 4.339 6.258 6.258 0 004.322 1.866 5.946 5.946 0 003.565-1.065zm-6.488-5.104a3.187 3.187 0 01.917-2.296 3.232 3.232 0 012.286-.968 3.318 3.318 0 012.341.948c.624.612.978 1.445.986 2.316a3.24 3.24 0 01-.97 2.331 3.252 3.252 0 01-2.357.93 3.226 3.226 0 01-2.29-.962 3.197 3.197 0 01-.913-2.299zm-4.795-6.704v12.606h-3.226v-1.592c-.411.546-.953.978-1.624 1.297a5.061 5.061 0 01-2.151.455c-.991 0-1.868-.205-2.631-.615a4.588 4.588 0 01-1.807-1.843c-.427-.819-.641-1.79-.641-2.912v-7.396h3.203v6.94c0 1.002.281 1.487.784 2.033.504.531 1.272.79 2.051.666.873-.138 1.558-.466 2.061-.997.504-.546.755-1.32.755-2.32v-6.322h3.226zM16.044 1.15a4 4 0 013.993 0L31.66 7.846a4 4 0 012.004 3.466v13.376a4 4 0 01-2.004 3.466L20.037 34.85a4 4 0 01-3.993 0L4.42 28.154a4 4 0 01-2.003-3.466V11.312A4 4 0 014.42 7.846L16.044 1.15z" fill="#0090F0"/><path fill-rule="evenodd" clip-rule="evenodd" d="M28.515 17.63c0 .067 0 .132-.002.198.877.94 1.514 2.464 1.514 3.777 0 1.62-.968 2.306-2.162 1.533a2.918 2.918 0 01-.168-.117l-3.201-2.072a5.138 5.138 0 01-.36-.213 5.987 5.987 0 01-.36-.253l-4.905-3.175a3.36 3.36 0 01-.28-.163c-1.613-1.044-2.92-3.663-2.92-5.85 0-2.188 1.307-3.114 2.92-2.07.474.306.921.749 1.317 1.277.505-2.2 2.206-2.956 4.228-1.648 2.418 1.566 4.38 5.495 4.38 8.776z" fill="url(#paint0_linear_1378_5795)" opacity=".5"/><path fill-rule="evenodd" clip-rule="evenodd" d="M23.796 21.006c0 .067 0 .134-.002.2.876.941 1.512 2.464 1.512 3.776 0 1.62-.968 2.306-2.162 1.533a2.95 2.95 0 01-.158-.11l-3.234-2.093a5.165 5.165 0 01-.67-.434l-4.938-3.196c-.09-.047-.182-.1-.275-.16-1.612-1.044-2.92-3.664-2.92-5.85 0-2.188 1.308-3.115 2.92-2.071.475.307.923.75 1.32 1.28.503-2.202 2.205-2.96 4.227-1.65 2.42 1.565 4.38 5.494 4.38 8.775z" fill="url(#paint1_linear_1378_5795)"/><path fill-rule="evenodd" clip-rule="evenodd" d="M18.486 24.48c0 .067 0 .133-.003.199.878.941 1.514 2.464 1.514 3.777 0 1.62-.968 2.306-2.162 1.533a2.962 2.962 0 01-.165-.115l-3.21-2.077a5.964 5.964 0 01-.708-.459l-4.91-3.178a3.356 3.356 0 01-.281-.164c-1.613-1.044-2.92-3.663-2.92-5.85 0-2.188 1.307-3.115 2.92-2.07.474.306.922.75 1.318 1.277.504-2.2 2.206-2.957 4.227-1.648 2.42 1.565 4.38 5.494 4.38 8.775z" fill="#fff"/><defs><linearGradient id="paint0_linear_1378_5795" x1="29.826" y1="10.688" x2="15.311" y2="6.921" gradientUnits="userSpaceOnUse"><stop stop-color="#B8E2FF"/><stop offset="1" stop-color="#B8E2FF" stop-opacity="0"/></linearGradient><linearGradient id="paint1_linear_1378_5795" x1="25.105" y1="14.062" x2="10.589" y2="10.295" gradientUnits="userSpaceOnUse"><stop stop-color="#B8E2FF"/><stop offset="1" stop-color="#B8E2FF" stop-opacity="0"/></linearGradient></defs></svg>