<svg width="590" height="427" fill="none" xmlns="http://www.w3.org/2000/svg"><g opacity=".3" filter="url(#filter0_f_207_1292)"><path d="M30 400.269c0-11.045 8.618-22.43 19.25-25.428l478.736-135.018c10.631-2.998 19.249 3.525 19.249 14.571v108.252c0 11.045-8.618 22.43-19.249 25.428L49.249 523.092C38.62 526.09 30 519.567 30 508.521V400.269z" fill="#4671F6"/></g><path opacity=".3" d="M73.247 357.369c0-10.77 8.403-21.87 18.768-24.793l478.737-135.018c10.365-2.923 18.768 3.437 18.768 14.207v108.251c0 10.77-8.403 21.87-18.768 24.793L92.015 479.827c-10.365 2.923-18.768-3.437-18.768-14.207V357.369z" stroke="#4671F6"/><path opacity=".15" d="M73.247 172.054c0-10.769 8.403-21.87 18.768-24.793L570.752 12.243c10.365-2.923 18.768 3.438 18.768 14.207v108.252c0 10.769-8.403 21.87-18.768 24.793L92.015 294.513c-10.365 2.923-18.768-3.438-18.768-14.207V172.054z" stroke="#4671F6"/><path opacity=".05" d="M73.247-13.26c0-10.77 8.403-21.87 18.768-24.793l478.737-135.018c10.365-2.924 18.768 3.437 18.768 14.207v108.251c0 10.77-8.403 21.87-18.768 24.793L92.015 109.198c-10.365 2.923-18.768-3.437-18.768-14.207V-13.26z" stroke="#4671F6"/><g opacity=".2" filter="url(#filter1_f_207_1292)"><path d="M30 223.508c0-11.046 8.618-22.431 19.25-25.429L527.985 63.061c10.631-2.998 19.249 3.526 19.249 14.571v108.252c0 11.046-8.618 22.431-19.249 25.429L49.249 346.331C38.62 349.329 30 342.805 30 331.759V223.508z" fill="#4671F6"/></g><g opacity=".1" filter="url(#filter2_f_207_1292)"><path d="M30 46.746c0-11.046 8.618-22.43 19.25-25.429L527.985-113.7c10.631-2.999 19.249 3.525 19.249 14.57V9.123c0 11.046-8.618 22.431-19.249 25.43L49.249 169.568C38.62 172.567 30 166.044 30 154.998V46.746z" fill="#4671F6"/></g><path fill="url(#paint0_linear_207_1292)" d="M147.742 287.283h324.471v198.473H147.742z"/><path d="M298.056 230.352a25.997 25.997 0 0115.895-.119l150.611 47.103c10.236 3.201 10.307 17.663.102 20.964L314.2 346.981a26.005 26.005 0 01-16.389-.127l-142.653-48.608c-9.99-3.404-9.918-17.558.107-20.86l142.791-47.034z" fill="#fff"/><g filter="url(#filter3_f_207_1292)"><path d="M266.633 271.932h89.806v7.127h-89.806v-7.127z" fill="#A5BDFE"/></g><path d="M227.932 240.734l54.073 21.265 108.5-69.5-70.421-17.457a5.994 5.994 0 00-3.098.056l-88.513 25.399a6 6 0 00-4.345 5.767v28.886a6.001 6.001 0 003.804 5.584z" fill="url(#paint1_linear_207_1292)"/><path d="M280.213 225.813a6 6 0 014.445-5.636l102.88-27.551c3.898-1.044 7.694 1.981 7.548 6.014l-1.095 30.108a6 6 0 01-4.38 5.56l-102.616 28.686c-3.889 1.088-7.721-1.901-7.613-5.938l.831-31.243z" fill="#4671F6"/><path d="M227.932 186.734l54.073 21.265 108.5-69.5-70.421-17.457a5.994 5.994 0 00-3.098.056l-88.513 25.399a6 6 0 00-4.345 5.767v28.886a6.001 6.001 0 003.804 5.584z" fill="url(#paint2_linear_207_1292)"/><path d="M280.213 171.813a6 6 0 014.445-5.636l102.88-27.551c3.898-1.044 7.694 1.981 7.548 6.014l-1.095 30.108a6 6 0 01-4.38 5.56l-102.616 28.686c-3.889 1.088-7.721-1.901-7.613-5.938l.831-31.243z" fill="#4671F6"/><path d="M227.934 132.734L282.007 154l108.5-69.5-68.864-17.072a12 12 0 00-6.197.113l-86.971 24.956a6 6 0 00-4.345 5.768v28.885a6.001 6.001 0 003.804 5.584z" fill="url(#paint3_linear_207_1292)"/><path d="M280.215 117.814a5.998 5.998 0 014.445-5.636l102.88-27.552c3.898-1.044 7.694 1.981 7.548 6.014l-1.095 30.108a6.001 6.001 0 01-4.38 5.561l-102.616 28.686c-3.889 1.087-7.721-1.901-7.613-5.938l.831-31.243z" fill="#4671F6"/><defs><linearGradient id="paint0_linear_207_1292" x1="472.214" y1="386.519" x2="147.742" y2="386.519" gradientUnits="userSpaceOnUse"><stop stop-color="#DDE1E9"/><stop offset=".432" stop-color="#DDE1E9"/><stop offset=".599" stop-color="#F2F4F8"/><stop offset="1" stop-color="#FBFCFE"/></linearGradient><linearGradient id="paint1_linear_207_1292" x1="299.699" y1="107.903" x2="212.211" y2="282.498" gradientUnits="userSpaceOnUse"><stop stop-color="#5780FF"/><stop offset=".536" stop-color="#698EFF"/><stop offset=".635" stop-color="#A4BCFD"/><stop offset="1" stop-color="#A4BCFD"/></linearGradient><linearGradient id="paint2_linear_207_1292" x1="299.699" y1="53.903" x2="212.211" y2="228.498" gradientUnits="userSpaceOnUse"><stop stop-color="#5780FF"/><stop offset=".536" stop-color="#698EFF"/><stop offset=".635" stop-color="#A4BCFD"/><stop offset="1" stop-color="#A4BCFD"/></linearGradient><linearGradient id="paint3_linear_207_1292" x1="299.701" y1="-.096" x2="212.213" y2="174.498" gradientUnits="userSpaceOnUse"><stop stop-color="#5780FF"/><stop offset=".536" stop-color="#698EFF"/><stop offset=".635" stop-color="#A4BCFD"/><stop offset="1" stop-color="#A4BCFD"/></linearGradient><filter id="filter0_f_207_1292" x="26" y="235.094" width="525.234" height="292.727" filterUnits="userSpaceOnUse" color-interpolation-filters="sRGB"><feFlood flood-opacity="0" result="BackgroundImageFix"/><feBlend in="SourceGraphic" in2="BackgroundImageFix" result="shape"/><feGaussianBlur stdDeviation="2" result="effect1_foregroundBlur_207_1292"/></filter><filter id="filter1_f_207_1292" x="20" y="52.332" width="537.234" height="304.727" filterUnits="userSpaceOnUse" color-interpolation-filters="sRGB"><feFlood flood-opacity="0" result="BackgroundImageFix"/><feBlend in="SourceGraphic" in2="BackgroundImageFix" result="shape"/><feGaussianBlur stdDeviation="5" result="effect1_foregroundBlur_207_1292"/></filter><filter id="filter2_f_207_1292" x="0" y="-144.429" width="577.234" height="344.727" filterUnits="userSpaceOnUse" color-interpolation-filters="sRGB"><feFlood flood-opacity="0" result="BackgroundImageFix"/><feBlend in="SourceGraphic" in2="BackgroundImageFix" result="shape"/><feGaussianBlur stdDeviation="15" result="effect1_foregroundBlur_207_1292"/></filter><filter id="filter3_f_207_1292" x="251.633" y="256.932" width="119.807" height="37.127" filterUnits="userSpaceOnUse" color-interpolation-filters="sRGB"><feFlood flood-opacity="0" result="BackgroundImageFix"/><feBlend in="SourceGraphic" in2="BackgroundImageFix" result="shape"/><feGaussianBlur stdDeviation="7.5" result="effect1_foregroundBlur_207_1292"/></filter></defs></svg>