<svg width="768" height="491" fill="none" xmlns="http://www.w3.org/2000/svg"><g clip-path="url(#clip0_989_6369)"><g opacity=".3" filter="url(#filter0_f_989_6369)"><path d="M154.361 428.522c0-11.045 8.618-22.43 19.249-25.428l386.487-109.001c10.631-2.998 19.249 3.526 19.249 14.571v81.811c0 11.046-8.618 22.43-19.249 25.429l-386.487 109c-10.631 2.999-19.249-3.525-19.249-14.571v-81.811z" fill="#4671F6"/></g><path opacity=".3" d="M189.981 393.249c0-10.769 8.403-21.87 18.768-24.793l386.487-109.001c10.365-2.923 18.768 3.438 18.768 14.207v81.811c0 10.769-8.403 21.87-18.768 24.793L208.749 489.267c-10.365 2.923-18.768-3.438-18.768-14.207v-81.811z" stroke="#4671F6"/><path opacity=".15" d="M189.981 240.986c0-10.77 8.403-21.87 18.768-24.793l386.487-109.001c10.365-2.923 18.768 3.437 18.768 14.207v81.811c0 10.769-8.403 21.869-18.768 24.793l-386.487 109c-10.365 2.924-18.768-3.437-18.768-14.207v-81.81z" stroke="#4671F6"/><path opacity=".05" d="M189.981 88.722c0-10.77 8.403-21.87 18.768-24.793l386.487-109c10.365-2.924 18.768 3.437 18.768 14.207v81.81c0 10.77-8.403 21.87-18.768 24.793L208.749 184.74c-10.365 2.923-18.768-3.437-18.768-14.207v-81.81z" stroke="#4671F6"/><g opacity=".2" filter="url(#filter1_f_989_6369)"><path d="M154.361 283.287c0-11.046 8.618-22.431 19.249-25.429l386.487-109.001c10.631-2.998 19.249 3.526 19.249 14.571v81.811c0 11.046-8.618 22.431-19.249 25.429l-386.487 109c-10.631 2.999-19.249-3.525-19.249-14.571v-81.81z" fill="#4671F6"/></g><g opacity=".03" filter="url(#filter2_f_989_6369)"><path d="M154.361 138.051c0-11.046 8.618-22.431 19.249-25.429l386.487-109c10.631-2.999 19.249 3.525 19.249 14.57v81.811c0 11.046-8.618 22.431-19.249 25.429L173.61 234.433c-10.631 2.998-19.249-3.526-19.249-14.571v-81.811z" fill="#4671F6"/></g><path fill="url(#paint0_linear_989_6369)" d="M250 332h267v163H250z"/><path d="M371.609 285.602a26.005 26.005 0 0115.867-.12l123.818 38.647c7.962 2.485 8.017 13.735.08 16.298l-123.65 39.925a26 26 0 01-16.36-.127l-117.156-39.84c-7.772-2.643-7.715-13.654.082-16.217l117.319-38.566z" fill="#fff"/><g filter="url(#filter3_f_989_6369)"><path d="M348 320h73v5h-73v-5z" fill="#A5BDFE"/></g><path d="M316.61 292.029l45.68 16.896 86.529-55.596-56.951-15.378a5.994 5.994 0 00-3.219.026l-71.612 20.549a6 6 0 00-4.345 5.767v22.108a6 6 0 003.918 5.628z" fill="url(#paint1_linear_989_6369)"/><path d="M358.75 280.348a6 6 0 014.446-5.636l82.36-22.056c3.898-1.044 7.695 1.98 7.548 6.013l-.818 22.51a5.999 5.999 0 01-4.381 5.56l-82.164 22.97c-3.89 1.087-7.721-1.901-7.614-5.938l.623-23.423z" fill="#4671F6"/><path d="M316.61 248.692l45.68 16.897 86.529-55.596-56.951-15.378a6.004 6.004 0 00-3.219.025l-71.612 20.549a6.002 6.002 0 00-4.345 5.768v22.108a5.999 5.999 0 003.918 5.627z" fill="url(#paint2_linear_989_6369)"/><path d="M358.75 237.011a6.001 6.001 0 014.446-5.636l82.36-22.056c3.898-1.044 7.695 1.981 7.548 6.014l-.818 22.51a6 6 0 01-4.381 5.56l-82.164 22.969c-3.89 1.087-7.721-1.901-7.614-5.938l.623-23.423z" fill="#4671F6"/><path d="M316.608 205.356l45.68 16.897 86.529-55.596-56.951-15.378a6.004 6.004 0 00-3.219.025l-71.612 20.55a6 6 0 00-4.345 5.767v22.108a5.999 5.999 0 003.918 5.627z" fill="url(#paint3_linear_989_6369)"/><path d="M358.748 193.675a6.001 6.001 0 014.446-5.636l82.36-22.056c3.898-1.044 7.695 1.981 7.548 6.014l-.818 22.51a6 6 0 01-4.381 5.56l-82.164 22.969c-3.89 1.087-7.721-1.901-7.614-5.938l.623-23.423z" fill="#4671F6"/></g><defs><linearGradient id="paint0_linear_989_6369" x1="517" y1="413.5" x2="250" y2="413.5" gradientUnits="userSpaceOnUse"><stop stop-color="#DDE1E9"/><stop offset=".432" stop-color="#DDE1E9"/><stop offset=".599" stop-color="#F2F4F8"/><stop offset="1" stop-color="#FBFCFE"/></linearGradient><linearGradient id="paint1_linear_989_6369" x1="374.784" y1="182.669" x2="302.901" y2="326.124" gradientUnits="userSpaceOnUse"><stop stop-color="#5780FF"/><stop offset=".536" stop-color="#698EFF"/><stop offset=".635" stop-color="#A4BCFD"/><stop offset="1" stop-color="#A4BCFD"/></linearGradient><linearGradient id="paint2_linear_989_6369" x1="374.784" y1="139.332" x2="302.901" y2="282.788" gradientUnits="userSpaceOnUse"><stop stop-color="#5780FF"/><stop offset=".536" stop-color="#698EFF"/><stop offset=".635" stop-color="#A4BCFD"/><stop offset="1" stop-color="#A4BCFD"/></linearGradient><linearGradient id="paint3_linear_989_6369" x1="374.782" y1="95.996" x2="302.899" y2="239.452" gradientUnits="userSpaceOnUse"><stop stop-color="#5780FF"/><stop offset=".536" stop-color="#698EFF"/><stop offset=".635" stop-color="#A4BCFD"/><stop offset="1" stop-color="#A4BCFD"/></linearGradient><filter id="filter0_f_989_6369" x="150.361" y="289.364" width="432.984" height="240.269" filterUnits="userSpaceOnUse" color-interpolation-filters="sRGB"><feFlood flood-opacity="0" result="BackgroundImageFix"/><feBlend in="SourceGraphic" in2="BackgroundImageFix" result="shape"/><feGaussianBlur stdDeviation="2" result="effect1_foregroundBlur_989_6369"/></filter><filter id="filter1_f_989_6369" x="144.361" y="138.128" width="444.984" height="252.269" filterUnits="userSpaceOnUse" color-interpolation-filters="sRGB"><feFlood flood-opacity="0" result="BackgroundImageFix"/><feBlend in="SourceGraphic" in2="BackgroundImageFix" result="shape"/><feGaussianBlur stdDeviation="5" result="effect1_foregroundBlur_989_6369"/></filter><filter id="filter2_f_989_6369" x="124.361" y="-27.107" width="484.984" height="292.269" filterUnits="userSpaceOnUse" color-interpolation-filters="sRGB"><feFlood flood-opacity="0" result="BackgroundImageFix"/><feBlend in="SourceGraphic" in2="BackgroundImageFix" result="shape"/><feGaussianBlur stdDeviation="15" result="effect1_foregroundBlur_989_6369"/></filter><filter id="filter3_f_989_6369" x="333" y="305" width="103" height="35" filterUnits="userSpaceOnUse" color-interpolation-filters="sRGB"><feFlood flood-opacity="0" result="BackgroundImageFix"/><feBlend in="SourceGraphic" in2="BackgroundImageFix" result="shape"/><feGaussianBlur stdDeviation="7.5" result="effect1_foregroundBlur_989_6369"/></filter><clipPath id="clip0_989_6369"><path fill="#fff" d="M0 0h768v491H0z"/></clipPath></defs></svg>