<svg width="40" height="40" viewBox="0 0 40 40" fill="none" xmlns="http://www.w3.org/2000/svg">
<g clip-path="url(#clip0_982_4244)">
<rect width="40" height="40" rx="8" fill="#F2F4F8"/>
<g filter="url(#filter0_f_982_4244)">
<path d="M9 37L30 37L30 38L9 38L9 37Z" fill="#7888DC"/>
</g>
<path d="M14.2653 33.57L15.5 34L29 7L27.9735 6.44807C25.7355 5.24474 23.1233 4.93852 20.6676 5.59162L12.4678 7.77241C11.1536 8.12194 10.2389 9.31174 10.2389 10.6716L10.2389 27.9038C10.2389 30.4568 11.8544 32.7302 14.2653 33.57Z" fill="url(#paint0_linear_982_4244)"/>
<path d="M13.8629 12.3779C13.8629 11.0007 14.8006 9.80038 16.1369 9.46707L27.1556 6.71867C29.0487 6.24649 30.8817 7.67844 30.8817 9.62949L30.8816 27.9757C30.8816 29.2959 30.0187 30.4609 28.7558 30.8456L17.7371 34.2019C15.8097 34.789 13.8629 33.3469 13.8629 31.3321L13.8629 12.3779Z" fill="#4671F6"/>
<circle cx="22.2147" cy="18.0706" r="6.06426" fill="url(#paint1_linear_982_4244)"/>
<circle cx="22.2138" cy="18.0691" r="1.21286" fill="#4671F6"/>
<path d="M16.1504 24.7015C16.1504 23.9697 16.5206 23.2876 17.1341 22.8888L20.3875 20.7741C20.992 20.3812 21.7535 20.9698 21.5255 21.6538L20.2709 25.4177C19.9831 26.2812 19.1751 26.8636 18.2649 26.8636C17.0971 26.8636 16.1504 25.9169 16.1504 24.749L16.1504 24.7015Z" fill="white"/>
</g>
<defs>
<filter id="filter0_f_982_4244" x="-6" y="22" width="51" height="31" filterUnits="userSpaceOnUse" color-interpolation-filters="sRGB">
<feFlood flood-opacity="0" result="BackgroundImageFix"/>
<feBlend mode="normal" in="SourceGraphic" in2="BackgroundImageFix" result="shape"/>
<feGaussianBlur stdDeviation="7.5" result="effect1_foregroundBlur_982_4244"/>
</filter>
<linearGradient id="paint0_linear_982_4244" x1="21.9126" y1="0.481648" x2="7.66159" y2="18.5229" gradientUnits="userSpaceOnUse">
<stop stop-color="#5780FF"/>
<stop offset="0.536458" stop-color="#698EFF"/>
<stop offset="0.635417" stop-color="#A4BCFD"/>
<stop offset="1" stop-color="#A4BCFD"/>
</linearGradient>
<linearGradient id="paint1_linear_982_4244" x1="11.1473" y1="28.38" x2="28.2788" y2="14.7355" gradientUnits="userSpaceOnUse">
<stop stop-color="#D9D9D9"/>
<stop offset="1" stop-color="#D9D9D9" stop-opacity="0"/>
</linearGradient>
<clipPath id="clip0_982_4244">
<rect width="40" height="40" rx="8" fill="white"/>
</clipPath>
</defs>
</svg>
