<svg width="70" height="70" viewBox="0 0 70 70" fill="none" xmlns="http://www.w3.org/2000/svg">
<g clip-path="url(#clip0_192_286)">
<rect width="70" height="70" rx="8" fill="#F2F4F8"/>
<g filter="url(#filter0_f_192_286)">
<path d="M20 59L50 59L50 61L20 61L20 59Z" fill="#7888DC"/>
</g>
<path fill-rule="evenodd" clip-rule="evenodd" d="M26.4912 47.5143L25.5329 47.5143L25.5329 43.681L26.4912 43.681C27.5492 43.681 28.4079 42.8204 28.4079 41.7643L28.4079 28.3477C28.4079 27.2916 27.5492 26.431 26.4912 26.431L25.5329 26.431L25.5329 22.5977L26.4912 22.5977C29.6614 22.5977 32.2412 25.1775 32.2412 28.3477L32.2412 33.1393L35.1162 33.1393L35.1162 36.9727L32.2412 36.9727L32.2412 41.7643C32.2412 44.9345 29.6614 47.5143 26.4912 47.5143Z" fill="url(#paint0_linear_192_286)"/>
<path d="M50.223 51.3478L40.6396 51.3478C37.4637 51.3478 34.8896 48.7737 34.8896 45.5978L34.8896 26.4312C34.8896 23.2552 37.4637 20.6812 40.6396 20.6812L50.223 20.6812C53.3989 20.6812 55.973 23.2552 55.973 26.4312L55.973 45.5978C55.973 48.7737 53.3989 51.3478 50.223 51.3478Z" fill="#BDCEEE"/>
<path d="M21.8122 30.2644L17.9788 30.2644C15.8609 30.2644 14.1455 28.549 14.1455 26.4311L14.1455 22.5977C14.1455 20.4798 15.8609 18.7644 17.9788 18.7644L21.8122 18.7644C23.9301 18.7644 25.6455 20.4798 25.6455 22.5977L25.6455 26.4311C25.6455 28.549 23.9301 30.2644 21.8122 30.2644Z" fill="#BDCEEE"/>
<path d="M21.8122 51.3477L17.9788 51.3477C15.8609 51.3477 14.1455 49.6322 14.1455 47.5143L14.1455 43.681C14.1455 41.5631 15.8609 39.8477 17.9788 39.8477L21.8122 39.8477C23.9301 39.8477 25.6455 41.5631 25.6455 43.681L25.6455 47.5143C25.6455 49.6322 23.9301 51.3477 21.8122 51.3477Z" fill="#BDCEEE"/>
<path d="M49.2653 30.2644L41.5986 30.2644C40.0116 30.2644 38.7236 28.9783 38.7236 27.3894C38.7236 25.8005 40.0116 24.5144 41.5986 24.5144L49.2653 24.5144C50.8523 24.5144 52.1403 25.8005 52.1403 27.3894C52.1403 28.9783 50.8523 30.2644 49.2653 30.2644Z" fill="url(#paint1_linear_192_286)"/>
<path d="M49.2653 37.9312L41.5986 37.9312C40.0116 37.9312 38.7236 36.6451 38.7236 35.0562C38.7236 33.4672 40.0116 32.1812 41.5986 32.1812L49.2653 32.1812C50.8523 32.1812 52.1403 33.4672 52.1403 35.0562C52.1403 36.6451 50.8523 37.9312 49.2653 37.9312Z" fill="url(#paint2_linear_192_286)"/>
<path d="M45.4316 47.5144C47.0195 47.5144 48.3066 46.2272 48.3066 44.6394C48.3066 43.0516 47.0195 41.7644 45.4316 41.7644C43.8438 41.7644 42.5566 43.0516 42.5566 44.6394C42.5566 46.2272 43.8438 47.5144 45.4316 47.5144Z" fill="url(#paint3_linear_192_286)"/>
</g>
<defs>
<filter id="filter0_f_192_286" x="5" y="44" width="60" height="32" filterUnits="userSpaceOnUse" color-interpolation-filters="sRGB">
<feFlood flood-opacity="0" result="BackgroundImageFix"/>
<feBlend mode="normal" in="SourceGraphic" in2="BackgroundImageFix" result="shape"/>
<feGaussianBlur stdDeviation="7.5" result="effect1_foregroundBlur_192_286"/>
</filter>
<linearGradient id="paint0_linear_192_286" x1="30.3245" y1="22.5977" x2="30.3245" y2="47.5143" gradientUnits="userSpaceOnUse">
<stop stop-color="#BDCEEE"/>
<stop offset="1" stop-color="#4671F6"/>
</linearGradient>
<linearGradient id="paint1_linear_192_286" x1="45.432" y1="24.5144" x2="45.432" y2="30.2644" gradientUnits="userSpaceOnUse">
<stop stop-color="#BDCEEE"/>
<stop offset="1" stop-color="#4671F6"/>
</linearGradient>
<linearGradient id="paint2_linear_192_286" x1="45.432" y1="32.1812" x2="45.432" y2="37.9312" gradientUnits="userSpaceOnUse">
<stop stop-color="#BDCEEE"/>
<stop offset="1" stop-color="#4671F6"/>
</linearGradient>
<linearGradient id="paint3_linear_192_286" x1="45.4316" y1="41.7644" x2="45.4316" y2="47.5144" gradientUnits="userSpaceOnUse">
<stop stop-color="#BDCEEE"/>
<stop offset="1" stop-color="#4671F6"/>
</linearGradient>
<clipPath id="clip0_192_286">
<rect width="70" height="70" rx="8" fill="white"/>
</clipPath>
</defs>
</svg>
