<svg width="388" height="500" fill="none" xmlns="http://www.w3.org/2000/svg"><g clip-path="url(#clip0_476_1245)"><path fill="url(#paint0_linear_476_1245)" d="M79.598 360.769h227.62V500H79.598z"/><path d="M182.678 321.611a26.005 26.005 0 0115.895-.12l103.777 32.456c7.025 2.197 7.074 12.123.07 14.389l-103.598 33.518a25.998 25.998 0 01-16.389-.127l-98.104-33.428c-6.856-2.336-6.807-12.051.074-14.318l98.275-32.37z" fill="#fff"/><g opacity=".2" filter="url(#filter0_f_476_1245)"><path fill="url(#paint1_linear_476_1245)" d="M68.909 275.506h13.644v34.288H68.909z"/><g clip-path="url(#clip1_476_1245)"><path d="M82.539 267.954v7.894l-6.817 3.588-6.818-3.588v-7.894l.434-.228 6.384 3.278 6.306-3.319.51.269z" fill="#6389FF"/><path d="M68.904 267.954l6.818 3.588 6.817-3.588-6.817-3.588-6.818 3.588z" fill="#A5BDFE"/><path d="M82.539 267.954v7.894l-6.817 3.588v-7.894l6.817-3.588z" fill="#4671F6"/></g></g><path fill="url(#paint2_linear_476_1245)" d="M211.8 135h41.9v106h-41.9z"/><path d="M253.71 111.958v24.251l-20.945 11.023-20.944-11.023v-24.251l1.334-.7 19.61 10.07 19.374-10.197 1.571.827z" fill="#6389FF"/><path d="M211.821 111.958l20.944 11.023 20.945-11.023-20.945-11.023-20.944 11.023z" fill="#A5BDFE"/><path d="M253.71 111.958v24.251l-20.944 11.023v-24.251l20.944-11.023z" fill="#4671F6"/><g opacity=".2" filter="url(#filter1_f_476_1245)"><path fill="url(#paint3_linear_476_1245)" d="M358.688 379.342h100.185v253.451H358.688z"/><path d="M458.9 324.247v57.986l-50.078 26.357-50.079-26.357v-57.986l3.189-1.674 46.89 24.078 46.322-24.381 3.756 1.977z" fill="#6389FF"/><path d="M358.743 324.247l50.079 26.357 50.078-26.357-50.078-26.357-50.079 26.357z" fill="#A5BDFE"/></g><path fill="url(#paint4_linear_476_1245)" d="M22.199 218h27.6v70h-27.6z"/><g clip-path="url(#clip2_476_1245)"><path d="M49.813 203.002v16l-13.818 7.273-13.818-7.273v-16l.88-.462 12.938 6.644 12.782-6.727 1.036.545z" fill="#6389FF"/><path d="M22.177 203.002l13.818 7.273 13.818-7.273-13.818-7.273-13.818 7.273z" fill="#A5BDFE"/><path d="M49.813 203.002v16l-13.818 7.273v-16l13.818-7.273z" fill="#4671F6"/></g><g opacity=".5"><path fill="url(#paint5_linear_476_1245)" d="M131 196h19.1v48H131z"/><path d="M150.08 185.428v11.05l-9.543 5.023-9.544-5.023v-11.05l.608-.319 8.936 4.588 8.828-4.646.715.377z" fill="#6389FF"/><path d="M130.993 185.428l9.544 5.023 9.543-5.023-9.543-5.023-9.544 5.023z" fill="#A5BDFE"/><path d="M150.081 185.428v11.051l-9.544 5.023v-11.051l9.544-5.023z" fill="#4671F6"/></g><g opacity=".3"><path fill="url(#paint6_linear_476_1245)" d="M101.031 265.785h18.99v48.346h-18.99z"/><path d="M120.08 255.427v11.051l-9.543 5.023-9.544-5.023v-11.051l.608-.319 8.936 4.589 8.828-4.646.715.376z" fill="#6389FF"/><path d="M100.993 255.427l9.544 5.023 9.543-5.023-9.543-5.023-9.544 5.023z" fill="#A5BDFE"/><path d="M120.081 255.427v11.051l-9.544 5.023V260.45l9.544-5.023z" fill="#4671F6"/></g><path fill="url(#paint7_linear_476_1245)" d="M290.2 268h27.7v70h-27.7z"/><g clip-path="url(#clip3_476_1245)"><path d="M317.814 253.002v16l-13.818 7.272-13.818-7.272v-16l.88-.462 12.938 6.643 12.782-6.727 1.036.546z" fill="#6389FF"/><path d="M290.178 253.001l13.818 7.273 13.818-7.273-13.818-7.272-13.818 7.272z" fill="#A5BDFE"/><path d="M317.814 253.001v16l-13.818 7.273v-16l13.818-7.273z" fill="#4671F6"/></g><path fill="url(#paint8_linear_476_1245)" d="M283.482 194.312h13.45v33.908h-13.45z"/><g clip-path="url(#clip4_476_1245)"><path d="M296.921 187.046v7.75l-6.693 3.523-6.694-3.523v-7.75l.426-.224 6.268 3.218 6.191-3.259.502.265z" fill="#6389FF"/><path d="M283.534 187.046l6.694 3.523 6.693-3.523-6.693-3.523-6.694 3.523z" fill="#A5BDFE"/><path d="M296.921 187.046v7.75l-6.693 3.523v-7.75l6.693-3.523z" fill="#4671F6"/></g><path fill="url(#paint9_linear_476_1245)" d="M293.482 199.312h13.45v33.908h-13.45z"/><g clip-path="url(#clip5_476_1245)"><path d="M306.921 192.046v7.75l-6.693 3.523-6.694-3.523v-7.75l.426-.224 6.268 3.218 6.191-3.259.502.265z" fill="#6389FF"/><path d="M293.534 192.046l6.694 3.523 6.693-3.523-6.693-3.523-6.694 3.523z" fill="#A5BDFE"/><path d="M306.921 192.046v7.75l-6.693 3.523v-7.75l6.693-3.523z" fill="#4671F6"/></g><path fill="url(#paint10_linear_476_1245)" d="M273.482 200.311h13.45v33.908h-13.45z"/><g clip-path="url(#clip6_476_1245)"><path d="M286.921 193.045v7.751l-6.693 3.523-6.694-3.523v-7.751l.426-.223 6.268 3.218 6.191-3.259.502.264z" fill="#6389FF"/><path d="M273.534 193.045l6.694 3.523 6.693-3.523-6.693-3.523-6.694 3.523z" fill="#A5BDFE"/><path d="M286.921 193.045v7.751l-6.693 3.523v-7.751l6.693-3.523z" fill="#4671F6"/></g><path fill="url(#paint11_linear_476_1245)" d="M303.482 204.312h13.45v33.908h-13.45z"/><g clip-path="url(#clip7_476_1245)"><path d="M316.921 197.046v7.75l-6.693 3.523-6.694-3.523v-7.75l.426-.224 6.268 3.218 6.191-3.259.502.265z" fill="#6389FF"/><path d="M303.534 197.046l6.694 3.523 6.693-3.523-6.693-3.523-6.694 3.523z" fill="#A5BDFE"/><path d="M316.921 197.046v7.75l-6.693 3.523v-7.75l6.693-3.523z" fill="#4671F6"/></g><path fill="url(#paint12_linear_476_1245)" d="M284.482 206.312h13.45v33.908h-13.45z"/><g clip-path="url(#clip8_476_1245)"><path d="M297.921 199.046v7.75l-6.693 3.523-6.694-3.523v-7.75l.426-.224 6.268 3.218 6.191-3.259.502.265z" fill="#6389FF"/><path d="M284.534 199.046l6.694 3.523 6.693-3.523-6.693-3.523-6.694 3.523z" fill="#A5BDFE"/><path d="M297.921 199.046v7.75l-6.693 3.523v-7.75l6.693-3.523z" fill="#4671F6"/></g><path fill="url(#paint13_linear_476_1245)" d="M313.482 209.312h13.45v33.908h-13.45z"/><g clip-path="url(#clip9_476_1245)"><path d="M326.921 202.046v7.75l-6.693 3.523-6.694-3.523v-7.75l.426-.224 6.268 3.218 6.191-3.259.502.265z" fill="#6389FF"/><path d="M313.534 202.046l6.694 3.523 6.693-3.523-6.693-3.523-6.694 3.523z" fill="#A5BDFE"/><path d="M326.921 202.046v7.75l-6.693 3.523v-7.75l6.693-3.523z" fill="#4671F6"/></g><path fill="url(#paint14_linear_476_1245)" d="M294.482 211.312h13.45v33.908h-13.45z"/><g clip-path="url(#clip10_476_1245)"><path d="M307.921 204.046v7.75l-6.693 3.523-6.694-3.523v-7.75l.426-.224 6.268 3.218 6.191-3.259.502.265z" fill="#6389FF"/><path d="M294.534 204.046l6.694 3.523 6.693-3.523-6.693-3.523-6.694 3.523z" fill="#A5BDFE"/><path d="M307.921 204.046v7.75l-6.693 3.523v-7.75l6.693-3.523z" fill="#4671F6"/></g><path fill="url(#paint15_linear_476_1245)" d="M323.482 214.312h13.45v33.908h-13.45z"/><g clip-path="url(#clip11_476_1245)"><path d="M336.921 207.046v7.75l-6.693 3.523-6.694-3.523v-7.75l.426-.224 6.268 3.218 6.191-3.259.502.265z" fill="#6389FF"/><path d="M323.534 207.046l6.694 3.523 6.693-3.523-6.693-3.523-6.694 3.523z" fill="#A5BDFE"/><path d="M336.921 207.046v7.75l-6.693 3.523v-7.75l6.693-3.523z" fill="#4671F6"/></g><path fill="url(#paint16_linear_476_1245)" d="M304.482 216.312h13.45v33.908h-13.45z"/><g clip-path="url(#clip12_476_1245)"><path d="M317.921 209.046v7.75l-6.693 3.523-6.694-3.523v-7.75l.426-.224 6.268 3.218 6.191-3.259.502.265z" fill="#6389FF"/><path d="M304.534 209.046l6.694 3.523 6.693-3.523-6.693-3.523-6.694 3.523z" fill="#A5BDFE"/><path d="M317.921 209.046v7.75l-6.693 3.523v-7.75l6.693-3.523z" fill="#4671F6"/></g><path fill="url(#paint17_linear_476_1245)" d="M263.482 207.311h13.45v33.908h-13.45z"/><g clip-path="url(#clip13_476_1245)"><path d="M276.921 200.045v7.751l-6.693 3.523-6.694-3.523v-7.751l.426-.223 6.268 3.218 6.191-3.259.502.264z" fill="#6389FF"/><path d="M263.534 200.045l6.694 3.523 6.693-3.523-6.693-3.523-6.694 3.523z" fill="#A5BDFE"/><path d="M276.921 200.045v7.751l-6.693 3.523v-7.751l6.693-3.523z" fill="#4671F6"/></g><path fill="url(#paint18_linear_476_1245)" d="M274.482 213.312h13.45v33.908h-13.45z"/><g clip-path="url(#clip14_476_1245)"><path d="M287.921 206.046v7.75l-6.693 3.523-6.694-3.523v-7.75l.426-.224 6.268 3.218 6.191-3.259.502.265z" fill="#6389FF"/><path d="M274.534 206.046l6.694 3.523 6.693-3.523-6.693-3.523-6.694 3.523z" fill="#A5BDFE"/><path d="M287.921 206.046v7.75l-6.693 3.523v-7.75l6.693-3.523z" fill="#4671F6"/></g><path fill="url(#paint19_linear_476_1245)" d="M284.482 218.312h13.45v33.908h-13.45z"/><g clip-path="url(#clip15_476_1245)"><path d="M297.921 211.046v7.75l-6.693 3.523-6.694-3.523v-7.75l.426-.224 6.268 3.218 6.191-3.259.502.265z" fill="#6389FF"/><path d="M284.534 211.046l6.694 3.523 6.693-3.523-6.693-3.523-6.694 3.523z" fill="#A5BDFE"/><path d="M297.921 211.046v7.75l-6.693 3.523v-7.75l6.693-3.523z" fill="#4671F6"/></g><path fill="url(#paint20_linear_476_1245)" d="M294.482 223.312h13.45v33.908h-13.45z"/><g clip-path="url(#clip16_476_1245)"><path d="M307.921 216.046v7.75l-6.693 3.523-6.694-3.523v-7.75l.426-.224 6.268 3.218 6.191-3.259.502.265z" fill="#6389FF"/><path d="M294.534 216.046l6.694 3.523 6.693-3.523-6.693-3.523-6.694 3.523z" fill="#A5BDFE"/><path d="M307.921 216.046v7.75l-6.693 3.523v-7.75l6.693-3.523z" fill="#4671F6"/></g><path fill="url(#paint21_linear_476_1245)" d="M304.482 228.312h13.45v33.908h-13.45z"/><g clip-path="url(#clip17_476_1245)"><path d="M317.921 221.046v7.75l-6.693 3.523-6.694-3.523v-7.75l.426-.224 6.268 3.218 6.191-3.259.502.265z" fill="#6389FF"/><path d="M304.534 221.046l6.694 3.523 6.693-3.523-6.693-3.523-6.694 3.523z" fill="#A5BDFE"/><path d="M317.921 221.046v7.75l-6.693 3.523v-7.75l6.693-3.523z" fill="#4671F6"/></g><g filter="url(#filter2_f_476_1245)"><path fill="url(#paint22_linear_476_1245)" d="M-6.518 354.312h13.45v33.908h-13.45z"/><g clip-path="url(#clip18_476_1245)"><path d="M6.921 347.046v7.75l-6.693 3.523-6.694-3.523v-7.75l.426-.224 6.268 3.218 6.191-3.259.502.265z" fill="#6389FF"/><path d="M-6.466 347.046l6.694 3.523 6.693-3.523-6.693-3.523-6.694 3.523z" fill="#A5BDFE"/><path d="M6.921 347.046v7.75l-6.693 3.523v-7.75l6.693-3.523z" fill="#4671F6"/></g><path fill="url(#paint23_linear_476_1245)" d="M3.482 359.312h13.45v33.908H3.482z"/><g clip-path="url(#clip19_476_1245)"><path d="M16.921 352.046v7.75l-6.693 3.523-6.694-3.523v-7.75l.426-.224 6.268 3.218 6.191-3.259.502.265z" fill="#6389FF"/><path d="M3.534 352.046l6.694 3.523 6.693-3.523-6.693-3.523-6.694 3.523z" fill="#A5BDFE"/><path d="M16.921 352.046v7.75l-6.694 3.523v-7.75l6.694-3.523z" fill="#4671F6"/></g><path fill="url(#paint24_linear_476_1245)" d="M23.482 369.312h13.45v33.908h-13.45z"/><g clip-path="url(#clip20_476_1245)"><path d="M36.921 362.046v7.75l-6.693 3.523-6.694-3.523v-7.75l.427-.224 6.267 3.218 6.191-3.259.502.265z" fill="#6389FF"/><path d="M23.534 362.046l6.694 3.523 6.693-3.523-6.693-3.523-6.694 3.523z" fill="#A5BDFE"/><path d="M36.921 362.046v7.75l-6.694 3.523v-7.75l6.694-3.523z" fill="#4671F6"/></g><path fill="url(#paint25_linear_476_1245)" d="M33.482 374.312h13.45v33.908h-13.45z"/><g clip-path="url(#clip21_476_1245)"><path d="M46.921 367.046v7.75l-6.693 3.523-6.694-3.523v-7.75l.427-.224 6.267 3.218 6.191-3.259.502.265z" fill="#6389FF"/><path d="M33.534 367.046l6.694 3.523 6.693-3.523-6.693-3.523-6.694 3.523z" fill="#A5BDFE"/><path d="M46.921 367.046v7.75l-6.694 3.523v-7.75l6.694-3.523z" fill="#4671F6"/></g><path fill="url(#paint26_linear_476_1245)" d="M-5.518 378.312h13.45v33.908h-13.45z"/><g clip-path="url(#clip22_476_1245)"><path d="M7.921 371.046v7.75l-6.693 3.523-6.694-3.523v-7.75l.426-.224 6.268 3.218 6.191-3.259.502.265z" fill="#6389FF"/><path d="M-5.466 371.046l6.694 3.523 6.693-3.523-6.693-3.523-6.694 3.523z" fill="#A5BDFE"/><path d="M7.921 371.046v7.75l-6.693 3.523v-7.75l6.693-3.523z" fill="#4671F6"/></g><path fill="url(#paint27_linear_476_1245)" d="M4.482 383.312h13.45v33.908H4.482z"/><g clip-path="url(#clip23_476_1245)"><path d="M17.921 376.046v7.75l-6.693 3.523-6.694-3.523v-7.75l.426-.224 6.268 3.218 6.191-3.259.502.265z" fill="#6389FF"/><path d="M4.534 376.046l6.694 3.523 6.693-3.523-6.693-3.523-6.694 3.523z" fill="#A5BDFE"/><path d="M17.921 376.046v7.75l-6.694 3.523v-7.75l6.694-3.523z" fill="#4671F6"/></g><path fill="url(#paint28_linear_476_1245)" d="M14.482 388.312h13.45v33.908h-13.45z"/><g clip-path="url(#clip24_476_1245)"><path d="M27.921 381.046v7.75l-6.693 3.523-6.694-3.523v-7.75l.426-.224 6.268 3.218 6.191-3.259.502.265z" fill="#6389FF"/><path d="M14.534 381.046l6.694 3.523 6.693-3.523-6.693-3.523-6.694 3.523z" fill="#A5BDFE"/><path d="M27.921 381.046v7.75l-6.694 3.523v-7.75l6.694-3.523z" fill="#4671F6"/></g></g><g opacity=".5"><path fill="url(#paint29_linear_476_1245)" d="M354.482 258.311h13.45v33.908h-13.45z"/><g clip-path="url(#clip25_476_1245)"><path d="M367.921 251.045v7.751l-6.693 3.523-6.694-3.523v-7.751l.426-.223 6.268 3.218 6.191-3.259.502.264z" fill="#6389FF"/><path d="M354.534 251.045l6.694 3.523 6.693-3.523-6.693-3.523-6.694 3.523z" fill="#A5BDFE"/><path d="M367.921 251.045v7.751l-6.693 3.522v-7.75l6.693-3.523z" fill="#4671F6"/></g></g><g filter="url(#filter3_f_476_1245)"><path d="M169 354h63v5h-63v-5z" fill="#A5BDFE"/></g><path d="M149.5 336.172L166 346l71.5-131-22.547-6.863a10.005 10.005 0 00-5.482-.097l-58.443 15.543a6 6 0 00-4.458 5.798v101.636a6 6 0 002.93 5.155z" fill="url(#paint30_linear_476_1245)"/><path d="M163.273 237.139a6 6 0 014.548-5.822l66.406-16.564c3.786-.944 7.452 1.92 7.452 5.822v100.328a6 6 0 01-4.252 5.739l-66.406 20.228c-3.855 1.174-7.748-1.71-7.748-5.74V237.139z" fill="#4671F6"/><circle cx="201.749" cy="269.469" r="27.939" fill="url(#paint31_linear_476_1245)"/><circle cx="201.749" cy="269.469" r="5.588" fill="#4671F6"/><path d="M173.81 300.02a9.96 9.96 0 014.532-8.351l18.61-12.097c1.587-1.031 3.586.514 2.987 2.31l-7.146 21.438a9.742 9.742 0 01-9.242 6.661c-5.38 0-9.741-4.361-9.741-9.742v-.219z" fill="#fff"/></g><defs><linearGradient id="paint0_linear_476_1245" x1="307.218" y1="430.384" x2="79.598" y2="430.384" gradientUnits="userSpaceOnUse"><stop stop-color="#DDE1E9"/><stop offset=".432" stop-color="#DDE1E9"/><stop offset=".599" stop-color="#F2F4F8"/><stop offset="1" stop-color="#FBFCFE"/></linearGradient><linearGradient id="paint1_linear_476_1245" x1="75.731" y1="275.506" x2="75.731" y2="309.794" gradientUnits="userSpaceOnUse"><stop stop-color="#A5BDFE"/><stop offset="1" stop-color="#F2F4F8" stop-opacity="0"/></linearGradient><linearGradient id="paint2_linear_476_1245" x1="232.75" y1="135" x2="232.75" y2="241" gradientUnits="userSpaceOnUse"><stop stop-color="#A5BDFE"/><stop offset="1" stop-color="#F2F4F8" stop-opacity="0"/></linearGradient><linearGradient id="paint3_linear_476_1245" x1="408.78" y1="379.342" x2="408.78" y2="632.794" gradientUnits="userSpaceOnUse"><stop stop-color="#A5BDFE"/><stop offset="1" stop-color="#F2F4F8" stop-opacity="0"/></linearGradient><linearGradient id="paint4_linear_476_1245" x1="35.999" y1="218" x2="35.999" y2="288" gradientUnits="userSpaceOnUse"><stop stop-color="#A5BDFE"/><stop offset="1" stop-color="#F2F4F8" stop-opacity="0"/></linearGradient><linearGradient id="paint5_linear_476_1245" x1="140.55" y1="196" x2="140.55" y2="244" gradientUnits="userSpaceOnUse"><stop stop-color="#A5BDFE"/><stop offset="1" stop-color="#F2F4F8" stop-opacity="0"/></linearGradient><linearGradient id="paint6_linear_476_1245" x1="110.526" y1="265.785" x2="110.526" y2="314.132" gradientUnits="userSpaceOnUse"><stop stop-color="#A5BDFE"/><stop offset="1" stop-color="#F2F4F8" stop-opacity="0"/></linearGradient><linearGradient id="paint7_linear_476_1245" x1="304.05" y1="268" x2="304.05" y2="338" gradientUnits="userSpaceOnUse"><stop stop-color="#A5BDFE"/><stop offset="1" stop-color="#F2F4F8" stop-opacity="0"/></linearGradient><linearGradient id="paint8_linear_476_1245" x1="290.207" y1="194.312" x2="290.207" y2="228.22" gradientUnits="userSpaceOnUse"><stop stop-color="#A5BDFE"/><stop offset="1" stop-color="#F2F4F8" stop-opacity="0"/></linearGradient><linearGradient id="paint9_linear_476_1245" x1="300.207" y1="199.312" x2="300.207" y2="233.22" gradientUnits="userSpaceOnUse"><stop stop-color="#A5BDFE"/><stop offset="1" stop-color="#F2F4F8" stop-opacity="0"/></linearGradient><linearGradient id="paint10_linear_476_1245" x1="280.207" y1="200.311" x2="280.207" y2="234.219" gradientUnits="userSpaceOnUse"><stop stop-color="#A5BDFE"/><stop offset="1" stop-color="#F2F4F8" stop-opacity="0"/></linearGradient><linearGradient id="paint11_linear_476_1245" x1="310.207" y1="204.312" x2="310.207" y2="238.22" gradientUnits="userSpaceOnUse"><stop stop-color="#A5BDFE"/><stop offset="1" stop-color="#F2F4F8" stop-opacity="0"/></linearGradient><linearGradient id="paint12_linear_476_1245" x1="291.207" y1="206.312" x2="291.207" y2="240.22" gradientUnits="userSpaceOnUse"><stop stop-color="#A5BDFE"/><stop offset="1" stop-color="#F2F4F8" stop-opacity="0"/></linearGradient><linearGradient id="paint13_linear_476_1245" x1="320.207" y1="209.312" x2="320.207" y2="243.22" gradientUnits="userSpaceOnUse"><stop stop-color="#A5BDFE"/><stop offset="1" stop-color="#F2F4F8" stop-opacity="0"/></linearGradient><linearGradient id="paint14_linear_476_1245" x1="301.207" y1="211.312" x2="301.207" y2="245.22" gradientUnits="userSpaceOnUse"><stop stop-color="#A5BDFE"/><stop offset="1" stop-color="#F2F4F8" stop-opacity="0"/></linearGradient><linearGradient id="paint15_linear_476_1245" x1="330.207" y1="214.312" x2="330.207" y2="248.22" gradientUnits="userSpaceOnUse"><stop stop-color="#A5BDFE"/><stop offset="1" stop-color="#F2F4F8" stop-opacity="0"/></linearGradient><linearGradient id="paint16_linear_476_1245" x1="311.207" y1="216.312" x2="311.207" y2="250.22" gradientUnits="userSpaceOnUse"><stop stop-color="#A5BDFE"/><stop offset="1" stop-color="#F2F4F8" stop-opacity="0"/></linearGradient><linearGradient id="paint17_linear_476_1245" x1="270.207" y1="207.311" x2="270.207" y2="241.219" gradientUnits="userSpaceOnUse"><stop stop-color="#A5BDFE"/><stop offset="1" stop-color="#F2F4F8" stop-opacity="0"/></linearGradient><linearGradient id="paint18_linear_476_1245" x1="281.207" y1="213.312" x2="281.207" y2="247.22" gradientUnits="userSpaceOnUse"><stop stop-color="#A5BDFE"/><stop offset="1" stop-color="#F2F4F8" stop-opacity="0"/></linearGradient><linearGradient id="paint19_linear_476_1245" x1="291.207" y1="218.312" x2="291.207" y2="252.22" gradientUnits="userSpaceOnUse"><stop stop-color="#A5BDFE"/><stop offset="1" stop-color="#F2F4F8" stop-opacity="0"/></linearGradient><linearGradient id="paint20_linear_476_1245" x1="301.207" y1="223.312" x2="301.207" y2="257.22" gradientUnits="userSpaceOnUse"><stop stop-color="#A5BDFE"/><stop offset="1" stop-color="#F2F4F8" stop-opacity="0"/></linearGradient><linearGradient id="paint21_linear_476_1245" x1="311.207" y1="228.312" x2="311.207" y2="262.22" gradientUnits="userSpaceOnUse"><stop stop-color="#A5BDFE"/><stop offset="1" stop-color="#F2F4F8" stop-opacity="0"/></linearGradient><linearGradient id="paint22_linear_476_1245" x1=".207" y1="354.312" x2=".207" y2="388.22" gradientUnits="userSpaceOnUse"><stop stop-color="#A5BDFE"/><stop offset="1" stop-color="#F2F4F8" stop-opacity="0"/></linearGradient><linearGradient id="paint23_linear_476_1245" x1="10.207" y1="359.312" x2="10.207" y2="393.22" gradientUnits="userSpaceOnUse"><stop stop-color="#A5BDFE"/><stop offset="1" stop-color="#F2F4F8" stop-opacity="0"/></linearGradient><linearGradient id="paint24_linear_476_1245" x1="30.207" y1="369.312" x2="30.207" y2="403.22" gradientUnits="userSpaceOnUse"><stop stop-color="#A5BDFE"/><stop offset="1" stop-color="#F2F4F8" stop-opacity="0"/></linearGradient><linearGradient id="paint25_linear_476_1245" x1="40.207" y1="374.312" x2="40.207" y2="408.22" gradientUnits="userSpaceOnUse"><stop stop-color="#A5BDFE"/><stop offset="1" stop-color="#F2F4F8" stop-opacity="0"/></linearGradient><linearGradient id="paint26_linear_476_1245" x1="1.207" y1="378.312" x2="1.207" y2="412.22" gradientUnits="userSpaceOnUse"><stop stop-color="#A5BDFE"/><stop offset="1" stop-color="#F2F4F8" stop-opacity="0"/></linearGradient><linearGradient id="paint27_linear_476_1245" x1="11.207" y1="383.312" x2="11.207" y2="417.22" gradientUnits="userSpaceOnUse"><stop stop-color="#A5BDFE"/><stop offset="1" stop-color="#F2F4F8" stop-opacity="0"/></linearGradient><linearGradient id="paint28_linear_476_1245" x1="21.207" y1="388.312" x2="21.207" y2="422.22" gradientUnits="userSpaceOnUse"><stop stop-color="#A5BDFE"/><stop offset="1" stop-color="#F2F4F8" stop-opacity="0"/></linearGradient><linearGradient id="paint29_linear_476_1245" x1="361.207" y1="258.311" x2="361.207" y2="292.219" gradientUnits="userSpaceOnUse"><stop stop-color="#A5BDFE"/><stop offset="1" stop-color="#F2F4F8" stop-opacity="0"/></linearGradient><linearGradient id="paint30_linear_476_1245" x1="200.352" y1="188.448" x2="134.696" y2="271.566" gradientUnits="userSpaceOnUse"><stop stop-color="#5780FF"/><stop offset=".536" stop-color="#698EFF"/><stop offset=".635" stop-color="#A4BCFD"/><stop offset="1" stop-color="#A4BCFD"/></linearGradient><linearGradient id="paint31_linear_476_1245" x1="150.761" y1="316.966" x2="229.687" y2="254.104" gradientUnits="userSpaceOnUse"><stop stop-color="#D9D9D9"/><stop offset="1" stop-color="#D9D9D9" stop-opacity="0"/></linearGradient><clipPath id="clip0_476_1245"><rect width="388" height="500" rx="10" fill="#fff"/></clipPath><clipPath id="clip1_476_1245"><path fill="#fff" transform="translate(67.828 264.007)" d="M0 0h15.787v15.787H0z"/></clipPath><clipPath id="clip2_476_1245"><path fill="#fff" transform="translate(19.995 195.002)" d="M0 0h32v32H0z"/></clipPath><clipPath id="clip3_476_1245"><path fill="#fff" transform="translate(287.996 245.001)" d="M0 0h32v32H0z"/></clipPath><clipPath id="clip4_476_1245"><path fill="#fff" transform="translate(282.478 183.17)" d="M0 0h15.501v15.501H0z"/></clipPath><clipPath id="clip5_476_1245"><path fill="#fff" transform="translate(292.478 188.17)" d="M0 0h15.501v15.501H0z"/></clipPath><clipPath id="clip6_476_1245"><path fill="#fff" transform="translate(272.478 189.17)" d="M0 0h15.501v15.501H0z"/></clipPath><clipPath id="clip7_476_1245"><path fill="#fff" transform="translate(302.478 193.17)" d="M0 0h15.501v15.501H0z"/></clipPath><clipPath id="clip8_476_1245"><path fill="#fff" transform="translate(283.478 195.17)" d="M0 0h15.501v15.501H0z"/></clipPath><clipPath id="clip9_476_1245"><path fill="#fff" transform="translate(312.478 198.17)" d="M0 0h15.501v15.501H0z"/></clipPath><clipPath id="clip10_476_1245"><path fill="#fff" transform="translate(293.478 200.17)" d="M0 0h15.501v15.501H0z"/></clipPath><clipPath id="clip11_476_1245"><path fill="#fff" transform="translate(322.478 203.17)" d="M0 0h15.501v15.501H0z"/></clipPath><clipPath id="clip12_476_1245"><path fill="#fff" transform="translate(303.478 205.17)" d="M0 0h15.501v15.501H0z"/></clipPath><clipPath id="clip13_476_1245"><path fill="#fff" transform="translate(262.478 196.17)" d="M0 0h15.501v15.501H0z"/></clipPath><clipPath id="clip14_476_1245"><path fill="#fff" transform="translate(273.478 202.17)" d="M0 0h15.501v15.501H0z"/></clipPath><clipPath id="clip15_476_1245"><path fill="#fff" transform="translate(283.478 207.17)" d="M0 0h15.501v15.501H0z"/></clipPath><clipPath id="clip16_476_1245"><path fill="#fff" transform="translate(293.478 212.17)" d="M0 0h15.501v15.501H0z"/></clipPath><clipPath id="clip17_476_1245"><path fill="#fff" transform="translate(303.478 217.17)" d="M0 0h15.501v15.501H0z"/></clipPath><clipPath id="clip18_476_1245"><path fill="#fff" transform="translate(-7.522 343.17)" d="M0 0h15.501v15.501H0z"/></clipPath><clipPath id="clip19_476_1245"><path fill="#fff" transform="translate(2.478 348.17)" d="M0 0h15.501v15.501H0z"/></clipPath><clipPath id="clip20_476_1245"><path fill="#fff" transform="translate(22.477 358.17)" d="M0 0h15.501v15.501H0z"/></clipPath><clipPath id="clip21_476_1245"><path fill="#fff" transform="translate(32.477 363.17)" d="M0 0h15.501v15.501H0z"/></clipPath><clipPath id="clip22_476_1245"><path fill="#fff" transform="translate(-6.522 367.17)" d="M0 0h15.501v15.501H0z"/></clipPath><clipPath id="clip23_476_1245"><path fill="#fff" transform="translate(3.478 372.17)" d="M0 0h15.501v15.501H0z"/></clipPath><clipPath id="clip24_476_1245"><path fill="#fff" transform="translate(13.477 377.17)" d="M0 0h15.501v15.501H0z"/></clipPath><clipPath id="clip25_476_1245"><path fill="#fff" transform="translate(353.478 247.17)" d="M0 0h15.501v15.501H0z"/></clipPath><filter id="filter0_f_476_1245" x="65.828" y="262.007" width="19.787" height="49.786" filterUnits="userSpaceOnUse" color-interpolation-filters="sRGB"><feFlood flood-opacity="0" result="BackgroundImageFix"/><feBlend in="SourceGraphic" in2="BackgroundImageFix" result="shape"/><feGaussianBlur stdDeviation="1" result="effect1_foregroundBlur_476_1245"/></filter><filter id="filter1_f_476_1245" x="336.836" y="281.254" width="143.972" height="365.539" filterUnits="userSpaceOnUse" color-interpolation-filters="sRGB"><feFlood flood-opacity="0" result="BackgroundImageFix"/><feBlend in="SourceGraphic" in2="BackgroundImageFix" result="shape"/><feGaussianBlur stdDeviation="7" result="effect1_foregroundBlur_476_1245"/></filter><filter id="filter2_f_476_1245" x="-20.523" y="339.17" width="72.501" height="87.049" filterUnits="userSpaceOnUse" color-interpolation-filters="sRGB"><feFlood flood-opacity="0" result="BackgroundImageFix"/><feBlend in="SourceGraphic" in2="BackgroundImageFix" result="shape"/><feGaussianBlur stdDeviation="2" result="effect1_foregroundBlur_476_1245"/></filter><filter id="filter3_f_476_1245" x="154" y="339" width="93" height="35" filterUnits="userSpaceOnUse" color-interpolation-filters="sRGB"><feFlood flood-opacity="0" result="BackgroundImageFix"/><feBlend in="SourceGraphic" in2="BackgroundImageFix" result="shape"/><feGaussianBlur stdDeviation="7.5" result="effect1_foregroundBlur_476_1245"/></filter></defs></svg>