<svg width="197" height="154" fill="none" xmlns="http://www.w3.org/2000/svg"><g clip-path="url(#clip0_623_1551)"><g filter="url(#filter0_f_623_1551)"><circle cx="159.5" cy="64.5" r="84.5" transform="rotate(75 159.5 64.5)" fill="url(#paint0_linear_623_1551)"/></g><g filter="url(#filter1_f_623_1551)"><circle cx="134" cy="57" r="40" fill="url(#paint1_linear_623_1551)"/></g><path fill-rule="evenodd" clip-rule="evenodd" d="M198 171c35.899 0 65-29.101 65-65 0-35.898-29.101-65-65-65-21.729 0-40.969 10.663-52.771 27.04-3.849 5.343-11.587 7.13-17.583 4.408A49.823 49.823 0 00107 68c-27.614 0-50 22.386-50 50s22.386 50 50 50a49.795 49.795 0 0031.762-11.383c5.08-4.183 13.009-4.455 18.101-.288C168.069 165.499 182.392 171 198 171z" fill="url(#paint2_linear_623_1551)"/><circle cx="94" cy="193" r="50" fill="url(#paint3_linear_623_1551)"/><circle cx="154" cy="175" r="50" fill="url(#paint4_linear_623_1551)"/></g><defs><linearGradient id="paint0_linear_623_1551" x1="78.622" y1="145.379" x2="222.272" y2="-6.721" gradientUnits="userSpaceOnUse"><stop stop-color="#2B5DBD"/><stop offset="1" stop-color="#6992EC"/></linearGradient><linearGradient id="paint1_linear_623_1551" x1="94" y1="-14.2" x2="163.714" y2="23.286" gradientUnits="userSpaceOnUse"><stop stop-color="#2C5EBE"/><stop offset="1" stop-color="#6992EC"/></linearGradient><linearGradient id="paint2_linear_623_1551" x1="154.45" y1="47.5" x2="238.3" y2="160.6" gradientUnits="userSpaceOnUse"><stop stop-color="#fff"/><stop offset="1" stop-color="#6992EC"/></linearGradient><linearGradient id="paint3_linear_623_1551" x1="60.5" y1="148" x2="125" y2="235" gradientUnits="userSpaceOnUse"><stop stop-color="#fff"/><stop offset="1" stop-color="#6992EC"/></linearGradient><linearGradient id="paint4_linear_623_1551" x1="120.5" y1="130" x2="185" y2="217" gradientUnits="userSpaceOnUse"><stop stop-color="#fff"/><stop offset="1" stop-color="#6992EC"/></linearGradient><filter id="filter0_f_623_1551" x="60.98" y="-34.021" width="197.042" height="197.042" filterUnits="userSpaceOnUse" color-interpolation-filters="sRGB"><feFlood flood-opacity="0" result="BackgroundImageFix"/><feBlend in="SourceGraphic" in2="BackgroundImageFix" result="shape"/><feGaussianBlur stdDeviation="7" result="effect1_foregroundBlur_623_1551"/></filter><filter id="filter1_f_623_1551" x="80" y="3" width="108" height="108" filterUnits="userSpaceOnUse" color-interpolation-filters="sRGB"><feFlood flood-opacity="0" result="BackgroundImageFix"/><feBlend in="SourceGraphic" in2="BackgroundImageFix" result="shape"/><feGaussianBlur stdDeviation="7" result="effect1_foregroundBlur_623_1551"/></filter><clipPath id="clip0_623_1551"><rect width="197" height="154" rx="10" fill="#fff"/></clipPath></defs></svg>