<svg width="388" height="500" fill="none" xmlns="http://www.w3.org/2000/svg"><g clip-path="url(#clip0_476_1244)"><g opacity=".3" filter="url(#filter0_f_476_1244)"><path d="M-2 446.333c0-11.046 8.618-22.431 19.25-25.429l324.347-91.475c10.631-2.998 19.249 3.525 19.249 14.571v64c0 11.046-8.618 22.431-19.249 25.429L17.249 524.904C6.62 527.902-2 521.379-2 510.333v-64z" fill="#4671F6"/></g><path opacity=".3" d="M28.481 416.197c0-10.769 8.403-21.87 18.768-24.793l324.348-91.475c10.365-2.924 18.767 3.437 18.767 14.207v64c0 10.769-8.402 21.869-18.767 24.793L47.249 494.404c-10.365 2.923-18.768-3.437-18.768-14.207v-64z" stroke="#4671F6"/><path opacity=".15" d="M28.481 286.197c0-10.769 8.403-21.87 18.768-24.793l324.348-91.475c10.365-2.924 18.767 3.437 18.767 14.207v64c0 10.769-8.402 21.869-18.767 24.793L47.249 364.404c-10.365 2.923-18.768-3.437-18.768-14.207v-64z" stroke="#4671F6"/><path opacity=".05" d="M28.481 156.197c0-10.769 8.403-21.87 18.768-24.793l324.348-91.475c10.365-2.924 18.767 3.437 18.767 14.207v64c0 10.769-8.402 21.869-18.767 24.793L47.249 234.404c-10.365 2.923-18.768-3.437-18.768-14.207v-64z" stroke="#4671F6"/><g opacity=".2" filter="url(#filter1_f_476_1244)"><path d="M-2 322.333c0-11.046 8.618-22.431 19.25-25.429l324.347-91.475c10.631-2.998 19.249 3.525 19.249 14.571v64c0 11.046-8.618 22.431-19.249 25.429L17.249 400.904C6.62 403.902-2 397.379-2 386.333v-64z" fill="#4671F6"/></g><g opacity=".03" filter="url(#filter2_f_476_1244)"><path d="M-2 198.333c0-11.046 8.618-22.431 19.25-25.429l324.347-91.475c10.631-2.999 19.249 3.525 19.249 14.57V160c0 11.046-8.618 22.431-19.249 25.429L17.249 276.904C6.62 279.902-2 273.379-2 262.333v-64z" fill="#4671F6"/></g><path fill="url(#paint0_linear_476_1244)" d="M80.598 361.102h227.62v139.231H80.598z"/><path d="M183.678 321.944a25.997 25.997 0 0115.895-.119l103.777 32.456c7.025 2.197 7.074 12.123.07 14.389l-103.598 33.517a25.991 25.991 0 01-16.389-.127l-98.104-33.428c-6.856-2.336-6.807-12.051.074-14.317l98.275-32.371z" fill="#fff"/><g filter="url(#filter3_f_476_1244)"><path d="M164 350.333h63v5h-63v-5z" fill="#A5BDFE"/></g><path d="M138.099 327.085l38.428 14.214 73.877-47.467-48.388-13.066a6.004 6.004 0 00-3.219.025l-60.271 17.295a6 6 0 00-4.345 5.767v17.604a6 6 0 003.918 5.628z" fill="url(#paint1_linear_476_1244)"/><path d="M173.488 317.554a6.001 6.001 0 014.446-5.636l68.538-18.354c3.898-1.044 7.695 1.98 7.548 6.013l-.632 17.392a6 6 0 01-4.381 5.56l-68.388 19.118c-3.89 1.088-7.721-1.9-7.614-5.938l.483-18.155z" fill="#4671F6"/><path d="M138.099 290.085l38.428 14.214 73.877-47.467-48.388-13.066a6.004 6.004 0 00-3.219.025l-60.271 17.295a6 6 0 00-4.345 5.767v17.604a6 6 0 003.918 5.628z" fill="url(#paint2_linear_476_1244)"/><path d="M173.488 280.554a6.001 6.001 0 014.446-5.636l68.538-18.354c3.898-1.044 7.695 1.98 7.548 6.013l-.632 17.392a6 6 0 01-4.381 5.56l-68.388 19.118c-3.89 1.088-7.721-1.9-7.614-5.938l.483-18.155z" fill="#4671F6"/><path d="M138.098 253.085l38.428 14.214 73.877-47.467-48.388-13.066a5.994 5.994 0 00-3.219.026l-60.271 17.295a6 6 0 00-4.345 5.767v17.604a5.999 5.999 0 003.918 5.627z" fill="url(#paint3_linear_476_1244)"/><path d="M173.487 243.555a6 6 0 014.446-5.636l68.538-18.355c3.898-1.044 7.695 1.981 7.548 6.014l-.632 17.391a6 6 0 01-4.381 5.561l-68.388 19.118c-3.89 1.087-7.721-1.901-7.614-5.938l.483-18.155z" fill="#4671F6"/></g><defs><linearGradient id="paint0_linear_476_1244" x1="308.218" y1="430.717" x2="80.598" y2="430.717" gradientUnits="userSpaceOnUse"><stop stop-color="#DDE1E9"/><stop offset=".432" stop-color="#DDE1E9"/><stop offset=".599" stop-color="#F2F4F8"/><stop offset="1" stop-color="#FBFCFE"/></linearGradient><linearGradient id="paint1_linear_476_1244" x1="187.194" y1="233.503" x2="125.821" y2="355.983" gradientUnits="userSpaceOnUse"><stop stop-color="#5780FF"/><stop offset=".536" stop-color="#698EFF"/><stop offset=".635" stop-color="#A4BCFD"/><stop offset="1" stop-color="#A4BCFD"/></linearGradient><linearGradient id="paint2_linear_476_1244" x1="187.194" y1="196.503" x2="125.821" y2="318.983" gradientUnits="userSpaceOnUse"><stop stop-color="#5780FF"/><stop offset=".536" stop-color="#698EFF"/><stop offset=".635" stop-color="#A4BCFD"/><stop offset="1" stop-color="#A4BCFD"/></linearGradient><linearGradient id="paint3_linear_476_1244" x1="187.193" y1="159.503" x2="125.82" y2="281.983" gradientUnits="userSpaceOnUse"><stop stop-color="#5780FF"/><stop offset=".536" stop-color="#698EFF"/><stop offset=".635" stop-color="#A4BCFD"/><stop offset="1" stop-color="#A4BCFD"/></linearGradient><filter id="filter0_f_476_1244" x="-6" y="324.7" width="370.846" height="204.933" filterUnits="userSpaceOnUse" color-interpolation-filters="sRGB"><feFlood flood-opacity="0" result="BackgroundImageFix"/><feBlend in="SourceGraphic" in2="BackgroundImageFix" result="shape"/><feGaussianBlur stdDeviation="2" result="effect1_foregroundBlur_476_1244"/></filter><filter id="filter1_f_476_1244" x="-12" y="194.7" width="382.846" height="216.933" filterUnits="userSpaceOnUse" color-interpolation-filters="sRGB"><feFlood flood-opacity="0" result="BackgroundImageFix"/><feBlend in="SourceGraphic" in2="BackgroundImageFix" result="shape"/><feGaussianBlur stdDeviation="5" result="effect1_foregroundBlur_476_1244"/></filter><filter id="filter2_f_476_1244" x="-32" y="50.7" width="422.846" height="256.933" filterUnits="userSpaceOnUse" color-interpolation-filters="sRGB"><feFlood flood-opacity="0" result="BackgroundImageFix"/><feBlend in="SourceGraphic" in2="BackgroundImageFix" result="shape"/><feGaussianBlur stdDeviation="15" result="effect1_foregroundBlur_476_1244"/></filter><filter id="filter3_f_476_1244" x="149" y="335.333" width="93" height="35" filterUnits="userSpaceOnUse" color-interpolation-filters="sRGB"><feFlood flood-opacity="0" result="BackgroundImageFix"/><feBlend in="SourceGraphic" in2="BackgroundImageFix" result="shape"/><feGaussianBlur stdDeviation="7.5" result="effect1_foregroundBlur_476_1244"/></filter><clipPath id="clip0_476_1244"><rect width="388" height="500" rx="10" fill="#fff"/></clipPath></defs></svg>