<svg width="388" height="500" fill="none" xmlns="http://www.w3.org/2000/svg"><g clip-path="url(#clip0_476_1725)"><path d="M462.5 321.5L37.008 464.997" stroke="url(#paint0_linear_476_1725)"/><path d="M461.008 408.496l-355 120.5" stroke="url(#paint1_linear_476_1725)"/><path opacity=".8" d="M462.999 236.5L-34.003 409.001" stroke="url(#paint2_linear_476_1725)"/><path opacity=".6" d="M470.999 212.5L79.949 350.367" stroke="url(#paint3_linear_476_1725)"/><path opacity=".5" d="M465 168.5L105.549 291.283" stroke="url(#paint4_linear_476_1725)"/><path opacity=".3" d="M521.002 108.499l-355 120.5" stroke="url(#paint5_linear_476_1725)"/><path d="M304.813 363.747l-38.427 14.214-73.878-47.467 48.388-13.065a6.004 6.004 0 013.219.025l60.271 17.295a6 6 0 014.345 5.767v17.604a5.997 5.997 0 01-3.918 5.627z" fill="url(#paint6_linear_476_1725)"/><path d="M269.424 354.217a6 6 0 00-4.446-5.636l-68.538-18.355c-3.898-1.044-7.695 1.981-7.548 6.014l.632 17.391a6 6 0 004.381 5.561l68.388 19.118c3.89 1.087 7.721-1.901 7.614-5.938l-.483-18.155z" fill="#4671F6"/><path d="M304.813 326.747l-38.427 14.214-73.878-47.467 48.388-13.065a6.004 6.004 0 013.219.025l60.271 17.295a6 6 0 014.345 5.767v17.604a5.997 5.997 0 01-3.918 5.627z" fill="url(#paint7_linear_476_1725)"/><path d="M269.424 317.217a6 6 0 00-4.446-5.636l-68.538-18.355c-3.898-1.044-7.695 1.981-7.548 6.014l.632 17.391a6 6 0 004.381 5.561l68.388 19.118c3.89 1.087 7.721-1.901 7.614-5.938l-.483-18.155z" fill="#4671F6"/><path d="M304.814 289.748l-38.427 14.214-73.878-47.467 48.388-13.065a6.004 6.004 0 013.219.025l60.271 17.295a6 6 0 014.345 5.767v17.604a5.997 5.997 0 01-3.918 5.627z" fill="url(#paint8_linear_476_1725)"/><path d="M269.425 280.218a6 6 0 00-4.446-5.636l-68.538-18.355c-3.898-1.044-7.695 1.981-7.548 6.014l.632 17.391a6 6 0 004.381 5.561l68.388 19.118c3.89 1.087 7.721-1.901 7.614-5.938l-.483-18.155z" fill="#4671F6"/><g opacity=".5" filter="url(#filter0_f_476_1725)"><path d="M170.492 313.435l-9.319 3.446-22.573-14.503 13.665-3.69a6.004 6.004 0 013.219.025l14.614 4.194a5.543 5.543 0 01.394 10.528z" fill="url(#paint9_linear_476_1725)"/><path d="M162.154 311.597a4.474 4.474 0 00-3.315-4.203l-15.702-4.205c-2.849-.763-5.624 1.448-5.517 4.395a4.385 4.385 0 003.202 4.064l15.655 4.377c2.901.811 5.757-1.418 5.677-4.428z" fill="#4671F6"/><path d="M170.492 302.129l-9.319 3.447-22.573-14.504 13.665-3.69a6.004 6.004 0 013.219.025l14.614 4.194a5.544 5.544 0 01.394 10.528z" fill="url(#paint10_linear_476_1725)"/><path d="M162.154 300.291a4.472 4.472 0 00-3.315-4.202l-15.702-4.205c-2.849-.763-5.624 1.447-5.517 4.395a4.386 4.386 0 003.202 4.064l15.655 4.376c2.901.811 5.757-1.417 5.677-4.428z" fill="#4671F6"/><path d="M170.493 290.824l-9.319 3.447-22.573-14.504 13.665-3.69a6.004 6.004 0 013.219.025l14.614 4.194a5.544 5.544 0 01.394 10.528z" fill="url(#paint11_linear_476_1725)"/><path d="M162.155 288.986a4.474 4.474 0 00-3.315-4.203l-15.702-4.205c-2.849-.763-5.624 1.448-5.517 4.396a4.386 4.386 0 003.202 4.064l15.655 4.376c2.9.811 5.757-1.417 5.677-4.428z" fill="#4671F6"/></g><g filter="url(#filter1_f_476_1725)"><path d="M364.426 388.834l-21.959 8.122-45.148-29.007 28.943-7.815a5.998 5.998 0 013.22.025l34.517 9.905a6 6 0 014.345 5.767l.001 7.375a6.001 6.001 0 01-3.919 5.628z" fill="url(#paint12_linear_476_1725)"/><path d="M344.37 384.187a5.999 5.999 0 00-4.446-5.636l-37.151-9.949c-3.898-1.044-7.695 1.981-7.548 6.014l.209 5.769a6 6 0 004.381 5.56l37.107 10.373c3.889 1.088 7.72-1.9 7.613-5.938l-.165-6.193z" fill="#4671F6"/><path d="M364.426 366.222l-21.959 8.123-45.148-29.008 28.943-7.815a5.998 5.998 0 013.22.026l34.517 9.905a5.998 5.998 0 014.345 5.767l.001 7.375a6 6 0 01-3.919 5.627z" fill="url(#paint13_linear_476_1725)"/><path d="M344.37 361.576a5.998 5.998 0 00-4.446-5.636l-37.151-9.949c-3.898-1.044-7.695 1.98-7.548 6.013l.209 5.769a6 6 0 004.381 5.561l37.107 10.373c3.889 1.087 7.72-1.901 7.613-5.938l-.165-6.193z" fill="#4671F6"/><path d="M364.426 343.612l-21.959 8.123-45.148-29.008 28.943-7.815a6.008 6.008 0 013.22.025l34.517 9.905a6 6 0 014.345 5.767l.001 7.376a6 6 0 01-3.919 5.627z" fill="url(#paint14_linear_476_1725)"/><path d="M344.37 338.966a6 6 0 00-4.446-5.637l-37.151-9.949c-3.898-1.044-7.695 1.981-7.548 6.014l.209 5.769a6 6 0 004.381 5.561l37.107 10.373c3.889 1.087 7.72-1.901 7.613-5.938l-.165-6.193z" fill="#4671F6"/></g><g filter="url(#filter2_f_476_1725)"><path d="M52.008 275.998L210.5 98.5l255.508-1.503 46 368-323.5-18.5-136.5-170.499z" fill="url(#paint15_linear_476_1725)" fill-opacity=".2"/></g><g filter="url(#filter3_dd_476_1725)"><path fill-rule="evenodd" clip-rule="evenodd" d="M48.007 280.997l-12 5 1 4 7.016-2.599c-.011.197-.017.397-.017.601v112c0 5.523 4.293 11.271 9.588 12.84l120.271 35.626 4.143 7.532 10.468-4.362c3.037-.779 5.106-3.496 5.106-7.33v-112c0-5.523-4.293-11.271-9.589-12.84L53.594 280.839c-2.072-.614-3.99-.497-5.558.204l-.029-.046z" fill="url(#paint16_linear_476_1725)"/><rect width="156" height="132" rx="10" transform="matrix(.95882 .28402 0 1 32.006 282.999)" fill="url(#paint17_linear_476_1725)"/></g><path d="M84.243 345.921a12.305 12.305 0 00-2.825-.41 2.06 2.06 0 01-1.933-1.531l-1.28-4.775-4.024 1.077 1.266 4.727c.234.871-.108 1.812-.88 2.279a12.475 12.475 0 00-4.228 4.217c-.467.766-1.408 1.1-2.273.866l-2.619-.7-1.079 4.025 2.619.702c.867.232 1.514.992 1.533 1.89a12.472 12.472 0 001.521 5.706c.43.79.254 1.769-.38 2.404l-3.385 3.386 2.948 2.946 3.39-3.39a2.061 2.061 0 012.448-.356 12.262 12.262 0 005.675 1.502 2.06 2.06 0 011.948 1.531l1.202 4.488 4.025-1.08-1.213-4.525c-.23-.864.105-1.797.867-2.268a12.469 12.469 0 004.11-4.142c.467-.767 1.407-1.104 2.273-.871l2.62.702 1.078-4.025-2.618-.702c-.867-.231-1.515-.991-1.534-1.889a12.478 12.478 0 00-1.52-5.707c-.43-.789-.255-1.768.379-2.404l3.385-3.385-2.948-2.946-3.39 3.39a2.064 2.064 0 01-2.447.356 12.347 12.347 0 00-2.71-1.088z" fill="silver"/><path d="M62.897 357.311a4.167 4.167 0 100-8.334 4.167 4.167 0 000 8.334zm4.853 18.11a4.166 4.166 0 100-8.332 4.166 4.166 0 000 8.332zm18.112 4.852a4.166 4.166 0 100-8.332 4.166 4.166 0 000 8.332zm13.256-13.258a4.168 4.168 0 100-8.335 4.168 4.168 0 000 8.335zm-4.852-18.11a4.167 4.167 0 100-8.334 4.167 4.167 0 000 8.334zm-18.112-4.852a4.167 4.167 0 100-8.334 4.167 4.167 0 000 8.334zm7.979 22.277a3.126 3.126 0 10-.001-6.251 3.126 3.126 0 000 6.251zm3.125-10.417a2.084 2.084 0 100-4.167 2.084 2.084 0 000 4.167zm-10.417 4.166a4.166 4.166 0 10.001-8.332 4.166 4.166 0 000 8.332z" fill="#585858"/><g filter="url(#filter4_f_476_1725)"><path d="M32.95 370.751a7.384 7.384 0 00-1.695-.246 1.236 1.236 0 01-1.16-.919l-.767-2.865-2.415.646.76 2.837c.14.522-.065 1.087-.529 1.367a7.49 7.49 0 00-2.536 2.53c-.28.46-.845.66-1.364.52l-1.571-.42-.648 2.415 1.572.421c.52.139.908.595.92 1.134a7.488 7.488 0 00.912 3.424c.258.474.153 1.061-.227 1.442l-2.032 2.032 1.77 1.767 2.033-2.034a1.238 1.238 0 011.469-.213 7.358 7.358 0 003.405.901c.55.01 1.026.386 1.168.919l.722 2.692 2.415-.647-.728-2.715a1.225 1.225 0 01.52-1.362 7.464 7.464 0 002.466-2.485c.28-.46.844-.662 1.364-.522l1.571.421.648-2.415-1.571-.421c-.52-.139-.91-.595-.92-1.134a7.485 7.485 0 00-.913-3.424c-.257-.473-.152-1.061.228-1.442l2.03-2.031-1.768-1.768-2.034 2.034a1.238 1.238 0 01-1.468.214 7.397 7.397 0 00-1.627-.653z" fill="silver"/><path d="M20.143 377.585a2.5 2.5 0 100-5 2.5 2.5 0 000 5zm2.911 10.866a2.5 2.5 0 100-5 2.5 2.5 0 000 5zm10.866 2.911a2.5 2.5 0 10.001-5 2.5 2.5 0 000 5zm7.955-7.955a2.5 2.5 0 100-5 2.5 2.5 0 000 5zm-2.911-10.866a2.5 2.5 0 100-5 2.5 2.5 0 000 5zm-10.867-2.911a2.5 2.5 0 100-5 2.5 2.5 0 000 5zm4.787 13.366a1.875 1.875 0 100-3.75 1.875 1.875 0 000 3.75zm1.875-6.25a1.25 1.25 0 100-2.5 1.25 1.25 0 000 2.5zm-6.25 2.5a2.5 2.5 0 100-5 2.5 2.5 0 000 5z" fill="#585858"/></g><g filter="url(#filter5_f_476_1725)"><path d="M148.303 398.166a4.927 4.927 0 00-1.13-.164.824.824 0 01-.774-.613l-.511-1.91-1.61.431.506 1.891a.815.815 0 01-.352.912 4.977 4.977 0 00-1.691 1.686.814.814 0 01-.909.347l-1.048-.28-.431 1.61 1.047.281a.812.812 0 01.613.756c.018.809.231 1.591.609 2.282a.818.818 0 01-.152.962l-1.354 1.354 1.179 1.178 1.356-1.355a.823.823 0 01.979-.143 4.902 4.902 0 002.27.601.823.823 0 01.779.612l.481 1.795 1.61-.431-.485-1.81a.818.818 0 01.347-.908 4.987 4.987 0 001.644-1.656.814.814 0 01.909-.349l1.048.281.431-1.61-1.047-.281a.813.813 0 01-.614-.756 4.977 4.977 0 00-.608-2.282.815.815 0 01.152-.962l1.354-1.354-1.179-1.178-1.356 1.356a.825.825 0 01-.979.142 4.963 4.963 0 00-1.084-.435z" fill="silver"/><path d="M139.764 402.722a1.667 1.667 0 100-3.333 1.667 1.667 0 000 3.333zm1.942 7.244a1.666 1.666 0 100-3.333 1.666 1.666 0 000 3.333zm7.245 1.941a1.667 1.667 0 100-3.334 1.667 1.667 0 000 3.334zm5.302-5.304a1.666 1.666 0 100-3.332 1.666 1.666 0 000 3.332zm-1.941-7.244a1.666 1.666 0 10.001-3.333 1.666 1.666 0 00-.001 3.333zm-7.245-1.94a1.667 1.667 0 100-3.333 1.667 1.667 0 000 3.333zm3.192 8.911a1.25 1.25 0 100-2.5 1.25 1.25 0 000 2.5zm1.25-4.167a.833.833 0 100-1.667.833.833 0 000 1.667zm-4.167 1.666a1.666 1.666 0 10.001-3.333 1.666 1.666 0 00-.001 3.333z" fill="#585858"/></g><g clip-path="url(#clip1_476_1725)"><path d="M277.181 207.889c.135-2.481-1.551-5.346-3.926-6.53-9.869-4.915-9.111-12.641-19.725-16.089-10.614-3.449-9.855 4.77-19.725 3.271-2.375-.362-8.441 2.387-8.306 4.958 1.018 19.406 11.627 31.578 27.001 43.5 15.373-1.932 23.663-10.365 24.681-29.11z" fill="url(#paint18_linear_476_1725)"/></g><g clip-path="url(#clip2_476_1725)"><path d="M272.181 210.889c.136-2.481-1.55-5.346-3.925-6.53-9.87-4.914-9.111-12.64-19.725-16.089-10.614-3.449-9.855 4.77-19.725 3.271-2.375-.362-4.061 1.408-3.925 3.979 1.017 19.406 8.276 30.827 23.65 42.75 15.374-1.932 22.633-8.636 23.65-27.381z" fill="url(#paint19_linear_476_1725)"/><path d="M272.181 210.889c.136-2.481-1.55-5.346-3.925-6.53-9.87-4.914-9.111-12.64-19.725-16.089-10.614-3.449-9.855 4.77-19.725 3.271-2.375-.362-4.061 1.408-3.925 3.979 1.017 19.406 8.276 30.827 23.65 42.75 15.374-1.932 22.633-8.636 23.65-27.381z" fill="url(#paint20_linear_476_1725)"/><path d="M272.181 210.889c.136-2.481-1.55-5.346-3.925-6.53-9.87-4.914-9.111-12.64-19.725-16.089-10.614-3.449-9.855 4.77-19.725 3.271-2.375-.362-4.061 1.408-3.925 3.979 1.017 19.406 8.276 30.827 23.65 42.75 15.374-1.932 22.633-8.636 23.65-27.381z" fill="#4771F6"/></g><g filter="url(#filter6_f_476_1725)"><g clip-path="url(#clip3_476_1725)"><path d="M349.52 290.55c.074-1.343-.839-2.893-2.124-3.534-5.341-2.66-4.931-6.841-10.675-8.707-5.743-1.866-5.333 2.582-10.674 1.77-1.285-.196-4.568 1.292-4.495 2.684.551 10.501 6.292 17.088 14.612 23.54 8.319-1.045 12.806-5.609 13.356-15.753z" fill="url(#paint21_linear_476_1725)"/></g><g clip-path="url(#clip4_476_1725)"><path d="M346.816 292.173c.073-1.342-.839-2.893-2.125-3.534-5.341-2.659-4.93-6.84-10.674-8.707-5.744-1.866-5.334 2.582-10.675 1.771-1.285-.196-2.197.761-2.124 2.153.551 10.502 4.479 16.683 12.799 23.135 8.32-1.046 12.248-4.674 12.799-14.818z" fill="url(#paint22_linear_476_1725)"/><path d="M346.816 292.174c.073-1.343-.839-2.893-2.125-3.534-5.341-2.66-4.93-6.841-10.674-8.707-5.744-1.866-5.334 2.581-10.675 1.77-1.285-.196-2.197.762-2.124 2.154.551 10.501 4.479 16.682 12.799 23.134 8.32-1.045 12.248-4.673 12.799-14.817z" fill="url(#paint23_linear_476_1725)"/><path d="M346.816 292.174c.073-1.343-.839-2.893-2.125-3.534-5.341-2.66-4.93-6.841-10.674-8.707-5.744-1.866-5.334 2.581-10.675 1.77-1.285-.196-2.197.762-2.124 2.154.551 10.501 4.479 16.682 12.799 23.134 8.32-1.045 12.248-4.673 12.799-14.817z" fill="#4771F6"/></g></g><g opacity=".5" filter="url(#filter7_f_476_1725)"><g clip-path="url(#clip5_476_1725)"><path d="M164.157 261.133c.043-.776-.484-1.672-1.227-2.043-3.088-1.537-2.851-3.954-6.171-5.033-3.32-1.079-3.083 1.492-6.17 1.023-.743-.113-2.64.747-2.598 1.552.318 6.07 3.637 9.877 8.446 13.607 4.809-.605 7.402-3.243 7.72-9.106z" fill="url(#paint24_linear_476_1725)"/></g><g clip-path="url(#clip6_476_1725)"><path d="M162.593 262.072c.042-.777-.485-1.673-1.228-2.043-3.088-1.538-2.85-3.954-6.171-5.033-3.32-1.079-3.082 1.492-6.17 1.023-.743-.113-1.27.441-1.228 1.245.319 6.07 2.589 9.643 7.398 13.372 4.81-.604 7.08-2.701 7.399-8.564z" fill="url(#paint25_linear_476_1725)"/><path d="M162.593 262.072c.042-.777-.485-1.673-1.228-2.043-3.088-1.538-2.85-3.954-6.171-5.033-3.32-1.079-3.082 1.492-6.17 1.023-.743-.113-1.27.441-1.228 1.245.319 6.07 2.589 9.643 7.398 13.372 4.81-.604 7.08-2.701 7.399-8.564z" fill="url(#paint26_linear_476_1725)"/><path d="M162.593 262.072c.042-.777-.485-1.673-1.228-2.043-3.088-1.538-2.85-3.954-6.171-5.033-3.32-1.079-3.082 1.492-6.17 1.023-.743-.113-1.27.441-1.228 1.245.319 6.07 2.589 9.643 7.398 13.372 4.81-.604 7.08-2.701 7.399-8.564z" fill="#4771F6"/></g></g></g><defs><linearGradient id="paint0_linear_476_1725" x1="130.008" y1="434.996" x2="37.008" y2="465.996" gradientUnits="userSpaceOnUse"><stop stop-color="#D0D9EB"/><stop offset="1" stop-color="#D0D9EB" stop-opacity="0"/></linearGradient><linearGradient id="paint1_linear_476_1725" x1="370.008" y1="426.996" x2="106.008" y2="537.996" gradientUnits="userSpaceOnUse"><stop stop-color="#D0D9EB"/><stop offset="1" stop-color="#D0D9EB" stop-opacity="0"/></linearGradient><linearGradient id="paint2_linear_476_1725" x1="37.998" y1="385" x2="-34.002" y2="407" gradientUnits="userSpaceOnUse"><stop stop-color="#D0D9EB"/><stop offset="1" stop-color="#D0D9EB" stop-opacity="0"/></linearGradient><linearGradient id="paint3_linear_476_1725" x1="144.251" y1="316.112" x2="79.846" y2="342.225" gradientUnits="userSpaceOnUse"><stop stop-color="#D0D9EB"/><stop offset="1" stop-color="#D0D9EB" stop-opacity="0"/></linearGradient><linearGradient id="paint4_linear_476_1725" x1="285.779" y1="230.139" x2="105.316" y2="288.521" gradientUnits="userSpaceOnUse"><stop stop-color="#D0D9EB"/><stop offset="1" stop-color="#D0D9EB" stop-opacity="0"/></linearGradient><linearGradient id="paint5_linear_476_1725" x1="270.002" y1="191.999" x2="166.002" y2="229.999" gradientUnits="userSpaceOnUse"><stop stop-color="#D0D9EB"/><stop offset="1" stop-color="#D0D9EB" stop-opacity="0"/></linearGradient><linearGradient id="paint6_linear_476_1725" x1="255.718" y1="270.166" x2="317.091" y2="392.646" gradientUnits="userSpaceOnUse"><stop stop-color="#5780FF"/><stop offset=".536" stop-color="#698EFF"/><stop offset=".635" stop-color="#A4BCFD"/><stop offset="1" stop-color="#A4BCFD"/></linearGradient><linearGradient id="paint7_linear_476_1725" x1="255.718" y1="233.166" x2="317.091" y2="355.646" gradientUnits="userSpaceOnUse"><stop stop-color="#5780FF"/><stop offset=".536" stop-color="#698EFF"/><stop offset=".635" stop-color="#A4BCFD"/><stop offset="1" stop-color="#A4BCFD"/></linearGradient><linearGradient id="paint8_linear_476_1725" x1="255.719" y1="196.167" x2="317.092" y2="318.646" gradientUnits="userSpaceOnUse"><stop stop-color="#5780FF"/><stop offset=".536" stop-color="#698EFF"/><stop offset=".635" stop-color="#A4BCFD"/><stop offset="1" stop-color="#A4BCFD"/></linearGradient><linearGradient id="paint9_linear_476_1725" x1="157.914" y1="283.944" x2="176.667" y2="321.368" gradientUnits="userSpaceOnUse"><stop stop-color="#5780FF"/><stop offset=".536" stop-color="#698EFF"/><stop offset=".635" stop-color="#A4BCFD"/><stop offset="1" stop-color="#A4BCFD"/></linearGradient><linearGradient id="paint10_linear_476_1725" x1="157.914" y1="272.638" x2="176.667" y2="310.063" gradientUnits="userSpaceOnUse"><stop stop-color="#5780FF"/><stop offset=".536" stop-color="#698EFF"/><stop offset=".635" stop-color="#A4BCFD"/><stop offset="1" stop-color="#A4BCFD"/></linearGradient><linearGradient id="paint11_linear_476_1725" x1="157.915" y1="261.333" x2="176.668" y2="298.757" gradientUnits="userSpaceOnUse"><stop stop-color="#5780FF"/><stop offset=".536" stop-color="#698EFF"/><stop offset=".635" stop-color="#A4BCFD"/><stop offset="1" stop-color="#A4BCFD"/></linearGradient><linearGradient id="paint12_linear_476_1725" x1="335.947" y1="331.081" x2="373.453" y2="405.93" gradientUnits="userSpaceOnUse"><stop stop-color="#5780FF"/><stop offset=".536" stop-color="#698EFF"/><stop offset=".635" stop-color="#A4BCFD"/><stop offset="1" stop-color="#A4BCFD"/></linearGradient><linearGradient id="paint13_linear_476_1725" x1="335.947" y1="308.47" x2="373.453" y2="383.319" gradientUnits="userSpaceOnUse"><stop stop-color="#5780FF"/><stop offset=".536" stop-color="#698EFF"/><stop offset=".635" stop-color="#A4BCFD"/><stop offset="1" stop-color="#A4BCFD"/></linearGradient><linearGradient id="paint14_linear_476_1725" x1="335.947" y1="285.86" x2="373.453" y2="360.708" gradientUnits="userSpaceOnUse"><stop stop-color="#5780FF"/><stop offset=".536" stop-color="#698EFF"/><stop offset=".635" stop-color="#A4BCFD"/><stop offset="1" stop-color="#A4BCFD"/></linearGradient><linearGradient id="paint15_linear_476_1725" x1="139.007" y1="333.996" x2="287.007" y2="190.996" gradientUnits="userSpaceOnUse"><stop stop-color="#4671F6"/><stop offset="1" stop-color="#4671F6" stop-opacity="0"/></linearGradient><linearGradient id="paint16_linear_476_1725" x1="191.665" y1="443.118" x2="36.467" y2="278.845" gradientUnits="userSpaceOnUse"><stop stop-color="#E0E4EF"/><stop offset=".26" stop-color="#E0E4EF"/><stop offset=".354" stop-color="#D3D8E6"/><stop offset=".516" stop-color="#E9E9F5"/><stop offset="1" stop-color="#F0F0F7"/></linearGradient><linearGradient id="paint17_linear_476_1725" x1=".001" y1="23.997" x2="112.495" y2="154.461" gradientUnits="userSpaceOnUse"><stop stop-color="#fff"/><stop offset=".25" stop-color="#F1F3F6"/><stop offset=".516" stop-color="#fff"/><stop offset="1" stop-color="#fff"/></linearGradient><linearGradient id="paint18_linear_476_1725" x1="253.531" y1="185.27" x2="238.836" y2="230.495" gradientUnits="userSpaceOnUse"><stop stop-color="#B8CAEF"/><stop offset="1" stop-color="#4A74F6"/></linearGradient><linearGradient id="paint19_linear_476_1725" x1="248.531" y1="188.27" x2="233.836" y2="233.495" gradientUnits="userSpaceOnUse"><stop stop-color="#B8CAEF"/><stop offset="1" stop-color="#4A74F6"/></linearGradient><linearGradient id="paint20_linear_476_1725" x1="248.531" y1="188.27" x2="233.836" y2="233.495" gradientUnits="userSpaceOnUse"><stop stop-color="#B8CAEF"/><stop offset="1" stop-color="#4A74F6"/></linearGradient><linearGradient id="paint21_linear_476_1725" x1="336.722" y1="278.309" x2="328.769" y2="302.784" gradientUnits="userSpaceOnUse"><stop stop-color="#B8CAEF"/><stop offset="1" stop-color="#4A74F6"/></linearGradient><linearGradient id="paint22_linear_476_1725" x1="334.017" y1="279.932" x2="326.065" y2="304.407" gradientUnits="userSpaceOnUse"><stop stop-color="#B8CAEF"/><stop offset="1" stop-color="#4A74F6"/></linearGradient><linearGradient id="paint23_linear_476_1725" x1="334.017" y1="279.933" x2="326.065" y2="304.407" gradientUnits="userSpaceOnUse"><stop stop-color="#B8CAEF"/><stop offset="1" stop-color="#4A74F6"/></linearGradient><linearGradient id="paint24_linear_476_1725" x1="156.759" y1="254.057" x2="152.163" y2="268.204" gradientUnits="userSpaceOnUse"><stop stop-color="#B8CAEF"/><stop offset="1" stop-color="#4A74F6"/></linearGradient><linearGradient id="paint25_linear_476_1725" x1="155.194" y1="254.996" x2="150.598" y2="269.143" gradientUnits="userSpaceOnUse"><stop stop-color="#B8CAEF"/><stop offset="1" stop-color="#4A74F6"/></linearGradient><linearGradient id="paint26_linear_476_1725" x1="155.194" y1="254.996" x2="150.598" y2="269.143" gradientUnits="userSpaceOnUse"><stop stop-color="#B8CAEF"/><stop offset="1" stop-color="#4A74F6"/></linearGradient><filter id="filter0_f_476_1725" x="133.617" y="271.87" width="44.496" height="49.012" filterUnits="userSpaceOnUse" color-interpolation-filters="sRGB"><feFlood flood-opacity="0" result="BackgroundImageFix"/><feBlend in="SourceGraphic" in2="BackgroundImageFix" result="shape"/><feGaussianBlur stdDeviation="2" result="effect1_foregroundBlur_476_1725"/></filter><filter id="filter1_f_476_1725" x="291.221" y="310.705" width="81.124" height="90.251" filterUnits="userSpaceOnUse" color-interpolation-filters="sRGB"><feFlood flood-opacity="0" result="BackgroundImageFix"/><feBlend in="SourceGraphic" in2="BackgroundImageFix" result="shape"/><feGaussianBlur stdDeviation="2" result="effect1_foregroundBlur_476_1725"/></filter><filter id="filter2_f_476_1725" x="40.008" y="84.997" width="484" height="392" filterUnits="userSpaceOnUse" color-interpolation-filters="sRGB"><feFlood flood-opacity="0" result="BackgroundImageFix"/><feBlend in="SourceGraphic" in2="BackgroundImageFix" result="shape"/><feGaussianBlur stdDeviation="6" result="effect1_foregroundBlur_476_1725"/></filter><filter id="filter3_dd_476_1725" x="19.006" y="279.441" width="191.576" height="207.422" filterUnits="userSpaceOnUse" color-interpolation-filters="sRGB"><feFlood flood-opacity="0" result="BackgroundImageFix"/><feColorMatrix in="SourceAlpha" values="0 0 0 0 0 0 0 0 0 0 0 0 0 0 0 0 0 0 127 0" result="hardAlpha"/><feOffset dx="2" dy="15"/><feGaussianBlur stdDeviation="7.5"/><feComposite in2="hardAlpha" operator="out"/><feColorMatrix values="0 0 0 0 0.278431 0 0 0 0 0.443137 0 0 0 0 0.964706 0 0 0 0.05 0"/><feBlend in2="BackgroundImageFix" result="effect1_dropShadow_476_1725"/><feColorMatrix in="SourceAlpha" values="0 0 0 0 0 0 0 0 0 0 0 0 0 0 0 0 0 0 127 0" result="hardAlpha"/><feOffset dx="2" dy="2"/><feGaussianBlur stdDeviation="1.5"/><feComposite in2="hardAlpha" operator="out"/><feColorMatrix values="0 0 0 0 0.278431 0 0 0 0 0.443137 0 0 0 0 0.964706 0 0 0 0.1 0"/><feBlend in2="effect1_dropShadow_476_1725" result="effect2_dropShadow_476_1725"/><feBlend in="SourceGraphic" in2="effect2_dropShadow_476_1725" result="shape"/></filter><filter id="filter4_f_476_1725" x="12.009" y="358.996" width="38" height="38" filterUnits="userSpaceOnUse" color-interpolation-filters="sRGB"><feFlood flood-opacity="0" result="BackgroundImageFix"/><feBlend in="SourceGraphic" in2="BackgroundImageFix" result="shape"/><feGaussianBlur stdDeviation="2" result="effect1_foregroundBlur_476_1725"/></filter><filter id="filter5_f_476_1725" x="133.009" y="388.996" width="28" height="28" filterUnits="userSpaceOnUse" color-interpolation-filters="sRGB"><feFlood flood-opacity="0" result="BackgroundImageFix"/><feBlend in="SourceGraphic" in2="BackgroundImageFix" result="shape"/><feGaussianBlur stdDeviation="2" result="effect1_foregroundBlur_476_1725"/></filter><filter id="filter6_f_476_1725" x="316.576" y="268.586" width="37.586" height="48.127" filterUnits="userSpaceOnUse" color-interpolation-filters="sRGB"><feFlood flood-opacity="0" result="BackgroundImageFix"/><feBlend in="SourceGraphic" in2="BackgroundImageFix" result="shape"/><feGaussianBlur stdDeviation="1" result="effect1_foregroundBlur_476_1725"/></filter><filter id="filter7_f_476_1725" x="144.27" y="247.593" width="23.415" height="29.507" filterUnits="userSpaceOnUse" color-interpolation-filters="sRGB"><feFlood flood-opacity="0" result="BackgroundImageFix"/><feBlend in="SourceGraphic" in2="BackgroundImageFix" result="shape"/><feGaussianBlur stdDeviation="1" result="effect1_foregroundBlur_476_1725"/></filter><clipPath id="clip0_476_1725"><rect width="388" height="500" rx="10" fill="#fff"/></clipPath><clipPath id="clip1_476_1725"><path fill="#fff" transform="matrix(.95106 .30902 0 1 224.999 171)" d="M0 0h60v60H0z"/></clipPath><clipPath id="clip2_476_1725"><path fill="#fff" transform="matrix(.95106 .30902 0 1 219.999 174)" d="M0 0h60v60H0z"/></clipPath><clipPath id="clip3_476_1725"><path fill="#fff" transform="matrix(.95106 .30902 0 1 321.281 270.586)" d="M0 0h32.47v32.47H0z"/></clipPath><clipPath id="clip4_476_1725"><path fill="#fff" transform="matrix(.95106 .30902 0 1 318.576 272.21)" d="M0 0h32.47v32.47H0z"/></clipPath><clipPath id="clip5_476_1725"><path fill="#fff" transform="matrix(.95106 .30902 0 1 147.834 249.593)" d="M0 0h18.769v18.769H0z"/></clipPath><clipPath id="clip6_476_1725"><path fill="#fff" transform="matrix(.95106 .30902 0 1 146.27 250.532)" d="M0 0h18.769v18.769H0z"/></clipPath></defs></svg>