<svg width="620" height="460" fill="none" xmlns="http://www.w3.org/2000/svg"><g clip-path="url(#clip0_623_1582)"><path opacity=".5" d="M172.574 285.002c11.046 0 20-8.954 20-20s-8.954-20-20-20c-11.045 0-20 8.954-20 20s8.955 20 20 20z" fill="url(#paint0_linear_623_1582)"/><g opacity=".05" filter="url(#filter0_f_623_1582)"><path d="M309 672c165.685 0 300-134.314 300-300 0-165.685-134.315-300-300-300S9 206.315 9 372c0 165.686 134.315 300 300 300z" fill="url(#paint1_linear_623_1582)"/></g><g opacity=".1" filter="url(#filter1_f_623_1582)"><path d="M314 602c124.264 0 225-100.736 225-225S438.264 152 314 152 89 252.736 89 377s100.736 225 225 225z" fill="url(#paint2_linear_623_1582)"/></g><g opacity=".4" filter="url(#filter2_f_623_1582)"><path d="M324 552c91.127 0 165-73.873 165-165s-73.873-165-165-165-165 73.873-165 165 73.873 165 165 165z" fill="url(#paint3_linear_623_1582)"/></g><path opacity=".5" d="M461 274a9 9 0 009-9 9 9 0 00-9-9 9 9 0 00-9 9 9 9 0 009 9z" fill="url(#paint4_linear_623_1582)"/><path fill="url(#paint5_linear_623_1582)" d="M215.598 321.56h227.62v139.231h-227.62z"/><path d="M318.678 282.402a25.997 25.997 0 0115.895-.12l103.777 32.456c7.025 2.197 7.074 12.123.07 14.389l-103.598 33.518a26.005 26.005 0 01-16.389-.127l-98.104-33.428c-6.856-2.337-6.807-12.052.074-14.318l98.275-32.37z" fill="#fff"/><g filter="url(#filter3_f_623_1582)"><ellipse cx="325.498" cy="316.568" rx="41.5" ry="1.566" fill="#7294FF"/></g><path d="M372.499 210.908l-8.33-14.813-32.669 18.372v-36.465h-17v36.465l-32.668-18.372-8.33 14.813 32.164 18.094-32.164 18.093 8.33 14.813 32.668-18.371v36.465h17v-36.465l32.669 18.371 8.33-14.813-32.164-18.093 32.164-18.094z" fill="#BDCEEE"/><path d="M323 189.335c6.26 0 11.334-5.074 11.334-11.333S329.26 166.668 323 166.668c-6.259 0-11.333 5.075-11.333 11.334 0 6.259 5.074 11.333 11.333 11.333z" fill="url(#paint6_linear_623_1582)"/><path d="M368.333 214.835c6.26 0 11.334-5.074 11.334-11.333s-5.074-11.334-11.334-11.334c-6.259 0-11.333 5.075-11.333 11.334 0 6.259 5.074 11.333 11.333 11.333z" fill="url(#paint7_linear_623_1582)"/><path d="M277.666 214.835c6.26 0 11.334-5.074 11.334-11.333s-5.074-11.334-11.334-11.334c-6.259 0-11.333 5.075-11.333 11.334 0 6.259 5.074 11.333 11.333 11.333z" fill="url(#paint8_linear_623_1582)"/><path d="M323 291.335c6.26 0 11.334-5.074 11.334-11.333S329.26 268.668 323 268.668c-6.259 0-11.333 5.075-11.333 11.334 0 6.259 5.074 11.333 11.333 11.333z" fill="url(#paint9_linear_623_1582)"/><path d="M277.666 265.835c6.26 0 11.334-5.074 11.334-11.333s-5.074-11.334-11.334-11.334c-6.259 0-11.333 5.075-11.333 11.334 0 6.259 5.074 11.333 11.333 11.333z" fill="url(#paint10_linear_623_1582)"/><path d="M368.333 265.835c6.26 0 11.334-5.074 11.334-11.333s-5.074-11.334-11.334-11.334c-6.259 0-11.333 5.075-11.333 11.334 0 6.259 5.074 11.333 11.333 11.333z" fill="url(#paint11_linear_623_1582)"/><path d="M323 246.002c9.389 0 17-7.611 17-17s-7.611-17-17-17-17 7.611-17 17 7.611 17 17 17z" fill="url(#paint12_linear_623_1582)"/><g filter="url(#filter4_d_623_1582)"><path d="M323 248.75c11.184 0 20.25-9.066 20.25-20.25s-9.066-20.25-20.25-20.25-20.25 9.066-20.25 20.25 9.066 20.25 20.25 20.25z" fill="#fff"/></g><path d="M323 224a4.5 4.5 0 00-4.5 4.5 4.5 4.5 0 004.5 4.5 4.5 4.5 0 004.5-4.5 4.5 4.5 0 00-4.5-4.5zm-8.987-13.626c.068-4.912 4.059-8.874 8.987-8.874s8.919 3.962 8.987 8.874a20.304 20.304 0 014.513 3.062V210.5c0-7.457-6.044-13.5-13.5-13.5s-13.5 6.043-13.5 13.5v2.936a20.304 20.304 0 014.513-3.062z" fill="#2457B8"/><g opacity=".5" filter="url(#filter5_f_623_1582)"><path d="M208 136a9 9 0 009-9 9 9 0 00-9-9 9 9 0 00-9 9 9 9 0 009 9z" fill="url(#paint13_linear_623_1582)"/></g><path opacity=".5" d="M299.991 156.669a5 5 0 100-10 5 5 0 000 10z" fill="url(#paint14_linear_623_1582)"/><path opacity=".7" d="M372 102c9.389 0 17-7.611 17-17s-7.611-17-17-17-17 7.611-17 17 7.611 17 17 17z" fill="url(#paint15_linear_623_1582)"/><g opacity=".2" filter="url(#filter6_f_623_1582)"><path d="M477 172c9.389 0 17-7.611 17-17s-7.611-17-17-17-17 7.611-17 17 7.611 17 17 17z" fill="url(#paint16_linear_623_1582)"/></g></g><defs><linearGradient id="paint0_linear_623_1582" x1="172.574" y1="245.002" x2="172.574" y2="285.002" gradientUnits="userSpaceOnUse"><stop stop-color="#BDCEEE"/><stop offset="1" stop-color="#4671F6"/></linearGradient><linearGradient id="paint1_linear_623_1582" x1="309" y1="72" x2="309" y2="672" gradientUnits="userSpaceOnUse"><stop stop-color="#BDCEEE"/><stop offset="1" stop-color="#4671F6"/></linearGradient><linearGradient id="paint2_linear_623_1582" x1="314" y1="152" x2="314" y2="602" gradientUnits="userSpaceOnUse"><stop stop-color="#BDCEEE"/><stop offset="1" stop-color="#4671F6"/></linearGradient><linearGradient id="paint3_linear_623_1582" x1="324" y1="222" x2="324" y2="552" gradientUnits="userSpaceOnUse"><stop stop-color="#BDCEEE"/><stop offset="1" stop-color="#4671F6"/></linearGradient><linearGradient id="paint4_linear_623_1582" x1="461" y1="256" x2="461" y2="274" gradientUnits="userSpaceOnUse"><stop stop-color="#BDCEEE"/><stop offset="1" stop-color="#4671F6"/></linearGradient><linearGradient id="paint5_linear_623_1582" x1="443.218" y1="391.175" x2="215.598" y2="391.175" gradientUnits="userSpaceOnUse"><stop stop-color="#DDE1E9"/><stop offset=".432" stop-color="#DDE1E9"/><stop offset=".599" stop-color="#F2F4F8"/><stop offset="1" stop-color="#FBFCFE"/></linearGradient><linearGradient id="paint6_linear_623_1582" x1="323" y1="166.668" x2="323" y2="189.335" gradientUnits="userSpaceOnUse"><stop stop-color="#BDCEEE"/><stop offset="1" stop-color="#4671F6"/></linearGradient><linearGradient id="paint7_linear_623_1582" x1="368.333" y1="192.168" x2="368.333" y2="214.835" gradientUnits="userSpaceOnUse"><stop stop-color="#BDCEEE"/><stop offset="1" stop-color="#4671F6"/></linearGradient><linearGradient id="paint8_linear_623_1582" x1="277.666" y1="192.168" x2="277.666" y2="214.835" gradientUnits="userSpaceOnUse"><stop stop-color="#BDCEEE"/><stop offset="1" stop-color="#4671F6"/></linearGradient><linearGradient id="paint9_linear_623_1582" x1="323" y1="268.668" x2="323" y2="291.335" gradientUnits="userSpaceOnUse"><stop stop-color="#BDCEEE"/><stop offset="1" stop-color="#4671F6"/></linearGradient><linearGradient id="paint10_linear_623_1582" x1="277.666" y1="243.168" x2="277.666" y2="265.835" gradientUnits="userSpaceOnUse"><stop stop-color="#BDCEEE"/><stop offset="1" stop-color="#4671F6"/></linearGradient><linearGradient id="paint11_linear_623_1582" x1="368.333" y1="243.168" x2="368.333" y2="265.835" gradientUnits="userSpaceOnUse"><stop stop-color="#BDCEEE"/><stop offset="1" stop-color="#4671F6"/></linearGradient><linearGradient id="paint12_linear_623_1582" x1="323" y1="212.002" x2="323" y2="246.002" gradientUnits="userSpaceOnUse"><stop stop-color="#BDCEEE"/><stop offset="1" stop-color="#4671F6"/></linearGradient><linearGradient id="paint13_linear_623_1582" x1="208" y1="118" x2="208" y2="136" gradientUnits="userSpaceOnUse"><stop stop-color="#BDCEEE"/><stop offset="1" stop-color="#4671F6"/></linearGradient><linearGradient id="paint14_linear_623_1582" x1="299.991" y1="146.669" x2="299.991" y2="156.669" gradientUnits="userSpaceOnUse"><stop stop-color="#BDCEEE"/><stop offset="1" stop-color="#4671F6"/></linearGradient><linearGradient id="paint15_linear_623_1582" x1="372" y1="68" x2="372" y2="102" gradientUnits="userSpaceOnUse"><stop stop-color="#BDCEEE"/><stop offset="1" stop-color="#4671F6"/></linearGradient><linearGradient id="paint16_linear_623_1582" x1="477" y1="138" x2="477" y2="172" gradientUnits="userSpaceOnUse"><stop stop-color="#BDCEEE"/><stop offset="1" stop-color="#4671F6"/></linearGradient><filter id="filter0_f_623_1582" x="-1" y="62" width="620" height="620" filterUnits="userSpaceOnUse" color-interpolation-filters="sRGB"><feFlood flood-opacity="0" result="BackgroundImageFix"/><feBlend in="SourceGraphic" in2="BackgroundImageFix" result="shape"/><feGaussianBlur stdDeviation="5" result="effect1_foregroundBlur_623_1582"/></filter><filter id="filter1_f_623_1582" x="79" y="142" width="470" height="470" filterUnits="userSpaceOnUse" color-interpolation-filters="sRGB"><feFlood flood-opacity="0" result="BackgroundImageFix"/><feBlend in="SourceGraphic" in2="BackgroundImageFix" result="shape"/><feGaussianBlur stdDeviation="5" result="effect1_foregroundBlur_623_1582"/></filter><filter id="filter2_f_623_1582" x="109" y="172" width="430" height="430" filterUnits="userSpaceOnUse" color-interpolation-filters="sRGB"><feFlood flood-opacity="0" result="BackgroundImageFix"/><feBlend in="SourceGraphic" in2="BackgroundImageFix" result="shape"/><feGaussianBlur stdDeviation="25" result="effect1_foregroundBlur_623_1582"/></filter><filter id="filter3_f_623_1582" x="269.998" y="301.002" width="111" height="31.132" filterUnits="userSpaceOnUse" color-interpolation-filters="sRGB"><feFlood flood-opacity="0" result="BackgroundImageFix"/><feBlend in="SourceGraphic" in2="BackgroundImageFix" result="shape"/><feGaussianBlur stdDeviation="7" result="effect1_foregroundBlur_623_1582"/></filter><filter id="filter4_d_623_1582" x="298.75" y="208.25" width="48.5" height="48.5" filterUnits="userSpaceOnUse" color-interpolation-filters="sRGB"><feFlood flood-opacity="0" result="BackgroundImageFix"/><feColorMatrix in="SourceAlpha" values="0 0 0 0 0 0 0 0 0 0 0 0 0 0 0 0 0 0 127 0" result="hardAlpha"/><feOffset dy="4"/><feGaussianBlur stdDeviation="2"/><feComposite in2="hardAlpha" operator="out"/><feColorMatrix values="0 0 0 0 0.45098 0 0 0 0 0.580392 0 0 0 0 0.956863 0 0 0 0.2 0"/><feBlend in2="BackgroundImageFix" result="effect1_dropShadow_623_1582"/><feBlend in="SourceGraphic" in2="effect1_dropShadow_623_1582" result="shape"/></filter><filter id="filter5_f_623_1582" x="197" y="116" width="22" height="22" filterUnits="userSpaceOnUse" color-interpolation-filters="sRGB"><feFlood flood-opacity="0" result="BackgroundImageFix"/><feBlend in="SourceGraphic" in2="BackgroundImageFix" result="shape"/><feGaussianBlur stdDeviation="1" result="effect1_foregroundBlur_623_1582"/></filter><filter id="filter6_f_623_1582" x="456" y="134" width="42" height="42" filterUnits="userSpaceOnUse" color-interpolation-filters="sRGB"><feFlood flood-opacity="0" result="BackgroundImageFix"/><feBlend in="SourceGraphic" in2="BackgroundImageFix" result="shape"/><feGaussianBlur stdDeviation="2" result="effect1_foregroundBlur_623_1582"/></filter><clipPath id="clip0_623_1582"><path fill="#fff" d="M0 0h620v460H0z"/></clipPath></defs></svg>