<svg width="620" height="460" fill="none" xmlns="http://www.w3.org/2000/svg"><g clip-path="url(#clip0_623_1611)"><g opacity=".3" filter="url(#filter0_f_623_1611)"><path d="M132 406c0-11.046 8.618-22.431 19.249-25.429l324.348-91.475c10.631-2.998 19.249 3.525 19.249 14.571v64c0 11.046-8.618 22.431-19.249 25.429l-324.348 91.475C140.618 487.569 132 481.046 132 470v-64z" fill="#4671F6"/></g><path opacity=".3" d="M162.481 375.864c0-10.769 8.403-21.87 18.768-24.793l324.348-91.475c10.365-2.924 18.767 3.437 18.767 14.207v64c0 10.769-8.402 21.869-18.767 24.793l-324.348 91.475c-10.365 2.923-18.768-3.437-18.768-14.207v-64z" stroke="#4671F6"/><path opacity=".15" d="M162.481 245.864c0-10.769 8.403-21.87 18.768-24.793l324.348-91.475c10.365-2.924 18.767 3.437 18.767 14.207v64c0 10.769-8.402 21.869-18.767 24.793l-324.348 91.475c-10.365 2.923-18.768-3.437-18.768-14.207v-64z" stroke="#4671F6"/><path opacity=".05" d="M162.481 115.864c0-10.769 8.403-21.87 18.768-24.793L505.597-.404c10.365-2.924 18.767 3.437 18.767 14.207v64c0 10.77-8.402 21.87-18.767 24.793l-324.348 91.475c-10.365 2.923-18.768-3.437-18.768-14.207v-64z" stroke="#4671F6"/><g opacity=".2" filter="url(#filter1_f_623_1611)"><path d="M132 282c0-11.046 8.618-22.431 19.249-25.429l324.348-91.475c10.631-2.998 19.249 3.525 19.249 14.571v64c0 11.046-8.618 22.431-19.249 25.429l-324.348 91.475C140.618 363.569 132 357.046 132 346v-64z" fill="#4671F6"/></g><g opacity=".1" filter="url(#filter2_f_623_1611)"><path d="M132 158c0-11.046 8.618-22.431 19.249-25.429l324.348-91.475c10.631-2.998 19.249 3.525 19.249 14.57v64.001c0 11.046-8.618 22.431-19.249 25.429l-324.348 91.475C140.618 239.569 132 233.046 132 222v-64z" fill="#4671F6"/></g><path fill="url(#paint0_linear_623_1611)" d="M214.598 320.769h227.62V460h-227.62z"/><path d="M317.678 281.611a26.005 26.005 0 0115.895-.12l103.777 32.456c7.025 2.198 7.074 12.124.07 14.39l-103.598 33.517a25.998 25.998 0 01-16.389-.127l-98.104-33.428c-6.856-2.336-6.807-12.051.074-14.317l98.275-32.371z" fill="#fff"/><g filter="url(#filter3_f_623_1611)"><path d="M298 310h63v5h-63v-5z" fill="#A5BDFE"/></g><path d="M272.1 286.751l38.428 14.214 73.877-47.467-48.388-13.065a5.994 5.994 0 00-3.219.025l-60.271 17.295a6 6 0 00-4.345 5.767v17.604a5.999 5.999 0 003.918 5.627z" fill="url(#paint1_linear_623_1611)"/><path d="M307.488 277.221a6 6 0 014.446-5.636l68.538-18.355c3.898-1.044 7.695 1.981 7.548 6.014l-.632 17.392a6 6 0 01-4.381 5.56l-68.388 19.118c-3.89 1.087-7.721-1.901-7.614-5.938l.483-18.155z" fill="#4671F6"/><path d="M272.1 249.751l38.428 14.214 73.877-47.467-48.388-13.065a5.994 5.994 0 00-3.219.025l-60.271 17.295a6 6 0 00-4.345 5.767v17.604a5.999 5.999 0 003.918 5.627z" fill="url(#paint2_linear_623_1611)"/><path d="M307.488 240.221a6 6 0 014.446-5.636l68.538-18.355c3.898-1.044 7.695 1.981 7.548 6.014l-.632 17.392a6 6 0 01-4.381 5.56l-68.388 19.118c-3.89 1.087-7.721-1.901-7.614-5.938l.483-18.155z" fill="#4671F6"/><path d="M272.099 212.752l38.428 14.214 73.877-47.467-48.388-13.066a6.004 6.004 0 00-3.219.025l-60.271 17.295a6 6 0 00-4.345 5.768v17.603a6 6 0 003.918 5.628z" fill="url(#paint3_linear_623_1611)"/><path d="M307.487 203.222a6.002 6.002 0 014.446-5.637l68.538-18.354c3.898-1.044 7.695 1.981 7.548 6.014l-.632 17.391a6 6 0 01-4.381 5.561l-68.388 19.118c-3.89 1.087-7.721-1.901-7.614-5.938l.483-18.155z" fill="#4671F6"/></g><defs><linearGradient id="paint0_linear_623_1611" x1="442.218" y1="390.384" x2="214.598" y2="390.384" gradientUnits="userSpaceOnUse"><stop stop-color="#DDE1E9"/><stop offset=".432" stop-color="#DDE1E9"/><stop offset=".599" stop-color="#F2F4F8"/><stop offset="1" stop-color="#FBFCFE"/></linearGradient><linearGradient id="paint1_linear_623_1611" x1="321.195" y1="193.17" x2="259.822" y2="315.649" gradientUnits="userSpaceOnUse"><stop stop-color="#5780FF"/><stop offset=".536" stop-color="#698EFF"/><stop offset=".635" stop-color="#A4BCFD"/><stop offset="1" stop-color="#A4BCFD"/></linearGradient><linearGradient id="paint2_linear_623_1611" x1="321.195" y1="156.17" x2="259.822" y2="278.649" gradientUnits="userSpaceOnUse"><stop stop-color="#5780FF"/><stop offset=".536" stop-color="#698EFF"/><stop offset=".635" stop-color="#A4BCFD"/><stop offset="1" stop-color="#A4BCFD"/></linearGradient><linearGradient id="paint3_linear_623_1611" x1="321.194" y1="119.17" x2="259.821" y2="241.65" gradientUnits="userSpaceOnUse"><stop stop-color="#5780FF"/><stop offset=".536" stop-color="#698EFF"/><stop offset=".635" stop-color="#A4BCFD"/><stop offset="1" stop-color="#A4BCFD"/></linearGradient><filter id="filter0_f_623_1611" x="128" y="284.367" width="370.846" height="204.933" filterUnits="userSpaceOnUse" color-interpolation-filters="sRGB"><feFlood flood-opacity="0" result="BackgroundImageFix"/><feBlend in="SourceGraphic" in2="BackgroundImageFix" result="shape"/><feGaussianBlur stdDeviation="2" result="effect1_foregroundBlur_623_1611"/></filter><filter id="filter1_f_623_1611" x="122" y="154.367" width="382.846" height="216.933" filterUnits="userSpaceOnUse" color-interpolation-filters="sRGB"><feFlood flood-opacity="0" result="BackgroundImageFix"/><feBlend in="SourceGraphic" in2="BackgroundImageFix" result="shape"/><feGaussianBlur stdDeviation="5" result="effect1_foregroundBlur_623_1611"/></filter><filter id="filter2_f_623_1611" x="102" y="10.367" width="422.846" height="256.933" filterUnits="userSpaceOnUse" color-interpolation-filters="sRGB"><feFlood flood-opacity="0" result="BackgroundImageFix"/><feBlend in="SourceGraphic" in2="BackgroundImageFix" result="shape"/><feGaussianBlur stdDeviation="15" result="effect1_foregroundBlur_623_1611"/></filter><filter id="filter3_f_623_1611" x="283" y="295" width="93" height="35" filterUnits="userSpaceOnUse" color-interpolation-filters="sRGB"><feFlood flood-opacity="0" result="BackgroundImageFix"/><feBlend in="SourceGraphic" in2="BackgroundImageFix" result="shape"/><feGaussianBlur stdDeviation="7.5" result="effect1_foregroundBlur_623_1611"/></filter><clipPath id="clip0_623_1611"><path fill="#fff" d="M0 0h620v460H0z"/></clipPath></defs></svg>