<svg width="388" height="175" fill="none" xmlns="http://www.w3.org/2000/svg"><g clip-path="url(#clip0_744_2464)"><g filter="url(#filter0_f_744_2464)"><circle cx="267.491" cy="102.491" r="84.5" transform="rotate(75 267.491 102.491)" fill="url(#paint0_linear_744_2464)"/></g><g filter="url(#filter1_f_744_2464)"><circle cx="104" cy="129" r="40" fill="url(#paint1_linear_744_2464)"/></g><path fill-rule="evenodd" clip-rule="evenodd" d="M303 107.991c0 1.467 1.349 2.609 2.8 2.393A35.245 35.245 0 01311 110c19.33 0 35 15.67 35 35s-15.67 35-35 35a35.46 35.46 0 01-4.613-.301c-6.737-.887-14.628 2.681-19.328 7.589C282.508 192.041 276.1 195 269 195a24.89 24.89 0 01-15.145-5.108c-4.08-3.111-9.53-4.822-14.371-3.121C233.569 188.85 227.67 190 222 190c-14.839 0-25.783-7.879-33.516-19.659-2.953-4.497-8.604-6.609-13.862-5.472A50.162 50.162 0 01164 166c-27.614 0-50-22.386-50-50s22.386-50 50-50c4.517 0 8.893.599 13.055 1.722 4.652 1.254 9.764-.091 13.02-3.643C201.958 51.117 219.03 42.991 238 42.991c35.899 0 65 29.102 65 65z" fill="url(#paint2_linear_744_2464)"/><circle cx="104" cy="179" r="50" fill="url(#paint3_linear_744_2464)"/><circle cx="164" cy="161" r="50" fill="url(#paint4_linear_744_2464)"/></g><defs><linearGradient id="paint0_linear_744_2464" x1="186.612" y1="183.37" x2="330.262" y2="31.27" gradientUnits="userSpaceOnUse"><stop stop-color="#2B5DBD"/><stop offset="1" stop-color="#6992EC"/></linearGradient><linearGradient id="paint1_linear_744_2464" x1="64" y1="57.8" x2="133.714" y2="95.286" gradientUnits="userSpaceOnUse"><stop stop-color="#2C5EBE"/><stop offset="1" stop-color="#6992EC"/></linearGradient><linearGradient id="paint2_linear_744_2464" x1="153.671" y1="49.491" x2="230.007" y2="180.161" gradientUnits="userSpaceOnUse"><stop stop-color="#fff"/><stop offset="1" stop-color="#6992EC"/></linearGradient><linearGradient id="paint3_linear_744_2464" x1="70.5" y1="134" x2="135" y2="221" gradientUnits="userSpaceOnUse"><stop stop-color="#fff"/><stop offset="1" stop-color="#6992EC"/></linearGradient><linearGradient id="paint4_linear_744_2464" x1="130.5" y1="116" x2="195" y2="203" gradientUnits="userSpaceOnUse"><stop stop-color="#fff"/><stop offset="1" stop-color="#6992EC"/></linearGradient><filter id="filter0_f_744_2464" x="168.97" y="3.97" width="197.042" height="197.042" filterUnits="userSpaceOnUse" color-interpolation-filters="sRGB"><feFlood flood-opacity="0" result="BackgroundImageFix"/><feBlend in="SourceGraphic" in2="BackgroundImageFix" result="shape"/><feGaussianBlur stdDeviation="7" result="effect1_foregroundBlur_744_2464"/></filter><filter id="filter1_f_744_2464" x="50" y="75" width="108" height="108" filterUnits="userSpaceOnUse" color-interpolation-filters="sRGB"><feFlood flood-opacity="0" result="BackgroundImageFix"/><feBlend in="SourceGraphic" in2="BackgroundImageFix" result="shape"/><feGaussianBlur stdDeviation="7" result="effect1_foregroundBlur_744_2464"/></filter><clipPath id="clip0_744_2464"><path fill="#fff" d="M0 0h388v175H0z"/></clipPath></defs></svg>