<svg width="620" height="460" fill="none" xmlns="http://www.w3.org/2000/svg"><g clip-path="url(#clip0_623_1583)"><path fill="url(#paint0_linear_623_1583)" d="M214.598 320.769h227.62V460h-227.62z"/><path d="M317.678 281.611a26.005 26.005 0 0115.895-.12l103.777 32.456c7.025 2.197 7.074 12.123.07 14.389l-103.598 33.518a25.998 25.998 0 01-16.389-.127l-98.104-33.428c-6.856-2.336-6.807-12.051.074-14.318l98.275-32.37z" fill="#fff"/><g opacity=".2" filter="url(#filter0_f_623_1583)"><path fill="url(#paint1_linear_623_1583)" d="M198.909 235.506h13.644v34.288h-13.644z"/><g clip-path="url(#clip1_623_1583)"><path d="M212.539 227.954v7.894l-6.817 3.588-6.818-3.588v-7.894l.434-.228 6.384 3.278 6.306-3.319.511.269z" fill="#6389FF"/><path d="M198.904 227.954l6.818 3.588 6.817-3.588-6.817-3.588-6.818 3.588z" fill="#A5BDFE"/><path d="M212.539 227.954v7.894l-6.817 3.588v-7.894l6.817-3.588z" fill="#4671F6"/></g></g><path fill="url(#paint2_linear_623_1583)" d="M346.8 82h41.9v106h-41.9z"/><path d="M388.71 58.958v24.251l-20.945 11.023-20.944-11.023V58.958l1.334-.7 19.61 10.07 19.374-10.197 1.571.827z" fill="#6389FF"/><path d="M346.821 58.958l20.944 11.023 20.945-11.023-20.945-11.023-20.944 11.023z" fill="#A5BDFE"/><path d="M388.71 58.958v24.25l-20.944 11.024V69.981l20.944-11.023z" fill="#4671F6"/><g opacity=".2" filter="url(#filter1_f_623_1583)"><path fill="url(#paint3_linear_623_1583)" d="M488.688 339.342h100.185v253.451H488.688z"/><path d="M588.9 284.247v57.986l-50.078 26.357-50.079-26.357v-57.986l3.189-1.674 46.89 24.078 46.322-24.381 3.756 1.977z" fill="#6389FF"/><path d="M488.743 284.247l50.079 26.357 50.078-26.357-50.078-26.357-50.079 26.357z" fill="#A5BDFE"/><path d="M588.9 284.247v57.986l-50.079 26.357v-57.986l50.079-26.357z" fill="#4671F6"/></g><path fill="url(#paint4_linear_623_1583)" d="M272.199 118h27.6v70h-27.6z"/><g clip-path="url(#clip2_623_1583)"><path d="M299.813 103.002v16l-13.818 7.273-13.818-7.273v-16l.88-.462 12.938 6.644 12.782-6.727 1.036.545z" fill="#6389FF"/><path d="M272.177 103.002l13.818 7.273 13.818-7.273-13.818-7.273-13.818 7.273z" fill="#A5BDFE"/><path d="M299.813 103.002v16l-13.818 7.273v-16l13.818-7.273z" fill="#4671F6"/></g><g opacity=".5"><path fill="url(#paint5_linear_623_1583)" d="M261 156h19.1v48H261z"/><path d="M280.08 145.428v11.05l-9.543 5.023-9.544-5.023v-11.05l.608-.319 8.936 4.588 8.828-4.646.715.377z" fill="#6389FF"/><path d="M260.993 145.428l9.544 5.023 9.543-5.023-9.543-5.023-9.544 5.023z" fill="#A5BDFE"/><path d="M280.081 145.428v11.051l-9.544 5.023v-11.051l9.544-5.023z" fill="#4671F6"/></g><g opacity=".3"><path fill="url(#paint6_linear_623_1583)" d="M231.031 225.785h18.99v48.346h-18.99z"/><path d="M250.08 215.427v11.051l-9.543 5.023-9.544-5.023v-11.051l.608-.319 8.936 4.589 8.828-4.646.715.376z" fill="#6389FF"/><path d="M230.993 215.427l9.544 5.023 9.543-5.023-9.543-5.023-9.544 5.023z" fill="#A5BDFE"/><path d="M250.081 215.427v11.051l-9.544 5.023V220.45l9.544-5.023z" fill="#4671F6"/></g><path fill="url(#paint7_linear_623_1583)" d="M420.2 228h27.7v70h-27.7z"/><g clip-path="url(#clip3_623_1583)"><path d="M447.814 213.002v16l-13.818 7.272-13.818-7.272v-16l.88-.462 12.938 6.644 12.782-6.728 1.036.546z" fill="#6389FF"/><path d="M420.178 213.002l13.818 7.272 13.818-7.272-13.818-7.273-13.818 7.273z" fill="#A5BDFE"/><path d="M447.814 213.002v16l-13.818 7.272v-16l13.818-7.272z" fill="#4671F6"/></g><path fill="url(#paint8_linear_623_1583)" d="M413.482 154.311h13.45v33.908h-13.45z"/><g clip-path="url(#clip4_623_1583)"><path d="M426.921 147.045v7.751l-6.693 3.523-6.694-3.523v-7.751l.426-.223 6.268 3.218 6.191-3.259.502.264z" fill="#6389FF"/><path d="M413.534 147.045l6.694 3.523 6.693-3.523-6.693-3.523-6.694 3.523z" fill="#A5BDFE"/><path d="M426.921 147.045v7.751l-6.693 3.523v-7.751l6.693-3.523z" fill="#4671F6"/></g><path fill="url(#paint9_linear_623_1583)" d="M423.482 159.311h13.45v33.908h-13.45z"/><g clip-path="url(#clip5_623_1583)"><path d="M436.921 152.045v7.751l-6.693 3.523-6.694-3.523v-7.751l.426-.223 6.268 3.218 6.191-3.259.502.264z" fill="#6389FF"/><path d="M423.534 152.045l6.694 3.523 6.693-3.523-6.693-3.523-6.694 3.523z" fill="#A5BDFE"/><path d="M436.921 152.045v7.751l-6.693 3.523v-7.751l6.693-3.523z" fill="#4671F6"/></g><path fill="url(#paint10_linear_623_1583)" d="M403.482 160.311h13.45v33.908h-13.45z"/><g clip-path="url(#clip6_623_1583)"><path d="M416.921 153.045v7.751l-6.693 3.523-6.694-3.523v-7.751l.426-.223 6.268 3.218 6.191-3.259.502.264z" fill="#6389FF"/><path d="M403.534 153.045l6.694 3.523 6.693-3.523-6.693-3.523-6.694 3.523z" fill="#A5BDFE"/><path d="M416.921 153.045v7.751l-6.693 3.523v-7.751l6.693-3.523z" fill="#4671F6"/></g><path fill="url(#paint11_linear_623_1583)" d="M433.482 164.311h13.45v33.908h-13.45z"/><g clip-path="url(#clip7_623_1583)"><path d="M446.921 157.045v7.751l-6.693 3.523-6.694-3.523v-7.751l.426-.223 6.268 3.218 6.191-3.259.502.264z" fill="#6389FF"/><path d="M433.534 157.045l6.694 3.523 6.693-3.523-6.693-3.523-6.694 3.523z" fill="#A5BDFE"/><path d="M446.921 157.045v7.751l-6.693 3.523v-7.751l6.693-3.523z" fill="#4671F6"/></g><path fill="url(#paint12_linear_623_1583)" d="M414.482 166.311h13.45v33.908h-13.45z"/><g clip-path="url(#clip8_623_1583)"><path d="M427.921 159.045v7.751l-6.693 3.523-6.694-3.523v-7.751l.426-.223 6.268 3.218 6.191-3.259.502.264z" fill="#6389FF"/><path d="M414.534 159.045l6.694 3.523 6.693-3.523-6.693-3.523-6.694 3.523z" fill="#A5BDFE"/><path d="M427.921 159.045v7.751l-6.693 3.523v-7.751l6.693-3.523z" fill="#4671F6"/></g><path fill="url(#paint13_linear_623_1583)" d="M443.482 169.311h13.45v33.908h-13.45z"/><g clip-path="url(#clip9_623_1583)"><path d="M456.921 162.045v7.751l-6.693 3.523-6.694-3.523v-7.751l.426-.223 6.268 3.218 6.191-3.259.502.264z" fill="#6389FF"/><path d="M443.534 162.045l6.694 3.523 6.693-3.523-6.693-3.523-6.694 3.523z" fill="#A5BDFE"/><path d="M456.921 162.045v7.751l-6.693 3.523v-7.751l6.693-3.523z" fill="#4671F6"/></g><path fill="url(#paint14_linear_623_1583)" d="M424.482 171.311h13.45v33.908h-13.45z"/><g clip-path="url(#clip10_623_1583)"><path d="M437.921 164.045v7.751l-6.693 3.523-6.694-3.523v-7.751l.426-.223 6.268 3.218 6.191-3.259.502.264z" fill="#6389FF"/><path d="M424.534 164.045l6.694 3.523 6.693-3.523-6.693-3.523-6.694 3.523z" fill="#A5BDFE"/><path d="M437.921 164.045v7.751l-6.693 3.523v-7.751l6.693-3.523z" fill="#4671F6"/></g><path fill="url(#paint15_linear_623_1583)" d="M453.482 174.311h13.45v33.908h-13.45z"/><g clip-path="url(#clip11_623_1583)"><path d="M466.921 167.045v7.751l-6.693 3.523-6.694-3.523v-7.751l.426-.223 6.268 3.218 6.191-3.259.502.264z" fill="#6389FF"/><path d="M453.534 167.045l6.694 3.523 6.693-3.523-6.693-3.523-6.694 3.523z" fill="#A5BDFE"/><path d="M466.921 167.045v7.751l-6.693 3.523v-7.751l6.693-3.523z" fill="#4671F6"/></g><path fill="url(#paint16_linear_623_1583)" d="M434.482 176.311h13.45v33.908h-13.45z"/><g clip-path="url(#clip12_623_1583)"><path d="M447.921 169.045v7.751l-6.693 3.523-6.694-3.523v-7.751l.426-.223 6.268 3.218 6.191-3.259.502.264z" fill="#6389FF"/><path d="M434.534 169.045l6.694 3.523 6.693-3.523-6.693-3.523-6.694 3.523z" fill="#A5BDFE"/><path d="M447.921 169.045v7.751l-6.693 3.523v-7.751l6.693-3.523z" fill="#4671F6"/></g><path fill="url(#paint17_linear_623_1583)" d="M393.482 167.311h13.45v33.908h-13.45z"/><g clip-path="url(#clip13_623_1583)"><path d="M406.921 160.045v7.751l-6.693 3.523-6.694-3.523v-7.751l.426-.223 6.268 3.218 6.191-3.259.502.264z" fill="#6389FF"/><path d="M393.534 160.045l6.694 3.523 6.693-3.523-6.693-3.523-6.694 3.523z" fill="#A5BDFE"/><path d="M406.921 160.045v7.751l-6.693 3.523v-7.751l6.693-3.523z" fill="#4671F6"/></g><path fill="url(#paint18_linear_623_1583)" d="M404.482 173.311h13.45v33.908h-13.45z"/><g clip-path="url(#clip14_623_1583)"><path d="M417.921 166.045v7.751l-6.693 3.523-6.694-3.523v-7.751l.426-.223 6.268 3.218 6.191-3.259.502.264z" fill="#6389FF"/><path d="M404.534 166.045l6.694 3.523 6.693-3.523-6.693-3.523-6.694 3.523z" fill="#A5BDFE"/><path d="M417.921 166.045v7.751l-6.693 3.523v-7.751l6.693-3.523z" fill="#4671F6"/></g><path fill="url(#paint19_linear_623_1583)" d="M414.482 178.311h13.45v33.908h-13.45z"/><g clip-path="url(#clip15_623_1583)"><path d="M427.921 171.045v7.751l-6.693 3.523-6.694-3.523v-7.751l.426-.223 6.268 3.218 6.191-3.259.502.264z" fill="#6389FF"/><path d="M414.534 171.045l6.694 3.523 6.693-3.523-6.693-3.523-6.694 3.523z" fill="#A5BDFE"/><path d="M427.921 171.045v7.751l-6.693 3.523v-7.751l6.693-3.523z" fill="#4671F6"/></g><path fill="url(#paint20_linear_623_1583)" d="M424.482 183.311h13.45v33.908h-13.45z"/><g clip-path="url(#clip16_623_1583)"><path d="M437.921 176.045v7.751l-6.693 3.523-6.694-3.523v-7.751l.426-.223 6.268 3.218 6.191-3.259.502.264z" fill="#6389FF"/><path d="M424.534 176.045l6.694 3.523 6.693-3.523-6.693-3.523-6.694 3.523z" fill="#A5BDFE"/><path d="M437.921 176.045v7.751l-6.693 3.523v-7.751l6.693-3.523z" fill="#4671F6"/></g><path fill="url(#paint21_linear_623_1583)" d="M434.482 188.311h13.45v33.908h-13.45z"/><g clip-path="url(#clip17_623_1583)"><path d="M447.921 181.045v7.751l-6.693 3.523-6.694-3.523v-7.751l.426-.223 6.268 3.218 6.191-3.259.502.264z" fill="#6389FF"/><path d="M434.534 181.045l6.694 3.523 6.693-3.523-6.693-3.523-6.694 3.523z" fill="#A5BDFE"/><path d="M447.921 181.045v7.751l-6.693 3.523v-7.751l6.693-3.523z" fill="#4671F6"/></g><g filter="url(#filter2_f_623_1583)"><path fill="url(#paint22_linear_623_1583)" d="M123.482 314.311h13.45v33.908h-13.45z"/><g clip-path="url(#clip18_623_1583)"><path d="M136.921 307.045v7.751l-6.693 3.523-6.694-3.523v-7.751l.426-.223 6.268 3.218 6.191-3.259.502.264z" fill="#6389FF"/><path d="M123.534 307.045l6.694 3.523 6.693-3.523-6.693-3.523-6.694 3.523z" fill="#A5BDFE"/><path d="M136.921 307.045v7.751l-6.693 3.523v-7.751l6.693-3.523z" fill="#4671F6"/></g><path fill="url(#paint23_linear_623_1583)" d="M133.482 319.311h13.45v33.908h-13.45z"/><g clip-path="url(#clip19_623_1583)"><path d="M146.921 312.045v7.751l-6.693 3.523-6.694-3.523v-7.751l.426-.223 6.268 3.218 6.191-3.259.502.264z" fill="#6389FF"/><path d="M133.534 312.045l6.694 3.523 6.693-3.523-6.693-3.523-6.694 3.523z" fill="#A5BDFE"/><path d="M146.921 312.045v7.751l-6.693 3.523v-7.751l6.693-3.523z" fill="#4671F6"/></g><path fill="url(#paint24_linear_623_1583)" d="M153.482 329.311h13.45v33.908h-13.45z"/><g clip-path="url(#clip20_623_1583)"><path d="M166.921 322.045v7.751l-6.693 3.523-6.694-3.523v-7.751l.426-.223 6.268 3.218 6.191-3.259.502.264z" fill="#6389FF"/><path d="M153.534 322.045l6.694 3.523 6.693-3.523-6.693-3.523-6.694 3.523z" fill="#A5BDFE"/><path d="M166.921 322.045v7.751l-6.693 3.523v-7.751l6.693-3.523z" fill="#4671F6"/></g><path fill="url(#paint25_linear_623_1583)" d="M163.482 334.311h13.45v33.908h-13.45z"/><g clip-path="url(#clip21_623_1583)"><path d="M176.921 327.045v7.751l-6.693 3.523-6.694-3.523v-7.751l.426-.223 6.268 3.218 6.191-3.259.502.264z" fill="#6389FF"/><path d="M163.534 327.045l6.694 3.523 6.693-3.523-6.693-3.523-6.694 3.523z" fill="#A5BDFE"/><path d="M176.921 327.045v7.751l-6.693 3.523v-7.751l6.693-3.523z" fill="#4671F6"/></g><path fill="url(#paint26_linear_623_1583)" d="M114.482 333.311h13.45v33.908h-13.45z"/><g clip-path="url(#clip22_623_1583)"><path d="M127.921 326.045v7.751l-6.693 3.523-6.694-3.523v-7.751l.426-.223 6.268 3.218 6.191-3.259.502.264z" fill="#6389FF"/><path d="M114.534 326.045l6.694 3.523 6.693-3.523-6.693-3.523-6.694 3.523z" fill="#A5BDFE"/><path d="M127.921 326.045v7.751l-6.693 3.523v-7.751l6.693-3.523z" fill="#4671F6"/></g><path fill="url(#paint27_linear_623_1583)" d="M124.482 338.311h13.45v33.908h-13.45z"/><g clip-path="url(#clip23_623_1583)"><path d="M137.921 331.045v7.751l-6.693 3.523-6.694-3.523v-7.751l.426-.223 6.268 3.218 6.191-3.259.502.264z" fill="#6389FF"/><path d="M124.534 331.045l6.694 3.523 6.693-3.523-6.693-3.523-6.694 3.523z" fill="#A5BDFE"/><path d="M137.921 331.045v7.751l-6.693 3.523v-7.751l6.693-3.523z" fill="#4671F6"/></g><path fill="url(#paint28_linear_623_1583)" d="M134.482 343.311h13.45v33.908h-13.45z"/><g clip-path="url(#clip24_623_1583)"><path d="M147.921 336.045v7.751l-6.693 3.523-6.694-3.523v-7.751l.426-.223 6.268 3.218 6.191-3.259.502.264z" fill="#6389FF"/><path d="M134.534 336.045l6.694 3.523 6.693-3.523-6.693-3.523-6.694 3.523z" fill="#A5BDFE"/><path d="M147.921 336.045v7.751l-6.693 3.523v-7.751l6.693-3.523z" fill="#4671F6"/></g><path fill="url(#paint29_linear_623_1583)" d="M144.482 348.311h13.45v33.908h-13.45z"/><g clip-path="url(#clip25_623_1583)"><path d="M157.921 341.045v7.751l-6.693 3.523-6.694-3.523v-7.751l.426-.223 6.268 3.218 6.191-3.259.502.264z" fill="#6389FF"/><path d="M144.534 341.045l6.694 3.523 6.693-3.523-6.693-3.523-6.694 3.523z" fill="#A5BDFE"/><path d="M157.921 341.045v7.751l-6.693 3.523v-7.751l6.693-3.523z" fill="#4671F6"/></g></g><g opacity=".5"><path fill="url(#paint30_linear_623_1583)" d="M484.482 218.311h13.45v33.908h-13.45z"/><g clip-path="url(#clip26_623_1583)"><path d="M497.921 211.045v7.751l-6.693 3.523-6.694-3.523v-7.751l.426-.223 6.268 3.218 6.191-3.259.502.264z" fill="#6389FF"/><path d="M484.534 211.045l6.694 3.523 6.693-3.523-6.693-3.523-6.694 3.523z" fill="#A5BDFE"/><path d="M497.921 211.045v7.751l-6.693 3.522v-7.75l6.693-3.523z" fill="#4671F6"/></g></g><g filter="url(#filter3_f_623_1583)"><path d="M304 314h63v5h-63v-5z" fill="#A5BDFE"/></g><path d="M284.5 296.172L301 306l71.5-131-22.547-6.863a10.005 10.005 0 00-5.482-.097l-58.443 15.543a6 6 0 00-4.458 5.798v101.636a6 6 0 002.93 5.155z" fill="url(#paint31_linear_623_1583)"/><path d="M298.273 197.139a6 6 0 014.548-5.822l66.406-16.564c3.786-.944 7.452 1.92 7.452 5.822v100.328a6 6 0 01-4.252 5.739l-66.406 20.228c-3.855 1.174-7.748-1.71-7.748-5.74V197.139z" fill="#4671F6"/><circle cx="336.749" cy="229.469" r="27.939" fill="url(#paint32_linear_623_1583)"/><circle cx="336.749" cy="229.469" r="5.588" fill="#4671F6"/><path d="M308.81 260.02a9.96 9.96 0 014.532-8.351l18.61-12.097c1.587-1.031 3.586.514 2.987 2.31l-7.146 21.438a9.742 9.742 0 01-9.242 6.661c-5.38 0-9.741-4.361-9.741-9.742v-.219z" fill="#fff"/></g><defs><linearGradient id="paint0_linear_623_1583" x1="442.218" y1="390.384" x2="214.598" y2="390.384" gradientUnits="userSpaceOnUse"><stop stop-color="#DDE1E9"/><stop offset=".432" stop-color="#DDE1E9"/><stop offset=".599" stop-color="#F2F4F8"/><stop offset="1" stop-color="#FBFCFE"/></linearGradient><linearGradient id="paint1_linear_623_1583" x1="205.731" y1="235.506" x2="205.731" y2="269.794" gradientUnits="userSpaceOnUse"><stop stop-color="#A5BDFE"/><stop offset="1" stop-color="#F2F4F8" stop-opacity="0"/></linearGradient><linearGradient id="paint2_linear_623_1583" x1="367.75" y1="82" x2="367.75" y2="188" gradientUnits="userSpaceOnUse"><stop stop-color="#A5BDFE"/><stop offset="1" stop-color="#F2F4F8" stop-opacity="0"/></linearGradient><linearGradient id="paint3_linear_623_1583" x1="538.78" y1="339.342" x2="538.78" y2="592.794" gradientUnits="userSpaceOnUse"><stop stop-color="#A5BDFE"/><stop offset="1" stop-color="#F2F4F8" stop-opacity="0"/></linearGradient><linearGradient id="paint4_linear_623_1583" x1="285.999" y1="118" x2="285.999" y2="188" gradientUnits="userSpaceOnUse"><stop stop-color="#A5BDFE"/><stop offset="1" stop-color="#F2F4F8" stop-opacity="0"/></linearGradient><linearGradient id="paint5_linear_623_1583" x1="270.55" y1="156" x2="270.55" y2="204" gradientUnits="userSpaceOnUse"><stop stop-color="#A5BDFE"/><stop offset="1" stop-color="#F2F4F8" stop-opacity="0"/></linearGradient><linearGradient id="paint6_linear_623_1583" x1="240.526" y1="225.785" x2="240.526" y2="274.132" gradientUnits="userSpaceOnUse"><stop stop-color="#A5BDFE"/><stop offset="1" stop-color="#F2F4F8" stop-opacity="0"/></linearGradient><linearGradient id="paint7_linear_623_1583" x1="434.05" y1="228" x2="434.05" y2="298" gradientUnits="userSpaceOnUse"><stop stop-color="#A5BDFE"/><stop offset="1" stop-color="#F2F4F8" stop-opacity="0"/></linearGradient><linearGradient id="paint8_linear_623_1583" x1="420.207" y1="154.311" x2="420.207" y2="188.219" gradientUnits="userSpaceOnUse"><stop stop-color="#A5BDFE"/><stop offset="1" stop-color="#F2F4F8" stop-opacity="0"/></linearGradient><linearGradient id="paint9_linear_623_1583" x1="430.207" y1="159.311" x2="430.207" y2="193.219" gradientUnits="userSpaceOnUse"><stop stop-color="#A5BDFE"/><stop offset="1" stop-color="#F2F4F8" stop-opacity="0"/></linearGradient><linearGradient id="paint10_linear_623_1583" x1="410.207" y1="160.311" x2="410.207" y2="194.219" gradientUnits="userSpaceOnUse"><stop stop-color="#A5BDFE"/><stop offset="1" stop-color="#F2F4F8" stop-opacity="0"/></linearGradient><linearGradient id="paint11_linear_623_1583" x1="440.207" y1="164.311" x2="440.207" y2="198.219" gradientUnits="userSpaceOnUse"><stop stop-color="#A5BDFE"/><stop offset="1" stop-color="#F2F4F8" stop-opacity="0"/></linearGradient><linearGradient id="paint12_linear_623_1583" x1="421.207" y1="166.311" x2="421.207" y2="200.219" gradientUnits="userSpaceOnUse"><stop stop-color="#A5BDFE"/><stop offset="1" stop-color="#F2F4F8" stop-opacity="0"/></linearGradient><linearGradient id="paint13_linear_623_1583" x1="450.207" y1="169.311" x2="450.207" y2="203.219" gradientUnits="userSpaceOnUse"><stop stop-color="#A5BDFE"/><stop offset="1" stop-color="#F2F4F8" stop-opacity="0"/></linearGradient><linearGradient id="paint14_linear_623_1583" x1="431.207" y1="171.311" x2="431.207" y2="205.219" gradientUnits="userSpaceOnUse"><stop stop-color="#A5BDFE"/><stop offset="1" stop-color="#F2F4F8" stop-opacity="0"/></linearGradient><linearGradient id="paint15_linear_623_1583" x1="460.207" y1="174.311" x2="460.207" y2="208.219" gradientUnits="userSpaceOnUse"><stop stop-color="#A5BDFE"/><stop offset="1" stop-color="#F2F4F8" stop-opacity="0"/></linearGradient><linearGradient id="paint16_linear_623_1583" x1="441.207" y1="176.311" x2="441.207" y2="210.219" gradientUnits="userSpaceOnUse"><stop stop-color="#A5BDFE"/><stop offset="1" stop-color="#F2F4F8" stop-opacity="0"/></linearGradient><linearGradient id="paint17_linear_623_1583" x1="400.207" y1="167.311" x2="400.207" y2="201.219" gradientUnits="userSpaceOnUse"><stop stop-color="#A5BDFE"/><stop offset="1" stop-color="#F2F4F8" stop-opacity="0"/></linearGradient><linearGradient id="paint18_linear_623_1583" x1="411.207" y1="173.311" x2="411.207" y2="207.219" gradientUnits="userSpaceOnUse"><stop stop-color="#A5BDFE"/><stop offset="1" stop-color="#F2F4F8" stop-opacity="0"/></linearGradient><linearGradient id="paint19_linear_623_1583" x1="421.207" y1="178.311" x2="421.207" y2="212.219" gradientUnits="userSpaceOnUse"><stop stop-color="#A5BDFE"/><stop offset="1" stop-color="#F2F4F8" stop-opacity="0"/></linearGradient><linearGradient id="paint20_linear_623_1583" x1="431.207" y1="183.311" x2="431.207" y2="217.219" gradientUnits="userSpaceOnUse"><stop stop-color="#A5BDFE"/><stop offset="1" stop-color="#F2F4F8" stop-opacity="0"/></linearGradient><linearGradient id="paint21_linear_623_1583" x1="441.207" y1="188.311" x2="441.207" y2="222.219" gradientUnits="userSpaceOnUse"><stop stop-color="#A5BDFE"/><stop offset="1" stop-color="#F2F4F8" stop-opacity="0"/></linearGradient><linearGradient id="paint22_linear_623_1583" x1="130.207" y1="314.311" x2="130.207" y2="348.219" gradientUnits="userSpaceOnUse"><stop stop-color="#A5BDFE"/><stop offset="1" stop-color="#F2F4F8" stop-opacity="0"/></linearGradient><linearGradient id="paint23_linear_623_1583" x1="140.207" y1="319.311" x2="140.207" y2="353.219" gradientUnits="userSpaceOnUse"><stop stop-color="#A5BDFE"/><stop offset="1" stop-color="#F2F4F8" stop-opacity="0"/></linearGradient><linearGradient id="paint24_linear_623_1583" x1="160.207" y1="329.311" x2="160.207" y2="363.219" gradientUnits="userSpaceOnUse"><stop stop-color="#A5BDFE"/><stop offset="1" stop-color="#F2F4F8" stop-opacity="0"/></linearGradient><linearGradient id="paint25_linear_623_1583" x1="170.207" y1="334.311" x2="170.207" y2="368.219" gradientUnits="userSpaceOnUse"><stop stop-color="#A5BDFE"/><stop offset="1" stop-color="#F2F4F8" stop-opacity="0"/></linearGradient><linearGradient id="paint26_linear_623_1583" x1="121.207" y1="333.311" x2="121.207" y2="367.219" gradientUnits="userSpaceOnUse"><stop stop-color="#A5BDFE"/><stop offset="1" stop-color="#F2F4F8" stop-opacity="0"/></linearGradient><linearGradient id="paint27_linear_623_1583" x1="131.207" y1="338.311" x2="131.207" y2="372.219" gradientUnits="userSpaceOnUse"><stop stop-color="#A5BDFE"/><stop offset="1" stop-color="#F2F4F8" stop-opacity="0"/></linearGradient><linearGradient id="paint28_linear_623_1583" x1="141.207" y1="343.311" x2="141.207" y2="377.219" gradientUnits="userSpaceOnUse"><stop stop-color="#A5BDFE"/><stop offset="1" stop-color="#F2F4F8" stop-opacity="0"/></linearGradient><linearGradient id="paint29_linear_623_1583" x1="151.207" y1="348.311" x2="151.207" y2="382.219" gradientUnits="userSpaceOnUse"><stop stop-color="#A5BDFE"/><stop offset="1" stop-color="#F2F4F8" stop-opacity="0"/></linearGradient><linearGradient id="paint30_linear_623_1583" x1="491.207" y1="218.311" x2="491.207" y2="252.219" gradientUnits="userSpaceOnUse"><stop stop-color="#A5BDFE"/><stop offset="1" stop-color="#F2F4F8" stop-opacity="0"/></linearGradient><linearGradient id="paint31_linear_623_1583" x1="335.352" y1="148.448" x2="269.696" y2="231.566" gradientUnits="userSpaceOnUse"><stop stop-color="#5780FF"/><stop offset=".536" stop-color="#698EFF"/><stop offset=".635" stop-color="#A4BCFD"/><stop offset="1" stop-color="#A4BCFD"/></linearGradient><linearGradient id="paint32_linear_623_1583" x1="285.761" y1="276.966" x2="364.687" y2="214.104" gradientUnits="userSpaceOnUse"><stop stop-color="#D9D9D9"/><stop offset="1" stop-color="#D9D9D9" stop-opacity="0"/></linearGradient><clipPath id="clip0_623_1583"><path fill="#fff" d="M0 0h620v460H0z"/></clipPath><clipPath id="clip1_623_1583"><path fill="#fff" transform="translate(197.828 224.007)" d="M0 0h15.787v15.787H0z"/></clipPath><clipPath id="clip2_623_1583"><path fill="#fff" transform="translate(269.995 95.002)" d="M0 0h32v32H0z"/></clipPath><clipPath id="clip3_623_1583"><path fill="#fff" transform="translate(417.996 205.002)" d="M0 0h32v32H0z"/></clipPath><clipPath id="clip4_623_1583"><path fill="#fff" transform="translate(412.478 143.17)" d="M0 0h15.501v15.501H0z"/></clipPath><clipPath id="clip5_623_1583"><path fill="#fff" transform="translate(422.478 148.17)" d="M0 0h15.501v15.501H0z"/></clipPath><clipPath id="clip6_623_1583"><path fill="#fff" transform="translate(402.478 149.17)" d="M0 0h15.501v15.501H0z"/></clipPath><clipPath id="clip7_623_1583"><path fill="#fff" transform="translate(432.478 153.17)" d="M0 0h15.501v15.501H0z"/></clipPath><clipPath id="clip8_623_1583"><path fill="#fff" transform="translate(413.478 155.17)" d="M0 0h15.501v15.501H0z"/></clipPath><clipPath id="clip9_623_1583"><path fill="#fff" transform="translate(442.478 158.17)" d="M0 0h15.501v15.501H0z"/></clipPath><clipPath id="clip10_623_1583"><path fill="#fff" transform="translate(423.478 160.17)" d="M0 0h15.501v15.501H0z"/></clipPath><clipPath id="clip11_623_1583"><path fill="#fff" transform="translate(452.478 163.17)" d="M0 0h15.501v15.501H0z"/></clipPath><clipPath id="clip12_623_1583"><path fill="#fff" transform="translate(433.478 165.17)" d="M0 0h15.501v15.501H0z"/></clipPath><clipPath id="clip13_623_1583"><path fill="#fff" transform="translate(392.478 156.17)" d="M0 0h15.501v15.501H0z"/></clipPath><clipPath id="clip14_623_1583"><path fill="#fff" transform="translate(403.478 162.17)" d="M0 0h15.501v15.501H0z"/></clipPath><clipPath id="clip15_623_1583"><path fill="#fff" transform="translate(413.478 167.17)" d="M0 0h15.501v15.501H0z"/></clipPath><clipPath id="clip16_623_1583"><path fill="#fff" transform="translate(423.478 172.17)" d="M0 0h15.501v15.501H0z"/></clipPath><clipPath id="clip17_623_1583"><path fill="#fff" transform="translate(433.478 177.17)" d="M0 0h15.501v15.501H0z"/></clipPath><clipPath id="clip18_623_1583"><path fill="#fff" transform="translate(122.478 303.17)" d="M0 0h15.501v15.501H0z"/></clipPath><clipPath id="clip19_623_1583"><path fill="#fff" transform="translate(132.478 308.17)" d="M0 0h15.501v15.501H0z"/></clipPath><clipPath id="clip20_623_1583"><path fill="#fff" transform="translate(152.478 318.17)" d="M0 0h15.501v15.501H0z"/></clipPath><clipPath id="clip21_623_1583"><path fill="#fff" transform="translate(162.478 323.17)" d="M0 0h15.501v15.501H0z"/></clipPath><clipPath id="clip22_623_1583"><path fill="#fff" transform="translate(113.478 322.17)" d="M0 0h15.501v15.501H0z"/></clipPath><clipPath id="clip23_623_1583"><path fill="#fff" transform="translate(123.478 327.17)" d="M0 0h15.501v15.501H0z"/></clipPath><clipPath id="clip24_623_1583"><path fill="#fff" transform="translate(133.478 332.17)" d="M0 0h15.501v15.501H0z"/></clipPath><clipPath id="clip25_623_1583"><path fill="#fff" transform="translate(143.478 337.17)" d="M0 0h15.501v15.501H0z"/></clipPath><clipPath id="clip26_623_1583"><path fill="#fff" transform="translate(483.478 207.17)" d="M0 0h15.501v15.501H0z"/></clipPath><filter id="filter0_f_623_1583" x="195.828" y="222.007" width="19.787" height="49.786" filterUnits="userSpaceOnUse" color-interpolation-filters="sRGB"><feFlood flood-opacity="0" result="BackgroundImageFix"/><feBlend in="SourceGraphic" in2="BackgroundImageFix" result="shape"/><feGaussianBlur stdDeviation="1" result="effect1_foregroundBlur_623_1583"/></filter><filter id="filter1_f_623_1583" x="466.836" y="241.254" width="143.972" height="365.539" filterUnits="userSpaceOnUse" color-interpolation-filters="sRGB"><feFlood flood-opacity="0" result="BackgroundImageFix"/><feBlend in="SourceGraphic" in2="BackgroundImageFix" result="shape"/><feGaussianBlur stdDeviation="7" result="effect1_foregroundBlur_623_1583"/></filter><filter id="filter2_f_623_1583" x="109.478" y="299.17" width="72.501" height="87.049" filterUnits="userSpaceOnUse" color-interpolation-filters="sRGB"><feFlood flood-opacity="0" result="BackgroundImageFix"/><feBlend in="SourceGraphic" in2="BackgroundImageFix" result="shape"/><feGaussianBlur stdDeviation="2" result="effect1_foregroundBlur_623_1583"/></filter><filter id="filter3_f_623_1583" x="289" y="299" width="93" height="35" filterUnits="userSpaceOnUse" color-interpolation-filters="sRGB"><feFlood flood-opacity="0" result="BackgroundImageFix"/><feBlend in="SourceGraphic" in2="BackgroundImageFix" result="shape"/><feGaussianBlur stdDeviation="7.5" result="effect1_foregroundBlur_623_1583"/></filter></defs></svg>