<svg width="620" height="460" fill="none" xmlns="http://www.w3.org/2000/svg"><g clip-path="url(#clip0_623_1667)"><g opacity=".5" filter="url(#filter0_f_623_1667)"><path d="M327.014 48.008l238.157 137.5v275l-238.157 137.5-238.157-137.5v-275l238.157-137.5z" fill="#E8ECF5"/></g><g filter="url(#filter1_f_623_1667)"><path d="M329.014 129.008l173.205 100v200l-173.205 100-173.205-100v-200l173.205-100z" fill="#E8ECF5"/></g><path fill="url(#paint0_linear_623_1667)" d="M215.598 321.56h227.62v139.231h-227.62z"/><path d="M318.678 282.401a25.997 25.997 0 0115.895-.119l103.777 32.456c7.025 2.197 7.074 12.123.07 14.389l-103.598 33.517a25.991 25.991 0 01-16.389-.127l-98.104-33.428c-6.856-2.336-6.807-12.051.074-14.317l98.275-32.371z" fill="#fff"/><g opacity=".3" filter="url(#filter2_f_623_1667)"><ellipse cx="325.503" cy="315.567" rx="41.5" ry="5.565" fill="#7294FF"/></g><path fill-rule="evenodd" clip-rule="evenodd" d="M300.836 266h-2.833v-11.333h2.833a5.673 5.673 0 005.667-5.667v-39.667a5.672 5.672 0 00-5.667-5.666h-2.833v-11.334h2.833c9.373 0 17 7.628 17 17V223.5h8.5v11.333h-8.5V249c0 9.373-7.627 17-17 17z" fill="url(#paint1_linear_623_1667)"/><path d="M371.002 277.334h-28.333c-9.39 0-17-7.611-17-17v-56.667c0-9.39 7.61-17 17-17h28.333c9.39 0 17 7.61 17 17v56.667c0 9.389-7.61 17-17 17zM287.003 215h-11.334c-6.261 0-11.333-5.072-11.333-11.333v-11.334c0-6.261 5.072-11.333 11.333-11.333h11.334c6.261 0 11.333 5.072 11.333 11.333v11.334c0 6.261-5.072 11.333-11.333 11.333zm.001 62.333H275.67c-6.261 0-11.333-5.071-11.333-11.333v-11.333c0-6.262 5.072-11.334 11.333-11.334h11.334c6.261 0 11.333 5.072 11.333 11.334V266c0 6.262-5.072 11.333-11.333 11.333z" fill="#BDCEEE"/><path d="M368.17 215h-22.667a8.5 8.5 0 01-8.5-8.5 8.5 8.5 0 018.5-8.5h22.667a8.5 8.5 0 018.5 8.5 8.5 8.5 0 01-8.5 8.5z" fill="url(#paint2_linear_623_1667)"/><path d="M368.17 237.667h-22.667a8.5 8.5 0 01-8.5-8.5 8.5 8.5 0 018.5-8.5h22.667a8.5 8.5 0 018.5 8.5 8.5 8.5 0 01-8.5 8.5z" fill="url(#paint3_linear_623_1667)"/><path d="M356.836 266a8.5 8.5 0 10-.001-17.001 8.5 8.5 0 00.001 17.001z" fill="url(#paint4_linear_623_1667)"/><path d="M168.666 142.667c0-.76.363-1.438.933-1.892.507-.406.729-1.05.496-1.638a9.877 9.877 0 00-1.717-2.804 1.556 1.556 0 00-1.687-.43 2.77 2.77 0 01-2.264-.164 2.474 2.474 0 01-1.283-1.774c-.095-.588-.589-1.058-1.21-1.158a10.912 10.912 0 00-3.491 0c-.621.1-1.115.57-1.21 1.158a2.482 2.482 0 01-1.285 1.774 2.77 2.77 0 01-2.264.164 1.55 1.55 0 00-1.685.43 9.815 9.815 0 00-1.717 2.804c-.235.588-.013 1.232.496 1.638a2.42 2.42 0 01.931 1.892c0 .76-.363 1.438-.933 1.892-.507.406-.729 1.05-.496 1.638a9.877 9.877 0 001.717 2.804c.407.468 1.09.646 1.687.43a2.763 2.763 0 012.264.164 2.474 2.474 0 011.283 1.774c.095.588.589 1.058 1.21 1.158a10.912 10.912 0 003.491 0c.621-.1 1.115-.57 1.21-1.158a2.47 2.47 0 011.283-1.774 2.762 2.762 0 012.264-.164c.597.218 1.28.038 1.687-.43a9.815 9.815 0 001.717-2.804c.235-.586.013-1.232-.496-1.638a2.42 2.42 0 01-.931-1.892zm-8.479 4c-2.342 0-4.239-1.792-4.239-4s1.897-4 4.239-4c2.343 0 4.24 1.792 4.24 4s-1.897 4-4.24 4z" fill="#2457B8" fill-opacity=".2"/><g filter="url(#filter3_f_623_1667)"><path d="M166.951 282.667c0-.76.363-1.438.933-1.892.507-.406.729-1.05.496-1.638a9.877 9.877 0 00-1.717-2.804 1.556 1.556 0 00-1.687-.43 2.77 2.77 0 01-2.264-.164 2.47 2.47 0 01-1.282-1.774c-.096-.588-.59-1.058-1.211-1.158a10.912 10.912 0 00-3.491 0c-.621.1-1.115.57-1.21 1.158a2.482 2.482 0 01-1.285 1.774 2.77 2.77 0 01-2.264.164 1.55 1.55 0 00-1.685.43 9.815 9.815 0 00-1.717 2.804c-.235.588-.012 1.232.496 1.638a2.42 2.42 0 01.931 1.892c0 .76-.363 1.438-.933 1.892-.506.406-.729 1.05-.496 1.638a9.877 9.877 0 001.717 2.804c.407.468 1.09.646 1.687.43a2.763 2.763 0 012.264.164 2.474 2.474 0 011.283 1.774c.095.588.589 1.058 1.21 1.158a10.916 10.916 0 003.491 0c.621-.1 1.115-.57 1.211-1.158a2.466 2.466 0 011.282-1.774 2.762 2.762 0 012.264-.164c.597.218 1.28.038 1.687-.43a9.815 9.815 0 001.717-2.804c.235-.586.013-1.232-.496-1.638a2.42 2.42 0 01-.931-1.892zm-8.478 4c-2.343 0-4.24-1.792-4.24-4s1.897-4 4.24-4c2.342 0 4.239 1.792 4.239 4s-1.897 4-4.239 4z" fill="#2457B8" fill-opacity=".05"/></g><path d="M329.906 117.667c0-1.14.543-2.157 1.399-2.838.76-.609 1.093-1.575.744-2.457a14.84 14.84 0 00-2.576-4.206 2.335 2.335 0 00-2.531-.645 4.153 4.153 0 01-3.395-.246c-1.081-.588-1.749-1.584-1.924-2.661-.143-.882-.884-1.587-1.816-1.737a16.367 16.367 0 00-5.236 0c-.932.15-1.673.855-1.816 1.737-.178 1.077-.846 2.073-1.927 2.661a4.153 4.153 0 01-3.395.246 2.325 2.325 0 00-2.528.645 14.72 14.72 0 00-2.575 4.206c-.353.882-.02 1.848.744 2.457.852.681 1.395 1.698 1.395 2.838 0 1.14-.543 2.157-1.399 2.838-.76.609-1.093 1.575-.744 2.457a14.84 14.84 0 002.576 4.206c.61.702 1.634.969 2.531.645a4.142 4.142 0 013.395.246c1.081.588 1.749 1.584 1.924 2.661.143.882.884 1.587 1.816 1.737a16.364 16.364 0 005.236 0c.932-.15 1.673-.855 1.816-1.737.175-1.08.842-2.073 1.923-2.661a4.144 4.144 0 013.396-.246 2.33 2.33 0 002.531-.645 14.72 14.72 0 002.575-4.206c.353-.879.02-1.848-.744-2.457-.852-.681-1.395-1.698-1.395-2.838zm-12.719 6c-3.513 0-6.359-2.688-6.359-6s2.846-6 6.359-6c3.514 0 6.36 2.688 6.36 6s-2.846 6-6.36 6z" fill="#2457B8" fill-opacity=".2"/><g filter="url(#filter4_f_623_1667)"><path d="M373.334 167.667c0-1.14.544-2.157 1.399-2.838.76-.609 1.094-1.575.744-2.457a14.814 14.814 0 00-2.575-4.206 2.335 2.335 0 00-2.531-.645 4.155 4.155 0 01-3.396-.246c-1.081-.588-1.748-1.584-1.923-2.661-.143-.882-.884-1.587-1.816-1.737a16.367 16.367 0 00-5.237 0c-.931.15-1.672.855-1.815 1.737-.178 1.077-.846 2.073-1.927 2.661a4.155 4.155 0 01-3.396.246 2.323 2.323 0 00-2.527.645 14.724 14.724 0 00-2.576 4.206c-.353.882-.019 1.848.744 2.457.852.681 1.396 1.698 1.396 2.838 0 1.14-.544 2.157-1.399 2.838-.76.609-1.094 1.575-.744 2.457a14.837 14.837 0 002.575 4.206 2.336 2.336 0 002.531.645 4.145 4.145 0 013.396.246c1.081.588 1.749 1.584 1.924 2.661.143.882.884 1.587 1.815 1.737a16.377 16.377 0 005.237 0c.932-.15 1.672-.855 1.815-1.737.175-1.08.843-2.073 1.924-2.661a4.144 4.144 0 013.396-.246 2.33 2.33 0 002.531-.645 14.72 14.72 0 002.575-4.206c.353-.879.019-1.848-.744-2.457-.852-.681-1.396-1.698-1.396-2.838zm-12.718 6c-3.513 0-6.359-2.688-6.359-6s2.846-6 6.359-6c3.514 0 6.359 2.688 6.359 6s-2.845 6-6.359 6z" fill="#2457B8" fill-opacity=".1"/></g><g filter="url(#filter5_f_623_1667)"><path d="M490.685 140.667c0-.608.29-1.15.746-1.514.406-.324.584-.84.397-1.31a7.901 7.901 0 00-1.373-2.243 1.244 1.244 0 00-1.35-.344 2.216 2.216 0 01-1.811-.131 1.977 1.977 0 01-1.026-1.42c-.076-.47-.472-.846-.968-.926a8.695 8.695 0 00-2.793 0c-.497.08-.892.456-.969.926a1.984 1.984 0 01-1.027 1.42 2.216 2.216 0 01-1.811.131 1.237 1.237 0 00-1.348.344 7.842 7.842 0 00-1.374 2.243c-.188.47-.01.986.397 1.31.454.364.744.906.744 1.514s-.29 1.15-.746 1.514c-.405.324-.583.84-.397 1.31a7.905 7.905 0 001.374 2.243c.326.375.872.517 1.35.344a2.212 2.212 0 011.811.131 1.98 1.98 0 011.026 1.42c.076.47.471.846.968.926a8.692 8.692 0 002.793 0c.497-.08.892-.456.968-.926a1.978 1.978 0 011.026-1.42 2.212 2.212 0 011.811-.131 1.24 1.24 0 001.35-.344 7.865 7.865 0 001.374-2.243c.188-.469.01-.986-.397-1.31a1.936 1.936 0 01-.745-1.514zm-6.783 3.2c-1.873 0-3.391-1.434-3.391-3.2 0-1.766 1.518-3.2 3.391-3.2 1.874 0 3.392 1.434 3.392 3.2 0 1.766-1.518 3.2-3.392 3.2z" fill="#2457B8" fill-opacity=".2"/></g><g filter="url(#filter6_f_623_1667)"><path d="M519.792 244.667c0-.912.435-1.726 1.119-2.27.608-.488.875-1.26.595-1.966a11.873 11.873 0 00-2.06-3.365 1.87 1.87 0 00-2.025-.516 3.325 3.325 0 01-2.717-.197c-.864-.47-1.399-1.267-1.538-2.128-.115-.706-.708-1.27-1.453-1.39a13.146 13.146 0 00-4.189 0c-.745.12-1.338.684-1.453 1.39a2.974 2.974 0 01-1.541 2.128 3.325 3.325 0 01-2.717.197 1.862 1.862 0 00-2.022.516 11.788 11.788 0 00-2.06 3.365c-.283.706-.015 1.478.595 1.966.682.544 1.117 1.358 1.117 2.27 0 .912-.435 1.726-1.12 2.27-.607.488-.875 1.26-.595 1.966a11.876 11.876 0 002.061 3.365 1.868 1.868 0 002.024.516 3.314 3.314 0 012.717.197c.865.47 1.399 1.267 1.539 2.128.114.706.707 1.27 1.452 1.39a13.146 13.146 0 004.19 0c.745-.12 1.338-.684 1.452-1.39.14-.864.674-1.658 1.539-2.128a3.31 3.31 0 012.716-.197 1.866 1.866 0 002.025-.516 11.79 11.79 0 002.061-3.365c.282-.703.015-1.478-.596-1.966-.681-.544-1.116-1.358-1.116-2.27zm-10.175 4.8c-2.811 0-5.087-2.15-5.087-4.8s2.276-4.8 5.087-4.8 5.087 2.15 5.087 4.8-2.276 4.8-5.087 4.8z" fill="#2457B8" fill-opacity=".2"/></g></g><defs><filter id="filter0_f_623_1667" x="78.856" y="38.008" width="496.314" height="570" filterUnits="userSpaceOnUse" color-interpolation-filters="sRGB"><feFlood flood-opacity="0" result="BackgroundImageFix"/><feBlend in="SourceGraphic" in2="BackgroundImageFix" result="shape"/><feGaussianBlur stdDeviation="5" result="effect1_foregroundBlur_623_1667"/></filter><filter id="filter1_f_623_1667" x="145.809" y="119.008" width="366.41" height="420" filterUnits="userSpaceOnUse" color-interpolation-filters="sRGB"><feFlood flood-opacity="0" result="BackgroundImageFix"/><feBlend in="SourceGraphic" in2="BackgroundImageFix" result="shape"/><feGaussianBlur stdDeviation="5" result="effect1_foregroundBlur_623_1667"/></filter><filter id="filter2_f_623_1667" x="270.003" y="296.002" width="111" height="39.13" filterUnits="userSpaceOnUse" color-interpolation-filters="sRGB"><feFlood flood-opacity="0" result="BackgroundImageFix"/><feBlend in="SourceGraphic" in2="BackgroundImageFix" result="shape"/><feGaussianBlur stdDeviation="7" result="effect1_foregroundBlur_623_1667"/></filter><filter id="filter3_f_623_1667" x="144.473" y="268.667" width="28" height="28" filterUnits="userSpaceOnUse" color-interpolation-filters="sRGB"><feFlood flood-opacity="0" result="BackgroundImageFix"/><feBlend in="SourceGraphic" in2="BackgroundImageFix" result="shape"/><feGaussianBlur stdDeviation="2" result="effect1_foregroundBlur_623_1667"/></filter><filter id="filter4_f_623_1667" x="341.616" y="148.667" width="38" height="38" filterUnits="userSpaceOnUse" color-interpolation-filters="sRGB"><feFlood flood-opacity="0" result="BackgroundImageFix"/><feBlend in="SourceGraphic" in2="BackgroundImageFix" result="shape"/><feGaussianBlur stdDeviation="2" result="effect1_foregroundBlur_623_1667"/></filter><filter id="filter5_f_623_1667" x="473.902" y="130.667" width="20" height="20" filterUnits="userSpaceOnUse" color-interpolation-filters="sRGB"><feFlood flood-opacity="0" result="BackgroundImageFix"/><feBlend in="SourceGraphic" in2="BackgroundImageFix" result="shape"/><feGaussianBlur stdDeviation="1" result="effect1_foregroundBlur_623_1667"/></filter><filter id="filter6_f_623_1667" x="489.617" y="224.667" width="40" height="40" filterUnits="userSpaceOnUse" color-interpolation-filters="sRGB"><feFlood flood-opacity="0" result="BackgroundImageFix"/><feBlend in="SourceGraphic" in2="BackgroundImageFix" result="shape"/><feGaussianBlur stdDeviation="4" result="effect1_foregroundBlur_623_1667"/></filter><linearGradient id="paint0_linear_623_1667" x1="443.218" y1="391.175" x2="215.598" y2="391.175" gradientUnits="userSpaceOnUse"><stop stop-color="#DDE1E9"/><stop offset=".432" stop-color="#DDE1E9"/><stop offset=".599" stop-color="#F2F4F8"/><stop offset="1" stop-color="#FBFCFE"/></linearGradient><linearGradient id="paint1_linear_623_1667" x1="312.169" y1="192.333" x2="312.169" y2="266" gradientUnits="userSpaceOnUse"><stop stop-color="#BDCEEE"/><stop offset="1" stop-color="#4671F6"/></linearGradient><linearGradient id="paint2_linear_623_1667" x1="356.836" y1="198" x2="356.836" y2="215" gradientUnits="userSpaceOnUse"><stop stop-color="#BDCEEE"/><stop offset="1" stop-color="#4671F6"/></linearGradient><linearGradient id="paint3_linear_623_1667" x1="356.836" y1="220.667" x2="356.836" y2="237.667" gradientUnits="userSpaceOnUse"><stop stop-color="#BDCEEE"/><stop offset="1" stop-color="#4671F6"/></linearGradient><linearGradient id="paint4_linear_623_1667" x1="356.836" y1="249" x2="356.836" y2="266" gradientUnits="userSpaceOnUse"><stop stop-color="#BDCEEE"/><stop offset="1" stop-color="#4671F6"/></linearGradient><clipPath id="clip0_623_1667"><path fill="#fff" d="M0 0h620v460H0z"/></clipPath></defs></svg>