<svg width="620" height="460" fill="none" xmlns="http://www.w3.org/2000/svg"><g clip-path="url(#clip0_623_1639)"><path d="M620.5 227.5L195.008 370.996" stroke="url(#paint0_linear_623_1639)"/><path d="M619.008 314.496l-355 120.5" stroke="url(#paint1_linear_623_1639)"/><path opacity=".8" d="M620.999 142.5L123.997 315.001" stroke="url(#paint2_linear_623_1639)"/><path opacity=".6" d="M628.999 118.5L237.95 256.367" stroke="url(#paint3_linear_623_1639)"/><path opacity=".5" d="M623 74.5L263.549 197.283" stroke="url(#paint4_linear_623_1639)"/><path opacity=".3" d="M679.002 14.499l-355 120.5" stroke="url(#paint5_linear_623_1639)"/><path d="M462.812 269.747l-38.427 14.214-73.878-47.467 48.388-13.065a6.004 6.004 0 013.219.025l60.271 17.295a6 6 0 014.345 5.767l.001 17.604a6 6 0 01-3.919 5.627z" fill="url(#paint6_linear_623_1639)"/><path d="M427.424 260.217a6 6 0 00-4.446-5.636l-68.538-18.355c-3.898-1.044-7.695 1.981-7.548 6.014l.632 17.392a6 6 0 004.381 5.56l68.388 19.118c3.89 1.088 7.721-1.901 7.614-5.938l-.483-18.155z" fill="#4671F6"/><path d="M462.812 232.747l-38.427 14.214-73.878-47.467 48.388-13.065a6.004 6.004 0 013.219.025l60.271 17.295a6 6 0 014.345 5.767l.001 17.604a6 6 0 01-3.919 5.627z" fill="url(#paint7_linear_623_1639)"/><path d="M427.424 223.217a6 6 0 00-4.446-5.636l-68.538-18.355c-3.898-1.044-7.695 1.981-7.548 6.014l.632 17.392a6 6 0 004.381 5.56l68.388 19.118c3.89 1.088 7.721-1.901 7.614-5.938l-.483-18.155z" fill="#4671F6"/><path d="M462.813 195.748l-38.427 14.214-73.878-47.467 48.388-13.065a5.994 5.994 0 013.219.025l60.271 17.295a6 6 0 014.345 5.767v17.604a5.997 5.997 0 01-3.918 5.627z" fill="url(#paint8_linear_623_1639)"/><path d="M427.425 186.218a6 6 0 00-4.446-5.636l-68.538-18.355c-3.898-1.044-7.695 1.981-7.548 6.014l.632 17.391a6 6 0 004.381 5.561l68.388 19.118c3.89 1.087 7.721-1.901 7.614-5.938l-.483-18.155z" fill="#4671F6"/><g opacity=".5" filter="url(#filter0_f_623_1639)"><path d="M328.492 219.434l-9.319 3.447-22.573-14.504 13.665-3.689a5.994 5.994 0 013.219.025l14.614 4.193a5.544 5.544 0 01.394 10.528z" fill="url(#paint9_linear_623_1639)"/><path d="M320.154 217.597a4.472 4.472 0 00-3.315-4.203l-15.702-4.205a4.386 4.386 0 00-2.315 8.459l15.655 4.377c2.901.81 5.757-1.418 5.677-4.428z" fill="#4671F6"/><path d="M328.492 208.129l-9.319 3.447-22.573-14.504 13.665-3.69a6.004 6.004 0 013.219.025l14.614 4.194a5.544 5.544 0 01.394 10.528z" fill="url(#paint10_linear_623_1639)"/><path d="M320.154 206.291a4.472 4.472 0 00-3.315-4.202l-15.702-4.205c-2.849-.763-5.624 1.447-5.517 4.395a4.386 4.386 0 003.202 4.064l15.655 4.376c2.901.811 5.757-1.417 5.677-4.428z" fill="#4671F6"/><path d="M328.493 196.824l-9.319 3.446-22.573-14.503 13.665-3.69a6.004 6.004 0 013.219.025l14.614 4.194a5.543 5.543 0 01.394 10.528z" fill="url(#paint11_linear_623_1639)"/><path d="M320.155 194.986a4.474 4.474 0 00-3.315-4.203l-15.702-4.205c-2.849-.763-5.624 1.448-5.517 4.395a4.385 4.385 0 003.202 4.064l15.655 4.377c2.9.81 5.757-1.418 5.677-4.428z" fill="#4671F6"/></g><g filter="url(#filter1_f_623_1639)"><path d="M522.426 294.834l-21.959 8.122-45.148-29.007 28.943-7.815a5.998 5.998 0 013.22.025l34.517 9.905a6 6 0 014.345 5.767l.001 7.375a6.001 6.001 0 01-3.919 5.628z" fill="url(#paint12_linear_623_1639)"/><path d="M502.37 290.187a5.999 5.999 0 00-4.446-5.636l-37.151-9.949c-3.898-1.044-7.695 1.981-7.548 6.014l.209 5.769a6 6 0 004.381 5.56l37.107 10.373c3.889 1.088 7.72-1.9 7.613-5.938l-.165-6.193z" fill="#4671F6"/><path d="M522.426 272.223l-21.959 8.122-45.148-29.007 28.943-7.815a6.008 6.008 0 013.22.025l34.517 9.905a6 6 0 014.345 5.767l.001 7.375a6.001 6.001 0 01-3.919 5.628z" fill="url(#paint13_linear_623_1639)"/><path d="M502.37 267.577a6 6 0 00-4.446-5.637l-37.151-9.949c-3.898-1.044-7.695 1.981-7.548 6.014l.209 5.769a6 6 0 004.381 5.56l37.107 10.374c3.889 1.087 7.72-1.901 7.613-5.938l-.165-6.193z" fill="#4671F6"/><path d="M522.426 249.612l-21.959 8.123-45.148-29.008 28.943-7.815a6.008 6.008 0 013.22.025l34.517 9.905a6 6 0 014.345 5.767l.001 7.376a6 6 0 01-3.919 5.627z" fill="url(#paint14_linear_623_1639)"/><path d="M502.37 244.966a6 6 0 00-4.446-5.637l-37.151-9.949c-3.898-1.044-7.695 1.981-7.548 6.014l.209 5.769a6 6 0 004.381 5.561l37.107 10.373c3.889 1.087 7.72-1.901 7.613-5.938l-.165-6.193z" fill="#4671F6"/></g><g filter="url(#filter2_f_623_1639)"><path d="M210.008 181.999L332-28 624.008 2.997l46 368-323.5-18.5-136.5-170.498z" fill="url(#paint15_linear_623_1639)" fill-opacity=".2"/></g><g filter="url(#filter3_dd_623_1639)"><path fill-rule="evenodd" clip-rule="evenodd" d="M206.007 186.996l-12 5 1 4.001 7.016-2.599c-.011.197-.017.397-.017.601v112c0 5.522 4.293 11.271 9.588 12.84l120.271 35.626 4.143 7.532 10.468-4.362c3.037-.779 5.106-3.496 5.106-7.33v-112c0-5.523-4.293-11.272-9.589-12.84l-130.399-38.626c-2.072-.614-3.99-.497-5.558.204l-.029-.047z" fill="url(#paint16_linear_623_1639)"/><rect width="156" height="132" rx="10" transform="matrix(.95882 .28402 0 1 190.006 188.999)" fill="url(#paint17_linear_623_1639)"/></g><path d="M242.243 251.921a12.302 12.302 0 00-2.825-.41 2.06 2.06 0 01-1.933-1.532l-1.279-4.775-4.025 1.077 1.266 4.728c.234.87-.108 1.812-.881 2.279a12.47 12.47 0 00-4.227 4.216c-.467.767-1.408 1.1-2.273.867l-2.619-.7-1.079 4.025 2.619.702c.867.231 1.514.992 1.533 1.89a12.473 12.473 0 001.521 5.706c.429.79.254 1.769-.379 2.404l-3.386 3.386 2.948 2.945 3.39-3.389a2.062 2.062 0 012.448-.356 12.26 12.26 0 005.675 1.502c.919.016 1.71.643 1.948 1.531l1.202 4.487 4.025-1.079-1.213-4.525c-.231-.864.105-1.798.867-2.269a12.453 12.453 0 004.11-4.141c.467-.767 1.407-1.104 2.273-.871l2.619.702 1.079-4.025-2.618-.702c-.867-.231-1.515-.992-1.534-1.89a12.473 12.473 0 00-1.521-5.706c-.429-.789-.254-1.769.38-2.404l3.385-3.385-2.948-2.946-3.39 3.389a2.062 2.062 0 01-2.447.357 12.303 12.303 0 00-2.711-1.088z" fill="silver"/><path d="M220.897 263.311a4.167 4.167 0 100-8.335 4.167 4.167 0 000 8.335zm4.853 18.11a4.166 4.166 0 100-8.332 4.166 4.166 0 000 8.332zm18.112 4.852a4.167 4.167 0 100-8.333 4.167 4.167 0 000 8.333zm13.256-13.258a4.167 4.167 0 100-8.335 4.167 4.167 0 000 8.335zm-4.852-18.111a4.167 4.167 0 100-8.333 4.167 4.167 0 000 8.333zm-18.112-4.852a4.167 4.167 0 100-8.333 4.167 4.167 0 000 8.333zm7.979 22.277a3.125 3.125 0 100-6.25 3.125 3.125 0 000 6.25zm3.125-10.416a2.083 2.083 0 100-4.166 2.083 2.083 0 000 4.166zm-10.417 4.166a4.166 4.166 0 10.002-8.332 4.166 4.166 0 00-.002 8.332z" fill="#585858"/><g filter="url(#filter4_f_623_1639)"><path d="M190.95 276.751a7.375 7.375 0 00-1.695-.246 1.237 1.237 0 01-1.16-.919l-.767-2.865-2.415.646.76 2.837c.14.522-.065 1.087-.529 1.367a7.485 7.485 0 00-2.536 2.53c-.28.46-.845.66-1.364.52l-1.571-.42-.648 2.415 1.572.421c.52.139.908.595.92 1.134a7.486 7.486 0 00.912 3.424c.258.474.153 1.061-.227 1.442l-2.032 2.032 1.769 1.767 2.034-2.034a1.238 1.238 0 011.469-.213 7.339 7.339 0 003.405.901c.551.01 1.026.386 1.168.919l.722 2.692 2.415-.647-.728-2.715a1.225 1.225 0 01.52-1.362 7.456 7.456 0 002.466-2.485c.28-.46.844-.662 1.364-.522l1.571.421.648-2.415-1.571-.421c-.52-.139-.909-.595-.92-1.134a7.5 7.5 0 00-.913-3.424c-.257-.473-.152-1.061.228-1.442l2.031-2.031-1.769-1.768-2.034 2.034a1.237 1.237 0 01-1.468.214 7.41 7.41 0 00-1.627-.653z" fill="silver"/><path d="M178.143 283.585a2.5 2.5 0 100-5 2.5 2.5 0 000 5zm2.911 10.866a2.5 2.5 0 100-5 2.5 2.5 0 000 5zm10.867 2.911a2.5 2.5 0 100-5 2.5 2.5 0 000 5zm7.954-7.955a2.5 2.5 0 100-5 2.5 2.5 0 000 5zm-2.911-10.866a2.5 2.5 0 100-5 2.5 2.5 0 000 5zm-10.867-2.911a2.5 2.5 0 100-5 2.5 2.5 0 000 5zm4.787 13.366a1.875 1.875 0 100-3.75 1.875 1.875 0 000 3.75zm1.875-6.25a1.25 1.25 0 100-2.5 1.25 1.25 0 000 2.5zm-6.25 2.5a2.5 2.5 0 100-5 2.5 2.5 0 000 5z" fill="#585858"/></g><g filter="url(#filter5_f_623_1639)"><path d="M306.303 304.166a4.927 4.927 0 00-1.13-.164.824.824 0 01-.774-.613l-.511-1.91-1.61.431.506 1.891a.815.815 0 01-.352.912 4.977 4.977 0 00-1.691 1.686.814.814 0 01-.909.347l-1.048-.28-.431 1.61 1.047.281a.81.81 0 01.613.756 4.99 4.99 0 00.609 2.282.818.818 0 01-.152.962l-1.354 1.354 1.179 1.178 1.356-1.356a.825.825 0 01.979-.142 4.902 4.902 0 002.27.601.821.821 0 01.779.612l.481 1.795 1.61-.431-.485-1.81a.817.817 0 01.347-.908 4.981 4.981 0 001.644-1.657.815.815 0 01.909-.348l1.048.281.431-1.61-1.047-.281a.814.814 0 01-.614-.756 4.973 4.973 0 00-.608-2.282.815.815 0 01.152-.962l1.354-1.354-1.179-1.178-1.356 1.355a.823.823 0 01-.979.143 4.963 4.963 0 00-1.084-.435z" fill="silver"/><path d="M297.764 308.722a1.667 1.667 0 100-3.333 1.667 1.667 0 000 3.333zm1.942 7.244a1.666 1.666 0 100-3.333 1.666 1.666 0 000 3.333zm7.245 1.941a1.668 1.668 0 10-.002-3.336 1.668 1.668 0 00.002 3.336zm5.302-5.304a1.666 1.666 0 100-3.332 1.666 1.666 0 000 3.332zm-1.941-7.244a1.666 1.666 0 10.001-3.333 1.666 1.666 0 00-.001 3.333zm-7.245-1.941a1.666 1.666 0 10.001-3.333 1.666 1.666 0 00-.001 3.333zm3.192 8.911a1.25 1.25 0 100-2.5 1.25 1.25 0 000 2.5zm1.25-4.166a.834.834 0 10-.002-1.668.834.834 0 00.002 1.668zm-4.167 1.666a1.666 1.666 0 10.001-3.333 1.666 1.666 0 00-.001 3.333z" fill="#585858"/></g><g clip-path="url(#clip1_623_1639)"><path d="M435.181 113.89c.135-2.481-1.551-5.346-3.926-6.531-9.869-4.914-9.111-12.64-19.725-16.089-10.614-3.448-9.855 4.77-19.725 3.271-2.375-.361-8.441 2.387-8.306 4.959 1.018 19.406 11.627 31.577 27.001 43.5 15.373-1.932 23.663-10.366 24.681-29.11z" fill="url(#paint18_linear_623_1639)"/></g><g clip-path="url(#clip2_623_1639)"><path d="M430.181 116.89c.136-2.481-1.55-5.346-3.925-6.531-9.87-4.914-9.111-12.64-19.725-16.088-10.614-3.45-9.855 4.77-19.725 3.27-2.375-.361-4.061 1.408-3.925 3.98 1.017 19.406 8.276 30.827 23.65 42.749 15.374-1.932 22.633-8.636 23.65-27.38z" fill="url(#paint19_linear_623_1639)"/><path d="M430.181 116.89c.136-2.481-1.55-5.346-3.925-6.531-9.87-4.914-9.111-12.64-19.725-16.088-10.614-3.45-9.855 4.77-19.725 3.27-2.375-.361-4.061 1.408-3.925 3.98 1.017 19.406 8.276 30.827 23.65 42.749 15.374-1.932 22.633-8.636 23.65-27.38z" fill="url(#paint20_linear_623_1639)"/><path d="M430.181 116.89c.136-2.481-1.55-5.346-3.925-6.531-9.87-4.914-9.111-12.64-19.725-16.088-10.614-3.45-9.855 4.77-19.725 3.27-2.375-.361-4.061 1.408-3.925 3.98 1.017 19.406 8.276 30.827 23.65 42.749 15.374-1.932 22.633-8.636 23.65-27.38z" fill="#4771F6"/></g><g filter="url(#filter6_f_623_1639)"><g clip-path="url(#clip3_623_1639)"><path d="M507.52 196.55c.074-1.342-.839-2.893-2.124-3.534-5.341-2.659-4.931-6.84-10.675-8.707-5.743-1.866-5.333 2.582-10.674 1.771-1.285-.196-4.568 1.291-4.495 2.683.551 10.502 6.292 17.088 14.612 23.541 8.319-1.046 12.806-5.61 13.356-15.754z" fill="url(#paint21_linear_623_1639)"/></g><g clip-path="url(#clip4_623_1639)"><path d="M504.816 198.174c.073-1.343-.839-2.894-2.125-3.535-5.341-2.659-4.93-6.84-10.674-8.706-5.744-1.867-5.334 2.581-10.675 1.77-1.285-.196-2.197.762-2.124 2.153.551 10.502 4.479 16.683 12.799 23.135 8.32-1.046 12.248-4.674 12.799-14.817z" fill="url(#paint22_linear_623_1639)"/><path d="M504.816 198.174c.073-1.343-.839-2.894-2.125-3.535-5.341-2.659-4.93-6.84-10.674-8.706-5.744-1.867-5.334 2.581-10.675 1.77-1.285-.196-2.197.762-2.124 2.153.551 10.502 4.479 16.683 12.799 23.135 8.32-1.046 12.248-4.674 12.799-14.817z" fill="url(#paint23_linear_623_1639)"/><path d="M504.816 198.174c.073-1.343-.839-2.894-2.125-3.535-5.341-2.659-4.93-6.84-10.674-8.706-5.744-1.867-5.334 2.581-10.675 1.77-1.285-.196-2.197.762-2.124 2.153.551 10.502 4.479 16.683 12.799 23.135 8.32-1.046 12.248-4.674 12.799-14.817z" fill="#4771F6"/></g></g><g opacity=".5" filter="url(#filter7_f_623_1639)"><g clip-path="url(#clip5_623_1639)"><path d="M322.157 167.133c.043-.776-.484-1.672-1.227-2.043-3.088-1.537-2.851-3.954-6.171-5.032-3.32-1.079-3.083 1.492-6.17 1.023-.743-.113-2.64.746-2.598 1.551.318 6.07 3.637 9.878 8.446 13.607 4.809-.604 7.402-3.242 7.72-9.106z" fill="url(#paint24_linear_623_1639)"/></g><g clip-path="url(#clip6_623_1639)"><path d="M320.593 168.071c.042-.776-.485-1.672-1.228-2.043-3.088-1.537-2.85-3.954-6.171-5.032-3.32-1.079-3.082 1.492-6.17 1.023-.743-.113-1.27.44-1.228 1.245.319 6.07 2.589 9.643 7.398 13.372 4.81-.604 7.08-2.701 7.399-8.565z" fill="url(#paint25_linear_623_1639)"/><path d="M320.593 168.071c.042-.776-.485-1.672-1.228-2.043-3.088-1.537-2.85-3.954-6.171-5.032-3.32-1.079-3.082 1.492-6.17 1.023-.743-.113-1.27.44-1.228 1.245.319 6.07 2.589 9.643 7.398 13.372 4.81-.604 7.08-2.701 7.399-8.565z" fill="url(#paint26_linear_623_1639)"/><path d="M320.593 168.071c.042-.776-.485-1.672-1.228-2.043-3.088-1.537-2.85-3.954-6.171-5.032-3.32-1.079-3.082 1.492-6.17 1.023-.743-.113-1.27.44-1.228 1.245.319 6.07 2.589 9.643 7.398 13.372 4.81-.604 7.08-2.701 7.399-8.565z" fill="#4771F6"/></g></g></g><defs><linearGradient id="paint0_linear_623_1639" x1="288.008" y1="340.996" x2="195.008" y2="371.996" gradientUnits="userSpaceOnUse"><stop stop-color="#D0D9EB"/><stop offset="1" stop-color="#D0D9EB" stop-opacity="0"/></linearGradient><linearGradient id="paint1_linear_623_1639" x1="528.008" y1="332.996" x2="264.008" y2="443.996" gradientUnits="userSpaceOnUse"><stop stop-color="#D0D9EB"/><stop offset="1" stop-color="#D0D9EB" stop-opacity="0"/></linearGradient><linearGradient id="paint2_linear_623_1639" x1="195.998" y1="291.001" x2="123.998" y2="313.001" gradientUnits="userSpaceOnUse"><stop stop-color="#D0D9EB"/><stop offset="1" stop-color="#D0D9EB" stop-opacity="0"/></linearGradient><linearGradient id="paint3_linear_623_1639" x1="302.251" y1="222.112" x2="237.846" y2="248.225" gradientUnits="userSpaceOnUse"><stop stop-color="#D0D9EB"/><stop offset="1" stop-color="#D0D9EB" stop-opacity="0"/></linearGradient><linearGradient id="paint4_linear_623_1639" x1="443.779" y1="136.139" x2="263.316" y2="194.521" gradientUnits="userSpaceOnUse"><stop stop-color="#D0D9EB"/><stop offset="1" stop-color="#D0D9EB" stop-opacity="0"/></linearGradient><linearGradient id="paint5_linear_623_1639" x1="428.002" y1="97.999" x2="324.002" y2="135.999" gradientUnits="userSpaceOnUse"><stop stop-color="#D0D9EB"/><stop offset="1" stop-color="#D0D9EB" stop-opacity="0"/></linearGradient><linearGradient id="paint6_linear_623_1639" x1="413.717" y1="176.166" x2="475.09" y2="298.646" gradientUnits="userSpaceOnUse"><stop stop-color="#5780FF"/><stop offset=".536" stop-color="#698EFF"/><stop offset=".635" stop-color="#A4BCFD"/><stop offset="1" stop-color="#A4BCFD"/></linearGradient><linearGradient id="paint7_linear_623_1639" x1="413.717" y1="139.166" x2="475.09" y2="261.646" gradientUnits="userSpaceOnUse"><stop stop-color="#5780FF"/><stop offset=".536" stop-color="#698EFF"/><stop offset=".635" stop-color="#A4BCFD"/><stop offset="1" stop-color="#A4BCFD"/></linearGradient><linearGradient id="paint8_linear_623_1639" x1="413.718" y1="102.166" x2="475.091" y2="224.646" gradientUnits="userSpaceOnUse"><stop stop-color="#5780FF"/><stop offset=".536" stop-color="#698EFF"/><stop offset=".635" stop-color="#A4BCFD"/><stop offset="1" stop-color="#A4BCFD"/></linearGradient><linearGradient id="paint9_linear_623_1639" x1="315.914" y1="189.944" x2="334.667" y2="227.368" gradientUnits="userSpaceOnUse"><stop stop-color="#5780FF"/><stop offset=".536" stop-color="#698EFF"/><stop offset=".635" stop-color="#A4BCFD"/><stop offset="1" stop-color="#A4BCFD"/></linearGradient><linearGradient id="paint10_linear_623_1639" x1="315.914" y1="178.638" x2="334.667" y2="216.063" gradientUnits="userSpaceOnUse"><stop stop-color="#5780FF"/><stop offset=".536" stop-color="#698EFF"/><stop offset=".635" stop-color="#A4BCFD"/><stop offset="1" stop-color="#A4BCFD"/></linearGradient><linearGradient id="paint11_linear_623_1639" x1="315.915" y1="167.333" x2="334.668" y2="204.757" gradientUnits="userSpaceOnUse"><stop stop-color="#5780FF"/><stop offset=".536" stop-color="#698EFF"/><stop offset=".635" stop-color="#A4BCFD"/><stop offset="1" stop-color="#A4BCFD"/></linearGradient><linearGradient id="paint12_linear_623_1639" x1="493.947" y1="237.081" x2="531.453" y2="311.93" gradientUnits="userSpaceOnUse"><stop stop-color="#5780FF"/><stop offset=".536" stop-color="#698EFF"/><stop offset=".635" stop-color="#A4BCFD"/><stop offset="1" stop-color="#A4BCFD"/></linearGradient><linearGradient id="paint13_linear_623_1639" x1="493.947" y1="214.47" x2="531.453" y2="289.319" gradientUnits="userSpaceOnUse"><stop stop-color="#5780FF"/><stop offset=".536" stop-color="#698EFF"/><stop offset=".635" stop-color="#A4BCFD"/><stop offset="1" stop-color="#A4BCFD"/></linearGradient><linearGradient id="paint14_linear_623_1639" x1="493.947" y1="191.86" x2="531.453" y2="266.708" gradientUnits="userSpaceOnUse"><stop stop-color="#5780FF"/><stop offset=".536" stop-color="#698EFF"/><stop offset=".635" stop-color="#A4BCFD"/><stop offset="1" stop-color="#A4BCFD"/></linearGradient><linearGradient id="paint15_linear_623_1639" x1="297.007" y1="239.996" x2="445.007" y2="96.996" gradientUnits="userSpaceOnUse"><stop stop-color="#4671F6"/><stop offset="1" stop-color="#4671F6" stop-opacity="0"/></linearGradient><linearGradient id="paint16_linear_623_1639" x1="349.665" y1="349.118" x2="194.467" y2="184.845" gradientUnits="userSpaceOnUse"><stop stop-color="#E0E4EF"/><stop offset=".26" stop-color="#E0E4EF"/><stop offset=".354" stop-color="#D3D8E6"/><stop offset=".516" stop-color="#E9E9F5"/><stop offset="1" stop-color="#F0F0F7"/></linearGradient><linearGradient id="paint17_linear_623_1639" x1=".001" y1="23.997" x2="112.495" y2="154.461" gradientUnits="userSpaceOnUse"><stop stop-color="#fff"/><stop offset=".25" stop-color="#F1F3F6"/><stop offset=".516" stop-color="#fff"/><stop offset="1" stop-color="#fff"/></linearGradient><linearGradient id="paint18_linear_623_1639" x1="411.531" y1="91.27" x2="396.836" y2="136.496" gradientUnits="userSpaceOnUse"><stop stop-color="#B8CAEF"/><stop offset="1" stop-color="#4A74F6"/></linearGradient><linearGradient id="paint19_linear_623_1639" x1="406.531" y1="94.27" x2="391.836" y2="139.496" gradientUnits="userSpaceOnUse"><stop stop-color="#B8CAEF"/><stop offset="1" stop-color="#4A74F6"/></linearGradient><linearGradient id="paint20_linear_623_1639" x1="406.531" y1="94.27" x2="391.836" y2="139.496" gradientUnits="userSpaceOnUse"><stop stop-color="#B8CAEF"/><stop offset="1" stop-color="#4A74F6"/></linearGradient><linearGradient id="paint21_linear_623_1639" x1="494.722" y1="184.309" x2="486.769" y2="208.784" gradientUnits="userSpaceOnUse"><stop stop-color="#B8CAEF"/><stop offset="1" stop-color="#4A74F6"/></linearGradient><linearGradient id="paint22_linear_623_1639" x1="492.017" y1="185.933" x2="484.065" y2="210.407" gradientUnits="userSpaceOnUse"><stop stop-color="#B8CAEF"/><stop offset="1" stop-color="#4A74F6"/></linearGradient><linearGradient id="paint23_linear_623_1639" x1="492.017" y1="185.933" x2="484.065" y2="210.407" gradientUnits="userSpaceOnUse"><stop stop-color="#B8CAEF"/><stop offset="1" stop-color="#4A74F6"/></linearGradient><linearGradient id="paint24_linear_623_1639" x1="314.759" y1="160.058" x2="310.163" y2="174.205" gradientUnits="userSpaceOnUse"><stop stop-color="#B8CAEF"/><stop offset="1" stop-color="#4A74F6"/></linearGradient><linearGradient id="paint25_linear_623_1639" x1="313.194" y1="160.996" x2="308.598" y2="175.143" gradientUnits="userSpaceOnUse"><stop stop-color="#B8CAEF"/><stop offset="1" stop-color="#4A74F6"/></linearGradient><linearGradient id="paint26_linear_623_1639" x1="313.194" y1="160.996" x2="308.598" y2="175.143" gradientUnits="userSpaceOnUse"><stop stop-color="#B8CAEF"/><stop offset="1" stop-color="#4A74F6"/></linearGradient><filter id="filter0_f_623_1639" x="291.617" y="177.869" width="44.496" height="49.012" filterUnits="userSpaceOnUse" color-interpolation-filters="sRGB"><feFlood flood-opacity="0" result="BackgroundImageFix"/><feBlend in="SourceGraphic" in2="BackgroundImageFix" result="shape"/><feGaussianBlur stdDeviation="2" result="effect1_foregroundBlur_623_1639"/></filter><filter id="filter1_f_623_1639" x="449.221" y="216.704" width="81.124" height="90.252" filterUnits="userSpaceOnUse" color-interpolation-filters="sRGB"><feFlood flood-opacity="0" result="BackgroundImageFix"/><feBlend in="SourceGraphic" in2="BackgroundImageFix" result="shape"/><feGaussianBlur stdDeviation="2" result="effect1_foregroundBlur_623_1639"/></filter><filter id="filter2_f_623_1639" x="198.008" y="-40" width="484" height="422.997" filterUnits="userSpaceOnUse" color-interpolation-filters="sRGB"><feFlood flood-opacity="0" result="BackgroundImageFix"/><feBlend in="SourceGraphic" in2="BackgroundImageFix" result="shape"/><feGaussianBlur stdDeviation="6" result="effect1_foregroundBlur_623_1639"/></filter><filter id="filter3_dd_623_1639" x="177.006" y="185.44" width="191.576" height="207.423" filterUnits="userSpaceOnUse" color-interpolation-filters="sRGB"><feFlood flood-opacity="0" result="BackgroundImageFix"/><feColorMatrix in="SourceAlpha" values="0 0 0 0 0 0 0 0 0 0 0 0 0 0 0 0 0 0 127 0" result="hardAlpha"/><feOffset dx="2" dy="15"/><feGaussianBlur stdDeviation="7.5"/><feComposite in2="hardAlpha" operator="out"/><feColorMatrix values="0 0 0 0 0.278431 0 0 0 0 0.443137 0 0 0 0 0.964706 0 0 0 0.05 0"/><feBlend in2="BackgroundImageFix" result="effect1_dropShadow_623_1639"/><feColorMatrix in="SourceAlpha" values="0 0 0 0 0 0 0 0 0 0 0 0 0 0 0 0 0 0 127 0" result="hardAlpha"/><feOffset dx="2" dy="2"/><feGaussianBlur stdDeviation="1.5"/><feComposite in2="hardAlpha" operator="out"/><feColorMatrix values="0 0 0 0 0.278431 0 0 0 0 0.443137 0 0 0 0 0.964706 0 0 0 0.1 0"/><feBlend in2="effect1_dropShadow_623_1639" result="effect2_dropShadow_623_1639"/><feBlend in="SourceGraphic" in2="effect2_dropShadow_623_1639" result="shape"/></filter><filter id="filter4_f_623_1639" x="170.009" y="264.996" width="38" height="38" filterUnits="userSpaceOnUse" color-interpolation-filters="sRGB"><feFlood flood-opacity="0" result="BackgroundImageFix"/><feBlend in="SourceGraphic" in2="BackgroundImageFix" result="shape"/><feGaussianBlur stdDeviation="2" result="effect1_foregroundBlur_623_1639"/></filter><filter id="filter5_f_623_1639" x="291.009" y="294.996" width="28" height="28" filterUnits="userSpaceOnUse" color-interpolation-filters="sRGB"><feFlood flood-opacity="0" result="BackgroundImageFix"/><feBlend in="SourceGraphic" in2="BackgroundImageFix" result="shape"/><feGaussianBlur stdDeviation="2" result="effect1_foregroundBlur_623_1639"/></filter><filter id="filter6_f_623_1639" x="474.576" y="174.587" width="37.586" height="48.127" filterUnits="userSpaceOnUse" color-interpolation-filters="sRGB"><feFlood flood-opacity="0" result="BackgroundImageFix"/><feBlend in="SourceGraphic" in2="BackgroundImageFix" result="shape"/><feGaussianBlur stdDeviation="1" result="effect1_foregroundBlur_623_1639"/></filter><filter id="filter7_f_623_1639" x="302.27" y="153.594" width="23.415" height="29.507" filterUnits="userSpaceOnUse" color-interpolation-filters="sRGB"><feFlood flood-opacity="0" result="BackgroundImageFix"/><feBlend in="SourceGraphic" in2="BackgroundImageFix" result="shape"/><feGaussianBlur stdDeviation="1" result="effect1_foregroundBlur_623_1639"/></filter><clipPath id="clip0_623_1639"><path fill="#fff" d="M0 0h620v460H0z"/></clipPath><clipPath id="clip1_623_1639"><path fill="#fff" transform="matrix(.95106 .30902 0 1 382.999 77)" d="M0 0h60v60H0z"/></clipPath><clipPath id="clip2_623_1639"><path fill="#fff" transform="matrix(.95106 .30902 0 1 377.999 80)" d="M0 0h60v60H0z"/></clipPath><clipPath id="clip3_623_1639"><path fill="#fff" transform="matrix(.95106 .30902 0 1 479.281 176.587)" d="M0 0h32.47v32.47H0z"/></clipPath><clipPath id="clip4_623_1639"><path fill="#fff" transform="matrix(.95106 .30902 0 1 476.576 178.21)" d="M0 0h32.47v32.47H0z"/></clipPath><clipPath id="clip5_623_1639"><path fill="#fff" transform="matrix(.95106 .30902 0 1 305.834 155.594)" d="M0 0h18.769v18.769H0z"/></clipPath><clipPath id="clip6_623_1639"><path fill="#fff" transform="matrix(.95106 .30902 0 1 304.27 156.532)" d="M0 0h18.769v18.769H0z"/></clipPath></defs></svg>