<svg width="388" height="500" fill="none" xmlns="http://www.w3.org/2000/svg"><g clip-path="url(#clip0_476_1469)"><path opacity=".5" d="M42.574 325.002c11.046 0 20-8.954 20-20s-8.954-20-20-20c-11.045 0-20 8.954-20 20s8.954 20 20 20z" fill="url(#paint0_linear_476_1469)"/><g opacity=".05" filter="url(#filter0_f_476_1469)"><path d="M179 712c165.685 0 300-134.314 300-300 0-165.685-134.315-300-300-300s-300 134.315-300 300c0 165.686 134.315 300 300 300z" fill="url(#paint1_linear_476_1469)"/></g><g opacity=".1" filter="url(#filter1_f_476_1469)"><path d="M184 642c124.264 0 225-100.736 225-225S308.264 192 184 192-41 292.736-41 417 59.736 642 184 642z" fill="url(#paint2_linear_476_1469)"/></g><g opacity=".4" filter="url(#filter2_f_476_1469)"><path d="M194 592c91.127 0 165-73.873 165-165s-73.873-165-165-165S29 335.873 29 427s73.873 165 165 165z" fill="url(#paint3_linear_476_1469)"/></g><path opacity=".5" d="M331 314a9 9 0 009-9 9 9 0 00-9-9 9 9 0 00-9 9 9 9 0 009 9z" fill="url(#paint4_linear_476_1469)"/><path fill="url(#paint5_linear_476_1469)" d="M79.598 361.56h227.62v139.231H79.598z"/><path d="M182.678 322.401a25.997 25.997 0 0115.895-.119l103.777 32.456c7.025 2.197 7.074 12.123.07 14.389l-103.598 33.517a25.991 25.991 0 01-16.389-.127l-98.104-33.428c-6.856-2.336-6.807-12.051.074-14.317l98.275-32.371z" fill="#fff"/><g filter="url(#filter3_f_476_1469)"><ellipse cx="193.498" cy="356.568" rx="41.5" ry="1.566" fill="#7294FF"/></g><path d="M240.499 250.908l-8.33-14.812-32.669 18.371v-36.465h-17v36.465l-32.668-18.371-8.33 14.812 32.164 18.094-32.164 18.094 8.33 14.812 32.668-18.371v36.465h17v-36.465l32.669 18.371 8.33-14.812-32.164-18.094 32.164-18.094z" fill="#BDCEEE"/><path d="M191 229.335c6.26 0 11.334-5.074 11.334-11.333S197.26 206.668 191 206.668c-6.259 0-11.333 5.075-11.333 11.334 0 6.259 5.074 11.333 11.333 11.333z" fill="url(#paint6_linear_476_1469)"/><path d="M236.333 254.835c6.26 0 11.334-5.074 11.334-11.333s-5.074-11.334-11.334-11.334c-6.259 0-11.333 5.075-11.333 11.334 0 6.259 5.074 11.333 11.333 11.333z" fill="url(#paint7_linear_476_1469)"/><path d="M145.666 254.835c6.26 0 11.334-5.074 11.334-11.333s-5.074-11.334-11.334-11.334c-6.259 0-11.333 5.075-11.333 11.334 0 6.259 5.074 11.333 11.333 11.333z" fill="url(#paint8_linear_476_1469)"/><path d="M191 331.335c6.26 0 11.334-5.074 11.334-11.333S197.26 308.668 191 308.668c-6.259 0-11.333 5.075-11.333 11.334 0 6.259 5.074 11.333 11.333 11.333z" fill="url(#paint9_linear_476_1469)"/><path d="M145.666 305.835c6.26 0 11.334-5.074 11.334-11.333s-5.074-11.334-11.334-11.334c-6.259 0-11.333 5.075-11.333 11.334 0 6.259 5.074 11.333 11.333 11.333z" fill="url(#paint10_linear_476_1469)"/><path d="M236.333 305.835c6.26 0 11.334-5.074 11.334-11.333s-5.074-11.334-11.334-11.334c-6.259 0-11.333 5.075-11.333 11.334 0 6.259 5.074 11.333 11.333 11.333z" fill="url(#paint11_linear_476_1469)"/><path d="M191 286.002c9.389 0 17-7.611 17-17s-7.611-17-17-17-17 7.611-17 17 7.611 17 17 17z" fill="url(#paint12_linear_476_1469)"/><g filter="url(#filter4_d_476_1469)"><path d="M191 288.75c11.184 0 20.25-9.066 20.25-20.25s-9.066-20.25-20.25-20.25-20.25 9.066-20.25 20.25 9.066 20.25 20.25 20.25z" fill="#fff"/></g><path d="M191 264a4.5 4.5 0 00-4.5 4.5 4.5 4.5 0 004.5 4.5 4.5 4.5 0 004.5-4.5 4.5 4.5 0 00-4.5-4.5zm-8.987-13.626c.068-4.912 4.06-8.874 8.987-8.874 4.927 0 8.919 3.962 8.987 8.874a20.338 20.338 0 014.513 3.062V250.5c0-7.456-6.044-13.5-13.5-13.5s-13.5 6.044-13.5 13.5v2.936a20.361 20.361 0 014.513-3.062z" fill="#2457B8"/><g opacity=".5" filter="url(#filter5_f_476_1469)"><path d="M76 176a9 9 0 009-9 9 9 0 00-9-9 9 9 0 00-9 9 9 9 0 009 9z" fill="url(#paint13_linear_476_1469)"/></g><path opacity=".5" d="M167.991 196.669a5 5 0 100-10 5 5 0 000 10z" fill="url(#paint14_linear_476_1469)"/><path opacity=".7" d="M240 142c9.389 0 17-7.611 17-17s-7.611-17-17-17-17 7.611-17 17 7.611 17 17 17z" fill="url(#paint15_linear_476_1469)"/><g opacity=".2" filter="url(#filter6_f_476_1469)"><path d="M345 212c9.389 0 17-7.611 17-17s-7.611-17-17-17-17 7.611-17 17 7.611 17 17 17z" fill="url(#paint16_linear_476_1469)"/></g></g><defs><linearGradient id="paint0_linear_476_1469" x1="42.574" y1="285.002" x2="42.574" y2="325.002" gradientUnits="userSpaceOnUse"><stop stop-color="#BDCEEE"/><stop offset="1" stop-color="#4671F6"/></linearGradient><linearGradient id="paint1_linear_476_1469" x1="179" y1="112" x2="179" y2="712" gradientUnits="userSpaceOnUse"><stop stop-color="#BDCEEE"/><stop offset="1" stop-color="#4671F6"/></linearGradient><linearGradient id="paint2_linear_476_1469" x1="184" y1="192" x2="184" y2="642" gradientUnits="userSpaceOnUse"><stop stop-color="#BDCEEE"/><stop offset="1" stop-color="#4671F6"/></linearGradient><linearGradient id="paint3_linear_476_1469" x1="194" y1="262" x2="194" y2="592" gradientUnits="userSpaceOnUse"><stop stop-color="#BDCEEE"/><stop offset="1" stop-color="#4671F6"/></linearGradient><linearGradient id="paint4_linear_476_1469" x1="331" y1="296" x2="331" y2="314" gradientUnits="userSpaceOnUse"><stop stop-color="#BDCEEE"/><stop offset="1" stop-color="#4671F6"/></linearGradient><linearGradient id="paint5_linear_476_1469" x1="307.218" y1="431.175" x2="79.598" y2="431.175" gradientUnits="userSpaceOnUse"><stop stop-color="#DDE1E9"/><stop offset=".432" stop-color="#DDE1E9"/><stop offset=".599" stop-color="#F2F4F8"/><stop offset="1" stop-color="#FBFCFE"/></linearGradient><linearGradient id="paint6_linear_476_1469" x1="191" y1="206.668" x2="191" y2="229.335" gradientUnits="userSpaceOnUse"><stop stop-color="#BDCEEE"/><stop offset="1" stop-color="#4671F6"/></linearGradient><linearGradient id="paint7_linear_476_1469" x1="236.333" y1="232.168" x2="236.333" y2="254.835" gradientUnits="userSpaceOnUse"><stop stop-color="#BDCEEE"/><stop offset="1" stop-color="#4671F6"/></linearGradient><linearGradient id="paint8_linear_476_1469" x1="145.666" y1="232.168" x2="145.666" y2="254.835" gradientUnits="userSpaceOnUse"><stop stop-color="#BDCEEE"/><stop offset="1" stop-color="#4671F6"/></linearGradient><linearGradient id="paint9_linear_476_1469" x1="191" y1="308.668" x2="191" y2="331.335" gradientUnits="userSpaceOnUse"><stop stop-color="#BDCEEE"/><stop offset="1" stop-color="#4671F6"/></linearGradient><linearGradient id="paint10_linear_476_1469" x1="145.666" y1="283.168" x2="145.666" y2="305.835" gradientUnits="userSpaceOnUse"><stop stop-color="#BDCEEE"/><stop offset="1" stop-color="#4671F6"/></linearGradient><linearGradient id="paint11_linear_476_1469" x1="236.333" y1="283.168" x2="236.333" y2="305.835" gradientUnits="userSpaceOnUse"><stop stop-color="#BDCEEE"/><stop offset="1" stop-color="#4671F6"/></linearGradient><linearGradient id="paint12_linear_476_1469" x1="191" y1="252.002" x2="191" y2="286.002" gradientUnits="userSpaceOnUse"><stop stop-color="#BDCEEE"/><stop offset="1" stop-color="#4671F6"/></linearGradient><linearGradient id="paint13_linear_476_1469" x1="76" y1="158" x2="76" y2="176" gradientUnits="userSpaceOnUse"><stop stop-color="#BDCEEE"/><stop offset="1" stop-color="#4671F6"/></linearGradient><linearGradient id="paint14_linear_476_1469" x1="167.991" y1="186.669" x2="167.991" y2="196.669" gradientUnits="userSpaceOnUse"><stop stop-color="#BDCEEE"/><stop offset="1" stop-color="#4671F6"/></linearGradient><linearGradient id="paint15_linear_476_1469" x1="240" y1="108" x2="240" y2="142" gradientUnits="userSpaceOnUse"><stop stop-color="#BDCEEE"/><stop offset="1" stop-color="#4671F6"/></linearGradient><linearGradient id="paint16_linear_476_1469" x1="345" y1="178" x2="345" y2="212" gradientUnits="userSpaceOnUse"><stop stop-color="#BDCEEE"/><stop offset="1" stop-color="#4671F6"/></linearGradient><filter id="filter0_f_476_1469" x="-131" y="102" width="620" height="620" filterUnits="userSpaceOnUse" color-interpolation-filters="sRGB"><feFlood flood-opacity="0" result="BackgroundImageFix"/><feBlend in="SourceGraphic" in2="BackgroundImageFix" result="shape"/><feGaussianBlur stdDeviation="5" result="effect1_foregroundBlur_476_1469"/></filter><filter id="filter1_f_476_1469" x="-51" y="182" width="470" height="470" filterUnits="userSpaceOnUse" color-interpolation-filters="sRGB"><feFlood flood-opacity="0" result="BackgroundImageFix"/><feBlend in="SourceGraphic" in2="BackgroundImageFix" result="shape"/><feGaussianBlur stdDeviation="5" result="effect1_foregroundBlur_476_1469"/></filter><filter id="filter2_f_476_1469" x="-21" y="212" width="430" height="430" filterUnits="userSpaceOnUse" color-interpolation-filters="sRGB"><feFlood flood-opacity="0" result="BackgroundImageFix"/><feBlend in="SourceGraphic" in2="BackgroundImageFix" result="shape"/><feGaussianBlur stdDeviation="25" result="effect1_foregroundBlur_476_1469"/></filter><filter id="filter3_f_476_1469" x="137.998" y="341.002" width="111" height="31.132" filterUnits="userSpaceOnUse" color-interpolation-filters="sRGB"><feFlood flood-opacity="0" result="BackgroundImageFix"/><feBlend in="SourceGraphic" in2="BackgroundImageFix" result="shape"/><feGaussianBlur stdDeviation="7" result="effect1_foregroundBlur_476_1469"/></filter><filter id="filter4_d_476_1469" x="166.75" y="248.25" width="48.5" height="48.5" filterUnits="userSpaceOnUse" color-interpolation-filters="sRGB"><feFlood flood-opacity="0" result="BackgroundImageFix"/><feColorMatrix in="SourceAlpha" values="0 0 0 0 0 0 0 0 0 0 0 0 0 0 0 0 0 0 127 0" result="hardAlpha"/><feOffset dy="4"/><feGaussianBlur stdDeviation="2"/><feComposite in2="hardAlpha" operator="out"/><feColorMatrix values="0 0 0 0 0.45098 0 0 0 0 0.580392 0 0 0 0 0.956863 0 0 0 0.2 0"/><feBlend in2="BackgroundImageFix" result="effect1_dropShadow_476_1469"/><feBlend in="SourceGraphic" in2="effect1_dropShadow_476_1469" result="shape"/></filter><filter id="filter5_f_476_1469" x="65" y="156" width="22" height="22" filterUnits="userSpaceOnUse" color-interpolation-filters="sRGB"><feFlood flood-opacity="0" result="BackgroundImageFix"/><feBlend in="SourceGraphic" in2="BackgroundImageFix" result="shape"/><feGaussianBlur stdDeviation="1" result="effect1_foregroundBlur_476_1469"/></filter><filter id="filter6_f_476_1469" x="324" y="174" width="42" height="42" filterUnits="userSpaceOnUse" color-interpolation-filters="sRGB"><feFlood flood-opacity="0" result="BackgroundImageFix"/><feBlend in="SourceGraphic" in2="BackgroundImageFix" result="shape"/><feGaussianBlur stdDeviation="2" result="effect1_foregroundBlur_476_1469"/></filter><clipPath id="clip0_476_1469"><rect width="388" height="500" rx="10" fill="#fff"/></clipPath></defs></svg>