<svg width="388" height="500" viewBox="0 0 388 500" fill="none" xmlns="http://www.w3.org/2000/svg">
<g clip-path="url(#clip0_476_1245)">
<rect x="79.5977" y="360.769" width="227.62" height="139.231" fill="url(#paint0_linear_476_1245)"/>
<path d="M182.678 321.611C187.834 319.913 193.392 319.871 198.573 321.491L302.35 353.947C309.375 356.144 309.424 366.07 302.42 368.336L198.822 401.854C193.488 403.58 187.739 403.535 182.433 401.727L84.3294 368.299C77.4727 365.963 77.5223 356.248 84.4025 353.981L182.678 321.611Z" fill="white"/>
<g opacity="0.2" filter="url(#filter0_f_476_1245)">
<rect x="68.9092" y="275.506" width="13.6436" height="34.2877" fill="url(#paint1_linear_476_1245)"/>
<g clip-path="url(#clip1_476_1245)">
<path d="M82.5389 267.954L82.5389 275.848L75.7216 279.436L68.9043 275.848L68.9043 267.954L69.3385 267.726L75.7216 271.004L82.0276 267.685L82.5389 267.954Z" fill="#6389FF"/>
<path d="M68.9043 267.954L75.7216 271.542L82.5389 267.954L75.7216 264.366L68.9043 267.954Z" fill="#A5BDFE"/>
<path d="M82.539 267.954L82.539 275.848L75.7217 279.436L75.7217 271.542L82.539 267.954Z" fill="#4671F6"/>
</g>
</g>
<rect x="211.8" y="135" width="41.9" height="106" fill="url(#paint2_linear_476_1245)"/>
<path d="M253.71 111.958L253.71 136.209L232.765 147.232L211.821 136.209L211.821 111.958L213.155 111.258L232.765 121.328L252.139 111.131L253.71 111.958Z" fill="#6389FF"/>
<path d="M211.821 111.958L232.765 122.981L253.71 111.958L232.765 100.935L211.821 111.958Z" fill="#A5BDFE"/>
<path d="M253.71 111.958L253.71 136.209L232.766 147.232L232.766 122.981L253.71 111.958Z" fill="#4671F6"/>
<g opacity="0.2" filter="url(#filter1_f_476_1245)">
<rect x="358.688" y="379.342" width="100.185" height="253.451" fill="url(#paint3_linear_476_1245)"/>
<path d="M458.9 324.247L458.9 382.233L408.822 408.59L358.743 382.233L358.743 324.247L361.932 322.573L408.822 346.651L455.144 322.27L458.9 324.247Z" fill="#6389FF"/>
<path d="M358.743 324.247L408.822 350.604L458.9 324.247L408.822 297.89L358.743 324.247Z" fill="#A5BDFE"/>
</g>
<rect x="22.1992" y="218" width="27.6" height="70" fill="url(#paint4_linear_476_1245)"/>
<g clip-path="url(#clip2_476_1245)">
<path d="M49.8131 203.002L49.8131 219.002L35.9949 226.275L22.1768 219.002L22.1768 203.002L23.0568 202.54L35.9949 209.184L48.7768 202.457L49.8131 203.002Z" fill="#6389FF"/>
<path d="M22.1768 203.002L35.9949 210.275L49.8131 203.002L35.9949 195.729L22.1768 203.002Z" fill="#A5BDFE"/>
<path d="M49.8133 203.002L49.8133 219.002L35.9951 226.275L35.9951 210.275L49.8133 203.002Z" fill="#4671F6"/>
</g>
<g opacity="0.5">
<rect x="131" y="196" width="19.1" height="48" fill="url(#paint5_linear_476_1245)"/>
<path d="M150.08 185.428L150.08 196.478L140.537 201.501L130.993 196.478L130.993 185.428L131.601 185.109L140.537 189.697L149.365 185.051L150.08 185.428Z" fill="#6389FF"/>
<path d="M130.993 185.428L140.537 190.451L150.08 185.428L140.537 180.405L130.993 185.428Z" fill="#A5BDFE"/>
<path d="M150.081 185.428L150.081 196.479L140.537 201.502L140.537 190.451L150.081 185.428Z" fill="#4671F6"/>
</g>
<g opacity="0.3">
<rect x="101.031" y="265.785" width="18.99" height="48.3462" fill="url(#paint6_linear_476_1245)"/>
<path d="M120.08 255.427L120.08 266.478L110.537 271.501L100.993 266.478L100.993 255.427L101.601 255.108L110.537 259.697L119.365 255.051L120.08 255.427Z" fill="#6389FF"/>
<path d="M100.993 255.427L110.537 260.45L120.08 255.427L110.537 250.404L100.993 255.427Z" fill="#A5BDFE"/>
<path d="M120.081 255.427L120.081 266.478L110.537 271.501L110.537 260.45L120.081 255.427Z" fill="#4671F6"/>
</g>
<rect x="290.2" y="268" width="27.7" height="70" fill="url(#paint7_linear_476_1245)"/>
<g clip-path="url(#clip3_476_1245)">
<path d="M317.814 253.002L317.814 269.002L303.996 276.274L290.178 269.002L290.178 253.002L291.058 252.54L303.996 259.183L316.778 252.456L317.814 253.002Z" fill="#6389FF"/>
<path d="M290.178 253.001L303.996 260.274L317.814 253.001L303.996 245.729L290.178 253.001Z" fill="#A5BDFE"/>
<path d="M317.814 253.001L317.814 269.001L303.996 276.274L303.996 260.274L317.814 253.001Z" fill="#4671F6"/>
</g>
<rect x="283.482" y="194.312" width="13.45" height="33.908" fill="url(#paint8_linear_476_1245)"/>
<g clip-path="url(#clip4_476_1245)">
<path d="M296.921 187.046L296.921 194.796L290.228 198.319L283.534 194.796L283.534 187.046L283.96 186.822L290.228 190.04L296.419 186.781L296.921 187.046Z" fill="#6389FF"/>
<path d="M283.534 187.046L290.228 190.569L296.921 187.046L290.228 183.523L283.534 187.046Z" fill="#A5BDFE"/>
<path d="M296.921 187.046L296.921 194.796L290.228 198.319L290.228 190.569L296.921 187.046Z" fill="#4671F6"/>
</g>
<rect x="293.482" y="199.312" width="13.45" height="33.908" fill="url(#paint9_linear_476_1245)"/>
<g clip-path="url(#clip5_476_1245)">
<path d="M306.921 192.046L306.921 199.796L300.228 203.319L293.534 199.796L293.534 192.046L293.96 191.822L300.228 195.04L306.419 191.781L306.921 192.046Z" fill="#6389FF"/>
<path d="M293.534 192.046L300.228 195.569L306.921 192.046L300.228 188.523L293.534 192.046Z" fill="#A5BDFE"/>
<path d="M306.921 192.046L306.921 199.796L300.228 203.319L300.228 195.569L306.921 192.046Z" fill="#4671F6"/>
</g>
<rect x="273.482" y="200.311" width="13.45" height="33.908" fill="url(#paint10_linear_476_1245)"/>
<g clip-path="url(#clip6_476_1245)">
<path d="M286.921 193.045L286.921 200.796L280.228 204.319L273.534 200.796L273.534 193.045L273.96 192.822L280.228 196.04L286.419 192.781L286.921 193.045Z" fill="#6389FF"/>
<path d="M273.534 193.045L280.228 196.568L286.921 193.045L280.228 189.522L273.534 193.045Z" fill="#A5BDFE"/>
<path d="M286.921 193.045L286.921 200.796L280.228 204.319L280.228 196.568L286.921 193.045Z" fill="#4671F6"/>
</g>
<rect x="303.482" y="204.312" width="13.45" height="33.908" fill="url(#paint11_linear_476_1245)"/>
<g clip-path="url(#clip7_476_1245)">
<path d="M316.921 197.046L316.921 204.796L310.228 208.319L303.534 204.796L303.534 197.046L303.96 196.822L310.228 200.04L316.419 196.781L316.921 197.046Z" fill="#6389FF"/>
<path d="M303.534 197.046L310.228 200.569L316.921 197.046L310.228 193.523L303.534 197.046Z" fill="#A5BDFE"/>
<path d="M316.921 197.046L316.921 204.796L310.228 208.319L310.228 200.569L316.921 197.046Z" fill="#4671F6"/>
</g>
<rect x="284.482" y="206.312" width="13.45" height="33.908" fill="url(#paint12_linear_476_1245)"/>
<g clip-path="url(#clip8_476_1245)">
<path d="M297.921 199.046L297.921 206.796L291.228 210.319L284.534 206.796L284.534 199.046L284.96 198.822L291.228 202.04L297.419 198.781L297.921 199.046Z" fill="#6389FF"/>
<path d="M284.534 199.046L291.228 202.569L297.921 199.046L291.228 195.523L284.534 199.046Z" fill="#A5BDFE"/>
<path d="M297.921 199.046L297.921 206.796L291.228 210.319L291.228 202.569L297.921 199.046Z" fill="#4671F6"/>
</g>
<rect x="313.482" y="209.312" width="13.45" height="33.908" fill="url(#paint13_linear_476_1245)"/>
<g clip-path="url(#clip9_476_1245)">
<path d="M326.921 202.046L326.921 209.796L320.228 213.319L313.534 209.796L313.534 202.046L313.96 201.822L320.228 205.04L326.419 201.781L326.921 202.046Z" fill="#6389FF"/>
<path d="M313.534 202.046L320.228 205.569L326.921 202.046L320.228 198.523L313.534 202.046Z" fill="#A5BDFE"/>
<path d="M326.921 202.046L326.921 209.796L320.228 213.319L320.228 205.569L326.921 202.046Z" fill="#4671F6"/>
</g>
<rect x="294.482" y="211.312" width="13.45" height="33.908" fill="url(#paint14_linear_476_1245)"/>
<g clip-path="url(#clip10_476_1245)">
<path d="M307.921 204.046L307.921 211.796L301.228 215.319L294.534 211.796L294.534 204.046L294.96 203.822L301.228 207.04L307.419 203.781L307.921 204.046Z" fill="#6389FF"/>
<path d="M294.534 204.046L301.228 207.569L307.921 204.046L301.228 200.523L294.534 204.046Z" fill="#A5BDFE"/>
<path d="M307.921 204.046L307.921 211.796L301.228 215.319L301.228 207.569L307.921 204.046Z" fill="#4671F6"/>
</g>
<rect x="323.482" y="214.312" width="13.45" height="33.908" fill="url(#paint15_linear_476_1245)"/>
<g clip-path="url(#clip11_476_1245)">
<path d="M336.921 207.046L336.921 214.796L330.228 218.319L323.534 214.796L323.534 207.046L323.96 206.822L330.228 210.04L336.419 206.781L336.921 207.046Z" fill="#6389FF"/>
<path d="M323.534 207.046L330.228 210.569L336.921 207.046L330.228 203.523L323.534 207.046Z" fill="#A5BDFE"/>
<path d="M336.921 207.046L336.921 214.796L330.228 218.319L330.228 210.569L336.921 207.046Z" fill="#4671F6"/>
</g>
<rect x="304.482" y="216.312" width="13.45" height="33.908" fill="url(#paint16_linear_476_1245)"/>
<g clip-path="url(#clip12_476_1245)">
<path d="M317.921 209.046L317.921 216.796L311.228 220.319L304.534 216.796L304.534 209.046L304.96 208.822L311.228 212.04L317.419 208.781L317.921 209.046Z" fill="#6389FF"/>
<path d="M304.534 209.046L311.228 212.569L317.921 209.046L311.228 205.523L304.534 209.046Z" fill="#A5BDFE"/>
<path d="M317.921 209.046L317.921 216.796L311.228 220.319L311.228 212.569L317.921 209.046Z" fill="#4671F6"/>
</g>
<rect x="263.482" y="207.311" width="13.45" height="33.908" fill="url(#paint17_linear_476_1245)"/>
<g clip-path="url(#clip13_476_1245)">
<path d="M276.921 200.045L276.921 207.796L270.228 211.319L263.534 207.796L263.534 200.045L263.96 199.822L270.228 203.04L276.419 199.781L276.921 200.045Z" fill="#6389FF"/>
<path d="M263.534 200.045L270.228 203.568L276.921 200.045L270.228 196.522L263.534 200.045Z" fill="#A5BDFE"/>
<path d="M276.921 200.045L276.921 207.796L270.228 211.319L270.228 203.568L276.921 200.045Z" fill="#4671F6"/>
</g>
<rect x="274.482" y="213.312" width="13.45" height="33.908" fill="url(#paint18_linear_476_1245)"/>
<g clip-path="url(#clip14_476_1245)">
<path d="M287.921 206.046L287.921 213.796L281.228 217.319L274.534 213.796L274.534 206.046L274.96 205.822L281.228 209.04L287.419 205.781L287.921 206.046Z" fill="#6389FF"/>
<path d="M274.534 206.046L281.228 209.569L287.921 206.046L281.228 202.523L274.534 206.046Z" fill="#A5BDFE"/>
<path d="M287.921 206.046L287.921 213.796L281.228 217.319L281.228 209.569L287.921 206.046Z" fill="#4671F6"/>
</g>
<rect x="284.482" y="218.312" width="13.45" height="33.908" fill="url(#paint19_linear_476_1245)"/>
<g clip-path="url(#clip15_476_1245)">
<path d="M297.921 211.046L297.921 218.796L291.228 222.319L284.534 218.796L284.534 211.046L284.96 210.822L291.228 214.04L297.419 210.781L297.921 211.046Z" fill="#6389FF"/>
<path d="M284.534 211.046L291.228 214.569L297.921 211.046L291.228 207.523L284.534 211.046Z" fill="#A5BDFE"/>
<path d="M297.921 211.046L297.921 218.796L291.228 222.319L291.228 214.569L297.921 211.046Z" fill="#4671F6"/>
</g>
<rect x="294.482" y="223.312" width="13.45" height="33.908" fill="url(#paint20_linear_476_1245)"/>
<g clip-path="url(#clip16_476_1245)">
<path d="M307.921 216.046L307.921 223.796L301.228 227.319L294.534 223.796L294.534 216.046L294.96 215.822L301.228 219.04L307.419 215.781L307.921 216.046Z" fill="#6389FF"/>
<path d="M294.534 216.046L301.228 219.569L307.921 216.046L301.228 212.523L294.534 216.046Z" fill="#A5BDFE"/>
<path d="M307.921 216.046L307.921 223.796L301.228 227.319L301.228 219.569L307.921 216.046Z" fill="#4671F6"/>
</g>
<rect x="304.482" y="228.312" width="13.45" height="33.908" fill="url(#paint21_linear_476_1245)"/>
<g clip-path="url(#clip17_476_1245)">
<path d="M317.921 221.046L317.921 228.796L311.228 232.319L304.534 228.796L304.534 221.046L304.96 220.822L311.228 224.04L317.419 220.781L317.921 221.046Z" fill="#6389FF"/>
<path d="M304.534 221.046L311.228 224.569L317.921 221.046L311.228 217.523L304.534 221.046Z" fill="#A5BDFE"/>
<path d="M317.921 221.046L317.921 228.796L311.228 232.319L311.228 224.569L317.921 221.046Z" fill="#4671F6"/>
</g>
<g filter="url(#filter2_f_476_1245)">
<rect x="-6.51758" y="354.312" width="13.45" height="33.908" fill="url(#paint22_linear_476_1245)"/>
<g clip-path="url(#clip18_476_1245)">
<path d="M6.92124 347.046L6.92124 354.796L0.22771 358.319L-6.46582 354.796L-6.46582 347.046L-6.03955 346.822L0.22771 350.04L6.41923 346.781L6.92124 347.046Z" fill="#6389FF"/>
<path d="M-6.46582 347.046L0.22771 350.569L6.92124 347.046L0.22771 343.523L-6.46582 347.046Z" fill="#A5BDFE"/>
<path d="M6.92107 347.046L6.92107 354.796L0.227539 358.319L0.227539 350.569L6.92107 347.046Z" fill="#4671F6"/>
</g>
<rect x="3.48242" y="359.312" width="13.45" height="33.908" fill="url(#paint23_linear_476_1245)"/>
<g clip-path="url(#clip19_476_1245)">
<path d="M16.9212 352.046L16.9212 359.796L10.2277 363.319L3.53418 359.796L3.53418 352.046L3.96045 351.822L10.2277 355.04L16.4192 351.781L16.9212 352.046Z" fill="#6389FF"/>
<path d="M3.53418 352.046L10.2277 355.569L16.9212 352.046L10.2277 348.523L3.53418 352.046Z" fill="#A5BDFE"/>
<path d="M16.9211 352.046L16.9211 359.796L10.2275 363.319L10.2275 355.569L16.9211 352.046Z" fill="#4671F6"/>
</g>
<rect x="23.4824" y="369.312" width="13.45" height="33.908" fill="url(#paint24_linear_476_1245)"/>
<g clip-path="url(#clip20_476_1245)">
<path d="M36.9212 362.046L36.9212 369.796L30.2277 373.319L23.5342 369.796L23.5342 362.046L23.9605 361.822L30.2277 365.04L36.4192 361.781L36.9212 362.046Z" fill="#6389FF"/>
<path d="M23.5342 362.046L30.2277 365.569L36.9212 362.046L30.2277 358.523L23.5342 362.046Z" fill="#A5BDFE"/>
<path d="M36.9211 362.046L36.9211 369.796L30.2275 373.319L30.2275 365.569L36.9211 362.046Z" fill="#4671F6"/>
</g>
<rect x="33.4824" y="374.312" width="13.45" height="33.908" fill="url(#paint25_linear_476_1245)"/>
<g clip-path="url(#clip21_476_1245)">
<path d="M46.9212 367.046L46.9212 374.796L40.2277 378.319L33.5342 374.796L33.5342 367.046L33.9605 366.822L40.2277 370.04L46.4192 366.781L46.9212 367.046Z" fill="#6389FF"/>
<path d="M33.5342 367.046L40.2277 370.569L46.9212 367.046L40.2277 363.523L33.5342 367.046Z" fill="#A5BDFE"/>
<path d="M46.9211 367.046L46.9211 374.796L40.2275 378.319L40.2275 370.569L46.9211 367.046Z" fill="#4671F6"/>
</g>
<rect x="-5.51758" y="378.312" width="13.45" height="33.908" fill="url(#paint26_linear_476_1245)"/>
<g clip-path="url(#clip22_476_1245)">
<path d="M7.92124 371.046L7.92124 378.796L1.22771 382.319L-5.46582 378.796L-5.46582 371.046L-5.03955 370.822L1.22771 374.04L7.41923 370.781L7.92124 371.046Z" fill="#6389FF"/>
<path d="M-5.46582 371.046L1.22771 374.569L7.92124 371.046L1.22771 367.523L-5.46582 371.046Z" fill="#A5BDFE"/>
<path d="M7.92107 371.046L7.92107 378.796L1.22754 382.319L1.22754 374.569L7.92107 371.046Z" fill="#4671F6"/>
</g>
<rect x="4.48242" y="383.312" width="13.45" height="33.908" fill="url(#paint27_linear_476_1245)"/>
<g clip-path="url(#clip23_476_1245)">
<path d="M17.9212 376.046L17.9212 383.796L11.2277 387.319L4.53418 383.796L4.53418 376.046L4.96045 375.822L11.2277 379.04L17.4192 375.781L17.9212 376.046Z" fill="#6389FF"/>
<path d="M4.53418 376.046L11.2277 379.569L17.9212 376.046L11.2277 372.523L4.53418 376.046Z" fill="#A5BDFE"/>
<path d="M17.9211 376.046L17.9211 383.796L11.2275 387.319L11.2275 379.569L17.9211 376.046Z" fill="#4671F6"/>
</g>
<rect x="14.4824" y="388.312" width="13.45" height="33.908" fill="url(#paint28_linear_476_1245)"/>
<g clip-path="url(#clip24_476_1245)">
<path d="M27.9212 381.046L27.9212 388.796L21.2277 392.319L14.5342 388.796L14.5342 381.046L14.9605 380.822L21.2277 384.04L27.4192 380.781L27.9212 381.046Z" fill="#6389FF"/>
<path d="M14.5342 381.046L21.2277 384.569L27.9212 381.046L21.2277 377.523L14.5342 381.046Z" fill="#A5BDFE"/>
<path d="M27.9211 381.046L27.9211 388.796L21.2275 392.319L21.2275 384.569L27.9211 381.046Z" fill="#4671F6"/>
</g>
</g>
<g opacity="0.5">
<rect x="354.482" y="258.311" width="13.45" height="33.908" fill="url(#paint29_linear_476_1245)"/>
<g clip-path="url(#clip25_476_1245)">
<path d="M367.921 251.045L367.921 258.796L361.228 262.319L354.534 258.796L354.534 251.045L354.96 250.822L361.228 254.04L367.419 250.781L367.921 251.045Z" fill="#6389FF"/>
<path d="M354.534 251.045L361.228 254.568L367.921 251.045L361.228 247.522L354.534 251.045Z" fill="#A5BDFE"/>
<path d="M367.921 251.045L367.921 258.796L361.228 262.318L361.228 254.568L367.921 251.045Z" fill="#4671F6"/>
</g>
</g>
<g filter="url(#filter3_f_476_1245)">
<path d="M169 354L232 354L232 359L169 359L169 354Z" fill="#A5BDFE"/>
</g>
<path d="M149.5 336.172L166 346L237.5 215L214.953 208.137C213.17 207.595 211.271 207.561 209.471 208.04L151.028 223.583C148.4 224.282 146.57 226.662 146.57 229.381L146.57 331.017C146.57 333.132 147.683 335.09 149.5 336.172Z" fill="url(#paint30_linear_476_1245)"/>
<path d="M163.273 237.139C163.273 234.384 165.148 231.984 167.821 231.317L234.227 214.753C238.013 213.809 241.679 216.673 241.679 220.575L241.679 320.903C241.679 323.543 239.953 325.873 237.427 326.642L171.021 346.87C167.166 348.044 163.273 345.16 163.273 341.13L163.273 237.139Z" fill="#4671F6"/>
<circle cx="201.749" cy="269.469" r="27.9385" fill="url(#paint31_linear_476_1245)"/>
<circle cx="201.749" cy="269.469" r="5.5877" fill="#4671F6"/>
<path d="M173.81 300.02C173.81 296.649 175.515 293.506 178.342 291.669L196.952 279.572C198.539 278.541 200.538 280.086 199.939 281.882L192.793 303.32C191.467 307.298 187.744 309.981 183.551 309.981C178.171 309.981 173.81 305.62 173.81 300.239L173.81 300.02Z" fill="white"/>
</g>
<defs>
<filter id="filter0_f_476_1245" x="65.8281" y="262.007" width="19.7871" height="49.7864" filterUnits="userSpaceOnUse" color-interpolation-filters="sRGB">
<feFlood flood-opacity="0" result="BackgroundImageFix"/>
<feBlend mode="normal" in="SourceGraphic" in2="BackgroundImageFix" result="shape"/>
<feGaussianBlur stdDeviation="1" result="effect1_foregroundBlur_476_1245"/>
</filter>
<filter id="filter1_f_476_1245" x="336.836" y="281.254" width="143.972" height="365.539" filterUnits="userSpaceOnUse" color-interpolation-filters="sRGB">
<feFlood flood-opacity="0" result="BackgroundImageFix"/>
<feBlend mode="normal" in="SourceGraphic" in2="BackgroundImageFix" result="shape"/>
<feGaussianBlur stdDeviation="7" result="effect1_foregroundBlur_476_1245"/>
</filter>
<filter id="filter2_f_476_1245" x="-20.5225" y="339.17" width="72.501" height="87.0491" filterUnits="userSpaceOnUse" color-interpolation-filters="sRGB">
<feFlood flood-opacity="0" result="BackgroundImageFix"/>
<feBlend mode="normal" in="SourceGraphic" in2="BackgroundImageFix" result="shape"/>
<feGaussianBlur stdDeviation="2" result="effect1_foregroundBlur_476_1245"/>
</filter>
<filter id="filter3_f_476_1245" x="154" y="339" width="93" height="35" filterUnits="userSpaceOnUse" color-interpolation-filters="sRGB">
<feFlood flood-opacity="0" result="BackgroundImageFix"/>
<feBlend mode="normal" in="SourceGraphic" in2="BackgroundImageFix" result="shape"/>
<feGaussianBlur stdDeviation="7.5" result="effect1_foregroundBlur_476_1245"/>
</filter>
<linearGradient id="paint0_linear_476_1245" x1="307.218" y1="430.384" x2="79.5977" y2="430.384" gradientUnits="userSpaceOnUse">
<stop stop-color="#DDE1E9"/>
<stop offset="0.432292" stop-color="#DDE1E9"/>
<stop offset="0.598958" stop-color="#F2F4F8"/>
<stop offset="1" stop-color="#FBFCFE"/>
</linearGradient>
<linearGradient id="paint1_linear_476_1245" x1="75.731" y1="275.506" x2="75.731" y2="309.794" gradientUnits="userSpaceOnUse">
<stop stop-color="#A5BDFE"/>
<stop offset="1" stop-color="#F2F4F8" stop-opacity="0"/>
</linearGradient>
<linearGradient id="paint2_linear_476_1245" x1="232.75" y1="135" x2="232.75" y2="241" gradientUnits="userSpaceOnUse">
<stop stop-color="#A5BDFE"/>
<stop offset="1" stop-color="#F2F4F8" stop-opacity="0"/>
</linearGradient>
<linearGradient id="paint3_linear_476_1245" x1="408.78" y1="379.342" x2="408.78" y2="632.794" gradientUnits="userSpaceOnUse">
<stop stop-color="#A5BDFE"/>
<stop offset="1" stop-color="#F2F4F8" stop-opacity="0"/>
</linearGradient>
<linearGradient id="paint4_linear_476_1245" x1="35.9992" y1="218" x2="35.9992" y2="288" gradientUnits="userSpaceOnUse">
<stop stop-color="#A5BDFE"/>
<stop offset="1" stop-color="#F2F4F8" stop-opacity="0"/>
</linearGradient>
<linearGradient id="paint5_linear_476_1245" x1="140.55" y1="196" x2="140.55" y2="244" gradientUnits="userSpaceOnUse">
<stop stop-color="#A5BDFE"/>
<stop offset="1" stop-color="#F2F4F8" stop-opacity="0"/>
</linearGradient>
<linearGradient id="paint6_linear_476_1245" x1="110.526" y1="265.785" x2="110.526" y2="314.132" gradientUnits="userSpaceOnUse">
<stop stop-color="#A5BDFE"/>
<stop offset="1" stop-color="#F2F4F8" stop-opacity="0"/>
</linearGradient>
<linearGradient id="paint7_linear_476_1245" x1="304.05" y1="268" x2="304.05" y2="338" gradientUnits="userSpaceOnUse">
<stop stop-color="#A5BDFE"/>
<stop offset="1" stop-color="#F2F4F8" stop-opacity="0"/>
</linearGradient>
<linearGradient id="paint8_linear_476_1245" x1="290.207" y1="194.312" x2="290.207" y2="228.22" gradientUnits="userSpaceOnUse">
<stop stop-color="#A5BDFE"/>
<stop offset="1" stop-color="#F2F4F8" stop-opacity="0"/>
</linearGradient>
<linearGradient id="paint9_linear_476_1245" x1="300.207" y1="199.312" x2="300.207" y2="233.22" gradientUnits="userSpaceOnUse">
<stop stop-color="#A5BDFE"/>
<stop offset="1" stop-color="#F2F4F8" stop-opacity="0"/>
</linearGradient>
<linearGradient id="paint10_linear_476_1245" x1="280.207" y1="200.311" x2="280.207" y2="234.219" gradientUnits="userSpaceOnUse">
<stop stop-color="#A5BDFE"/>
<stop offset="1" stop-color="#F2F4F8" stop-opacity="0"/>
</linearGradient>
<linearGradient id="paint11_linear_476_1245" x1="310.207" y1="204.312" x2="310.207" y2="238.22" gradientUnits="userSpaceOnUse">
<stop stop-color="#A5BDFE"/>
<stop offset="1" stop-color="#F2F4F8" stop-opacity="0"/>
</linearGradient>
<linearGradient id="paint12_linear_476_1245" x1="291.207" y1="206.312" x2="291.207" y2="240.22" gradientUnits="userSpaceOnUse">
<stop stop-color="#A5BDFE"/>
<stop offset="1" stop-color="#F2F4F8" stop-opacity="0"/>
</linearGradient>
<linearGradient id="paint13_linear_476_1245" x1="320.207" y1="209.312" x2="320.207" y2="243.22" gradientUnits="userSpaceOnUse">
<stop stop-color="#A5BDFE"/>
<stop offset="1" stop-color="#F2F4F8" stop-opacity="0"/>
</linearGradient>
<linearGradient id="paint14_linear_476_1245" x1="301.207" y1="211.312" x2="301.207" y2="245.22" gradientUnits="userSpaceOnUse">
<stop stop-color="#A5BDFE"/>
<stop offset="1" stop-color="#F2F4F8" stop-opacity="0"/>
</linearGradient>
<linearGradient id="paint15_linear_476_1245" x1="330.207" y1="214.312" x2="330.207" y2="248.22" gradientUnits="userSpaceOnUse">
<stop stop-color="#A5BDFE"/>
<stop offset="1" stop-color="#F2F4F8" stop-opacity="0"/>
</linearGradient>
<linearGradient id="paint16_linear_476_1245" x1="311.207" y1="216.312" x2="311.207" y2="250.22" gradientUnits="userSpaceOnUse">
<stop stop-color="#A5BDFE"/>
<stop offset="1" stop-color="#F2F4F8" stop-opacity="0"/>
</linearGradient>
<linearGradient id="paint17_linear_476_1245" x1="270.207" y1="207.311" x2="270.207" y2="241.219" gradientUnits="userSpaceOnUse">
<stop stop-color="#A5BDFE"/>
<stop offset="1" stop-color="#F2F4F8" stop-opacity="0"/>
</linearGradient>
<linearGradient id="paint18_linear_476_1245" x1="281.207" y1="213.312" x2="281.207" y2="247.22" gradientUnits="userSpaceOnUse">
<stop stop-color="#A5BDFE"/>
<stop offset="1" stop-color="#F2F4F8" stop-opacity="0"/>
</linearGradient>
<linearGradient id="paint19_linear_476_1245" x1="291.207" y1="218.312" x2="291.207" y2="252.22" gradientUnits="userSpaceOnUse">
<stop stop-color="#A5BDFE"/>
<stop offset="1" stop-color="#F2F4F8" stop-opacity="0"/>
</linearGradient>
<linearGradient id="paint20_linear_476_1245" x1="301.207" y1="223.312" x2="301.207" y2="257.22" gradientUnits="userSpaceOnUse">
<stop stop-color="#A5BDFE"/>
<stop offset="1" stop-color="#F2F4F8" stop-opacity="0"/>
</linearGradient>
<linearGradient id="paint21_linear_476_1245" x1="311.207" y1="228.312" x2="311.207" y2="262.22" gradientUnits="userSpaceOnUse">
<stop stop-color="#A5BDFE"/>
<stop offset="1" stop-color="#F2F4F8" stop-opacity="0"/>
</linearGradient>
<linearGradient id="paint22_linear_476_1245" x1="0.207422" y1="354.312" x2="0.207422" y2="388.22" gradientUnits="userSpaceOnUse">
<stop stop-color="#A5BDFE"/>
<stop offset="1" stop-color="#F2F4F8" stop-opacity="0"/>
</linearGradient>
<linearGradient id="paint23_linear_476_1245" x1="10.2074" y1="359.312" x2="10.2074" y2="393.22" gradientUnits="userSpaceOnUse">
<stop stop-color="#A5BDFE"/>
<stop offset="1" stop-color="#F2F4F8" stop-opacity="0"/>
</linearGradient>
<linearGradient id="paint24_linear_476_1245" x1="30.2074" y1="369.312" x2="30.2074" y2="403.22" gradientUnits="userSpaceOnUse">
<stop stop-color="#A5BDFE"/>
<stop offset="1" stop-color="#F2F4F8" stop-opacity="0"/>
</linearGradient>
<linearGradient id="paint25_linear_476_1245" x1="40.2074" y1="374.312" x2="40.2074" y2="408.22" gradientUnits="userSpaceOnUse">
<stop stop-color="#A5BDFE"/>
<stop offset="1" stop-color="#F2F4F8" stop-opacity="0"/>
</linearGradient>
<linearGradient id="paint26_linear_476_1245" x1="1.20742" y1="378.312" x2="1.20742" y2="412.22" gradientUnits="userSpaceOnUse">
<stop stop-color="#A5BDFE"/>
<stop offset="1" stop-color="#F2F4F8" stop-opacity="0"/>
</linearGradient>
<linearGradient id="paint27_linear_476_1245" x1="11.2074" y1="383.312" x2="11.2074" y2="417.22" gradientUnits="userSpaceOnUse">
<stop stop-color="#A5BDFE"/>
<stop offset="1" stop-color="#F2F4F8" stop-opacity="0"/>
</linearGradient>
<linearGradient id="paint28_linear_476_1245" x1="21.2074" y1="388.312" x2="21.2074" y2="422.22" gradientUnits="userSpaceOnUse">
<stop stop-color="#A5BDFE"/>
<stop offset="1" stop-color="#F2F4F8" stop-opacity="0"/>
</linearGradient>
<linearGradient id="paint29_linear_476_1245" x1="361.207" y1="258.311" x2="361.207" y2="292.219" gradientUnits="userSpaceOnUse">
<stop stop-color="#A5BDFE"/>
<stop offset="1" stop-color="#F2F4F8" stop-opacity="0"/>
</linearGradient>
<linearGradient id="paint30_linear_476_1245" x1="200.352" y1="188.448" x2="134.696" y2="271.566" gradientUnits="userSpaceOnUse">
<stop stop-color="#5780FF"/>
<stop offset="0.536458" stop-color="#698EFF"/>
<stop offset="0.635417" stop-color="#A4BCFD"/>
<stop offset="1" stop-color="#A4BCFD"/>
</linearGradient>
<linearGradient id="paint31_linear_476_1245" x1="150.761" y1="316.966" x2="229.687" y2="254.104" gradientUnits="userSpaceOnUse">
<stop stop-color="#D9D9D9"/>
<stop offset="1" stop-color="#D9D9D9" stop-opacity="0"/>
</linearGradient>
<clipPath id="clip0_476_1245">
<rect width="388" height="500" rx="10" fill="white"/>
</clipPath>
<clipPath id="clip1_476_1245">
<rect width="15.7874" height="15.7874" fill="white" transform="translate(67.8281 264.007)"/>
</clipPath>
<clipPath id="clip2_476_1245">
<rect width="32" height="32" fill="white" transform="translate(19.9951 195.002)"/>
</clipPath>
<clipPath id="clip3_476_1245">
<rect width="32" height="32" fill="white" transform="translate(287.996 245.001)"/>
</clipPath>
<clipPath id="clip4_476_1245">
<rect width="15.5008" height="15.5008" fill="white" transform="translate(282.478 183.17)"/>
</clipPath>
<clipPath id="clip5_476_1245">
<rect width="15.5008" height="15.5008" fill="white" transform="translate(292.478 188.17)"/>
</clipPath>
<clipPath id="clip6_476_1245">
<rect width="15.5008" height="15.5008" fill="white" transform="translate(272.478 189.17)"/>
</clipPath>
<clipPath id="clip7_476_1245">
<rect width="15.5008" height="15.5008" fill="white" transform="translate(302.478 193.17)"/>
</clipPath>
<clipPath id="clip8_476_1245">
<rect width="15.5008" height="15.5008" fill="white" transform="translate(283.478 195.17)"/>
</clipPath>
<clipPath id="clip9_476_1245">
<rect width="15.5008" height="15.5008" fill="white" transform="translate(312.478 198.17)"/>
</clipPath>
<clipPath id="clip10_476_1245">
<rect width="15.5008" height="15.5008" fill="white" transform="translate(293.478 200.17)"/>
</clipPath>
<clipPath id="clip11_476_1245">
<rect width="15.5008" height="15.5008" fill="white" transform="translate(322.478 203.17)"/>
</clipPath>
<clipPath id="clip12_476_1245">
<rect width="15.5008" height="15.5008" fill="white" transform="translate(303.478 205.17)"/>
</clipPath>
<clipPath id="clip13_476_1245">
<rect width="15.5008" height="15.5008" fill="white" transform="translate(262.478 196.17)"/>
</clipPath>
<clipPath id="clip14_476_1245">
<rect width="15.5008" height="15.5008" fill="white" transform="translate(273.478 202.17)"/>
</clipPath>
<clipPath id="clip15_476_1245">
<rect width="15.5008" height="15.5008" fill="white" transform="translate(283.478 207.17)"/>
</clipPath>
<clipPath id="clip16_476_1245">
<rect width="15.5008" height="15.5008" fill="white" transform="translate(293.478 212.17)"/>
</clipPath>
<clipPath id="clip17_476_1245">
<rect width="15.5008" height="15.5008" fill="white" transform="translate(303.478 217.17)"/>
</clipPath>
<clipPath id="clip18_476_1245">
<rect width="15.5008" height="15.5008" fill="white" transform="translate(-7.52246 343.17)"/>
</clipPath>
<clipPath id="clip19_476_1245">
<rect width="15.5008" height="15.5008" fill="white" transform="translate(2.47754 348.17)"/>
</clipPath>
<clipPath id="clip20_476_1245">
<rect width="15.5008" height="15.5008" fill="white" transform="translate(22.4775 358.17)"/>
</clipPath>
<clipPath id="clip21_476_1245">
<rect width="15.5008" height="15.5008" fill="white" transform="translate(32.4775 363.17)"/>
</clipPath>
<clipPath id="clip22_476_1245">
<rect width="15.5008" height="15.5008" fill="white" transform="translate(-6.52246 367.17)"/>
</clipPath>
<clipPath id="clip23_476_1245">
<rect width="15.5008" height="15.5008" fill="white" transform="translate(3.47754 372.17)"/>
</clipPath>
<clipPath id="clip24_476_1245">
<rect width="15.5008" height="15.5008" fill="white" transform="translate(13.4775 377.17)"/>
</clipPath>
<clipPath id="clip25_476_1245">
<rect width="15.5008" height="15.5008" fill="white" transform="translate(353.478 247.17)"/>
</clipPath>
</defs>
</svg>
