<svg width="197" height="154" viewBox="0 0 197 154" fill="none" xmlns="http://www.w3.org/2000/svg">
<g clip-path="url(#clip0_623_1551)">
<g filter="url(#filter0_f_623_1551)">
<circle cx="159.5" cy="64.5" r="84.5" transform="rotate(75 159.5 64.5)" fill="url(#paint0_linear_623_1551)"/>
</g>
<g filter="url(#filter1_f_623_1551)">
<circle cx="134" cy="57" r="40" fill="url(#paint1_linear_623_1551)"/>
</g>
<path fill-rule="evenodd" clip-rule="evenodd" d="M198 171C233.899 171 263 141.899 263 106C263 70.1015 233.899 41 198 41C176.271 41 157.031 51.6625 145.229 68.0409C141.38 73.3835 133.642 75.1699 127.646 72.4479C121.352 69.591 114.362 68 107 68C79.3858 68 57 90.3858 57 118C57 145.614 79.3858 168 107 168C119.061 168 130.125 163.729 138.762 156.617C143.842 152.434 151.771 152.162 156.863 156.329C168.069 165.499 182.392 171 198 171Z" fill="url(#paint2_linear_623_1551)"/>
<circle cx="94" cy="193" r="50" fill="url(#paint3_linear_623_1551)"/>
<circle cx="154" cy="175" r="50" fill="url(#paint4_linear_623_1551)"/>
</g>
<defs>
<filter id="filter0_f_623_1551" x="60.9795" y="-34.021" width="197.042" height="197.042" filterUnits="userSpaceOnUse" color-interpolation-filters="sRGB">
<feFlood flood-opacity="0" result="BackgroundImageFix"/>
<feBlend mode="normal" in="SourceGraphic" in2="BackgroundImageFix" result="shape"/>
<feGaussianBlur stdDeviation="7" result="effect1_foregroundBlur_623_1551"/>
</filter>
<filter id="filter1_f_623_1551" x="80" y="3" width="108" height="108" filterUnits="userSpaceOnUse" color-interpolation-filters="sRGB">
<feFlood flood-opacity="0" result="BackgroundImageFix"/>
<feBlend mode="normal" in="SourceGraphic" in2="BackgroundImageFix" result="shape"/>
<feGaussianBlur stdDeviation="7" result="effect1_foregroundBlur_623_1551"/>
</filter>
<linearGradient id="paint0_linear_623_1551" x1="78.6219" y1="145.379" x2="222.272" y2="-6.72145" gradientUnits="userSpaceOnUse">
<stop stop-color="#2B5DBD"/>
<stop offset="1" stop-color="#6992EC"/>
</linearGradient>
<linearGradient id="paint1_linear_623_1551" x1="94" y1="-14.2" x2="163.714" y2="23.2857" gradientUnits="userSpaceOnUse">
<stop stop-color="#2C5EBE"/>
<stop offset="1" stop-color="#6992EC"/>
</linearGradient>
<linearGradient id="paint2_linear_623_1551" x1="154.45" y1="47.5" x2="238.3" y2="160.6" gradientUnits="userSpaceOnUse">
<stop stop-color="white"/>
<stop offset="1" stop-color="#6992EC"/>
</linearGradient>
<linearGradient id="paint3_linear_623_1551" x1="60.5" y1="148" x2="125" y2="235" gradientUnits="userSpaceOnUse">
<stop stop-color="white"/>
<stop offset="1" stop-color="#6992EC"/>
</linearGradient>
<linearGradient id="paint4_linear_623_1551" x1="120.5" y1="130" x2="185" y2="217" gradientUnits="userSpaceOnUse">
<stop stop-color="white"/>
<stop offset="1" stop-color="#6992EC"/>
</linearGradient>
<clipPath id="clip0_623_1551">
<rect width="197" height="154" rx="10" fill="white"/>
</clipPath>
</defs>
</svg>
