<svg width="388" height="500" viewBox="0 0 388 500" fill="none" xmlns="http://www.w3.org/2000/svg">
<g clip-path="url(#clip0_476_1725)">
<path d="M462.5 321.5L37.008 464.997" stroke="url(#paint0_linear_476_1725)"/>
<path d="M461.008 408.496L106.008 528.996" stroke="url(#paint1_linear_476_1725)"/>
<path opacity="0.8" d="M462.999 236.5L-34.0027 409.001" stroke="url(#paint2_linear_476_1725)"/>
<path opacity="0.6" d="M470.999 212.5L79.9499 350.367" stroke="url(#paint3_linear_476_1725)"/>
<path opacity="0.5" d="M465 168.5L105.549 291.283" stroke="url(#paint4_linear_476_1725)"/>
<path opacity="0.3" d="M521.002 108.499L166.002 228.999" stroke="url(#paint5_linear_476_1725)"/>
<path d="M304.813 363.747L266.386 377.961L192.508 330.494L240.896 317.429C241.952 317.144 243.065 317.153 244.115 317.454L304.386 334.749C306.959 335.487 308.731 337.84 308.731 340.516L308.731 358.12C308.732 360.631 307.168 362.876 304.813 363.747Z" fill="url(#paint6_linear_476_1725)"/>
<path d="M269.424 354.217C269.353 351.561 267.544 349.268 264.978 348.581L196.44 330.226C192.542 329.182 188.745 332.207 188.892 336.24L189.524 353.631C189.619 356.241 191.39 358.489 193.905 359.192L262.293 378.31C266.183 379.397 270.014 376.409 269.907 372.372L269.424 354.217Z" fill="#4671F6"/>
<path d="M304.813 326.747L266.386 340.961L192.508 293.494L240.896 280.429C241.952 280.144 243.065 280.153 244.115 280.454L304.386 297.749C306.959 298.487 308.731 300.84 308.731 303.516L308.731 321.12C308.732 323.631 307.168 325.876 304.813 326.747Z" fill="url(#paint7_linear_476_1725)"/>
<path d="M269.424 317.217C269.353 314.561 267.544 312.268 264.978 311.581L196.44 293.226C192.542 292.182 188.745 295.207 188.892 299.24L189.524 316.631C189.619 319.241 191.39 321.489 193.905 322.192L262.293 341.31C266.183 342.397 270.014 339.409 269.907 335.372L269.424 317.217Z" fill="#4671F6"/>
<path d="M304.814 289.748L266.387 303.962L192.509 256.495L240.897 243.43C241.953 243.145 243.066 243.154 244.116 243.455L304.387 260.75C306.96 261.488 308.732 263.841 308.732 266.517L308.732 284.121C308.733 286.632 307.169 288.877 304.814 289.748Z" fill="url(#paint8_linear_476_1725)"/>
<path d="M269.425 280.218C269.354 277.562 267.545 275.269 264.979 274.582L196.441 256.227C192.543 255.183 188.746 258.208 188.893 262.241L189.525 279.632C189.62 282.242 191.391 284.49 193.906 285.193L262.294 304.311C266.184 305.398 270.015 302.41 269.908 298.373L269.425 280.218Z" fill="#4671F6"/>
<g opacity="0.5" filter="url(#filter0_f_476_1725)">
<path d="M170.492 313.435L161.173 316.881L138.6 302.378L152.265 298.688C153.32 298.403 154.433 298.412 155.484 298.713L170.098 302.907C172.474 303.589 174.112 305.762 174.112 308.235C174.112 310.555 172.668 312.63 170.492 313.435Z" fill="url(#paint9_linear_476_1725)"/>
<path d="M162.154 311.597C162.102 309.617 160.753 307.907 158.839 307.394L143.137 303.189C140.288 302.426 137.513 304.637 137.62 307.584C137.69 309.491 138.984 311.135 140.822 311.648L156.477 316.025C159.378 316.836 162.234 314.607 162.154 311.597Z" fill="#4671F6"/>
<path d="M170.492 302.129L161.173 305.576L138.6 291.072L152.265 287.382C153.32 287.097 154.433 287.106 155.484 287.407L170.098 291.601C172.474 292.283 174.112 294.457 174.112 296.93C174.112 299.249 172.668 301.324 170.492 302.129Z" fill="url(#paint10_linear_476_1725)"/>
<path d="M162.154 300.291C162.102 298.311 160.753 296.601 158.839 296.089L143.137 291.884C140.288 291.121 137.513 293.331 137.62 296.279C137.69 298.186 138.984 299.829 140.822 300.343L156.477 304.719C159.378 305.53 162.234 303.302 162.154 300.291Z" fill="#4671F6"/>
<path d="M170.493 290.824L161.174 294.271L138.601 279.767L152.266 276.077C153.321 275.792 154.434 275.801 155.485 276.102L170.099 280.296C172.475 280.978 174.113 283.152 174.113 285.624C174.113 287.944 172.669 290.019 170.493 290.824Z" fill="url(#paint11_linear_476_1725)"/>
<path d="M162.155 288.986C162.103 287.006 160.754 285.296 158.84 284.783L143.138 280.578C140.289 279.815 137.514 282.026 137.621 284.974C137.691 286.881 138.985 288.524 140.823 289.038L156.478 293.414C159.378 294.225 162.235 291.997 162.155 288.986Z" fill="#4671F6"/>
</g>
<g filter="url(#filter1_f_476_1725)">
<path d="M364.426 388.834L342.467 396.956L297.319 367.949L326.262 360.134C327.318 359.849 328.431 359.857 329.482 360.159L363.999 370.064C366.572 370.802 368.344 373.155 368.344 375.831L368.345 383.206C368.345 385.717 366.781 387.963 364.426 388.834Z" fill="url(#paint12_linear_476_1725)"/>
<path d="M344.37 384.187C344.3 381.532 342.491 379.238 339.924 378.551L302.773 368.602C298.875 367.558 295.078 370.583 295.225 374.616L295.434 380.385C295.529 382.994 297.3 385.242 299.815 385.945L336.922 396.318C340.811 397.406 344.642 394.418 344.535 390.38L344.37 384.187Z" fill="#4671F6"/>
<path d="M364.426 366.222L342.467 374.345L297.319 345.337L326.262 337.522C327.318 337.237 328.431 337.246 329.482 337.548L363.999 347.453C366.572 348.191 368.344 350.543 368.344 353.22L368.345 360.595C368.345 363.106 366.781 365.351 364.426 366.222Z" fill="url(#paint13_linear_476_1725)"/>
<path d="M344.37 361.576C344.3 358.92 342.491 356.627 339.924 355.94L302.773 345.991C298.875 344.947 295.078 347.971 295.225 352.004L295.434 357.773C295.529 360.383 297.3 362.631 299.815 363.334L336.922 373.707C340.811 374.794 344.642 371.806 344.535 367.769L344.37 361.576Z" fill="#4671F6"/>
<path d="M364.426 343.612L342.467 351.735L297.319 322.727L326.262 314.912C327.318 314.627 328.431 314.636 329.482 314.937L363.999 324.842C366.572 325.58 368.344 327.933 368.344 330.609L368.345 337.985C368.345 340.495 366.781 342.741 364.426 343.612Z" fill="url(#paint14_linear_476_1725)"/>
<path d="M344.37 338.966C344.3 336.31 342.491 334.017 339.924 333.329L302.773 323.38C298.875 322.336 295.078 325.361 295.225 329.394L295.434 335.163C295.529 337.772 297.3 340.021 299.815 340.724L336.922 351.097C340.811 352.184 344.642 349.196 344.535 345.159L344.37 338.966Z" fill="#4671F6"/>
</g>
<g filter="url(#filter2_f_476_1725)">
<path d="M52.0078 275.998L210.5 98.5L466.008 96.9971L512.008 464.997L188.508 446.497L52.0078 275.998Z" fill="url(#paint15_linear_476_1725)" fill-opacity="0.2"/>
</g>
<g filter="url(#filter3_dd_476_1725)">
<path fill-rule="evenodd" clip-rule="evenodd" d="M48.0072 280.997L36.0069 285.997L37.0069 289.997L44.0231 287.398C44.0116 287.595 44.0058 287.795 44.0058 287.999L44.0058 399.999C44.0058 405.522 48.2986 411.27 53.594 412.839L173.865 448.465L178.008 455.997L188.476 451.635C191.513 450.856 193.582 448.139 193.582 444.305L193.582 332.305C193.582 326.782 189.289 321.034 183.993 319.465L53.594 280.839C51.5222 280.225 49.604 280.342 48.0362 281.043L48.0072 280.997Z" fill="url(#paint16_linear_476_1725)"/>
<rect width="156" height="132" rx="10" transform="matrix(0.95882 0.284015 -5.4602e-09 1 32.0059 282.999)" fill="url(#paint17_linear_476_1725)"/>
</g>
<path d="M84.2432 345.921C83.2994 345.669 82.3536 345.538 81.4182 345.511C80.5036 345.484 79.7202 344.863 79.4848 343.98L78.2057 339.205L74.1807 340.282L75.4473 345.009C75.6807 345.88 75.339 346.821 74.5661 347.288C72.8598 348.317 71.3994 349.755 70.339 351.505C69.8723 352.271 68.9307 352.605 68.0661 352.371L65.4473 351.671L64.3682 355.696L66.9869 356.398C67.8536 356.63 68.5015 357.39 68.5202 358.288C68.564 360.311 69.0973 362.265 70.0411 363.994C70.4702 364.784 70.2952 365.763 69.6619 366.398L66.2765 369.784L69.2244 372.73L72.614 369.34C73.2619 368.692 74.2557 368.544 75.0619 368.984C75.9015 369.442 76.8077 369.813 77.7744 370.071C78.764 370.336 79.7557 370.469 80.7369 370.486C81.6557 370.503 82.4473 371.13 82.6848 372.017L83.8869 376.505L87.9119 375.425L86.6994 370.9C86.4682 370.036 86.8036 369.103 87.5661 368.632C89.2223 367.609 90.639 366.2 91.6765 364.49C92.1432 363.723 93.0827 363.386 93.9494 363.619L96.5682 364.321L97.6473 360.296L95.0286 359.594C94.1619 359.363 93.514 358.603 93.4952 357.705C93.4515 355.682 92.9182 353.728 91.9744 351.998C91.5452 351.209 91.7202 350.23 92.3536 349.594L95.739 346.209L92.7911 343.263L89.4015 346.653C88.7536 347.3 87.7598 347.448 86.9536 347.009C86.114 346.55 85.2098 346.182 84.2432 345.921Z" fill="#C0C0C0"/>
<path d="M62.8971 357.311C65.1983 357.311 67.0638 355.445 67.0638 353.144C67.0638 350.843 65.1983 348.978 62.8971 348.978C60.5959 348.978 58.7305 350.843 58.7305 353.144C58.7305 355.445 60.5959 357.311 62.8971 357.311Z" fill="#585858"/>
<path d="M67.7497 375.421C70.0509 375.421 71.9163 373.556 71.9163 371.255C71.9163 368.953 70.0509 367.088 67.7497 367.088C65.4485 367.088 63.583 368.953 63.583 371.255C63.583 373.556 65.4485 375.421 67.7497 375.421Z" fill="#585858"/>
<path d="M85.862 380.273C88.1632 380.273 90.0286 378.408 90.0286 376.107C90.0286 373.805 88.1632 371.94 85.862 371.94C83.5608 371.94 81.6953 373.805 81.6953 376.107C81.6953 378.408 83.5608 380.273 85.862 380.273Z" fill="#585858"/>
<path d="M99.1178 367.015C101.419 367.015 103.285 365.149 103.285 362.848C103.285 360.547 101.419 358.682 99.1178 358.682C96.8167 358.682 94.9512 360.547 94.9512 362.848C94.9512 365.149 96.8167 367.015 99.1178 367.015Z" fill="#585858"/>
<path d="M94.2663 348.905C96.5675 348.905 98.4329 347.039 98.4329 344.738C98.4329 342.437 96.5675 340.571 94.2663 340.571C91.9651 340.571 90.0996 342.437 90.0996 344.738C90.0996 347.039 91.9651 348.905 94.2663 348.905Z" fill="#585858"/>
<path d="M76.154 344.053C78.4552 344.053 80.3206 342.187 80.3206 339.886C80.3206 337.585 78.4552 335.719 76.154 335.719C73.8528 335.719 71.9873 337.585 71.9873 339.886C71.9873 342.187 73.8528 344.053 76.154 344.053Z" fill="#585858"/>
<path d="M84.1328 366.33C85.8587 366.33 87.2578 364.93 87.2578 363.205C87.2578 361.479 85.8587 360.08 84.1328 360.08C82.4069 360.08 81.0078 361.479 81.0078 363.205C81.0078 364.93 82.4069 366.33 84.1328 366.33Z" fill="#585858"/>
<path d="M87.2581 355.913C88.4087 355.913 89.3415 354.98 89.3415 353.829C89.3415 352.679 88.4087 351.746 87.2581 351.746C86.1075 351.746 85.1748 352.679 85.1748 353.829C85.1748 354.98 86.1075 355.913 87.2581 355.913Z" fill="#585858"/>
<path d="M76.8415 360.079C79.1427 360.079 81.0081 358.214 81.0081 355.913C81.0081 353.612 79.1427 351.746 76.8415 351.746C74.5403 351.746 72.6748 353.612 72.6748 355.913C72.6748 358.214 74.5403 360.079 76.8415 360.079Z" fill="#585858"/>
<g filter="url(#filter4_f_476_1725)">
<path d="M32.9504 370.751C32.3841 370.6 31.8166 370.521 31.2554 370.505C30.7066 370.489 30.2366 370.116 30.0954 369.586L29.3279 366.721L26.9129 367.367L27.6729 370.204C27.8129 370.726 27.6079 371.291 27.1441 371.571C26.1204 372.189 25.2441 373.051 24.6079 374.101C24.3279 374.561 23.7629 374.761 23.2441 374.621L21.6729 374.201L21.0254 376.616L22.5966 377.037C23.1166 377.176 23.5054 377.632 23.5166 378.171C23.5429 379.385 23.8629 380.557 24.4291 381.595C24.6866 382.069 24.5816 382.656 24.2016 383.037L22.1704 385.069L23.9391 386.836L25.9729 384.802C26.3616 384.414 26.9579 384.325 27.4416 384.589C27.9454 384.864 28.4891 385.086 29.0691 385.241C29.6629 385.4 30.2579 385.48 30.8466 385.49C31.3979 385.5 31.8729 385.876 32.0154 386.409L32.7366 389.101L35.1516 388.454L34.4241 385.739C34.2854 385.22 34.4866 384.66 34.9441 384.377C35.9379 383.764 36.7879 382.919 37.4104 381.892C37.6904 381.432 38.2541 381.23 38.7741 381.37L40.3454 381.791L40.9929 379.376L39.4216 378.955C38.9016 378.816 38.5129 378.36 38.5016 377.821C38.4754 376.607 38.1554 375.435 37.5891 374.397C37.3316 373.924 37.4366 373.336 37.8166 372.955L39.8479 370.924L38.0791 369.156L36.0454 371.19C35.6566 371.579 35.0604 371.667 34.5766 371.404C34.0729 371.129 33.5304 370.907 32.9504 370.751Z" fill="#C0C0C0"/>
<path d="M20.1426 377.585C21.5233 377.585 22.6426 376.466 22.6426 375.085C22.6426 373.704 21.5233 372.585 20.1426 372.585C18.7619 372.585 17.6426 373.704 17.6426 375.085C17.6426 376.466 18.7619 377.585 20.1426 377.585Z" fill="#585858"/>
<path d="M23.0537 388.451C24.4344 388.451 25.5537 387.332 25.5537 385.951C25.5537 384.57 24.4344 383.451 23.0537 383.451C21.673 383.451 20.5537 384.57 20.5537 385.951C20.5537 387.332 21.673 388.451 23.0537 388.451Z" fill="#585858"/>
<path d="M33.9209 391.362C35.3016 391.362 36.4209 390.243 36.4209 388.862C36.4209 387.482 35.3016 386.362 33.9209 386.362C32.5402 386.362 31.4209 387.482 31.4209 388.862C31.4209 390.243 32.5402 391.362 33.9209 391.362Z" fill="#585858"/>
<path d="M41.875 383.407C43.2557 383.407 44.375 382.288 44.375 380.907C44.375 379.527 43.2557 378.407 41.875 378.407C40.4943 378.407 39.375 379.527 39.375 380.907C39.375 382.288 40.4943 383.407 41.875 383.407Z" fill="#585858"/>
<path d="M38.9639 372.541C40.3446 372.541 41.4639 371.422 41.4639 370.041C41.4639 368.66 40.3446 367.541 38.9639 367.541C37.5832 367.541 36.4639 368.66 36.4639 370.041C36.4639 371.422 37.5832 372.541 38.9639 372.541Z" fill="#585858"/>
<path d="M28.0967 369.63C29.4774 369.63 30.5967 368.511 30.5967 367.13C30.5967 365.749 29.4774 364.63 28.0967 364.63C26.716 364.63 25.5967 365.749 25.5967 367.13C25.5967 368.511 26.716 369.63 28.0967 369.63Z" fill="#585858"/>
<path d="M32.8838 382.996C33.9193 382.996 34.7588 382.157 34.7588 381.121C34.7588 380.086 33.9193 379.246 32.8838 379.246C31.8483 379.246 31.0088 380.086 31.0088 381.121C31.0088 382.157 31.8483 382.996 32.8838 382.996Z" fill="#585858"/>
<path d="M34.7588 376.746C35.4491 376.746 36.0088 376.186 36.0088 375.496C36.0088 374.806 35.4491 374.246 34.7588 374.246C34.0684 374.246 33.5088 374.806 33.5088 375.496C33.5088 376.186 34.0684 376.746 34.7588 376.746Z" fill="#585858"/>
<path d="M28.5088 379.246C29.8895 379.246 31.0088 378.127 31.0088 376.746C31.0088 375.365 29.8895 374.246 28.5088 374.246C27.1281 374.246 26.0088 375.365 26.0088 376.746C26.0088 378.127 27.1281 379.246 28.5088 379.246Z" fill="#585858"/>
</g>
<g filter="url(#filter5_f_476_1725)">
<path d="M148.303 398.166C147.925 398.065 147.547 398.013 147.173 398.002C146.807 397.991 146.493 397.743 146.399 397.389L145.888 395.479L144.278 395.91L144.784 397.801C144.878 398.149 144.741 398.526 144.432 398.713C143.749 399.124 143.165 399.699 142.741 400.399C142.554 400.706 142.178 400.839 141.832 400.746L140.784 400.466L140.353 402.076L141.4 402.357C141.747 402.449 142.006 402.754 142.013 403.113C142.031 403.922 142.244 404.704 142.622 405.395C142.793 405.711 142.723 406.103 142.47 406.357L141.116 407.711L142.295 408.889L143.651 407.534C143.91 407.274 144.308 407.215 144.63 407.391C144.966 407.574 145.328 407.723 145.715 407.826C146.111 407.932 146.508 407.985 146.9 407.992C147.268 407.999 147.584 408.249 147.679 408.604L148.16 410.399L149.77 409.968L149.285 408.158C149.193 407.812 149.327 407.439 149.632 407.25C150.294 406.841 150.861 406.278 151.276 405.594C151.463 405.287 151.838 405.152 152.185 405.245L153.233 405.526L153.664 403.916L152.617 403.635C152.27 403.543 152.011 403.239 152.003 402.879C151.986 402.07 151.773 401.289 151.395 400.597C151.223 400.281 151.293 399.889 151.547 399.635L152.901 398.281L151.722 397.103L150.366 398.459C150.107 398.718 149.709 398.777 149.387 398.601C149.051 398.418 148.689 398.27 148.303 398.166Z" fill="#C0C0C0"/>
<path d="M139.764 402.722C140.685 402.722 141.431 401.976 141.431 401.055C141.431 400.135 140.685 399.389 139.764 399.389C138.844 399.389 138.098 400.135 138.098 401.055C138.098 401.976 138.844 402.722 139.764 402.722Z" fill="#585858"/>
<path d="M141.706 409.966C142.626 409.966 143.372 409.22 143.372 408.299C143.372 407.379 142.626 406.633 141.706 406.633C140.785 406.633 140.039 407.379 140.039 408.299C140.039 409.22 140.785 409.966 141.706 409.966Z" fill="#585858"/>
<path d="M148.951 411.907C149.871 411.907 150.618 411.161 150.618 410.24C150.618 409.32 149.871 408.574 148.951 408.574C148.03 408.574 147.284 409.32 147.284 410.24C147.284 411.161 148.03 411.907 148.951 411.907Z" fill="#585858"/>
<path d="M154.253 406.603C155.173 406.603 155.919 405.857 155.919 404.937C155.919 404.016 155.173 403.27 154.253 403.27C153.332 403.27 152.586 404.016 152.586 404.937C152.586 405.857 153.332 406.603 154.253 406.603Z" fill="#585858"/>
<path d="M152.312 399.359C153.233 399.359 153.979 398.613 153.979 397.693C153.979 396.772 153.233 396.026 152.312 396.026C151.392 396.026 150.646 396.772 150.646 397.693C150.646 398.613 151.392 399.359 152.312 399.359Z" fill="#585858"/>
<path d="M145.067 397.419C145.988 397.419 146.734 396.673 146.734 395.752C146.734 394.832 145.988 394.085 145.067 394.085C144.147 394.085 143.4 394.832 143.4 395.752C143.4 396.673 144.147 397.419 145.067 397.419Z" fill="#585858"/>
<path d="M148.259 406.33C148.949 406.33 149.509 405.77 149.509 405.08C149.509 404.389 148.949 403.83 148.259 403.83C147.568 403.83 147.009 404.389 147.009 405.08C147.009 405.77 147.568 406.33 148.259 406.33Z" fill="#585858"/>
<path d="M149.509 402.163C149.969 402.163 150.342 401.79 150.342 401.329C150.342 400.869 149.969 400.496 149.509 400.496C149.049 400.496 148.676 400.869 148.676 401.329C148.676 401.79 149.049 402.163 149.509 402.163Z" fill="#585858"/>
<path d="M145.342 403.829C146.263 403.829 147.009 403.083 147.009 402.163C147.009 401.242 146.263 400.496 145.342 400.496C144.422 400.496 143.676 401.242 143.676 402.163C143.676 403.083 144.422 403.829 145.342 403.829Z" fill="#585858"/>
</g>
<g clip-path="url(#clip1_476_1725)">
<path d="M277.181 207.889C277.316 205.408 275.63 202.543 273.255 201.359C263.386 196.444 264.144 188.718 253.53 185.27C242.916 181.821 243.675 190.04 233.805 188.541C231.43 188.179 225.364 190.928 225.499 193.499C226.517 212.905 237.126 225.077 252.5 236.999C267.873 235.067 276.163 226.634 277.181 207.889Z" fill="url(#paint18_linear_476_1725)"/>
</g>
<g clip-path="url(#clip2_476_1725)">
<path d="M272.181 210.889C272.317 208.408 270.631 205.543 268.256 204.359C258.386 199.445 259.145 191.719 248.531 188.27C237.917 184.821 238.676 193.04 228.806 191.541C226.431 191.179 224.745 192.949 224.881 195.52C225.898 214.926 233.157 226.347 248.531 238.27C263.905 236.338 271.164 229.634 272.181 210.889Z" fill="url(#paint19_linear_476_1725)"/>
<path d="M272.181 210.889C272.317 208.408 270.631 205.543 268.256 204.359C258.386 199.445 259.145 191.719 248.531 188.27C237.917 184.821 238.676 193.04 228.806 191.541C226.431 191.179 224.745 192.949 224.881 195.52C225.898 214.926 233.157 226.347 248.531 238.27C263.905 236.338 271.164 229.634 272.181 210.889Z" fill="url(#paint20_linear_476_1725)"/>
<path d="M272.181 210.889C272.317 208.408 270.631 205.543 268.256 204.359C258.386 199.445 259.145 191.719 248.531 188.27C237.917 184.821 238.676 193.04 228.806 191.541C226.431 191.179 224.745 192.949 224.881 195.52C225.898 214.926 233.157 226.347 248.531 238.27C263.905 236.338 271.164 229.634 272.181 210.889Z" fill="#4771F6"/>
</g>
<g filter="url(#filter6_f_476_1725)">
<g clip-path="url(#clip3_476_1725)">
<path d="M349.52 290.55C349.594 289.207 348.681 287.657 347.396 287.016C342.055 284.356 342.465 280.175 336.721 278.309C330.978 276.443 331.388 280.891 326.047 280.079C324.762 279.883 321.479 281.371 321.552 282.763C322.103 293.264 327.844 299.851 336.164 306.303C344.483 305.258 348.97 300.694 349.52 290.55Z" fill="url(#paint21_linear_476_1725)"/>
</g>
<g clip-path="url(#clip4_476_1725)">
<path d="M346.816 292.173C346.889 290.831 345.977 289.28 344.691 288.639C339.35 285.98 339.761 281.799 334.017 279.932C328.273 278.066 328.683 282.514 323.342 281.703C322.057 281.507 321.145 282.464 321.218 283.856C321.769 294.358 325.697 300.539 334.017 306.991C342.337 305.945 346.265 302.317 346.816 292.173Z" fill="url(#paint22_linear_476_1725)"/>
<path d="M346.816 292.174C346.889 290.831 345.977 289.281 344.691 288.64C339.35 285.98 339.761 281.799 334.017 279.933C328.273 278.067 328.683 282.514 323.342 281.703C322.057 281.507 321.145 282.465 321.218 283.857C321.769 294.358 325.697 300.539 334.017 306.991C342.337 305.946 346.265 302.318 346.816 292.174Z" fill="url(#paint23_linear_476_1725)"/>
<path d="M346.816 292.174C346.889 290.831 345.977 289.281 344.691 288.64C339.35 285.98 339.761 281.799 334.017 279.933C328.273 278.067 328.683 282.514 323.342 281.703C322.057 281.507 321.145 282.465 321.218 283.857C321.769 294.358 325.697 300.539 334.017 306.991C342.337 305.946 346.265 302.318 346.816 292.174Z" fill="#4771F6"/>
</g>
</g>
<g opacity="0.5" filter="url(#filter7_f_476_1725)">
<g clip-path="url(#clip5_476_1725)">
<path d="M164.157 261.133C164.2 260.357 163.673 259.461 162.93 259.09C159.842 257.553 160.079 255.136 156.759 254.057C153.439 252.978 153.676 255.549 150.589 255.08C149.846 254.967 147.949 255.827 147.991 256.632C148.309 262.702 151.628 266.509 156.437 270.239C161.246 269.634 163.839 266.996 164.157 261.133Z" fill="url(#paint24_linear_476_1725)"/>
</g>
<g clip-path="url(#clip6_476_1725)">
<path d="M162.593 262.072C162.635 261.295 162.108 260.399 161.365 260.029C158.277 258.491 158.515 256.075 155.194 254.996C151.874 253.917 152.112 256.488 149.024 256.019C148.281 255.906 147.754 256.46 147.796 257.264C148.115 263.334 150.385 266.907 155.194 270.636C160.004 270.032 162.274 267.935 162.593 262.072Z" fill="url(#paint25_linear_476_1725)"/>
<path d="M162.593 262.072C162.635 261.295 162.108 260.399 161.365 260.029C158.277 258.491 158.515 256.075 155.194 254.996C151.874 253.917 152.112 256.488 149.024 256.019C148.281 255.906 147.754 256.46 147.796 257.264C148.115 263.334 150.385 266.907 155.194 270.636C160.004 270.032 162.274 267.935 162.593 262.072Z" fill="url(#paint26_linear_476_1725)"/>
<path d="M162.593 262.072C162.635 261.295 162.108 260.399 161.365 260.029C158.277 258.491 158.515 256.075 155.194 254.996C151.874 253.917 152.112 256.488 149.024 256.019C148.281 255.906 147.754 256.46 147.796 257.264C148.115 263.334 150.385 266.907 155.194 270.636C160.004 270.032 162.274 267.935 162.593 262.072Z" fill="#4771F6"/>
</g>
</g>
</g>
<defs>
<filter id="filter0_f_476_1725" x="133.617" y="271.87" width="44.4961" height="49.0117" filterUnits="userSpaceOnUse" color-interpolation-filters="sRGB">
<feFlood flood-opacity="0" result="BackgroundImageFix"/>
<feBlend mode="normal" in="SourceGraphic" in2="BackgroundImageFix" result="shape"/>
<feGaussianBlur stdDeviation="2" result="effect1_foregroundBlur_476_1725"/>
</filter>
<filter id="filter1_f_476_1725" x="291.221" y="310.705" width="81.124" height="90.2515" filterUnits="userSpaceOnUse" color-interpolation-filters="sRGB">
<feFlood flood-opacity="0" result="BackgroundImageFix"/>
<feBlend mode="normal" in="SourceGraphic" in2="BackgroundImageFix" result="shape"/>
<feGaussianBlur stdDeviation="2" result="effect1_foregroundBlur_476_1725"/>
</filter>
<filter id="filter2_f_476_1725" x="40.0078" y="84.9971" width="484" height="392" filterUnits="userSpaceOnUse" color-interpolation-filters="sRGB">
<feFlood flood-opacity="0" result="BackgroundImageFix"/>
<feBlend mode="normal" in="SourceGraphic" in2="BackgroundImageFix" result="shape"/>
<feGaussianBlur stdDeviation="6" result="effect1_foregroundBlur_476_1725"/>
</filter>
<filter id="filter3_dd_476_1725" x="19.0059" y="279.441" width="191.576" height="207.422" filterUnits="userSpaceOnUse" color-interpolation-filters="sRGB">
<feFlood flood-opacity="0" result="BackgroundImageFix"/>
<feColorMatrix in="SourceAlpha" type="matrix" values="0 0 0 0 0 0 0 0 0 0 0 0 0 0 0 0 0 0 127 0" result="hardAlpha"/>
<feOffset dx="2" dy="15"/>
<feGaussianBlur stdDeviation="7.5"/>
<feComposite in2="hardAlpha" operator="out"/>
<feColorMatrix type="matrix" values="0 0 0 0 0.278431 0 0 0 0 0.443137 0 0 0 0 0.964706 0 0 0 0.05 0"/>
<feBlend mode="normal" in2="BackgroundImageFix" result="effect1_dropShadow_476_1725"/>
<feColorMatrix in="SourceAlpha" type="matrix" values="0 0 0 0 0 0 0 0 0 0 0 0 0 0 0 0 0 0 127 0" result="hardAlpha"/>
<feOffset dx="2" dy="2"/>
<feGaussianBlur stdDeviation="1.5"/>
<feComposite in2="hardAlpha" operator="out"/>
<feColorMatrix type="matrix" values="0 0 0 0 0.278431 0 0 0 0 0.443137 0 0 0 0 0.964706 0 0 0 0.1 0"/>
<feBlend mode="normal" in2="effect1_dropShadow_476_1725" result="effect2_dropShadow_476_1725"/>
<feBlend mode="normal" in="SourceGraphic" in2="effect2_dropShadow_476_1725" result="shape"/>
</filter>
<filter id="filter4_f_476_1725" x="12.0088" y="358.996" width="38" height="38" filterUnits="userSpaceOnUse" color-interpolation-filters="sRGB">
<feFlood flood-opacity="0" result="BackgroundImageFix"/>
<feBlend mode="normal" in="SourceGraphic" in2="BackgroundImageFix" result="shape"/>
<feGaussianBlur stdDeviation="2" result="effect1_foregroundBlur_476_1725"/>
</filter>
<filter id="filter5_f_476_1725" x="133.009" y="388.996" width="28" height="28" filterUnits="userSpaceOnUse" color-interpolation-filters="sRGB">
<feFlood flood-opacity="0" result="BackgroundImageFix"/>
<feBlend mode="normal" in="SourceGraphic" in2="BackgroundImageFix" result="shape"/>
<feGaussianBlur stdDeviation="2" result="effect1_foregroundBlur_476_1725"/>
</filter>
<filter id="filter6_f_476_1725" x="316.576" y="268.586" width="37.5859" height="48.1274" filterUnits="userSpaceOnUse" color-interpolation-filters="sRGB">
<feFlood flood-opacity="0" result="BackgroundImageFix"/>
<feBlend mode="normal" in="SourceGraphic" in2="BackgroundImageFix" result="shape"/>
<feGaussianBlur stdDeviation="1" result="effect1_foregroundBlur_476_1725"/>
</filter>
<filter id="filter7_f_476_1725" x="144.27" y="247.593" width="23.415" height="29.5068" filterUnits="userSpaceOnUse" color-interpolation-filters="sRGB">
<feFlood flood-opacity="0" result="BackgroundImageFix"/>
<feBlend mode="normal" in="SourceGraphic" in2="BackgroundImageFix" result="shape"/>
<feGaussianBlur stdDeviation="1" result="effect1_foregroundBlur_476_1725"/>
</filter>
<linearGradient id="paint0_linear_476_1725" x1="130.008" y1="434.996" x2="37.0076" y2="465.996" gradientUnits="userSpaceOnUse">
<stop stop-color="#D0D9EB"/>
<stop offset="1" stop-color="#D0D9EB" stop-opacity="0"/>
</linearGradient>
<linearGradient id="paint1_linear_476_1725" x1="370.008" y1="426.996" x2="106.008" y2="537.996" gradientUnits="userSpaceOnUse">
<stop stop-color="#D0D9EB"/>
<stop offset="1" stop-color="#D0D9EB" stop-opacity="0"/>
</linearGradient>
<linearGradient id="paint2_linear_476_1725" x1="37.998" y1="385" x2="-34.002" y2="407" gradientUnits="userSpaceOnUse">
<stop stop-color="#D0D9EB"/>
<stop offset="1" stop-color="#D0D9EB" stop-opacity="0"/>
</linearGradient>
<linearGradient id="paint3_linear_476_1725" x1="144.251" y1="316.112" x2="79.8464" y2="342.225" gradientUnits="userSpaceOnUse">
<stop stop-color="#D0D9EB"/>
<stop offset="1" stop-color="#D0D9EB" stop-opacity="0"/>
</linearGradient>
<linearGradient id="paint4_linear_476_1725" x1="285.779" y1="230.139" x2="105.316" y2="288.521" gradientUnits="userSpaceOnUse">
<stop stop-color="#D0D9EB"/>
<stop offset="1" stop-color="#D0D9EB" stop-opacity="0"/>
</linearGradient>
<linearGradient id="paint5_linear_476_1725" x1="270.002" y1="191.999" x2="166.002" y2="229.999" gradientUnits="userSpaceOnUse">
<stop stop-color="#D0D9EB"/>
<stop offset="1" stop-color="#D0D9EB" stop-opacity="0"/>
</linearGradient>
<linearGradient id="paint6_linear_476_1725" x1="255.718" y1="270.166" x2="317.091" y2="392.646" gradientUnits="userSpaceOnUse">
<stop stop-color="#5780FF"/>
<stop offset="0.536458" stop-color="#698EFF"/>
<stop offset="0.635417" stop-color="#A4BCFD"/>
<stop offset="1" stop-color="#A4BCFD"/>
</linearGradient>
<linearGradient id="paint7_linear_476_1725" x1="255.718" y1="233.166" x2="317.091" y2="355.646" gradientUnits="userSpaceOnUse">
<stop stop-color="#5780FF"/>
<stop offset="0.536458" stop-color="#698EFF"/>
<stop offset="0.635417" stop-color="#A4BCFD"/>
<stop offset="1" stop-color="#A4BCFD"/>
</linearGradient>
<linearGradient id="paint8_linear_476_1725" x1="255.719" y1="196.167" x2="317.092" y2="318.646" gradientUnits="userSpaceOnUse">
<stop stop-color="#5780FF"/>
<stop offset="0.536458" stop-color="#698EFF"/>
<stop offset="0.635417" stop-color="#A4BCFD"/>
<stop offset="1" stop-color="#A4BCFD"/>
</linearGradient>
<linearGradient id="paint9_linear_476_1725" x1="157.914" y1="283.944" x2="176.667" y2="321.368" gradientUnits="userSpaceOnUse">
<stop stop-color="#5780FF"/>
<stop offset="0.536458" stop-color="#698EFF"/>
<stop offset="0.635417" stop-color="#A4BCFD"/>
<stop offset="1" stop-color="#A4BCFD"/>
</linearGradient>
<linearGradient id="paint10_linear_476_1725" x1="157.914" y1="272.638" x2="176.667" y2="310.063" gradientUnits="userSpaceOnUse">
<stop stop-color="#5780FF"/>
<stop offset="0.536458" stop-color="#698EFF"/>
<stop offset="0.635417" stop-color="#A4BCFD"/>
<stop offset="1" stop-color="#A4BCFD"/>
</linearGradient>
<linearGradient id="paint11_linear_476_1725" x1="157.915" y1="261.333" x2="176.668" y2="298.757" gradientUnits="userSpaceOnUse">
<stop stop-color="#5780FF"/>
<stop offset="0.536458" stop-color="#698EFF"/>
<stop offset="0.635417" stop-color="#A4BCFD"/>
<stop offset="1" stop-color="#A4BCFD"/>
</linearGradient>
<linearGradient id="paint12_linear_476_1725" x1="335.947" y1="331.081" x2="373.453" y2="405.93" gradientUnits="userSpaceOnUse">
<stop stop-color="#5780FF"/>
<stop offset="0.536458" stop-color="#698EFF"/>
<stop offset="0.635417" stop-color="#A4BCFD"/>
<stop offset="1" stop-color="#A4BCFD"/>
</linearGradient>
<linearGradient id="paint13_linear_476_1725" x1="335.947" y1="308.47" x2="373.453" y2="383.319" gradientUnits="userSpaceOnUse">
<stop stop-color="#5780FF"/>
<stop offset="0.536458" stop-color="#698EFF"/>
<stop offset="0.635417" stop-color="#A4BCFD"/>
<stop offset="1" stop-color="#A4BCFD"/>
</linearGradient>
<linearGradient id="paint14_linear_476_1725" x1="335.947" y1="285.86" x2="373.453" y2="360.708" gradientUnits="userSpaceOnUse">
<stop stop-color="#5780FF"/>
<stop offset="0.536458" stop-color="#698EFF"/>
<stop offset="0.635417" stop-color="#A4BCFD"/>
<stop offset="1" stop-color="#A4BCFD"/>
</linearGradient>
<linearGradient id="paint15_linear_476_1725" x1="139.007" y1="333.996" x2="287.007" y2="190.996" gradientUnits="userSpaceOnUse">
<stop stop-color="#4671F6"/>
<stop offset="1" stop-color="#4671F6" stop-opacity="0"/>
</linearGradient>
<linearGradient id="paint16_linear_476_1725" x1="191.665" y1="443.118" x2="36.4674" y2="278.845" gradientUnits="userSpaceOnUse">
<stop stop-color="#E0E4EF"/>
<stop offset="0.260417" stop-color="#E0E4EF"/>
<stop offset="0.354167" stop-color="#D3D8E6"/>
<stop offset="0.515625" stop-color="#E9E9F5"/>
<stop offset="1" stop-color="#F0F0F7"/>
</linearGradient>
<linearGradient id="paint17_linear_476_1725" x1="0.00127572" y1="23.9974" x2="112.495" y2="154.461" gradientUnits="userSpaceOnUse">
<stop stop-color="white"/>
<stop offset="0.25" stop-color="#F1F3F6"/>
<stop offset="0.515625" stop-color="white"/>
<stop offset="1" stop-color="white"/>
</linearGradient>
<linearGradient id="paint18_linear_476_1725" x1="253.531" y1="185.27" x2="238.836" y2="230.495" gradientUnits="userSpaceOnUse">
<stop stop-color="#B8CAEF"/>
<stop offset="1" stop-color="#4A74F6"/>
</linearGradient>
<linearGradient id="paint19_linear_476_1725" x1="248.531" y1="188.27" x2="233.836" y2="233.495" gradientUnits="userSpaceOnUse">
<stop stop-color="#B8CAEF"/>
<stop offset="1" stop-color="#4A74F6"/>
</linearGradient>
<linearGradient id="paint20_linear_476_1725" x1="248.531" y1="188.27" x2="233.836" y2="233.495" gradientUnits="userSpaceOnUse">
<stop stop-color="#B8CAEF"/>
<stop offset="1" stop-color="#4A74F6"/>
</linearGradient>
<linearGradient id="paint21_linear_476_1725" x1="336.722" y1="278.309" x2="328.769" y2="302.784" gradientUnits="userSpaceOnUse">
<stop stop-color="#B8CAEF"/>
<stop offset="1" stop-color="#4A74F6"/>
</linearGradient>
<linearGradient id="paint22_linear_476_1725" x1="334.017" y1="279.932" x2="326.065" y2="304.407" gradientUnits="userSpaceOnUse">
<stop stop-color="#B8CAEF"/>
<stop offset="1" stop-color="#4A74F6"/>
</linearGradient>
<linearGradient id="paint23_linear_476_1725" x1="334.017" y1="279.933" x2="326.065" y2="304.407" gradientUnits="userSpaceOnUse">
<stop stop-color="#B8CAEF"/>
<stop offset="1" stop-color="#4A74F6"/>
</linearGradient>
<linearGradient id="paint24_linear_476_1725" x1="156.759" y1="254.057" x2="152.163" y2="268.204" gradientUnits="userSpaceOnUse">
<stop stop-color="#B8CAEF"/>
<stop offset="1" stop-color="#4A74F6"/>
</linearGradient>
<linearGradient id="paint25_linear_476_1725" x1="155.194" y1="254.996" x2="150.598" y2="269.143" gradientUnits="userSpaceOnUse">
<stop stop-color="#B8CAEF"/>
<stop offset="1" stop-color="#4A74F6"/>
</linearGradient>
<linearGradient id="paint26_linear_476_1725" x1="155.194" y1="254.996" x2="150.598" y2="269.143" gradientUnits="userSpaceOnUse">
<stop stop-color="#B8CAEF"/>
<stop offset="1" stop-color="#4A74F6"/>
</linearGradient>
<clipPath id="clip0_476_1725">
<rect width="388" height="500" rx="10" fill="white"/>
</clipPath>
<clipPath id="clip1_476_1725">
<rect width="60" height="60" fill="white" transform="matrix(0.951057 0.309017 -5.4602e-09 1 224.999 171)"/>
</clipPath>
<clipPath id="clip2_476_1725">
<rect width="60" height="60" fill="white" transform="matrix(0.951057 0.309017 -5.4602e-09 1 219.999 174)"/>
</clipPath>
<clipPath id="clip3_476_1725">
<rect width="32.47" height="32.47" fill="white" transform="matrix(0.951057 0.309017 -5.4602e-09 1 321.281 270.586)"/>
</clipPath>
<clipPath id="clip4_476_1725">
<rect width="32.47" height="32.47" fill="white" transform="matrix(0.951057 0.309017 -5.4602e-09 1 318.576 272.21)"/>
</clipPath>
<clipPath id="clip5_476_1725">
<rect width="18.7687" height="18.7687" fill="white" transform="matrix(0.951057 0.309017 -5.4602e-09 1 147.834 249.593)"/>
</clipPath>
<clipPath id="clip6_476_1725">
<rect width="18.7687" height="18.7687" fill="white" transform="matrix(0.951057 0.309017 -5.4602e-09 1 146.27 250.532)"/>
</clipPath>
</defs>
</svg>
