<svg width="620" height="460" viewBox="0 0 620 460" fill="none" xmlns="http://www.w3.org/2000/svg">
<g clip-path="url(#clip0_623_1667)">
<g opacity="0.5" filter="url(#filter0_f_623_1667)">
<path d="M327.014 48.0078L565.171 185.508L565.171 460.508L327.014 598.008L88.8567 460.508L88.8567 185.508L327.014 48.0078Z" fill="#E8ECF5"/>
</g>
<g filter="url(#filter1_f_623_1667)">
<path d="M329.014 129.008L502.219 229.008L502.219 429.008L329.014 529.008L155.809 429.008L155.809 229.008L329.014 129.008Z" fill="#E8ECF5"/>
</g>
<rect x="215.598" y="321.56" width="227.62" height="139.231" fill="url(#paint0_linear_623_1667)"/>
<path d="M318.678 282.401C323.834 280.703 329.392 280.661 334.573 282.282L438.35 314.738C445.375 316.935 445.424 326.861 438.42 329.127L334.822 362.644C329.488 364.37 323.739 364.326 318.433 362.517L220.329 329.089C213.473 326.753 213.522 317.038 220.403 314.772L318.678 282.401Z" fill="white"/>
<g opacity="0.3" filter="url(#filter2_f_623_1667)">
<ellipse cx="325.503" cy="315.567" rx="41.5" ry="5.565" fill="#7294FF"/>
</g>
<path fill-rule="evenodd" clip-rule="evenodd" d="M300.836 266L298.003 266L298.003 254.667L300.836 254.667C303.964 254.667 306.503 252.122 306.503 249L306.503 209.333C306.503 206.211 303.964 203.667 300.836 203.667L298.003 203.667L298.003 192.333L300.836 192.333C310.209 192.333 317.836 199.961 317.836 209.333L317.836 223.5L326.336 223.5L326.336 234.833L317.836 234.833L317.836 249C317.836 258.373 310.209 266 300.836 266Z" fill="url(#paint1_linear_623_1667)"/>
<path d="M371.002 277.334L342.669 277.334C333.279 277.334 325.669 269.723 325.669 260.334L325.669 203.667C325.669 194.277 333.279 186.667 342.669 186.667L371.002 186.667C380.392 186.667 388.002 194.277 388.002 203.667L388.002 260.334C388.002 269.723 380.392 277.334 371.002 277.334Z" fill="#BDCEEE"/>
<path d="M287.003 215L275.669 215C269.408 215 264.336 209.928 264.336 203.667L264.336 192.333C264.336 186.072 269.408 181 275.669 181L287.003 181C293.264 181 298.336 186.072 298.336 192.333L298.336 203.667C298.336 209.928 293.264 215 287.003 215Z" fill="#BDCEEE"/>
<path d="M287.004 277.333L275.67 277.333C269.409 277.333 264.337 272.262 264.337 266L264.337 254.667C264.337 248.405 269.409 243.333 275.67 243.333L287.004 243.333C293.265 243.333 298.337 248.405 298.337 254.667L298.337 266C298.337 272.262 293.265 277.333 287.004 277.333Z" fill="#BDCEEE"/>
<path d="M368.17 215L345.503 215C340.811 215 337.003 211.198 337.003 206.5C337.003 201.802 340.811 198 345.503 198L368.17 198C372.862 198 376.67 201.802 376.67 206.5C376.67 211.198 372.862 215 368.17 215Z" fill="url(#paint2_linear_623_1667)"/>
<path d="M368.17 237.667L345.503 237.667C340.811 237.667 337.003 233.865 337.003 229.167C337.003 224.469 340.811 220.667 345.503 220.667L368.17 220.667C372.862 220.667 376.67 224.469 376.67 229.167C376.67 233.865 372.862 237.667 368.17 237.667Z" fill="url(#paint3_linear_623_1667)"/>
<path d="M356.836 266C361.53 266 365.336 262.194 365.336 257.5C365.336 252.806 361.53 249 356.836 249C352.142 249 348.336 252.806 348.336 257.5C348.336 262.194 352.142 266 356.836 266Z" fill="url(#paint4_linear_623_1667)"/>
<path d="M168.666 142.667C168.666 141.907 169.029 141.229 169.599 140.775C170.106 140.369 170.328 139.725 170.095 139.137C169.684 138.111 169.101 137.165 168.378 136.333C167.971 135.865 167.288 135.687 166.691 135.903C165.972 136.163 165.145 136.129 164.427 135.739C163.706 135.347 163.261 134.683 163.144 133.965C163.049 133.377 162.555 132.907 161.934 132.807C161.366 132.715 160.783 132.667 160.188 132.667C159.592 132.667 159.009 132.715 158.443 132.807C157.822 132.907 157.328 133.377 157.233 133.965C157.114 134.683 156.669 135.347 155.948 135.739C155.23 136.129 154.403 136.163 153.684 135.903C153.089 135.685 152.404 135.865 151.999 136.333C151.274 137.167 150.691 138.111 150.282 139.137C150.047 139.725 150.269 140.369 150.778 140.775C151.346 141.229 151.709 141.907 151.709 142.667C151.709 143.427 151.346 144.105 150.776 144.559C150.269 144.965 150.047 145.609 150.28 146.197C150.691 147.223 151.274 148.169 151.997 149.001C152.404 149.469 153.087 149.647 153.684 149.431C154.401 149.171 155.23 149.203 155.948 149.595C156.669 149.987 157.114 150.651 157.231 151.369C157.326 151.957 157.82 152.427 158.441 152.527C159.009 152.619 159.592 152.667 160.187 152.667C160.783 152.667 161.366 152.619 161.932 152.527C162.553 152.427 163.047 151.957 163.142 151.369C163.259 150.649 163.704 149.987 164.425 149.595C165.143 149.203 165.97 149.171 166.689 149.431C167.286 149.649 167.969 149.469 168.376 149.001C169.101 148.167 169.684 147.223 170.093 146.197C170.328 145.611 170.106 144.965 169.597 144.559C169.029 144.105 168.666 143.427 168.666 142.667ZM160.187 146.667C157.845 146.667 155.948 144.875 155.948 142.667C155.948 140.459 157.845 138.667 160.187 138.667C162.53 138.667 164.427 140.459 164.427 142.667C164.427 144.875 162.53 146.667 160.187 146.667Z" fill="#2457B8" fill-opacity="0.2"/>
<g filter="url(#filter3_f_623_1667)">
<path d="M166.951 282.667C166.951 281.907 167.314 281.229 167.884 280.775C168.391 280.369 168.613 279.725 168.38 279.137C167.969 278.111 167.386 277.165 166.663 276.333C166.256 275.865 165.574 275.687 164.976 275.903C164.257 276.163 163.431 276.129 162.712 275.739C161.991 275.347 161.546 274.683 161.43 273.965C161.334 273.377 160.84 272.907 160.219 272.807C159.651 272.715 159.068 272.667 158.473 272.667C157.877 272.667 157.294 272.715 156.728 272.807C156.107 272.907 155.613 273.377 155.518 273.965C155.399 274.683 154.954 275.347 154.233 275.739C153.515 276.129 152.688 276.163 151.969 275.903C151.374 275.685 150.689 275.865 150.284 276.333C149.559 277.167 148.976 278.111 148.567 279.137C148.332 279.725 148.555 280.369 149.063 280.775C149.631 281.229 149.994 281.907 149.994 282.667C149.994 283.427 149.631 284.105 149.061 284.559C148.555 284.965 148.332 285.609 148.565 286.197C148.976 287.223 149.559 288.169 150.282 289.001C150.689 289.469 151.372 289.647 151.969 289.431C152.686 289.171 153.515 289.203 154.233 289.595C154.954 289.987 155.399 290.651 155.516 291.369C155.611 291.957 156.105 292.427 156.726 292.527C157.294 292.619 157.877 292.667 158.473 292.667C159.068 292.667 159.651 292.619 160.217 292.527C160.838 292.427 161.332 291.957 161.428 291.369C161.544 290.649 161.989 289.987 162.71 289.595C163.428 289.203 164.255 289.171 164.974 289.431C165.571 289.649 166.254 289.469 166.661 289.001C167.386 288.167 167.969 287.223 168.378 286.197C168.613 285.611 168.391 284.965 167.882 284.559C167.314 284.105 166.951 283.427 166.951 282.667ZM158.473 286.667C156.13 286.667 154.233 284.875 154.233 282.667C154.233 280.459 156.13 278.667 158.473 278.667C160.815 278.667 162.712 280.459 162.712 282.667C162.712 284.875 160.815 286.667 158.473 286.667Z" fill="#2457B8" fill-opacity="0.05"/>
</g>
<path d="M329.906 117.667C329.906 116.527 330.449 115.51 331.305 114.829C332.065 114.22 332.398 113.254 332.049 112.372C331.432 110.833 330.557 109.414 329.473 108.166C328.863 107.464 327.839 107.197 326.942 107.521C325.864 107.911 324.624 107.86 323.547 107.275C322.466 106.687 321.798 105.691 321.623 104.614C321.48 103.732 320.739 103.027 319.807 102.877C318.955 102.739 318.081 102.667 317.187 102.667C316.294 102.667 315.42 102.739 314.571 102.877C313.639 103.027 312.898 103.732 312.755 104.614C312.577 105.691 311.909 106.687 310.828 107.275C309.751 107.86 308.511 107.911 307.433 107.521C306.539 107.194 305.512 107.464 304.905 108.166C303.818 109.417 302.943 110.833 302.33 112.372C301.977 113.254 302.31 114.22 303.074 114.829C303.926 115.51 304.469 116.527 304.469 117.667C304.469 118.807 303.926 119.824 303.07 120.505C302.31 121.114 301.977 122.08 302.326 122.962C302.943 124.501 303.818 125.92 304.902 127.168C305.512 127.87 306.536 128.137 307.433 127.813C308.507 127.423 309.751 127.471 310.828 128.059C311.909 128.647 312.577 129.643 312.752 130.72C312.895 131.602 313.636 132.307 314.568 132.457C315.42 132.595 316.294 132.667 317.187 132.667C318.081 132.667 318.955 132.595 319.804 132.457C320.736 132.307 321.477 131.602 321.62 130.72C321.795 129.64 322.462 128.647 323.543 128.059C324.621 127.471 325.861 127.423 326.939 127.813C327.836 128.14 328.86 127.87 329.47 127.168C330.557 125.917 331.432 124.501 332.045 122.962C332.398 122.083 332.065 121.114 331.301 120.505C330.449 119.824 329.906 118.807 329.906 117.667ZM317.187 123.667C313.674 123.667 310.828 120.979 310.828 117.667C310.828 114.355 313.674 111.667 317.187 111.667C320.701 111.667 323.547 114.355 323.547 117.667C323.547 120.979 320.701 123.667 317.187 123.667Z" fill="#2457B8" fill-opacity="0.2"/>
<g filter="url(#filter4_f_623_1667)">
<path d="M373.334 167.667C373.334 166.527 373.878 165.51 374.733 164.829C375.493 164.22 375.827 163.254 375.477 162.372C374.861 160.833 373.986 159.414 372.902 158.166C372.291 157.464 371.268 157.197 370.371 157.521C369.293 157.911 368.053 157.86 366.975 157.275C365.894 156.687 365.227 155.691 365.052 154.614C364.909 153.732 364.168 153.027 363.236 152.877C362.384 152.739 361.51 152.667 360.616 152.667C359.723 152.667 358.848 152.739 357.999 152.877C357.068 153.027 356.327 153.732 356.184 154.614C356.006 155.691 355.338 156.687 354.257 157.275C353.179 157.86 351.939 157.911 350.861 157.521C349.968 157.194 348.941 157.464 348.334 158.166C347.246 159.417 346.372 160.833 345.758 162.372C345.405 163.254 345.739 164.22 346.502 164.829C347.354 165.51 347.898 166.527 347.898 167.667C347.898 168.807 347.354 169.824 346.499 170.505C345.739 171.114 345.405 172.08 345.755 172.962C346.372 174.501 347.246 175.92 348.33 177.168C348.941 177.87 349.965 178.137 350.861 177.813C351.936 177.423 353.179 177.471 354.257 178.059C355.338 178.647 356.006 179.643 356.181 180.72C356.324 181.602 357.065 182.307 357.996 182.457C358.848 182.595 359.723 182.667 360.616 182.667C361.51 182.667 362.384 182.595 363.233 182.457C364.165 182.307 364.905 181.602 365.048 180.72C365.223 179.64 365.891 178.647 366.972 178.059C368.05 177.471 369.29 177.423 370.368 177.813C371.264 178.14 372.288 177.87 372.899 177.168C373.986 175.917 374.861 174.501 375.474 172.962C375.827 172.083 375.493 171.114 374.73 170.505C373.878 169.824 373.334 168.807 373.334 167.667ZM360.616 173.667C357.103 173.667 354.257 170.979 354.257 167.667C354.257 164.355 357.103 161.667 360.616 161.667C364.13 161.667 366.975 164.355 366.975 167.667C366.975 170.979 364.13 173.667 360.616 173.667Z" fill="#2457B8" fill-opacity="0.1"/>
</g>
<g filter="url(#filter5_f_623_1667)">
<path d="M490.685 140.667C490.685 140.059 490.975 139.517 491.431 139.153C491.837 138.829 492.015 138.313 491.828 137.843C491.499 137.022 491.033 136.265 490.455 135.6C490.129 135.225 489.583 135.083 489.105 135.256C488.53 135.464 487.869 135.437 487.294 135.125C486.717 134.811 486.361 134.28 486.268 133.705C486.192 133.235 485.796 132.859 485.3 132.779C484.845 132.705 484.379 132.667 483.902 132.667C483.426 132.667 482.96 132.705 482.507 132.779C482.01 132.859 481.615 133.235 481.538 133.705C481.444 134.28 481.087 134.811 480.511 135.125C479.936 135.437 479.275 135.464 478.7 135.256C478.223 135.081 477.676 135.225 477.352 135.6C476.772 136.267 476.305 137.022 475.978 137.843C475.79 138.313 475.968 138.829 476.375 139.153C476.829 139.517 477.119 140.059 477.119 140.667C477.119 141.275 476.829 141.817 476.373 142.181C475.968 142.505 475.79 143.021 475.976 143.491C476.305 144.312 476.772 145.069 477.35 145.734C477.676 146.109 478.222 146.251 478.7 146.078C479.273 145.87 479.936 145.896 480.511 146.209C481.087 146.523 481.444 147.054 481.537 147.629C481.613 148.099 482.008 148.475 482.505 148.555C482.96 148.629 483.426 148.667 483.902 148.667C484.379 148.667 484.845 148.629 485.298 148.555C485.795 148.475 486.19 148.099 486.266 147.629C486.359 147.053 486.716 146.523 487.292 146.209C487.867 145.896 488.528 145.87 489.103 146.078C489.581 146.253 490.127 146.109 490.453 145.734C491.033 145.067 491.499 144.312 491.827 143.491C492.015 143.022 491.837 142.505 491.43 142.181C490.975 141.817 490.685 141.275 490.685 140.667ZM483.902 143.867C482.029 143.867 480.511 142.433 480.511 140.667C480.511 138.901 482.029 137.467 483.902 137.467C485.776 137.467 487.294 138.901 487.294 140.667C487.294 142.433 485.776 143.867 483.902 143.867Z" fill="#2457B8" fill-opacity="0.2"/>
</g>
<g filter="url(#filter6_f_623_1667)">
<path d="M519.792 244.667C519.792 243.755 520.227 242.941 520.911 242.397C521.519 241.909 521.786 241.137 521.506 240.431C521.013 239.2 520.313 238.065 519.446 237.066C518.957 236.505 518.138 236.291 517.421 236.55C516.559 236.862 515.567 236.821 514.704 236.353C513.84 235.883 513.305 235.086 513.166 234.225C513.051 233.519 512.458 232.955 511.713 232.835C511.031 232.725 510.332 232.667 509.617 232.667C508.902 232.667 508.203 232.725 507.524 232.835C506.779 232.955 506.186 233.519 506.071 234.225C505.929 235.086 505.395 235.883 504.53 236.353C503.668 236.821 502.676 236.862 501.813 236.55C501.099 236.289 500.277 236.505 499.791 237.066C498.921 238.067 498.222 239.2 497.731 240.431C497.448 241.137 497.716 241.909 498.326 242.397C499.008 242.941 499.443 243.755 499.443 244.667C499.443 245.579 499.008 246.393 498.323 246.937C497.716 247.425 497.448 248.197 497.728 248.903C498.222 250.134 498.921 251.269 499.789 252.268C500.277 252.829 501.096 253.043 501.813 252.784C502.673 252.472 503.668 252.51 504.53 252.981C505.395 253.451 505.929 254.248 506.069 255.109C506.183 255.815 506.776 256.379 507.521 256.499C508.203 256.609 508.902 256.667 509.617 256.667C510.332 256.667 511.031 256.609 511.711 256.499C512.456 256.379 513.049 255.815 513.163 255.109C513.303 254.245 513.837 253.451 514.702 252.981C515.564 252.51 516.556 252.472 517.418 252.784C518.136 253.045 518.955 252.829 519.443 252.268C520.313 251.267 521.013 250.134 521.504 248.903C521.786 248.2 521.519 247.425 520.908 246.937C520.227 246.393 519.792 245.579 519.792 244.667ZM509.617 249.467C506.806 249.467 504.53 247.317 504.53 244.667C504.53 242.017 506.806 239.867 509.617 239.867C512.428 239.867 514.704 242.017 514.704 244.667C514.704 247.317 512.428 249.467 509.617 249.467Z" fill="#2457B8" fill-opacity="0.2"/>
</g>
</g>
<defs>
<filter id="filter0_f_623_1667" x="78.8564" y="38.0078" width="496.314" height="570" filterUnits="userSpaceOnUse" color-interpolation-filters="sRGB">
<feFlood flood-opacity="0" result="BackgroundImageFix"/>
<feBlend mode="normal" in="SourceGraphic" in2="BackgroundImageFix" result="shape"/>
<feGaussianBlur stdDeviation="5" result="effect1_foregroundBlur_623_1667"/>
</filter>
<filter id="filter1_f_623_1667" x="145.809" y="119.008" width="366.41" height="420" filterUnits="userSpaceOnUse" color-interpolation-filters="sRGB">
<feFlood flood-opacity="0" result="BackgroundImageFix"/>
<feBlend mode="normal" in="SourceGraphic" in2="BackgroundImageFix" result="shape"/>
<feGaussianBlur stdDeviation="5" result="effect1_foregroundBlur_623_1667"/>
</filter>
<filter id="filter2_f_623_1667" x="270.003" y="296.002" width="111" height="39.1299" filterUnits="userSpaceOnUse" color-interpolation-filters="sRGB">
<feFlood flood-opacity="0" result="BackgroundImageFix"/>
<feBlend mode="normal" in="SourceGraphic" in2="BackgroundImageFix" result="shape"/>
<feGaussianBlur stdDeviation="7" result="effect1_foregroundBlur_623_1667"/>
</filter>
<filter id="filter3_f_623_1667" x="144.473" y="268.667" width="28" height="28" filterUnits="userSpaceOnUse" color-interpolation-filters="sRGB">
<feFlood flood-opacity="0" result="BackgroundImageFix"/>
<feBlend mode="normal" in="SourceGraphic" in2="BackgroundImageFix" result="shape"/>
<feGaussianBlur stdDeviation="2" result="effect1_foregroundBlur_623_1667"/>
</filter>
<filter id="filter4_f_623_1667" x="341.616" y="148.667" width="38" height="38" filterUnits="userSpaceOnUse" color-interpolation-filters="sRGB">
<feFlood flood-opacity="0" result="BackgroundImageFix"/>
<feBlend mode="normal" in="SourceGraphic" in2="BackgroundImageFix" result="shape"/>
<feGaussianBlur stdDeviation="2" result="effect1_foregroundBlur_623_1667"/>
</filter>
<filter id="filter5_f_623_1667" x="473.902" y="130.667" width="20" height="20" filterUnits="userSpaceOnUse" color-interpolation-filters="sRGB">
<feFlood flood-opacity="0" result="BackgroundImageFix"/>
<feBlend mode="normal" in="SourceGraphic" in2="BackgroundImageFix" result="shape"/>
<feGaussianBlur stdDeviation="1" result="effect1_foregroundBlur_623_1667"/>
</filter>
<filter id="filter6_f_623_1667" x="489.617" y="224.667" width="40" height="40" filterUnits="userSpaceOnUse" color-interpolation-filters="sRGB">
<feFlood flood-opacity="0" result="BackgroundImageFix"/>
<feBlend mode="normal" in="SourceGraphic" in2="BackgroundImageFix" result="shape"/>
<feGaussianBlur stdDeviation="4" result="effect1_foregroundBlur_623_1667"/>
</filter>
<linearGradient id="paint0_linear_623_1667" x1="443.218" y1="391.175" x2="215.598" y2="391.175" gradientUnits="userSpaceOnUse">
<stop stop-color="#DDE1E9"/>
<stop offset="0.432292" stop-color="#DDE1E9"/>
<stop offset="0.598958" stop-color="#F2F4F8"/>
<stop offset="1" stop-color="#FBFCFE"/>
</linearGradient>
<linearGradient id="paint1_linear_623_1667" x1="312.169" y1="192.333" x2="312.169" y2="266" gradientUnits="userSpaceOnUse">
<stop stop-color="#BDCEEE"/>
<stop offset="1" stop-color="#4671F6"/>
</linearGradient>
<linearGradient id="paint2_linear_623_1667" x1="356.836" y1="198" x2="356.836" y2="215" gradientUnits="userSpaceOnUse">
<stop stop-color="#BDCEEE"/>
<stop offset="1" stop-color="#4671F6"/>
</linearGradient>
<linearGradient id="paint3_linear_623_1667" x1="356.836" y1="220.667" x2="356.836" y2="237.667" gradientUnits="userSpaceOnUse">
<stop stop-color="#BDCEEE"/>
<stop offset="1" stop-color="#4671F6"/>
</linearGradient>
<linearGradient id="paint4_linear_623_1667" x1="356.836" y1="249" x2="356.836" y2="266" gradientUnits="userSpaceOnUse">
<stop stop-color="#BDCEEE"/>
<stop offset="1" stop-color="#4671F6"/>
</linearGradient>
<clipPath id="clip0_623_1667">
<rect width="620" height="460" fill="white"/>
</clipPath>
</defs>
</svg>
