<svg width="620" height="460" viewBox="0 0 620 460" fill="none" xmlns="http://www.w3.org/2000/svg">
<g clip-path="url(#clip0_623_1582)">
<path opacity="0.5" d="M172.574 285.002C183.62 285.002 192.574 276.048 192.574 265.002C192.574 253.956 183.62 245.002 172.574 245.002C161.529 245.002 152.574 253.956 152.574 265.002C152.574 276.048 161.529 285.002 172.574 285.002Z" fill="url(#paint0_linear_623_1582)"/>
<g opacity="0.05" filter="url(#filter0_f_623_1582)">
<path d="M309 672C474.685 672 609 537.686 609 372C609 206.315 474.685 72.0002 309 72.0002C143.315 72.0002 9 206.315 9 372C9 537.686 143.315 672 309 672Z" fill="url(#paint1_linear_623_1582)"/>
</g>
<g opacity="0.1" filter="url(#filter1_f_623_1582)">
<path d="M314 602C438.264 602 539 501.264 539 377C539 252.736 438.264 152 314 152C189.736 152 89 252.736 89 377C89 501.264 189.736 602 314 602Z" fill="url(#paint2_linear_623_1582)"/>
</g>
<g opacity="0.4" filter="url(#filter2_f_623_1582)">
<path d="M324 552C415.127 552 489 478.127 489 387C489 295.873 415.127 222 324 222C232.873 222 159 295.873 159 387C159 478.127 232.873 552 324 552Z" fill="url(#paint3_linear_623_1582)"/>
</g>
<path opacity="0.5" d="M461 274C465.971 274 470 269.971 470 265C470 260.029 465.971 256 461 256C456.029 256 452 260.029 452 265C452 269.971 456.029 274 461 274Z" fill="url(#paint4_linear_623_1582)"/>
<rect x="215.598" y="321.56" width="227.62" height="139.231" fill="url(#paint5_linear_623_1582)"/>
<path d="M318.678 282.402C323.834 280.703 329.392 280.662 334.573 282.282L438.35 314.738C445.375 316.935 445.424 326.861 438.42 329.127L334.822 362.645C329.488 364.37 323.739 364.326 318.433 362.518L220.329 329.09C213.473 326.753 213.522 317.038 220.403 314.772L318.678 282.402Z" fill="white"/>
<g filter="url(#filter3_f_623_1582)">
<ellipse cx="325.498" cy="316.568" rx="41.5" ry="1.56604" fill="#7294FF"/>
</g>
<path d="M372.499 210.908L364.169 196.095L331.5 214.467L331.5 178.002L314.5 178.002L314.5 214.467L281.832 196.095L273.502 210.908L305.666 229.002L273.502 247.095L281.832 261.908L314.5 243.537L314.5 280.002L331.5 280.002L331.5 243.537L364.169 261.908L372.499 247.095L340.335 229.002L372.499 210.908Z" fill="#BDCEEE"/>
<path d="M323 189.335C329.26 189.335 334.334 184.261 334.334 178.002C334.334 171.743 329.26 166.668 323 166.668C316.741 166.668 311.667 171.743 311.667 178.002C311.667 184.261 316.741 189.335 323 189.335Z" fill="url(#paint6_linear_623_1582)"/>
<path d="M368.333 214.835C374.593 214.835 379.667 209.761 379.667 203.502C379.667 197.243 374.593 192.168 368.333 192.168C362.074 192.168 357 197.243 357 203.502C357 209.761 362.074 214.835 368.333 214.835Z" fill="url(#paint7_linear_623_1582)"/>
<path d="M277.666 214.835C283.926 214.835 289 209.761 289 203.502C289 197.243 283.926 192.168 277.666 192.168C271.407 192.168 266.333 197.243 266.333 203.502C266.333 209.761 271.407 214.835 277.666 214.835Z" fill="url(#paint8_linear_623_1582)"/>
<path d="M323 291.335C329.26 291.335 334.334 286.261 334.334 280.002C334.334 273.743 329.26 268.668 323 268.668C316.741 268.668 311.667 273.743 311.667 280.002C311.667 286.261 316.741 291.335 323 291.335Z" fill="url(#paint9_linear_623_1582)"/>
<path d="M277.666 265.835C283.926 265.835 289 260.761 289 254.502C289 248.243 283.926 243.168 277.666 243.168C271.407 243.168 266.333 248.243 266.333 254.502C266.333 260.761 271.407 265.835 277.666 265.835Z" fill="url(#paint10_linear_623_1582)"/>
<path d="M368.333 265.835C374.593 265.835 379.667 260.761 379.667 254.502C379.667 248.243 374.593 243.168 368.333 243.168C362.074 243.168 357 248.243 357 254.502C357 260.761 362.074 265.835 368.333 265.835Z" fill="url(#paint11_linear_623_1582)"/>
<path d="M323 246.002C332.389 246.002 340 238.391 340 229.002C340 219.613 332.389 212.002 323 212.002C313.611 212.002 306 219.613 306 229.002C306 238.391 313.611 246.002 323 246.002Z" fill="url(#paint12_linear_623_1582)"/>
<g filter="url(#filter4_d_623_1582)">
<path d="M323 248.75C334.184 248.75 343.25 239.684 343.25 228.5C343.25 217.316 334.184 208.25 323 208.25C311.816 208.25 302.75 217.316 302.75 228.5C302.75 239.684 311.816 248.75 323 248.75Z" fill="white"/>
</g>
<path d="M323 224C320.514 224 318.5 226.014 318.5 228.5C318.5 230.986 320.514 233 323 233C325.486 233 327.5 230.986 327.5 228.5C327.5 226.014 325.486 224 323 224Z" fill="#2457B8"/>
<path d="M314.013 210.374C314.081 205.462 318.072 201.5 323 201.5C327.928 201.5 331.919 205.462 331.987 210.374C333.631 211.191 335.146 212.223 336.5 213.436V210.5C336.5 203.043 330.456 197 323 197C315.544 197 309.5 203.043 309.5 210.5V213.436C310.854 212.223 312.369 211.191 314.013 210.374Z" fill="#2457B8"/>
<g opacity="0.5" filter="url(#filter5_f_623_1582)">
<path d="M208 136C212.971 136 217 131.971 217 127C217 122.029 212.971 118 208 118C203.029 118 199 122.029 199 127C199 131.971 203.029 136 208 136Z" fill="url(#paint13_linear_623_1582)"/>
</g>
<path opacity="0.5" d="M299.991 156.669C302.753 156.669 304.991 154.43 304.991 151.669C304.991 148.907 302.753 146.669 299.991 146.669C297.23 146.669 294.991 148.907 294.991 151.669C294.991 154.43 297.23 156.669 299.991 156.669Z" fill="url(#paint14_linear_623_1582)"/>
<path opacity="0.7" d="M372 102C381.389 102 389 94.3888 389 85C389 75.6112 381.389 68 372 68C362.611 68 355 75.6112 355 85C355 94.3888 362.611 102 372 102Z" fill="url(#paint15_linear_623_1582)"/>
<g opacity="0.2" filter="url(#filter6_f_623_1582)">
<path d="M477 172C486.389 172 494 164.389 494 155C494 145.611 486.389 138 477 138C467.611 138 460 145.611 460 155C460 164.389 467.611 172 477 172Z" fill="url(#paint16_linear_623_1582)"/>
</g>
</g>
<defs>
<filter id="filter0_f_623_1582" x="-1" y="62.0002" width="620" height="620" filterUnits="userSpaceOnUse" color-interpolation-filters="sRGB">
<feFlood flood-opacity="0" result="BackgroundImageFix"/>
<feBlend mode="normal" in="SourceGraphic" in2="BackgroundImageFix" result="shape"/>
<feGaussianBlur stdDeviation="5" result="effect1_foregroundBlur_623_1582"/>
</filter>
<filter id="filter1_f_623_1582" x="79" y="142" width="470" height="470" filterUnits="userSpaceOnUse" color-interpolation-filters="sRGB">
<feFlood flood-opacity="0" result="BackgroundImageFix"/>
<feBlend mode="normal" in="SourceGraphic" in2="BackgroundImageFix" result="shape"/>
<feGaussianBlur stdDeviation="5" result="effect1_foregroundBlur_623_1582"/>
</filter>
<filter id="filter2_f_623_1582" x="109" y="172" width="430" height="430" filterUnits="userSpaceOnUse" color-interpolation-filters="sRGB">
<feFlood flood-opacity="0" result="BackgroundImageFix"/>
<feBlend mode="normal" in="SourceGraphic" in2="BackgroundImageFix" result="shape"/>
<feGaussianBlur stdDeviation="25" result="effect1_foregroundBlur_623_1582"/>
</filter>
<filter id="filter3_f_623_1582" x="269.998" y="301.002" width="111" height="31.1321" filterUnits="userSpaceOnUse" color-interpolation-filters="sRGB">
<feFlood flood-opacity="0" result="BackgroundImageFix"/>
<feBlend mode="normal" in="SourceGraphic" in2="BackgroundImageFix" result="shape"/>
<feGaussianBlur stdDeviation="7" result="effect1_foregroundBlur_623_1582"/>
</filter>
<filter id="filter4_d_623_1582" x="298.75" y="208.25" width="48.5" height="48.5" filterUnits="userSpaceOnUse" color-interpolation-filters="sRGB">
<feFlood flood-opacity="0" result="BackgroundImageFix"/>
<feColorMatrix in="SourceAlpha" type="matrix" values="0 0 0 0 0 0 0 0 0 0 0 0 0 0 0 0 0 0 127 0" result="hardAlpha"/>
<feOffset dy="4"/>
<feGaussianBlur stdDeviation="2"/>
<feComposite in2="hardAlpha" operator="out"/>
<feColorMatrix type="matrix" values="0 0 0 0 0.45098 0 0 0 0 0.580392 0 0 0 0 0.956863 0 0 0 0.2 0"/>
<feBlend mode="normal" in2="BackgroundImageFix" result="effect1_dropShadow_623_1582"/>
<feBlend mode="normal" in="SourceGraphic" in2="effect1_dropShadow_623_1582" result="shape"/>
</filter>
<filter id="filter5_f_623_1582" x="197" y="116" width="22" height="22" filterUnits="userSpaceOnUse" color-interpolation-filters="sRGB">
<feFlood flood-opacity="0" result="BackgroundImageFix"/>
<feBlend mode="normal" in="SourceGraphic" in2="BackgroundImageFix" result="shape"/>
<feGaussianBlur stdDeviation="1" result="effect1_foregroundBlur_623_1582"/>
</filter>
<filter id="filter6_f_623_1582" x="456" y="134" width="42" height="42" filterUnits="userSpaceOnUse" color-interpolation-filters="sRGB">
<feFlood flood-opacity="0" result="BackgroundImageFix"/>
<feBlend mode="normal" in="SourceGraphic" in2="BackgroundImageFix" result="shape"/>
<feGaussianBlur stdDeviation="2" result="effect1_foregroundBlur_623_1582"/>
</filter>
<linearGradient id="paint0_linear_623_1582" x1="172.574" y1="245.002" x2="172.574" y2="285.002" gradientUnits="userSpaceOnUse">
<stop stop-color="#BDCEEE"/>
<stop offset="1" stop-color="#4671F6"/>
</linearGradient>
<linearGradient id="paint1_linear_623_1582" x1="309" y1="72.0002" x2="309" y2="672" gradientUnits="userSpaceOnUse">
<stop stop-color="#BDCEEE"/>
<stop offset="1" stop-color="#4671F6"/>
</linearGradient>
<linearGradient id="paint2_linear_623_1582" x1="314" y1="152" x2="314" y2="602" gradientUnits="userSpaceOnUse">
<stop stop-color="#BDCEEE"/>
<stop offset="1" stop-color="#4671F6"/>
</linearGradient>
<linearGradient id="paint3_linear_623_1582" x1="324" y1="222" x2="324" y2="552" gradientUnits="userSpaceOnUse">
<stop stop-color="#BDCEEE"/>
<stop offset="1" stop-color="#4671F6"/>
</linearGradient>
<linearGradient id="paint4_linear_623_1582" x1="461" y1="256" x2="461" y2="274" gradientUnits="userSpaceOnUse">
<stop stop-color="#BDCEEE"/>
<stop offset="1" stop-color="#4671F6"/>
</linearGradient>
<linearGradient id="paint5_linear_623_1582" x1="443.218" y1="391.175" x2="215.598" y2="391.175" gradientUnits="userSpaceOnUse">
<stop stop-color="#DDE1E9"/>
<stop offset="0.432292" stop-color="#DDE1E9"/>
<stop offset="0.598958" stop-color="#F2F4F8"/>
<stop offset="1" stop-color="#FBFCFE"/>
</linearGradient>
<linearGradient id="paint6_linear_623_1582" x1="323" y1="166.668" x2="323" y2="189.335" gradientUnits="userSpaceOnUse">
<stop stop-color="#BDCEEE"/>
<stop offset="1" stop-color="#4671F6"/>
</linearGradient>
<linearGradient id="paint7_linear_623_1582" x1="368.333" y1="192.168" x2="368.333" y2="214.835" gradientUnits="userSpaceOnUse">
<stop stop-color="#BDCEEE"/>
<stop offset="1" stop-color="#4671F6"/>
</linearGradient>
<linearGradient id="paint8_linear_623_1582" x1="277.666" y1="192.168" x2="277.666" y2="214.835" gradientUnits="userSpaceOnUse">
<stop stop-color="#BDCEEE"/>
<stop offset="1" stop-color="#4671F6"/>
</linearGradient>
<linearGradient id="paint9_linear_623_1582" x1="323" y1="268.668" x2="323" y2="291.335" gradientUnits="userSpaceOnUse">
<stop stop-color="#BDCEEE"/>
<stop offset="1" stop-color="#4671F6"/>
</linearGradient>
<linearGradient id="paint10_linear_623_1582" x1="277.666" y1="243.168" x2="277.666" y2="265.835" gradientUnits="userSpaceOnUse">
<stop stop-color="#BDCEEE"/>
<stop offset="1" stop-color="#4671F6"/>
</linearGradient>
<linearGradient id="paint11_linear_623_1582" x1="368.333" y1="243.168" x2="368.333" y2="265.835" gradientUnits="userSpaceOnUse">
<stop stop-color="#BDCEEE"/>
<stop offset="1" stop-color="#4671F6"/>
</linearGradient>
<linearGradient id="paint12_linear_623_1582" x1="323" y1="212.002" x2="323" y2="246.002" gradientUnits="userSpaceOnUse">
<stop stop-color="#BDCEEE"/>
<stop offset="1" stop-color="#4671F6"/>
</linearGradient>
<linearGradient id="paint13_linear_623_1582" x1="208" y1="118" x2="208" y2="136" gradientUnits="userSpaceOnUse">
<stop stop-color="#BDCEEE"/>
<stop offset="1" stop-color="#4671F6"/>
</linearGradient>
<linearGradient id="paint14_linear_623_1582" x1="299.991" y1="146.669" x2="299.991" y2="156.669" gradientUnits="userSpaceOnUse">
<stop stop-color="#BDCEEE"/>
<stop offset="1" stop-color="#4671F6"/>
</linearGradient>
<linearGradient id="paint15_linear_623_1582" x1="372" y1="68" x2="372" y2="102" gradientUnits="userSpaceOnUse">
<stop stop-color="#BDCEEE"/>
<stop offset="1" stop-color="#4671F6"/>
</linearGradient>
<linearGradient id="paint16_linear_623_1582" x1="477" y1="138" x2="477" y2="172" gradientUnits="userSpaceOnUse">
<stop stop-color="#BDCEEE"/>
<stop offset="1" stop-color="#4671F6"/>
</linearGradient>
<clipPath id="clip0_623_1582">
<rect width="620" height="460" fill="white"/>
</clipPath>
</defs>
</svg>
