<svg width="620" height="460" viewBox="0 0 620 460" fill="none" xmlns="http://www.w3.org/2000/svg">
<g clip-path="url(#clip0_623_1583)">
<rect x="214.598" y="320.769" width="227.62" height="139.231" fill="url(#paint0_linear_623_1583)"/>
<path d="M317.678 281.611C322.834 279.913 328.392 279.871 333.573 281.491L437.35 313.947C444.375 316.144 444.424 326.07 437.42 328.336L333.822 361.854C328.488 363.58 322.739 363.535 317.433 361.727L219.329 328.299C212.473 325.963 212.522 316.248 219.403 313.981L317.678 281.611Z" fill="white"/>
<g opacity="0.2" filter="url(#filter0_f_623_1583)">
<rect x="198.909" y="235.506" width="13.6436" height="34.2877" fill="url(#paint1_linear_623_1583)"/>
<g clip-path="url(#clip1_623_1583)">
<path d="M212.539 227.954L212.539 235.848L205.722 239.436L198.904 235.848L198.904 227.954L199.338 227.726L205.722 231.004L212.028 227.685L212.539 227.954Z" fill="#6389FF"/>
<path d="M198.904 227.954L205.722 231.542L212.539 227.954L205.722 224.366L198.904 227.954Z" fill="#A5BDFE"/>
<path d="M212.539 227.954L212.539 235.848L205.722 239.436L205.722 231.542L212.539 227.954Z" fill="#4671F6"/>
</g>
</g>
<rect x="346.8" y="82.0002" width="41.9" height="106" fill="url(#paint2_linear_623_1583)"/>
<path d="M388.71 58.9578L388.71 83.209L367.765 94.2323L346.821 83.209L346.821 58.9578L348.155 58.2579L367.765 68.3276L387.139 58.1311L388.71 58.9578Z" fill="#6389FF"/>
<path d="M346.821 58.9578L367.765 69.9811L388.71 58.9578L367.765 47.9346L346.821 58.9578Z" fill="#A5BDFE"/>
<path d="M388.71 58.9578L388.71 83.2089L367.766 94.2322L367.766 69.981L388.71 58.9578Z" fill="#4671F6"/>
<g opacity="0.2" filter="url(#filter1_f_623_1583)">
<rect x="488.688" y="339.342" width="100.185" height="253.451" fill="url(#paint3_linear_623_1583)"/>
<path d="M588.9 284.247L588.9 342.233L538.822 368.59L488.743 342.233L488.743 284.247L491.932 282.573L538.822 306.651L585.144 282.27L588.9 284.247Z" fill="#6389FF"/>
<path d="M488.743 284.247L538.822 310.604L588.9 284.247L538.822 257.89L488.743 284.247Z" fill="#A5BDFE"/>
<path d="M588.9 284.247L588.9 342.233L538.821 368.59L538.821 310.604L588.9 284.247Z" fill="#4671F6"/>
</g>
<rect x="272.199" y="118" width="27.6" height="70" fill="url(#paint4_linear_623_1583)"/>
<g clip-path="url(#clip2_623_1583)">
<path d="M299.813 103.002L299.813 119.002L285.995 126.275L272.177 119.002L272.177 103.002L273.057 102.54L285.995 109.184L298.777 102.457L299.813 103.002Z" fill="#6389FF"/>
<path d="M272.177 103.002L285.995 110.275L299.813 103.002L285.995 95.7292L272.177 103.002Z" fill="#A5BDFE"/>
<path d="M299.813 103.002L299.813 119.002L285.995 126.275L285.995 110.275L299.813 103.002Z" fill="#4671F6"/>
</g>
<g opacity="0.5">
<rect x="261" y="156" width="19.1" height="48" fill="url(#paint5_linear_623_1583)"/>
<path d="M280.08 145.428L280.08 156.478L270.537 161.501L260.993 156.478L260.993 145.428L261.601 145.109L270.537 149.697L279.365 145.051L280.08 145.428Z" fill="#6389FF"/>
<path d="M260.993 145.428L270.537 150.451L280.08 145.428L270.537 140.405L260.993 145.428Z" fill="#A5BDFE"/>
<path d="M280.081 145.428L280.081 156.479L270.537 161.502L270.537 150.451L280.081 145.428Z" fill="#4671F6"/>
</g>
<g opacity="0.3">
<rect x="231.031" y="225.785" width="18.99" height="48.3462" fill="url(#paint6_linear_623_1583)"/>
<path d="M250.08 215.427L250.08 226.478L240.537 231.501L230.993 226.478L230.993 215.427L231.601 215.108L240.537 219.697L249.365 215.051L250.08 215.427Z" fill="#6389FF"/>
<path d="M230.993 215.427L240.537 220.45L250.08 215.427L240.537 210.404L230.993 215.427Z" fill="#A5BDFE"/>
<path d="M250.081 215.427L250.081 226.478L240.537 231.501L240.537 220.45L250.081 215.427Z" fill="#4671F6"/>
</g>
<rect x="420.2" y="228" width="27.7" height="70" fill="url(#paint7_linear_623_1583)"/>
<g clip-path="url(#clip3_623_1583)">
<path d="M447.814 213.002L447.814 229.002L433.996 236.274L420.178 229.002L420.178 213.002L421.058 212.54L433.996 219.184L446.778 212.456L447.814 213.002Z" fill="#6389FF"/>
<path d="M420.178 213.002L433.996 220.274L447.814 213.002L433.996 205.729L420.178 213.002Z" fill="#A5BDFE"/>
<path d="M447.814 213.002L447.814 229.002L433.996 236.274L433.996 220.274L447.814 213.002Z" fill="#4671F6"/>
</g>
<rect x="413.482" y="154.311" width="13.45" height="33.908" fill="url(#paint8_linear_623_1583)"/>
<g clip-path="url(#clip4_623_1583)">
<path d="M426.921 147.045L426.921 154.796L420.228 158.319L413.534 154.796L413.534 147.045L413.96 146.822L420.228 150.04L426.419 146.781L426.921 147.045Z" fill="#6389FF"/>
<path d="M413.534 147.045L420.228 150.568L426.921 147.045L420.228 143.522L413.534 147.045Z" fill="#A5BDFE"/>
<path d="M426.921 147.045L426.921 154.796L420.228 158.319L420.228 150.568L426.921 147.045Z" fill="#4671F6"/>
</g>
<rect x="423.482" y="159.311" width="13.45" height="33.908" fill="url(#paint9_linear_623_1583)"/>
<g clip-path="url(#clip5_623_1583)">
<path d="M436.921 152.045L436.921 159.796L430.228 163.319L423.534 159.796L423.534 152.045L423.96 151.822L430.228 155.04L436.419 151.781L436.921 152.045Z" fill="#6389FF"/>
<path d="M423.534 152.045L430.228 155.568L436.921 152.045L430.228 148.522L423.534 152.045Z" fill="#A5BDFE"/>
<path d="M436.921 152.045L436.921 159.796L430.228 163.319L430.228 155.568L436.921 152.045Z" fill="#4671F6"/>
</g>
<rect x="403.482" y="160.311" width="13.45" height="33.908" fill="url(#paint10_linear_623_1583)"/>
<g clip-path="url(#clip6_623_1583)">
<path d="M416.921 153.045L416.921 160.796L410.228 164.319L403.534 160.796L403.534 153.045L403.96 152.822L410.228 156.04L416.419 152.781L416.921 153.045Z" fill="#6389FF"/>
<path d="M403.534 153.045L410.228 156.568L416.921 153.045L410.228 149.522L403.534 153.045Z" fill="#A5BDFE"/>
<path d="M416.921 153.045L416.921 160.796L410.228 164.319L410.228 156.568L416.921 153.045Z" fill="#4671F6"/>
</g>
<rect x="433.482" y="164.311" width="13.45" height="33.908" fill="url(#paint11_linear_623_1583)"/>
<g clip-path="url(#clip7_623_1583)">
<path d="M446.921 157.045L446.921 164.796L440.228 168.319L433.534 164.796L433.534 157.045L433.96 156.822L440.228 160.04L446.419 156.781L446.921 157.045Z" fill="#6389FF"/>
<path d="M433.534 157.045L440.228 160.568L446.921 157.045L440.228 153.522L433.534 157.045Z" fill="#A5BDFE"/>
<path d="M446.921 157.045L446.921 164.796L440.228 168.319L440.228 160.568L446.921 157.045Z" fill="#4671F6"/>
</g>
<rect x="414.482" y="166.311" width="13.45" height="33.908" fill="url(#paint12_linear_623_1583)"/>
<g clip-path="url(#clip8_623_1583)">
<path d="M427.921 159.045L427.921 166.796L421.228 170.319L414.534 166.796L414.534 159.045L414.96 158.822L421.228 162.04L427.419 158.781L427.921 159.045Z" fill="#6389FF"/>
<path d="M414.534 159.045L421.228 162.568L427.921 159.045L421.228 155.522L414.534 159.045Z" fill="#A5BDFE"/>
<path d="M427.921 159.045L427.921 166.796L421.228 170.319L421.228 162.568L427.921 159.045Z" fill="#4671F6"/>
</g>
<rect x="443.482" y="169.311" width="13.45" height="33.908" fill="url(#paint13_linear_623_1583)"/>
<g clip-path="url(#clip9_623_1583)">
<path d="M456.921 162.045L456.921 169.796L450.228 173.319L443.534 169.796L443.534 162.045L443.96 161.822L450.228 165.04L456.419 161.781L456.921 162.045Z" fill="#6389FF"/>
<path d="M443.534 162.045L450.228 165.568L456.921 162.045L450.228 158.522L443.534 162.045Z" fill="#A5BDFE"/>
<path d="M456.921 162.045L456.921 169.796L450.228 173.319L450.228 165.568L456.921 162.045Z" fill="#4671F6"/>
</g>
<rect x="424.482" y="171.311" width="13.45" height="33.908" fill="url(#paint14_linear_623_1583)"/>
<g clip-path="url(#clip10_623_1583)">
<path d="M437.921 164.045L437.921 171.796L431.228 175.319L424.534 171.796L424.534 164.045L424.96 163.822L431.228 167.04L437.419 163.781L437.921 164.045Z" fill="#6389FF"/>
<path d="M424.534 164.045L431.228 167.568L437.921 164.045L431.228 160.522L424.534 164.045Z" fill="#A5BDFE"/>
<path d="M437.921 164.045L437.921 171.796L431.228 175.319L431.228 167.568L437.921 164.045Z" fill="#4671F6"/>
</g>
<rect x="453.482" y="174.311" width="13.45" height="33.908" fill="url(#paint15_linear_623_1583)"/>
<g clip-path="url(#clip11_623_1583)">
<path d="M466.921 167.045L466.921 174.796L460.228 178.319L453.534 174.796L453.534 167.045L453.96 166.822L460.228 170.04L466.419 166.781L466.921 167.045Z" fill="#6389FF"/>
<path d="M453.534 167.045L460.228 170.568L466.921 167.045L460.228 163.522L453.534 167.045Z" fill="#A5BDFE"/>
<path d="M466.921 167.045L466.921 174.796L460.228 178.319L460.228 170.568L466.921 167.045Z" fill="#4671F6"/>
</g>
<rect x="434.482" y="176.311" width="13.45" height="33.908" fill="url(#paint16_linear_623_1583)"/>
<g clip-path="url(#clip12_623_1583)">
<path d="M447.921 169.045L447.921 176.796L441.228 180.319L434.534 176.796L434.534 169.045L434.96 168.822L441.228 172.04L447.419 168.781L447.921 169.045Z" fill="#6389FF"/>
<path d="M434.534 169.045L441.228 172.568L447.921 169.045L441.228 165.522L434.534 169.045Z" fill="#A5BDFE"/>
<path d="M447.921 169.045L447.921 176.796L441.228 180.319L441.228 172.568L447.921 169.045Z" fill="#4671F6"/>
</g>
<rect x="393.482" y="167.311" width="13.45" height="33.908" fill="url(#paint17_linear_623_1583)"/>
<g clip-path="url(#clip13_623_1583)">
<path d="M406.921 160.045L406.921 167.796L400.228 171.319L393.534 167.796L393.534 160.045L393.96 159.822L400.228 163.04L406.419 159.781L406.921 160.045Z" fill="#6389FF"/>
<path d="M393.534 160.045L400.228 163.568L406.921 160.045L400.228 156.522L393.534 160.045Z" fill="#A5BDFE"/>
<path d="M406.921 160.045L406.921 167.796L400.228 171.319L400.228 163.568L406.921 160.045Z" fill="#4671F6"/>
</g>
<rect x="404.482" y="173.311" width="13.45" height="33.908" fill="url(#paint18_linear_623_1583)"/>
<g clip-path="url(#clip14_623_1583)">
<path d="M417.921 166.045L417.921 173.796L411.228 177.319L404.534 173.796L404.534 166.045L404.96 165.822L411.228 169.04L417.419 165.781L417.921 166.045Z" fill="#6389FF"/>
<path d="M404.534 166.045L411.228 169.568L417.921 166.045L411.228 162.522L404.534 166.045Z" fill="#A5BDFE"/>
<path d="M417.921 166.045L417.921 173.796L411.228 177.319L411.228 169.568L417.921 166.045Z" fill="#4671F6"/>
</g>
<rect x="414.482" y="178.311" width="13.45" height="33.908" fill="url(#paint19_linear_623_1583)"/>
<g clip-path="url(#clip15_623_1583)">
<path d="M427.921 171.045L427.921 178.796L421.228 182.319L414.534 178.796L414.534 171.045L414.96 170.822L421.228 174.04L427.419 170.781L427.921 171.045Z" fill="#6389FF"/>
<path d="M414.534 171.045L421.228 174.568L427.921 171.045L421.228 167.522L414.534 171.045Z" fill="#A5BDFE"/>
<path d="M427.921 171.045L427.921 178.796L421.228 182.319L421.228 174.568L427.921 171.045Z" fill="#4671F6"/>
</g>
<rect x="424.482" y="183.311" width="13.45" height="33.908" fill="url(#paint20_linear_623_1583)"/>
<g clip-path="url(#clip16_623_1583)">
<path d="M437.921 176.045L437.921 183.796L431.228 187.319L424.534 183.796L424.534 176.045L424.96 175.822L431.228 179.04L437.419 175.781L437.921 176.045Z" fill="#6389FF"/>
<path d="M424.534 176.045L431.228 179.568L437.921 176.045L431.228 172.522L424.534 176.045Z" fill="#A5BDFE"/>
<path d="M437.921 176.045L437.921 183.796L431.228 187.319L431.228 179.568L437.921 176.045Z" fill="#4671F6"/>
</g>
<rect x="434.482" y="188.311" width="13.45" height="33.908" fill="url(#paint21_linear_623_1583)"/>
<g clip-path="url(#clip17_623_1583)">
<path d="M447.921 181.045L447.921 188.796L441.228 192.319L434.534 188.796L434.534 181.045L434.96 180.822L441.228 184.04L447.419 180.781L447.921 181.045Z" fill="#6389FF"/>
<path d="M434.534 181.045L441.228 184.568L447.921 181.045L441.228 177.522L434.534 181.045Z" fill="#A5BDFE"/>
<path d="M447.921 181.045L447.921 188.796L441.228 192.319L441.228 184.568L447.921 181.045Z" fill="#4671F6"/>
</g>
<g filter="url(#filter2_f_623_1583)">
<rect x="123.482" y="314.311" width="13.45" height="33.908" fill="url(#paint22_linear_623_1583)"/>
<g clip-path="url(#clip18_623_1583)">
<path d="M136.921 307.045L136.921 314.796L130.228 318.319L123.534 314.796L123.534 307.045L123.96 306.822L130.228 310.04L136.419 306.781L136.921 307.045Z" fill="#6389FF"/>
<path d="M123.534 307.045L130.228 310.568L136.921 307.045L130.228 303.522L123.534 307.045Z" fill="#A5BDFE"/>
<path d="M136.921 307.045L136.921 314.796L130.228 318.319L130.228 310.568L136.921 307.045Z" fill="#4671F6"/>
</g>
<rect x="133.482" y="319.311" width="13.45" height="33.908" fill="url(#paint23_linear_623_1583)"/>
<g clip-path="url(#clip19_623_1583)">
<path d="M146.921 312.045L146.921 319.796L140.228 323.319L133.534 319.796L133.534 312.045L133.96 311.822L140.228 315.04L146.419 311.781L146.921 312.045Z" fill="#6389FF"/>
<path d="M133.534 312.045L140.228 315.568L146.921 312.045L140.228 308.522L133.534 312.045Z" fill="#A5BDFE"/>
<path d="M146.921 312.045L146.921 319.796L140.228 323.319L140.228 315.568L146.921 312.045Z" fill="#4671F6"/>
</g>
<rect x="153.482" y="329.311" width="13.45" height="33.908" fill="url(#paint24_linear_623_1583)"/>
<g clip-path="url(#clip20_623_1583)">
<path d="M166.921 322.045L166.921 329.796L160.228 333.319L153.534 329.796L153.534 322.045L153.96 321.822L160.228 325.04L166.419 321.781L166.921 322.045Z" fill="#6389FF"/>
<path d="M153.534 322.045L160.228 325.568L166.921 322.045L160.228 318.522L153.534 322.045Z" fill="#A5BDFE"/>
<path d="M166.921 322.045L166.921 329.796L160.228 333.319L160.228 325.568L166.921 322.045Z" fill="#4671F6"/>
</g>
<rect x="163.482" y="334.311" width="13.45" height="33.908" fill="url(#paint25_linear_623_1583)"/>
<g clip-path="url(#clip21_623_1583)">
<path d="M176.921 327.045L176.921 334.796L170.228 338.319L163.534 334.796L163.534 327.045L163.96 326.822L170.228 330.04L176.419 326.781L176.921 327.045Z" fill="#6389FF"/>
<path d="M163.534 327.045L170.228 330.568L176.921 327.045L170.228 323.522L163.534 327.045Z" fill="#A5BDFE"/>
<path d="M176.921 327.045L176.921 334.796L170.228 338.319L170.228 330.568L176.921 327.045Z" fill="#4671F6"/>
</g>
<rect x="114.482" y="333.311" width="13.45" height="33.908" fill="url(#paint26_linear_623_1583)"/>
<g clip-path="url(#clip22_623_1583)">
<path d="M127.921 326.045L127.921 333.796L121.228 337.319L114.534 333.796L114.534 326.045L114.96 325.822L121.228 329.04L127.419 325.781L127.921 326.045Z" fill="#6389FF"/>
<path d="M114.534 326.045L121.228 329.568L127.921 326.045L121.228 322.522L114.534 326.045Z" fill="#A5BDFE"/>
<path d="M127.921 326.045L127.921 333.796L121.228 337.319L121.228 329.568L127.921 326.045Z" fill="#4671F6"/>
</g>
<rect x="124.482" y="338.311" width="13.45" height="33.908" fill="url(#paint27_linear_623_1583)"/>
<g clip-path="url(#clip23_623_1583)">
<path d="M137.921 331.045L137.921 338.796L131.228 342.319L124.534 338.796L124.534 331.045L124.96 330.822L131.228 334.04L137.419 330.781L137.921 331.045Z" fill="#6389FF"/>
<path d="M124.534 331.045L131.228 334.568L137.921 331.045L131.228 327.522L124.534 331.045Z" fill="#A5BDFE"/>
<path d="M137.921 331.045L137.921 338.796L131.228 342.319L131.228 334.568L137.921 331.045Z" fill="#4671F6"/>
</g>
<rect x="134.482" y="343.311" width="13.45" height="33.908" fill="url(#paint28_linear_623_1583)"/>
<g clip-path="url(#clip24_623_1583)">
<path d="M147.921 336.045L147.921 343.796L141.228 347.319L134.534 343.796L134.534 336.045L134.96 335.822L141.228 339.04L147.419 335.781L147.921 336.045Z" fill="#6389FF"/>
<path d="M134.534 336.045L141.228 339.568L147.921 336.045L141.228 332.522L134.534 336.045Z" fill="#A5BDFE"/>
<path d="M147.921 336.045L147.921 343.796L141.228 347.319L141.228 339.568L147.921 336.045Z" fill="#4671F6"/>
</g>
<rect x="144.482" y="348.311" width="13.45" height="33.908" fill="url(#paint29_linear_623_1583)"/>
<g clip-path="url(#clip25_623_1583)">
<path d="M157.921 341.045L157.921 348.796L151.228 352.319L144.534 348.796L144.534 341.045L144.96 340.822L151.228 344.04L157.419 340.781L157.921 341.045Z" fill="#6389FF"/>
<path d="M144.534 341.045L151.228 344.568L157.921 341.045L151.228 337.522L144.534 341.045Z" fill="#A5BDFE"/>
<path d="M157.921 341.045L157.921 348.796L151.228 352.319L151.228 344.568L157.921 341.045Z" fill="#4671F6"/>
</g>
</g>
<g opacity="0.5">
<rect x="484.482" y="218.311" width="13.45" height="33.908" fill="url(#paint30_linear_623_1583)"/>
<g clip-path="url(#clip26_623_1583)">
<path d="M497.921 211.045L497.921 218.796L491.228 222.319L484.534 218.796L484.534 211.045L484.96 210.822L491.228 214.04L497.419 210.781L497.921 211.045Z" fill="#6389FF"/>
<path d="M484.534 211.045L491.228 214.568L497.921 211.045L491.228 207.522L484.534 211.045Z" fill="#A5BDFE"/>
<path d="M497.921 211.045L497.921 218.796L491.228 222.318L491.228 214.568L497.921 211.045Z" fill="#4671F6"/>
</g>
</g>
<g filter="url(#filter3_f_623_1583)">
<path d="M304 314L367 314L367 319L304 319L304 314Z" fill="#A5BDFE"/>
</g>
<path d="M284.5 296.172L301 306L372.5 175L349.953 168.137C348.17 167.595 346.271 167.561 344.471 168.04L286.028 183.583C283.4 184.282 281.57 186.662 281.57 189.381L281.57 291.017C281.57 293.132 282.683 295.09 284.5 296.172Z" fill="url(#paint31_linear_623_1583)"/>
<path d="M298.273 197.139C298.273 194.384 300.148 191.984 302.821 191.317L369.227 174.753C373.013 173.809 376.679 176.673 376.679 180.575L376.679 280.903C376.679 283.543 374.953 285.873 372.427 286.642L306.021 306.87C302.166 308.044 298.273 305.16 298.273 301.13L298.273 197.139Z" fill="#4671F6"/>
<circle cx="336.749" cy="229.469" r="27.9385" fill="url(#paint32_linear_623_1583)"/>
<circle cx="336.749" cy="229.469" r="5.5877" fill="#4671F6"/>
<path d="M308.81 260.02C308.81 256.649 310.515 253.506 313.342 251.669L331.952 239.572C333.539 238.541 335.538 240.086 334.939 241.882L327.793 263.32C326.467 267.298 322.744 269.981 318.551 269.981C313.171 269.981 308.81 265.62 308.81 260.239L308.81 260.02Z" fill="white"/>
</g>
<defs>
<filter id="filter0_f_623_1583" x="195.828" y="222.007" width="19.7871" height="49.7864" filterUnits="userSpaceOnUse" color-interpolation-filters="sRGB">
<feFlood flood-opacity="0" result="BackgroundImageFix"/>
<feBlend mode="normal" in="SourceGraphic" in2="BackgroundImageFix" result="shape"/>
<feGaussianBlur stdDeviation="1" result="effect1_foregroundBlur_623_1583"/>
</filter>
<filter id="filter1_f_623_1583" x="466.836" y="241.254" width="143.972" height="365.539" filterUnits="userSpaceOnUse" color-interpolation-filters="sRGB">
<feFlood flood-opacity="0" result="BackgroundImageFix"/>
<feBlend mode="normal" in="SourceGraphic" in2="BackgroundImageFix" result="shape"/>
<feGaussianBlur stdDeviation="7" result="effect1_foregroundBlur_623_1583"/>
</filter>
<filter id="filter2_f_623_1583" x="109.478" y="299.17" width="72.501" height="87.0491" filterUnits="userSpaceOnUse" color-interpolation-filters="sRGB">
<feFlood flood-opacity="0" result="BackgroundImageFix"/>
<feBlend mode="normal" in="SourceGraphic" in2="BackgroundImageFix" result="shape"/>
<feGaussianBlur stdDeviation="2" result="effect1_foregroundBlur_623_1583"/>
</filter>
<filter id="filter3_f_623_1583" x="289" y="299" width="93" height="35" filterUnits="userSpaceOnUse" color-interpolation-filters="sRGB">
<feFlood flood-opacity="0" result="BackgroundImageFix"/>
<feBlend mode="normal" in="SourceGraphic" in2="BackgroundImageFix" result="shape"/>
<feGaussianBlur stdDeviation="7.5" result="effect1_foregroundBlur_623_1583"/>
</filter>
<linearGradient id="paint0_linear_623_1583" x1="442.218" y1="390.384" x2="214.598" y2="390.384" gradientUnits="userSpaceOnUse">
<stop stop-color="#DDE1E9"/>
<stop offset="0.432292" stop-color="#DDE1E9"/>
<stop offset="0.598958" stop-color="#F2F4F8"/>
<stop offset="1" stop-color="#FBFCFE"/>
</linearGradient>
<linearGradient id="paint1_linear_623_1583" x1="205.731" y1="235.506" x2="205.731" y2="269.794" gradientUnits="userSpaceOnUse">
<stop stop-color="#A5BDFE"/>
<stop offset="1" stop-color="#F2F4F8" stop-opacity="0"/>
</linearGradient>
<linearGradient id="paint2_linear_623_1583" x1="367.75" y1="82.0002" x2="367.75" y2="188" gradientUnits="userSpaceOnUse">
<stop stop-color="#A5BDFE"/>
<stop offset="1" stop-color="#F2F4F8" stop-opacity="0"/>
</linearGradient>
<linearGradient id="paint3_linear_623_1583" x1="538.78" y1="339.342" x2="538.78" y2="592.794" gradientUnits="userSpaceOnUse">
<stop stop-color="#A5BDFE"/>
<stop offset="1" stop-color="#F2F4F8" stop-opacity="0"/>
</linearGradient>
<linearGradient id="paint4_linear_623_1583" x1="285.999" y1="118" x2="285.999" y2="188" gradientUnits="userSpaceOnUse">
<stop stop-color="#A5BDFE"/>
<stop offset="1" stop-color="#F2F4F8" stop-opacity="0"/>
</linearGradient>
<linearGradient id="paint5_linear_623_1583" x1="270.55" y1="156" x2="270.55" y2="204" gradientUnits="userSpaceOnUse">
<stop stop-color="#A5BDFE"/>
<stop offset="1" stop-color="#F2F4F8" stop-opacity="0"/>
</linearGradient>
<linearGradient id="paint6_linear_623_1583" x1="240.526" y1="225.785" x2="240.526" y2="274.132" gradientUnits="userSpaceOnUse">
<stop stop-color="#A5BDFE"/>
<stop offset="1" stop-color="#F2F4F8" stop-opacity="0"/>
</linearGradient>
<linearGradient id="paint7_linear_623_1583" x1="434.05" y1="228" x2="434.05" y2="298" gradientUnits="userSpaceOnUse">
<stop stop-color="#A5BDFE"/>
<stop offset="1" stop-color="#F2F4F8" stop-opacity="0"/>
</linearGradient>
<linearGradient id="paint8_linear_623_1583" x1="420.207" y1="154.311" x2="420.207" y2="188.219" gradientUnits="userSpaceOnUse">
<stop stop-color="#A5BDFE"/>
<stop offset="1" stop-color="#F2F4F8" stop-opacity="0"/>
</linearGradient>
<linearGradient id="paint9_linear_623_1583" x1="430.207" y1="159.311" x2="430.207" y2="193.219" gradientUnits="userSpaceOnUse">
<stop stop-color="#A5BDFE"/>
<stop offset="1" stop-color="#F2F4F8" stop-opacity="0"/>
</linearGradient>
<linearGradient id="paint10_linear_623_1583" x1="410.207" y1="160.311" x2="410.207" y2="194.219" gradientUnits="userSpaceOnUse">
<stop stop-color="#A5BDFE"/>
<stop offset="1" stop-color="#F2F4F8" stop-opacity="0"/>
</linearGradient>
<linearGradient id="paint11_linear_623_1583" x1="440.207" y1="164.311" x2="440.207" y2="198.219" gradientUnits="userSpaceOnUse">
<stop stop-color="#A5BDFE"/>
<stop offset="1" stop-color="#F2F4F8" stop-opacity="0"/>
</linearGradient>
<linearGradient id="paint12_linear_623_1583" x1="421.207" y1="166.311" x2="421.207" y2="200.219" gradientUnits="userSpaceOnUse">
<stop stop-color="#A5BDFE"/>
<stop offset="1" stop-color="#F2F4F8" stop-opacity="0"/>
</linearGradient>
<linearGradient id="paint13_linear_623_1583" x1="450.207" y1="169.311" x2="450.207" y2="203.219" gradientUnits="userSpaceOnUse">
<stop stop-color="#A5BDFE"/>
<stop offset="1" stop-color="#F2F4F8" stop-opacity="0"/>
</linearGradient>
<linearGradient id="paint14_linear_623_1583" x1="431.207" y1="171.311" x2="431.207" y2="205.219" gradientUnits="userSpaceOnUse">
<stop stop-color="#A5BDFE"/>
<stop offset="1" stop-color="#F2F4F8" stop-opacity="0"/>
</linearGradient>
<linearGradient id="paint15_linear_623_1583" x1="460.207" y1="174.311" x2="460.207" y2="208.219" gradientUnits="userSpaceOnUse">
<stop stop-color="#A5BDFE"/>
<stop offset="1" stop-color="#F2F4F8" stop-opacity="0"/>
</linearGradient>
<linearGradient id="paint16_linear_623_1583" x1="441.207" y1="176.311" x2="441.207" y2="210.219" gradientUnits="userSpaceOnUse">
<stop stop-color="#A5BDFE"/>
<stop offset="1" stop-color="#F2F4F8" stop-opacity="0"/>
</linearGradient>
<linearGradient id="paint17_linear_623_1583" x1="400.207" y1="167.311" x2="400.207" y2="201.219" gradientUnits="userSpaceOnUse">
<stop stop-color="#A5BDFE"/>
<stop offset="1" stop-color="#F2F4F8" stop-opacity="0"/>
</linearGradient>
<linearGradient id="paint18_linear_623_1583" x1="411.207" y1="173.311" x2="411.207" y2="207.219" gradientUnits="userSpaceOnUse">
<stop stop-color="#A5BDFE"/>
<stop offset="1" stop-color="#F2F4F8" stop-opacity="0"/>
</linearGradient>
<linearGradient id="paint19_linear_623_1583" x1="421.207" y1="178.311" x2="421.207" y2="212.219" gradientUnits="userSpaceOnUse">
<stop stop-color="#A5BDFE"/>
<stop offset="1" stop-color="#F2F4F8" stop-opacity="0"/>
</linearGradient>
<linearGradient id="paint20_linear_623_1583" x1="431.207" y1="183.311" x2="431.207" y2="217.219" gradientUnits="userSpaceOnUse">
<stop stop-color="#A5BDFE"/>
<stop offset="1" stop-color="#F2F4F8" stop-opacity="0"/>
</linearGradient>
<linearGradient id="paint21_linear_623_1583" x1="441.207" y1="188.311" x2="441.207" y2="222.219" gradientUnits="userSpaceOnUse">
<stop stop-color="#A5BDFE"/>
<stop offset="1" stop-color="#F2F4F8" stop-opacity="0"/>
</linearGradient>
<linearGradient id="paint22_linear_623_1583" x1="130.207" y1="314.311" x2="130.207" y2="348.219" gradientUnits="userSpaceOnUse">
<stop stop-color="#A5BDFE"/>
<stop offset="1" stop-color="#F2F4F8" stop-opacity="0"/>
</linearGradient>
<linearGradient id="paint23_linear_623_1583" x1="140.207" y1="319.311" x2="140.207" y2="353.219" gradientUnits="userSpaceOnUse">
<stop stop-color="#A5BDFE"/>
<stop offset="1" stop-color="#F2F4F8" stop-opacity="0"/>
</linearGradient>
<linearGradient id="paint24_linear_623_1583" x1="160.207" y1="329.311" x2="160.207" y2="363.219" gradientUnits="userSpaceOnUse">
<stop stop-color="#A5BDFE"/>
<stop offset="1" stop-color="#F2F4F8" stop-opacity="0"/>
</linearGradient>
<linearGradient id="paint25_linear_623_1583" x1="170.207" y1="334.311" x2="170.207" y2="368.219" gradientUnits="userSpaceOnUse">
<stop stop-color="#A5BDFE"/>
<stop offset="1" stop-color="#F2F4F8" stop-opacity="0"/>
</linearGradient>
<linearGradient id="paint26_linear_623_1583" x1="121.207" y1="333.311" x2="121.207" y2="367.219" gradientUnits="userSpaceOnUse">
<stop stop-color="#A5BDFE"/>
<stop offset="1" stop-color="#F2F4F8" stop-opacity="0"/>
</linearGradient>
<linearGradient id="paint27_linear_623_1583" x1="131.207" y1="338.311" x2="131.207" y2="372.219" gradientUnits="userSpaceOnUse">
<stop stop-color="#A5BDFE"/>
<stop offset="1" stop-color="#F2F4F8" stop-opacity="0"/>
</linearGradient>
<linearGradient id="paint28_linear_623_1583" x1="141.207" y1="343.311" x2="141.207" y2="377.219" gradientUnits="userSpaceOnUse">
<stop stop-color="#A5BDFE"/>
<stop offset="1" stop-color="#F2F4F8" stop-opacity="0"/>
</linearGradient>
<linearGradient id="paint29_linear_623_1583" x1="151.207" y1="348.311" x2="151.207" y2="382.219" gradientUnits="userSpaceOnUse">
<stop stop-color="#A5BDFE"/>
<stop offset="1" stop-color="#F2F4F8" stop-opacity="0"/>
</linearGradient>
<linearGradient id="paint30_linear_623_1583" x1="491.207" y1="218.311" x2="491.207" y2="252.219" gradientUnits="userSpaceOnUse">
<stop stop-color="#A5BDFE"/>
<stop offset="1" stop-color="#F2F4F8" stop-opacity="0"/>
</linearGradient>
<linearGradient id="paint31_linear_623_1583" x1="335.352" y1="148.448" x2="269.696" y2="231.566" gradientUnits="userSpaceOnUse">
<stop stop-color="#5780FF"/>
<stop offset="0.536458" stop-color="#698EFF"/>
<stop offset="0.635417" stop-color="#A4BCFD"/>
<stop offset="1" stop-color="#A4BCFD"/>
</linearGradient>
<linearGradient id="paint32_linear_623_1583" x1="285.761" y1="276.966" x2="364.687" y2="214.104" gradientUnits="userSpaceOnUse">
<stop stop-color="#D9D9D9"/>
<stop offset="1" stop-color="#D9D9D9" stop-opacity="0"/>
</linearGradient>
<clipPath id="clip0_623_1583">
<rect width="620" height="460" fill="white"/>
</clipPath>
<clipPath id="clip1_623_1583">
<rect width="15.7874" height="15.7874" fill="white" transform="translate(197.828 224.007)"/>
</clipPath>
<clipPath id="clip2_623_1583">
<rect width="32" height="32" fill="white" transform="translate(269.995 95.002)"/>
</clipPath>
<clipPath id="clip3_623_1583">
<rect width="32" height="32" fill="white" transform="translate(417.996 205.002)"/>
</clipPath>
<clipPath id="clip4_623_1583">
<rect width="15.5008" height="15.5008" fill="white" transform="translate(412.478 143.17)"/>
</clipPath>
<clipPath id="clip5_623_1583">
<rect width="15.5008" height="15.5008" fill="white" transform="translate(422.478 148.17)"/>
</clipPath>
<clipPath id="clip6_623_1583">
<rect width="15.5008" height="15.5008" fill="white" transform="translate(402.478 149.17)"/>
</clipPath>
<clipPath id="clip7_623_1583">
<rect width="15.5008" height="15.5008" fill="white" transform="translate(432.478 153.17)"/>
</clipPath>
<clipPath id="clip8_623_1583">
<rect width="15.5008" height="15.5008" fill="white" transform="translate(413.478 155.17)"/>
</clipPath>
<clipPath id="clip9_623_1583">
<rect width="15.5008" height="15.5008" fill="white" transform="translate(442.478 158.17)"/>
</clipPath>
<clipPath id="clip10_623_1583">
<rect width="15.5008" height="15.5008" fill="white" transform="translate(423.478 160.17)"/>
</clipPath>
<clipPath id="clip11_623_1583">
<rect width="15.5008" height="15.5008" fill="white" transform="translate(452.478 163.17)"/>
</clipPath>
<clipPath id="clip12_623_1583">
<rect width="15.5008" height="15.5008" fill="white" transform="translate(433.478 165.17)"/>
</clipPath>
<clipPath id="clip13_623_1583">
<rect width="15.5008" height="15.5008" fill="white" transform="translate(392.478 156.17)"/>
</clipPath>
<clipPath id="clip14_623_1583">
<rect width="15.5008" height="15.5008" fill="white" transform="translate(403.478 162.17)"/>
</clipPath>
<clipPath id="clip15_623_1583">
<rect width="15.5008" height="15.5008" fill="white" transform="translate(413.478 167.17)"/>
</clipPath>
<clipPath id="clip16_623_1583">
<rect width="15.5008" height="15.5008" fill="white" transform="translate(423.478 172.17)"/>
</clipPath>
<clipPath id="clip17_623_1583">
<rect width="15.5008" height="15.5008" fill="white" transform="translate(433.478 177.17)"/>
</clipPath>
<clipPath id="clip18_623_1583">
<rect width="15.5008" height="15.5008" fill="white" transform="translate(122.478 303.17)"/>
</clipPath>
<clipPath id="clip19_623_1583">
<rect width="15.5008" height="15.5008" fill="white" transform="translate(132.478 308.17)"/>
</clipPath>
<clipPath id="clip20_623_1583">
<rect width="15.5008" height="15.5008" fill="white" transform="translate(152.478 318.17)"/>
</clipPath>
<clipPath id="clip21_623_1583">
<rect width="15.5008" height="15.5008" fill="white" transform="translate(162.478 323.17)"/>
</clipPath>
<clipPath id="clip22_623_1583">
<rect width="15.5008" height="15.5008" fill="white" transform="translate(113.478 322.17)"/>
</clipPath>
<clipPath id="clip23_623_1583">
<rect width="15.5008" height="15.5008" fill="white" transform="translate(123.478 327.17)"/>
</clipPath>
<clipPath id="clip24_623_1583">
<rect width="15.5008" height="15.5008" fill="white" transform="translate(133.478 332.17)"/>
</clipPath>
<clipPath id="clip25_623_1583">
<rect width="15.5008" height="15.5008" fill="white" transform="translate(143.478 337.17)"/>
</clipPath>
<clipPath id="clip26_623_1583">
<rect width="15.5008" height="15.5008" fill="white" transform="translate(483.478 207.17)"/>
</clipPath>
</defs>
</svg>
