<svg width="620" height="460" viewBox="0 0 620 460" fill="none" xmlns="http://www.w3.org/2000/svg">
<g clip-path="url(#clip0_623_1639)">
<path d="M620.5 227.5L195.008 370.996" stroke="url(#paint0_linear_623_1639)"/>
<path d="M619.008 314.496L264.008 434.996" stroke="url(#paint1_linear_623_1639)"/>
<path opacity="0.8" d="M620.999 142.5L123.997 315.001" stroke="url(#paint2_linear_623_1639)"/>
<path opacity="0.6" d="M628.999 118.5L237.95 256.367" stroke="url(#paint3_linear_623_1639)"/>
<path opacity="0.5" d="M623 74.5L263.549 197.283" stroke="url(#paint4_linear_623_1639)"/>
<path opacity="0.3" d="M679.002 14.499L324.002 134.999" stroke="url(#paint5_linear_623_1639)"/>
<path d="M462.812 269.747L424.385 283.961L350.507 236.494L398.895 223.429C399.951 223.144 401.064 223.153 402.114 223.454L462.385 240.749C464.958 241.487 466.73 243.84 466.73 246.516L466.731 264.12C466.731 266.631 465.167 268.876 462.812 269.747Z" fill="url(#paint6_linear_623_1639)"/>
<path d="M427.424 260.217C427.353 257.561 425.544 255.268 422.978 254.581L354.44 236.226C350.542 235.182 346.745 238.207 346.892 242.24L347.524 259.632C347.619 262.241 349.39 264.489 351.905 265.192L420.293 284.31C424.183 285.398 428.014 282.409 427.907 278.372L427.424 260.217Z" fill="#4671F6"/>
<path d="M462.812 232.747L424.385 246.961L350.507 199.494L398.895 186.429C399.951 186.144 401.064 186.153 402.114 186.454L462.385 203.749C464.958 204.487 466.73 206.84 466.73 209.516L466.731 227.12C466.731 229.631 465.167 231.876 462.812 232.747Z" fill="url(#paint7_linear_623_1639)"/>
<path d="M427.424 223.217C427.353 220.561 425.544 218.268 422.978 217.581L354.44 199.226C350.542 198.182 346.745 201.207 346.892 205.24L347.524 222.632C347.619 225.241 349.39 227.489 351.905 228.192L420.293 247.31C424.183 248.398 428.014 245.409 427.907 241.372L427.424 223.217Z" fill="#4671F6"/>
<path d="M462.813 195.748L424.386 209.962L350.508 162.495L398.896 149.43C399.952 149.145 401.065 149.153 402.115 149.455L462.386 166.75C464.959 167.488 466.731 169.841 466.731 172.517L466.731 190.121C466.732 192.632 465.168 194.877 462.813 195.748Z" fill="url(#paint8_linear_623_1639)"/>
<path d="M427.425 186.218C427.354 183.562 425.545 181.269 422.979 180.582L354.441 162.227C350.543 161.183 346.746 164.208 346.893 168.241L347.525 185.632C347.62 188.242 349.391 190.49 351.906 191.193L420.294 210.311C424.184 211.398 428.015 208.41 427.908 204.373L427.425 186.218Z" fill="#4671F6"/>
<g opacity="0.5" filter="url(#filter0_f_623_1639)">
<path d="M328.492 219.434L319.173 222.881L296.6 208.377L310.265 204.688C311.32 204.403 312.433 204.411 313.484 204.713L328.098 208.906C330.474 209.588 332.112 211.762 332.112 214.235C332.112 216.555 330.668 218.63 328.492 219.434Z" fill="url(#paint9_linear_623_1639)"/>
<path d="M320.154 217.597C320.102 215.616 318.753 213.906 316.839 213.394L301.137 209.189C298.288 208.426 295.513 210.637 295.62 213.584V213.584C295.69 215.491 296.984 217.134 298.822 217.648L314.477 222.025C317.378 222.835 320.234 220.607 320.154 217.597V217.597Z" fill="#4671F6"/>
<path d="M328.492 208.129L319.173 211.576L296.6 197.072L310.265 193.382C311.32 193.097 312.433 193.106 313.484 193.407L328.098 197.601C330.474 198.283 332.112 200.457 332.112 202.93C332.112 205.249 330.668 207.324 328.492 208.129Z" fill="url(#paint10_linear_623_1639)"/>
<path d="M320.154 206.291C320.102 204.311 318.753 202.601 316.839 202.089L301.137 197.884C298.288 197.121 295.513 199.331 295.62 202.279V202.279C295.69 204.186 296.984 205.829 298.822 206.343L314.477 210.719C317.378 211.53 320.234 209.302 320.154 206.291V206.291Z" fill="#4671F6"/>
<path d="M328.493 196.824L319.174 200.27L296.601 185.767L310.266 182.077C311.321 181.792 312.434 181.801 313.485 182.102L328.099 186.296C330.475 186.978 332.113 189.151 332.113 191.624C332.113 193.944 330.669 196.019 328.493 196.824Z" fill="url(#paint11_linear_623_1639)"/>
<path d="M320.155 194.986C320.103 193.006 318.754 191.296 316.84 190.783L301.138 186.578C298.289 185.815 295.514 188.026 295.621 190.973V190.973C295.691 192.88 296.985 194.524 298.823 195.037L314.478 199.414C317.378 200.224 320.235 197.996 320.155 194.986V194.986Z" fill="#4671F6"/>
</g>
<g filter="url(#filter1_f_623_1639)">
<path d="M522.426 294.834L500.467 302.956L455.319 273.949L484.262 266.134C485.318 265.849 486.431 265.857 487.482 266.159L521.999 276.064C524.572 276.802 526.344 279.155 526.344 281.831L526.345 289.206C526.345 291.717 524.781 293.963 522.426 294.834Z" fill="url(#paint12_linear_623_1639)"/>
<path d="M502.37 290.187C502.3 287.532 500.491 285.238 497.924 284.551L460.773 274.602C456.875 273.558 453.078 276.583 453.225 280.616L453.434 286.385C453.529 288.994 455.3 291.242 457.815 291.945L494.922 302.318C498.811 303.406 502.642 300.418 502.535 296.38L502.37 290.187Z" fill="#4671F6"/>
<path d="M522.426 272.223L500.467 280.345L455.319 251.338L484.262 243.523C485.318 243.238 486.431 243.247 487.482 243.548L521.999 253.453C524.572 254.191 526.344 256.544 526.344 259.22L526.345 266.595C526.345 269.106 524.781 271.352 522.426 272.223Z" fill="url(#paint13_linear_623_1639)"/>
<path d="M502.37 267.577C502.3 264.921 500.491 262.628 497.924 261.94L460.773 251.991C456.875 250.947 453.078 253.972 453.225 258.005L453.434 263.774C453.529 266.383 455.3 268.631 457.815 269.334L494.922 279.708C498.811 280.795 502.642 277.807 502.535 273.77L502.37 267.577Z" fill="#4671F6"/>
<path d="M522.426 249.612L500.467 257.735L455.319 228.727L484.262 220.912C485.318 220.627 486.431 220.636 487.482 220.937L521.999 230.842C524.572 231.58 526.344 233.933 526.344 236.609L526.345 243.985C526.345 246.495 524.781 248.741 522.426 249.612Z" fill="url(#paint14_linear_623_1639)"/>
<path d="M502.37 244.966C502.3 242.31 500.491 240.017 497.924 239.329L460.773 229.38C456.875 228.336 453.078 231.361 453.225 235.394L453.434 241.163C453.529 243.772 455.3 246.021 457.815 246.724L494.922 257.097C498.811 258.184 502.642 255.196 502.535 251.159L502.37 244.966Z" fill="#4671F6"/>
</g>
<g filter="url(#filter2_f_623_1639)">
<path d="M210.008 181.999L332 -28L624.008 2.99732L670.008 370.997L346.508 352.497L210.008 181.999Z" fill="url(#paint15_linear_623_1639)" fill-opacity="0.2"/>
</g>
<g filter="url(#filter3_dd_623_1639)">
<path fill-rule="evenodd" clip-rule="evenodd" d="M206.007 186.996L194.007 191.996L195.007 195.997L202.023 193.398C202.012 193.595 202.006 193.795 202.006 193.999L202.006 305.999C202.006 311.521 206.299 317.27 211.594 318.839L331.865 354.465L336.008 361.997L346.476 357.635C349.513 356.856 351.582 354.139 351.582 350.305L351.582 238.305C351.582 232.782 347.289 227.033 341.993 225.465L211.594 186.839C209.522 186.225 207.604 186.342 206.036 187.043L206.007 186.996Z" fill="url(#paint16_linear_623_1639)"/>
<rect width="156" height="132" rx="10" transform="matrix(0.95882 0.284015 -5.4602e-09 1 190.006 188.999)" fill="url(#paint17_linear_623_1639)"/>
</g>
<path d="M242.243 251.921C241.299 251.669 240.354 251.538 239.418 251.511C238.504 251.484 237.72 250.863 237.485 249.979L236.206 245.204L232.181 246.281L233.447 251.009C233.681 251.879 233.339 252.821 232.566 253.288C230.86 254.317 229.399 255.754 228.339 257.504C227.872 258.271 226.931 258.604 226.066 258.371L223.447 257.671L222.368 261.696L224.987 262.398C225.854 262.629 226.501 263.39 226.52 264.288C226.564 266.311 227.097 268.265 228.041 269.994C228.47 270.784 228.295 271.763 227.662 272.398L224.276 275.784L227.224 278.729L230.614 275.34C231.262 274.692 232.256 274.544 233.062 274.984C233.901 275.442 234.808 275.813 235.774 276.071C236.764 276.336 237.756 276.469 238.737 276.486C239.656 276.502 240.447 277.129 240.685 278.017L241.887 282.504L245.912 281.425L244.699 276.9C244.468 276.036 244.804 275.102 245.566 274.631C247.222 273.609 248.639 272.2 249.676 270.49C250.143 269.723 251.083 269.386 251.949 269.619L254.568 270.321L255.647 266.296L253.029 265.594C252.162 265.363 251.514 264.602 251.495 263.704C251.451 261.681 250.918 259.727 249.974 257.998C249.545 257.209 249.72 256.229 250.354 255.594L253.739 252.209L250.791 249.263L247.401 252.652C246.754 253.3 245.76 253.448 244.954 253.009C244.114 252.55 243.21 252.181 242.243 251.921Z" fill="#C0C0C0"/>
<path d="M220.897 263.311C223.198 263.311 225.064 261.445 225.064 259.144C225.064 256.843 223.198 254.977 220.897 254.977C218.596 254.977 216.73 256.843 216.73 259.144C216.73 261.445 218.596 263.311 220.897 263.311Z" fill="#585858"/>
<path d="M225.75 281.421C228.051 281.421 229.916 279.556 229.916 277.254C229.916 274.953 228.051 273.088 225.75 273.088C223.448 273.088 221.583 274.953 221.583 277.254C221.583 279.556 223.448 281.421 225.75 281.421Z" fill="#585858"/>
<path d="M243.862 286.273C246.163 286.273 248.029 284.408 248.029 282.107C248.029 279.805 246.163 277.94 243.862 277.94C241.561 277.94 239.695 279.805 239.695 282.107C239.695 284.408 241.561 286.273 243.862 286.273Z" fill="#585858"/>
<path d="M257.118 273.015C259.419 273.015 261.285 271.149 261.285 268.848C261.285 266.547 259.419 264.681 257.118 264.681C254.817 264.681 252.951 266.547 252.951 268.848C252.951 271.149 254.817 273.015 257.118 273.015Z" fill="#585858"/>
<path d="M252.266 254.904C254.567 254.904 256.433 253.039 256.433 250.738C256.433 248.437 254.567 246.571 252.266 246.571C249.965 246.571 248.1 248.437 248.1 250.738C248.1 253.039 249.965 254.904 252.266 254.904Z" fill="#585858"/>
<path d="M234.154 250.052C236.455 250.052 238.321 248.187 238.321 245.886C238.321 243.584 236.455 241.719 234.154 241.719C231.853 241.719 229.987 243.584 229.987 245.886C229.987 248.187 231.853 250.052 234.154 250.052Z" fill="#585858"/>
<path d="M242.133 272.329C243.859 272.329 245.258 270.93 245.258 269.204C245.258 267.478 243.859 266.079 242.133 266.079C240.407 266.079 239.008 267.478 239.008 269.204C239.008 270.93 240.407 272.329 242.133 272.329Z" fill="#585858"/>
<path d="M245.258 261.913C246.409 261.913 247.341 260.98 247.341 259.829C247.341 258.679 246.409 257.746 245.258 257.746C244.108 257.746 243.175 258.679 243.175 259.829C243.175 260.98 244.108 261.913 245.258 261.913Z" fill="#585858"/>
<path d="M234.841 266.079C237.143 266.079 239.008 264.214 239.008 261.913C239.008 259.612 237.143 257.746 234.841 257.746C232.54 257.746 230.675 259.612 230.675 261.913C230.675 264.214 232.54 266.079 234.841 266.079Z" fill="#585858"/>
<g filter="url(#filter4_f_623_1639)">
<path d="M190.95 276.751C190.384 276.6 189.817 276.521 189.255 276.505C188.707 276.489 188.237 276.116 188.095 275.586L187.328 272.721L184.913 273.367L185.673 276.204C185.813 276.726 185.608 277.291 185.144 277.571C184.12 278.189 183.244 279.051 182.608 280.101C182.328 280.561 181.763 280.761 181.244 280.621L179.673 280.201L179.025 282.616L180.597 283.037C181.117 283.176 181.505 283.632 181.517 284.171C181.543 285.385 181.863 286.557 182.429 287.595C182.687 288.069 182.582 288.656 182.202 289.037L180.17 291.069L181.939 292.836L183.973 290.802C184.362 290.414 184.958 290.325 185.442 290.589C185.945 290.864 186.489 291.086 187.069 291.241C187.663 291.4 188.258 291.48 188.847 291.49C189.398 291.5 189.873 291.876 190.015 292.409L190.737 295.101L193.152 294.454L192.424 291.739C192.285 291.22 192.487 290.66 192.944 290.377C193.938 289.764 194.788 288.919 195.41 287.892C195.69 287.432 196.254 287.23 196.774 287.37L198.345 287.791L198.993 285.376L197.422 284.955C196.902 284.816 196.513 284.36 196.502 283.821C196.475 282.607 196.155 281.435 195.589 280.397C195.332 279.924 195.437 279.336 195.817 278.955L197.848 276.924L196.079 275.156L194.045 277.19C193.657 277.579 193.06 277.667 192.577 277.404C192.073 277.129 191.53 276.907 190.95 276.751Z" fill="#C0C0C0"/>
<path d="M178.143 283.585C179.523 283.585 180.643 282.466 180.643 281.085C180.643 279.704 179.523 278.585 178.143 278.585C176.762 278.585 175.643 279.704 175.643 281.085C175.643 282.466 176.762 283.585 178.143 283.585Z" fill="#585858"/>
<path d="M181.054 294.451C182.434 294.451 183.554 293.332 183.554 291.951C183.554 290.57 182.434 289.451 181.054 289.451C179.673 289.451 178.554 290.57 178.554 291.951C178.554 293.332 179.673 294.451 181.054 294.451Z" fill="#585858"/>
<path d="M191.921 297.362C193.302 297.362 194.421 296.243 194.421 294.862C194.421 293.482 193.302 292.362 191.921 292.362C190.54 292.362 189.421 293.482 189.421 294.862C189.421 296.243 190.54 297.362 191.921 297.362Z" fill="#585858"/>
<path d="M199.875 289.407C201.256 289.407 202.375 288.288 202.375 286.907C202.375 285.527 201.256 284.407 199.875 284.407C198.494 284.407 197.375 285.527 197.375 286.907C197.375 288.288 198.494 289.407 199.875 289.407Z" fill="#585858"/>
<path d="M196.964 278.541C198.345 278.541 199.464 277.422 199.464 276.041C199.464 274.66 198.345 273.541 196.964 273.541C195.583 273.541 194.464 274.66 194.464 276.041C194.464 277.422 195.583 278.541 196.964 278.541Z" fill="#585858"/>
<path d="M186.097 275.63C187.477 275.63 188.597 274.511 188.597 273.13C188.597 271.749 187.477 270.63 186.097 270.63C184.716 270.63 183.597 271.749 183.597 273.13C183.597 274.511 184.716 275.63 186.097 275.63Z" fill="#585858"/>
<path d="M190.884 288.996C191.919 288.996 192.759 288.157 192.759 287.121C192.759 286.086 191.919 285.246 190.884 285.246C189.848 285.246 189.009 286.086 189.009 287.121C189.009 288.157 189.848 288.996 190.884 288.996Z" fill="#585858"/>
<path d="M192.759 282.746C193.449 282.746 194.009 282.186 194.009 281.496C194.009 280.806 193.449 280.246 192.759 280.246C192.068 280.246 191.509 280.806 191.509 281.496C191.509 282.186 192.068 282.746 192.759 282.746Z" fill="#585858"/>
<path d="M186.509 285.246C187.89 285.246 189.009 284.127 189.009 282.746C189.009 281.365 187.89 280.246 186.509 280.246C185.128 280.246 184.009 281.365 184.009 282.746C184.009 284.127 185.128 285.246 186.509 285.246Z" fill="#585858"/>
</g>
<g filter="url(#filter5_f_623_1639)">
<path d="M306.303 304.166C305.925 304.065 305.547 304.013 305.173 304.002C304.807 303.991 304.493 303.743 304.399 303.389L303.888 301.479L302.278 301.91L302.784 303.801C302.878 304.149 302.741 304.526 302.432 304.713C301.749 305.124 301.165 305.699 300.741 306.399C300.554 306.706 300.178 306.839 299.832 306.746L298.784 306.466L298.353 308.076L299.4 308.357C299.747 308.449 300.006 308.753 300.013 309.113C300.031 309.922 300.244 310.703 300.622 311.395C300.793 311.711 300.723 312.103 300.47 312.357L299.116 313.711L300.295 314.889L301.651 313.533C301.91 313.274 302.308 313.215 302.63 313.391C302.966 313.574 303.328 313.723 303.715 313.826C304.111 313.932 304.508 313.985 304.9 313.992C305.268 313.998 305.584 314.249 305.679 314.604L306.16 316.399L307.77 315.968L307.285 314.158C307.193 313.812 307.327 313.438 307.632 313.25C308.294 312.841 308.861 312.278 309.276 311.593C309.463 311.287 309.838 311.152 310.185 311.245L311.233 311.526L311.664 309.916L310.617 309.635C310.27 309.543 310.011 309.238 310.003 308.879C309.986 308.07 309.773 307.288 309.395 306.597C309.223 306.281 309.293 305.889 309.547 305.635L310.901 304.281L309.722 303.103L308.366 304.458C308.107 304.718 307.709 304.777 307.387 304.601C307.051 304.418 306.689 304.27 306.303 304.166Z" fill="#C0C0C0"/>
<path d="M297.764 308.722C298.685 308.722 299.431 307.976 299.431 307.055C299.431 306.135 298.685 305.388 297.764 305.388C296.844 305.388 296.098 306.135 296.098 307.055C296.098 307.976 296.844 308.722 297.764 308.722Z" fill="#585858"/>
<path d="M299.706 315.966C300.626 315.966 301.372 315.22 301.372 314.299C301.372 313.379 300.626 312.633 299.706 312.633C298.785 312.633 298.039 313.379 298.039 314.299C298.039 315.22 298.785 315.966 299.706 315.966Z" fill="#585858"/>
<path d="M306.951 317.907C307.871 317.907 308.618 317.16 308.618 316.24C308.618 315.319 307.871 314.573 306.951 314.573C306.03 314.573 305.284 315.319 305.284 316.24C305.284 317.16 306.03 317.907 306.951 317.907Z" fill="#585858"/>
<path d="M312.253 312.603C313.173 312.603 313.919 311.857 313.919 310.937C313.919 310.016 313.173 309.27 312.253 309.27C311.332 309.27 310.586 310.016 310.586 310.937C310.586 311.857 311.332 312.603 312.253 312.603Z" fill="#585858"/>
<path d="M310.312 305.359C311.233 305.359 311.979 304.613 311.979 303.693C311.979 302.772 311.233 302.026 310.312 302.026C309.392 302.026 308.646 302.772 308.646 303.693C308.646 304.613 309.392 305.359 310.312 305.359Z" fill="#585858"/>
<path d="M303.067 303.418C303.988 303.418 304.734 302.672 304.734 301.752C304.734 300.831 303.988 300.085 303.067 300.085C302.147 300.085 301.4 300.831 301.4 301.752C301.4 302.672 302.147 303.418 303.067 303.418Z" fill="#585858"/>
<path d="M306.259 312.329C306.949 312.329 307.509 311.769 307.509 311.079C307.509 310.389 306.949 309.829 306.259 309.829C305.568 309.829 305.009 310.389 305.009 311.079C305.009 311.769 305.568 312.329 306.259 312.329Z" fill="#585858"/>
<path d="M307.509 308.163C307.969 308.163 308.342 307.789 308.342 307.329C308.342 306.869 307.969 306.496 307.509 306.496C307.049 306.496 306.676 306.869 306.676 307.329C306.676 307.789 307.049 308.163 307.509 308.163Z" fill="#585858"/>
<path d="M303.342 309.829C304.263 309.829 305.009 309.083 305.009 308.163C305.009 307.242 304.263 306.496 303.342 306.496C302.422 306.496 301.676 307.242 301.676 308.163C301.676 309.083 302.422 309.829 303.342 309.829Z" fill="#585858"/>
</g>
<g clip-path="url(#clip1_623_1639)">
<path d="M435.181 113.89C435.316 111.409 433.63 108.544 431.255 107.359C421.386 102.445 422.144 94.719 411.53 91.2704C400.916 87.8218 401.675 96.0407 391.805 94.5414C389.43 94.1796 383.364 96.9284 383.499 99.4999C384.517 118.906 395.126 131.077 410.5 143C425.873 141.068 434.163 132.634 435.181 113.89Z" fill="url(#paint18_linear_623_1639)"/>
</g>
<g clip-path="url(#clip2_623_1639)">
<path d="M430.181 116.89C430.317 114.409 428.631 111.544 426.256 110.359C416.386 105.445 417.145 97.7191 406.531 94.2705C395.917 90.8218 396.676 99.0408 386.806 97.5414C384.431 97.1797 382.745 98.9494 382.881 101.521C383.898 120.927 391.157 132.348 406.531 144.27C421.905 142.338 429.164 135.634 430.181 116.89Z" fill="url(#paint19_linear_623_1639)"/>
<path d="M430.181 116.89C430.317 114.409 428.631 111.544 426.256 110.359C416.386 105.445 417.145 97.7191 406.531 94.2705C395.917 90.8218 396.676 99.0408 386.806 97.5414C384.431 97.1797 382.745 98.9494 382.881 101.521C383.898 120.927 391.157 132.348 406.531 144.27C421.905 142.338 429.164 135.634 430.181 116.89Z" fill="url(#paint20_linear_623_1639)"/>
<path d="M430.181 116.89C430.317 114.409 428.631 111.544 426.256 110.359C416.386 105.445 417.145 97.7191 406.531 94.2705C395.917 90.8218 396.676 99.0408 386.806 97.5414C384.431 97.1797 382.745 98.9494 382.881 101.521C383.898 120.927 391.157 132.348 406.531 144.27C421.905 142.338 429.164 135.634 430.181 116.89Z" fill="#4771F6"/>
</g>
<g filter="url(#filter6_f_623_1639)">
<g clip-path="url(#clip3_623_1639)">
<path d="M507.52 196.55C507.594 195.208 506.681 193.657 505.396 193.016C500.055 190.357 500.465 186.176 494.721 184.309C488.978 182.443 489.388 186.891 484.047 186.08C482.762 185.884 479.479 187.371 479.552 188.763C480.103 199.265 485.844 205.851 494.164 212.304C502.483 211.258 506.97 206.694 507.52 196.55Z" fill="url(#paint21_linear_623_1639)"/>
</g>
<g clip-path="url(#clip4_623_1639)">
<path d="M504.816 198.174C504.889 196.831 503.977 195.28 502.691 194.639C497.35 191.98 497.761 187.799 492.017 185.933C486.273 184.066 486.683 188.514 481.342 187.703C480.057 187.507 479.145 188.465 479.218 189.856C479.769 200.358 483.697 206.539 492.017 212.991C500.337 211.945 504.265 208.317 504.816 198.174Z" fill="url(#paint22_linear_623_1639)"/>
<path d="M504.816 198.174C504.889 196.831 503.977 195.28 502.691 194.639C497.35 191.98 497.761 187.799 492.017 185.933C486.273 184.066 486.683 188.514 481.342 187.703C480.057 187.507 479.145 188.465 479.218 189.856C479.769 200.358 483.697 206.539 492.017 212.991C500.337 211.945 504.265 208.317 504.816 198.174Z" fill="url(#paint23_linear_623_1639)"/>
<path d="M504.816 198.174C504.889 196.831 503.977 195.28 502.691 194.639C497.35 191.98 497.761 187.799 492.017 185.933C486.273 184.066 486.683 188.514 481.342 187.703C480.057 187.507 479.145 188.465 479.218 189.856C479.769 200.358 483.697 206.539 492.017 212.991C500.337 211.945 504.265 208.317 504.816 198.174Z" fill="#4771F6"/>
</g>
</g>
<g opacity="0.5" filter="url(#filter7_f_623_1639)">
<g clip-path="url(#clip5_623_1639)">
<path d="M322.157 167.133C322.2 166.357 321.673 165.461 320.93 165.09C317.842 163.553 318.079 161.136 314.759 160.058C311.439 158.979 311.676 161.55 308.589 161.081C307.846 160.968 305.949 161.827 305.991 162.632C306.309 168.702 309.628 172.51 314.437 176.239C319.246 175.635 321.839 172.997 322.157 167.133Z" fill="url(#paint24_linear_623_1639)"/>
</g>
<g clip-path="url(#clip6_623_1639)">
<path d="M320.593 168.071C320.635 167.295 320.108 166.399 319.365 166.028C316.277 164.491 316.515 162.074 313.194 160.996C309.874 159.917 310.112 162.488 307.024 162.019C306.281 161.906 305.754 162.459 305.796 163.264C306.115 169.334 308.385 172.907 313.194 176.636C318.004 176.032 320.274 173.935 320.593 168.071Z" fill="url(#paint25_linear_623_1639)"/>
<path d="M320.593 168.071C320.635 167.295 320.108 166.399 319.365 166.028C316.277 164.491 316.515 162.074 313.194 160.996C309.874 159.917 310.112 162.488 307.024 162.019C306.281 161.906 305.754 162.459 305.796 163.264C306.115 169.334 308.385 172.907 313.194 176.636C318.004 176.032 320.274 173.935 320.593 168.071Z" fill="url(#paint26_linear_623_1639)"/>
<path d="M320.593 168.071C320.635 167.295 320.108 166.399 319.365 166.028C316.277 164.491 316.515 162.074 313.194 160.996C309.874 159.917 310.112 162.488 307.024 162.019C306.281 161.906 305.754 162.459 305.796 163.264C306.115 169.334 308.385 172.907 313.194 176.636C318.004 176.032 320.274 173.935 320.593 168.071Z" fill="#4771F6"/>
</g>
</g>
</g>
<defs>
<filter id="filter0_f_623_1639" x="291.617" y="177.869" width="44.4961" height="49.0117" filterUnits="userSpaceOnUse" color-interpolation-filters="sRGB">
<feFlood flood-opacity="0" result="BackgroundImageFix"/>
<feBlend mode="normal" in="SourceGraphic" in2="BackgroundImageFix" result="shape"/>
<feGaussianBlur stdDeviation="2" result="effect1_foregroundBlur_623_1639"/>
</filter>
<filter id="filter1_f_623_1639" x="449.221" y="216.704" width="81.124" height="90.252" filterUnits="userSpaceOnUse" color-interpolation-filters="sRGB">
<feFlood flood-opacity="0" result="BackgroundImageFix"/>
<feBlend mode="normal" in="SourceGraphic" in2="BackgroundImageFix" result="shape"/>
<feGaussianBlur stdDeviation="2" result="effect1_foregroundBlur_623_1639"/>
</filter>
<filter id="filter2_f_623_1639" x="198.008" y="-40" width="484" height="422.997" filterUnits="userSpaceOnUse" color-interpolation-filters="sRGB">
<feFlood flood-opacity="0" result="BackgroundImageFix"/>
<feBlend mode="normal" in="SourceGraphic" in2="BackgroundImageFix" result="shape"/>
<feGaussianBlur stdDeviation="6" result="effect1_foregroundBlur_623_1639"/>
</filter>
<filter id="filter3_dd_623_1639" x="177.006" y="185.44" width="191.576" height="207.423" filterUnits="userSpaceOnUse" color-interpolation-filters="sRGB">
<feFlood flood-opacity="0" result="BackgroundImageFix"/>
<feColorMatrix in="SourceAlpha" type="matrix" values="0 0 0 0 0 0 0 0 0 0 0 0 0 0 0 0 0 0 127 0" result="hardAlpha"/>
<feOffset dx="2" dy="15"/>
<feGaussianBlur stdDeviation="7.5"/>
<feComposite in2="hardAlpha" operator="out"/>
<feColorMatrix type="matrix" values="0 0 0 0 0.278431 0 0 0 0 0.443137 0 0 0 0 0.964706 0 0 0 0.05 0"/>
<feBlend mode="normal" in2="BackgroundImageFix" result="effect1_dropShadow_623_1639"/>
<feColorMatrix in="SourceAlpha" type="matrix" values="0 0 0 0 0 0 0 0 0 0 0 0 0 0 0 0 0 0 127 0" result="hardAlpha"/>
<feOffset dx="2" dy="2"/>
<feGaussianBlur stdDeviation="1.5"/>
<feComposite in2="hardAlpha" operator="out"/>
<feColorMatrix type="matrix" values="0 0 0 0 0.278431 0 0 0 0 0.443137 0 0 0 0 0.964706 0 0 0 0.1 0"/>
<feBlend mode="normal" in2="effect1_dropShadow_623_1639" result="effect2_dropShadow_623_1639"/>
<feBlend mode="normal" in="SourceGraphic" in2="effect2_dropShadow_623_1639" result="shape"/>
</filter>
<filter id="filter4_f_623_1639" x="170.009" y="264.996" width="38" height="38" filterUnits="userSpaceOnUse" color-interpolation-filters="sRGB">
<feFlood flood-opacity="0" result="BackgroundImageFix"/>
<feBlend mode="normal" in="SourceGraphic" in2="BackgroundImageFix" result="shape"/>
<feGaussianBlur stdDeviation="2" result="effect1_foregroundBlur_623_1639"/>
</filter>
<filter id="filter5_f_623_1639" x="291.009" y="294.996" width="28" height="28" filterUnits="userSpaceOnUse" color-interpolation-filters="sRGB">
<feFlood flood-opacity="0" result="BackgroundImageFix"/>
<feBlend mode="normal" in="SourceGraphic" in2="BackgroundImageFix" result="shape"/>
<feGaussianBlur stdDeviation="2" result="effect1_foregroundBlur_623_1639"/>
</filter>
<filter id="filter6_f_623_1639" x="474.576" y="174.587" width="37.5859" height="48.127" filterUnits="userSpaceOnUse" color-interpolation-filters="sRGB">
<feFlood flood-opacity="0" result="BackgroundImageFix"/>
<feBlend mode="normal" in="SourceGraphic" in2="BackgroundImageFix" result="shape"/>
<feGaussianBlur stdDeviation="1" result="effect1_foregroundBlur_623_1639"/>
</filter>
<filter id="filter7_f_623_1639" x="302.27" y="153.594" width="23.415" height="29.5068" filterUnits="userSpaceOnUse" color-interpolation-filters="sRGB">
<feFlood flood-opacity="0" result="BackgroundImageFix"/>
<feBlend mode="normal" in="SourceGraphic" in2="BackgroundImageFix" result="shape"/>
<feGaussianBlur stdDeviation="1" result="effect1_foregroundBlur_623_1639"/>
</filter>
<linearGradient id="paint0_linear_623_1639" x1="288.008" y1="340.996" x2="195.008" y2="371.996" gradientUnits="userSpaceOnUse">
<stop stop-color="#D0D9EB"/>
<stop offset="1" stop-color="#D0D9EB" stop-opacity="0"/>
</linearGradient>
<linearGradient id="paint1_linear_623_1639" x1="528.008" y1="332.996" x2="264.008" y2="443.996" gradientUnits="userSpaceOnUse">
<stop stop-color="#D0D9EB"/>
<stop offset="1" stop-color="#D0D9EB" stop-opacity="0"/>
</linearGradient>
<linearGradient id="paint2_linear_623_1639" x1="195.998" y1="291.001" x2="123.998" y2="313.001" gradientUnits="userSpaceOnUse">
<stop stop-color="#D0D9EB"/>
<stop offset="1" stop-color="#D0D9EB" stop-opacity="0"/>
</linearGradient>
<linearGradient id="paint3_linear_623_1639" x1="302.251" y1="222.112" x2="237.846" y2="248.225" gradientUnits="userSpaceOnUse">
<stop stop-color="#D0D9EB"/>
<stop offset="1" stop-color="#D0D9EB" stop-opacity="0"/>
</linearGradient>
<linearGradient id="paint4_linear_623_1639" x1="443.779" y1="136.139" x2="263.316" y2="194.521" gradientUnits="userSpaceOnUse">
<stop stop-color="#D0D9EB"/>
<stop offset="1" stop-color="#D0D9EB" stop-opacity="0"/>
</linearGradient>
<linearGradient id="paint5_linear_623_1639" x1="428.002" y1="97.9988" x2="324.002" y2="135.999" gradientUnits="userSpaceOnUse">
<stop stop-color="#D0D9EB"/>
<stop offset="1" stop-color="#D0D9EB" stop-opacity="0"/>
</linearGradient>
<linearGradient id="paint6_linear_623_1639" x1="413.717" y1="176.166" x2="475.09" y2="298.646" gradientUnits="userSpaceOnUse">
<stop stop-color="#5780FF"/>
<stop offset="0.536458" stop-color="#698EFF"/>
<stop offset="0.635417" stop-color="#A4BCFD"/>
<stop offset="1" stop-color="#A4BCFD"/>
</linearGradient>
<linearGradient id="paint7_linear_623_1639" x1="413.717" y1="139.166" x2="475.09" y2="261.646" gradientUnits="userSpaceOnUse">
<stop stop-color="#5780FF"/>
<stop offset="0.536458" stop-color="#698EFF"/>
<stop offset="0.635417" stop-color="#A4BCFD"/>
<stop offset="1" stop-color="#A4BCFD"/>
</linearGradient>
<linearGradient id="paint8_linear_623_1639" x1="413.718" y1="102.166" x2="475.091" y2="224.646" gradientUnits="userSpaceOnUse">
<stop stop-color="#5780FF"/>
<stop offset="0.536458" stop-color="#698EFF"/>
<stop offset="0.635417" stop-color="#A4BCFD"/>
<stop offset="1" stop-color="#A4BCFD"/>
</linearGradient>
<linearGradient id="paint9_linear_623_1639" x1="315.914" y1="189.944" x2="334.667" y2="227.368" gradientUnits="userSpaceOnUse">
<stop stop-color="#5780FF"/>
<stop offset="0.536458" stop-color="#698EFF"/>
<stop offset="0.635417" stop-color="#A4BCFD"/>
<stop offset="1" stop-color="#A4BCFD"/>
</linearGradient>
<linearGradient id="paint10_linear_623_1639" x1="315.914" y1="178.638" x2="334.667" y2="216.063" gradientUnits="userSpaceOnUse">
<stop stop-color="#5780FF"/>
<stop offset="0.536458" stop-color="#698EFF"/>
<stop offset="0.635417" stop-color="#A4BCFD"/>
<stop offset="1" stop-color="#A4BCFD"/>
</linearGradient>
<linearGradient id="paint11_linear_623_1639" x1="315.915" y1="167.333" x2="334.668" y2="204.757" gradientUnits="userSpaceOnUse">
<stop stop-color="#5780FF"/>
<stop offset="0.536458" stop-color="#698EFF"/>
<stop offset="0.635417" stop-color="#A4BCFD"/>
<stop offset="1" stop-color="#A4BCFD"/>
</linearGradient>
<linearGradient id="paint12_linear_623_1639" x1="493.947" y1="237.081" x2="531.453" y2="311.93" gradientUnits="userSpaceOnUse">
<stop stop-color="#5780FF"/>
<stop offset="0.536458" stop-color="#698EFF"/>
<stop offset="0.635417" stop-color="#A4BCFD"/>
<stop offset="1" stop-color="#A4BCFD"/>
</linearGradient>
<linearGradient id="paint13_linear_623_1639" x1="493.947" y1="214.47" x2="531.453" y2="289.319" gradientUnits="userSpaceOnUse">
<stop stop-color="#5780FF"/>
<stop offset="0.536458" stop-color="#698EFF"/>
<stop offset="0.635417" stop-color="#A4BCFD"/>
<stop offset="1" stop-color="#A4BCFD"/>
</linearGradient>
<linearGradient id="paint14_linear_623_1639" x1="493.947" y1="191.86" x2="531.453" y2="266.708" gradientUnits="userSpaceOnUse">
<stop stop-color="#5780FF"/>
<stop offset="0.536458" stop-color="#698EFF"/>
<stop offset="0.635417" stop-color="#A4BCFD"/>
<stop offset="1" stop-color="#A4BCFD"/>
</linearGradient>
<linearGradient id="paint15_linear_623_1639" x1="297.007" y1="239.996" x2="445.007" y2="96.9958" gradientUnits="userSpaceOnUse">
<stop stop-color="#4671F6"/>
<stop offset="1" stop-color="#4671F6" stop-opacity="0"/>
</linearGradient>
<linearGradient id="paint16_linear_623_1639" x1="349.665" y1="349.118" x2="194.467" y2="184.845" gradientUnits="userSpaceOnUse">
<stop stop-color="#E0E4EF"/>
<stop offset="0.260417" stop-color="#E0E4EF"/>
<stop offset="0.354167" stop-color="#D3D8E6"/>
<stop offset="0.515625" stop-color="#E9E9F5"/>
<stop offset="1" stop-color="#F0F0F7"/>
</linearGradient>
<linearGradient id="paint17_linear_623_1639" x1="0.00127572" y1="23.9974" x2="112.495" y2="154.461" gradientUnits="userSpaceOnUse">
<stop stop-color="white"/>
<stop offset="0.25" stop-color="#F1F3F6"/>
<stop offset="0.515625" stop-color="white"/>
<stop offset="1" stop-color="white"/>
</linearGradient>
<linearGradient id="paint18_linear_623_1639" x1="411.531" y1="91.2705" x2="396.836" y2="136.496" gradientUnits="userSpaceOnUse">
<stop stop-color="#B8CAEF"/>
<stop offset="1" stop-color="#4A74F6"/>
</linearGradient>
<linearGradient id="paint19_linear_623_1639" x1="406.531" y1="94.2705" x2="391.836" y2="139.496" gradientUnits="userSpaceOnUse">
<stop stop-color="#B8CAEF"/>
<stop offset="1" stop-color="#4A74F6"/>
</linearGradient>
<linearGradient id="paint20_linear_623_1639" x1="406.531" y1="94.2705" x2="391.836" y2="139.496" gradientUnits="userSpaceOnUse">
<stop stop-color="#B8CAEF"/>
<stop offset="1" stop-color="#4A74F6"/>
</linearGradient>
<linearGradient id="paint21_linear_623_1639" x1="494.722" y1="184.309" x2="486.769" y2="208.784" gradientUnits="userSpaceOnUse">
<stop stop-color="#B8CAEF"/>
<stop offset="1" stop-color="#4A74F6"/>
</linearGradient>
<linearGradient id="paint22_linear_623_1639" x1="492.017" y1="185.933" x2="484.065" y2="210.407" gradientUnits="userSpaceOnUse">
<stop stop-color="#B8CAEF"/>
<stop offset="1" stop-color="#4A74F6"/>
</linearGradient>
<linearGradient id="paint23_linear_623_1639" x1="492.017" y1="185.933" x2="484.065" y2="210.407" gradientUnits="userSpaceOnUse">
<stop stop-color="#B8CAEF"/>
<stop offset="1" stop-color="#4A74F6"/>
</linearGradient>
<linearGradient id="paint24_linear_623_1639" x1="314.759" y1="160.058" x2="310.163" y2="174.205" gradientUnits="userSpaceOnUse">
<stop stop-color="#B8CAEF"/>
<stop offset="1" stop-color="#4A74F6"/>
</linearGradient>
<linearGradient id="paint25_linear_623_1639" x1="313.194" y1="160.996" x2="308.598" y2="175.143" gradientUnits="userSpaceOnUse">
<stop stop-color="#B8CAEF"/>
<stop offset="1" stop-color="#4A74F6"/>
</linearGradient>
<linearGradient id="paint26_linear_623_1639" x1="313.194" y1="160.996" x2="308.598" y2="175.143" gradientUnits="userSpaceOnUse">
<stop stop-color="#B8CAEF"/>
<stop offset="1" stop-color="#4A74F6"/>
</linearGradient>
<clipPath id="clip0_623_1639">
<rect width="620" height="460" fill="white"/>
</clipPath>
<clipPath id="clip1_623_1639">
<rect width="60" height="60" fill="white" transform="matrix(0.951057 0.309017 -5.4602e-09 1 382.999 77)"/>
</clipPath>
<clipPath id="clip2_623_1639">
<rect width="60" height="60" fill="white" transform="matrix(0.951057 0.309017 -5.4602e-09 1 377.999 80)"/>
</clipPath>
<clipPath id="clip3_623_1639">
<rect width="32.47" height="32.47" fill="white" transform="matrix(0.951057 0.309017 -5.4602e-09 1 479.281 176.587)"/>
</clipPath>
<clipPath id="clip4_623_1639">
<rect width="32.47" height="32.47" fill="white" transform="matrix(0.951057 0.309017 -5.4602e-09 1 476.576 178.21)"/>
</clipPath>
<clipPath id="clip5_623_1639">
<rect width="18.7687" height="18.7687" fill="white" transform="matrix(0.951057 0.309017 -5.4602e-09 1 305.834 155.594)"/>
</clipPath>
<clipPath id="clip6_623_1639">
<rect width="18.7687" height="18.7687" fill="white" transform="matrix(0.951057 0.309017 -5.4602e-09 1 304.27 156.532)"/>
</clipPath>
</defs>
</svg>
