<svg width="388" height="500" viewBox="0 0 388 500" fill="none" xmlns="http://www.w3.org/2000/svg">
<g clip-path="url(#clip0_482_1166)">
<g opacity="0.5" filter="url(#filter0_f_482_1166)">
<path d="M197.014 87.0078L435.171 224.508L435.171 499.508L197.014 637.008L-41.1433 499.508L-41.1433 224.508L197.014 87.0078Z" fill="#E8ECF5"/>
</g>
<g filter="url(#filter1_f_482_1166)">
<path d="M199.014 168.008L372.219 268.008L372.219 468.008L199.014 568.008L25.8086 468.008L25.8086 268.008L199.014 168.008Z" fill="#E8ECF5"/>
</g>
<rect x="85.5977" y="360.56" width="227.62" height="139.231" fill="url(#paint0_linear_482_1166)"/>
<path d="M188.678 321.401C193.834 319.703 199.392 319.661 204.573 321.282L308.35 353.738C315.375 355.935 315.424 365.861 308.42 368.127L204.822 401.644C199.488 403.37 193.739 403.326 188.433 401.517L90.3294 368.089C83.4727 365.753 83.5223 356.038 90.4025 353.772L188.678 321.401Z" fill="white"/>
<g opacity="0.3" filter="url(#filter2_f_482_1166)">
<ellipse cx="195.503" cy="354.567" rx="41.5" ry="5.565" fill="#7294FF"/>
</g>
<path fill-rule="evenodd" clip-rule="evenodd" d="M170.836 305L168.003 305L168.003 293.667L170.836 293.667C173.964 293.667 176.503 291.122 176.503 288L176.503 248.333C176.503 245.211 173.964 242.667 170.836 242.667L168.003 242.667L168.003 231.333L170.836 231.333C180.209 231.333 187.836 238.961 187.836 248.333L187.836 262.5L196.336 262.5L196.336 273.833L187.836 273.833L187.836 288C187.836 297.373 180.209 305 170.836 305Z" fill="url(#paint1_linear_482_1166)"/>
<path d="M241.002 316.334L212.669 316.334C203.279 316.334 195.669 308.723 195.669 299.334L195.669 242.667C195.669 233.277 203.279 225.667 212.669 225.667L241.002 225.667C250.392 225.667 258.002 233.277 258.002 242.667L258.002 299.334C258.002 308.723 250.392 316.334 241.002 316.334Z" fill="#BDCEEE"/>
<path d="M157.003 254L145.669 254C139.408 254 134.336 248.928 134.336 242.667L134.336 231.333C134.336 225.072 139.408 220 145.669 220L157.003 220C163.264 220 168.336 225.072 168.336 231.333L168.336 242.667C168.336 248.928 163.264 254 157.003 254Z" fill="#BDCEEE"/>
<path d="M157.004 316.333L145.67 316.333C139.409 316.333 134.337 311.262 134.337 305L134.337 293.667C134.337 287.405 139.409 282.333 145.67 282.333L157.004 282.333C163.265 282.333 168.337 287.405 168.337 293.667L168.337 305C168.337 311.262 163.265 316.333 157.004 316.333Z" fill="#BDCEEE"/>
<path d="M238.17 254L215.503 254C210.811 254 207.003 250.198 207.003 245.5C207.003 240.802 210.811 237 215.503 237L238.17 237C242.862 237 246.67 240.802 246.67 245.5C246.67 250.198 242.862 254 238.17 254Z" fill="url(#paint2_linear_482_1166)"/>
<path d="M238.17 276.667L215.503 276.667C210.811 276.667 207.003 272.865 207.003 268.167C207.003 263.469 210.811 259.667 215.503 259.667L238.17 259.667C242.862 259.667 246.67 263.469 246.67 268.167C246.67 272.865 242.862 276.667 238.17 276.667Z" fill="url(#paint3_linear_482_1166)"/>
<path d="M226.836 305C231.53 305 235.336 301.194 235.336 296.5C235.336 291.806 231.53 288 226.836 288C222.142 288 218.336 291.806 218.336 296.5C218.336 301.194 222.142 305 226.836 305Z" fill="url(#paint4_linear_482_1166)"/>
<path d="M38.6663 181.667C38.6663 180.907 39.0287 180.229 39.5989 179.775C40.1055 179.369 40.3281 178.725 40.0949 178.137C39.6837 177.111 39.1008 176.165 38.378 175.333C37.971 174.865 37.2885 174.687 36.6907 174.903C35.9721 175.163 35.1455 175.129 34.4269 174.739C33.7062 174.347 33.261 173.683 33.1445 172.965C33.0491 172.377 32.5552 171.907 31.9341 171.807C31.366 171.715 30.7831 171.667 30.1875 171.667C29.5919 171.667 29.009 171.715 28.443 171.807C27.8219 171.907 27.328 172.377 27.2327 172.965C27.114 173.683 26.6688 174.347 25.9481 174.739C25.2295 175.129 24.4029 175.163 23.6843 174.903C23.0887 174.685 22.404 174.865 21.9991 175.333C21.2742 176.167 20.6913 177.111 20.2822 178.137C20.0469 178.725 20.2695 179.369 20.7782 179.775C21.3463 180.229 21.7087 180.907 21.7087 181.667C21.7087 182.427 21.3463 183.105 20.7761 183.559C20.2695 183.965 20.0469 184.609 20.2801 185.197C20.6913 186.223 21.2742 187.169 21.997 188.001C22.404 188.469 23.0865 188.647 23.6843 188.431C24.4008 188.171 25.2295 188.203 25.9481 188.595C26.6688 188.987 27.114 189.651 27.2305 190.369C27.3259 190.957 27.8198 191.427 28.4409 191.527C29.009 191.619 29.5919 191.667 30.1875 191.667C30.7831 191.667 31.366 191.619 31.932 191.527C32.5531 191.427 33.047 190.957 33.1423 190.369C33.2589 189.649 33.7041 188.987 34.4248 188.595C35.1433 188.203 35.97 188.171 36.6886 188.431C37.2863 188.649 37.9689 188.469 38.3759 188.001C39.1008 187.167 39.6837 186.223 40.0928 185.197C40.3281 184.611 40.1055 183.965 39.5968 183.559C39.0287 183.105 38.6663 182.427 38.6663 181.667ZM30.1875 185.667C27.8452 185.667 25.9481 183.875 25.9481 181.667C25.9481 179.459 27.8452 177.667 30.1875 177.667C32.5298 177.667 34.4269 179.459 34.4269 181.667C34.4269 183.875 32.5298 185.667 30.1875 185.667Z" fill="#2457B8" fill-opacity="0.2"/>
<g filter="url(#filter3_f_482_1166)">
<path d="M36.9514 321.667C36.9514 320.907 37.3139 320.229 37.8841 319.775C38.3907 319.369 38.6132 318.725 38.3801 318.137C37.9689 317.111 37.386 316.165 36.6631 315.333C36.2562 314.865 35.5736 314.687 34.9759 314.903C34.2573 315.163 33.4306 315.129 32.712 314.739C31.9913 314.347 31.5462 313.683 31.4296 312.965C31.3342 312.377 30.8403 311.907 30.2193 311.807C29.6512 311.715 29.0683 311.667 28.4727 311.667C27.877 311.667 27.2941 311.715 26.7282 311.807C26.1071 311.907 25.6132 312.377 25.5178 312.965C25.3991 313.683 24.954 314.347 24.2333 314.739C23.5147 315.129 22.688 315.163 21.9695 314.903C21.3738 314.685 20.6892 314.865 20.2843 315.333C19.5594 316.167 18.9765 317.111 18.5674 318.137C18.3321 318.725 18.5546 319.369 19.0634 319.775C19.6314 320.229 19.9939 320.907 19.9939 321.667C19.9939 322.427 19.6314 323.105 19.0612 323.559C18.5546 323.965 18.3321 324.609 18.5652 325.197C18.9765 326.223 19.5594 327.169 20.2822 328.001C20.6892 328.469 21.3717 328.647 21.9695 328.431C22.6859 328.171 23.5147 328.203 24.2333 328.595C24.954 328.987 25.3991 329.651 25.5157 330.369C25.6111 330.957 26.105 331.427 26.726 331.527C27.2941 331.619 27.877 331.667 28.4727 331.667C29.0683 331.667 29.6512 331.619 30.2172 331.527C30.8382 331.427 31.3321 330.957 31.4275 330.369C31.5441 329.649 31.9892 328.987 32.7099 328.595C33.4285 328.203 34.2552 328.171 34.9737 328.431C35.5715 328.649 36.254 328.469 36.661 328.001C37.3859 327.167 37.9689 326.223 38.378 325.197C38.6132 324.611 38.3907 323.965 37.882 323.559C37.3139 323.105 36.9514 322.427 36.9514 321.667ZM28.4727 325.667C26.1304 325.667 24.2333 323.875 24.2333 321.667C24.2333 319.459 26.1304 317.667 28.4727 317.667C30.8149 317.667 32.712 319.459 32.712 321.667C32.712 323.875 30.8149 325.667 28.4727 325.667Z" fill="#2457B8" fill-opacity="0.05"/>
</g>
<path d="M199.906 156.667C199.906 155.527 200.449 154.51 201.305 153.829C202.065 153.22 202.398 152.254 202.049 151.372C201.432 149.833 200.557 148.414 199.473 147.166C198.863 146.464 197.839 146.197 196.942 146.521C195.864 146.911 194.624 146.86 193.547 146.275C192.466 145.687 191.798 144.691 191.623 143.614C191.48 142.732 190.739 142.027 189.807 141.877C188.955 141.739 188.081 141.667 187.187 141.667C186.294 141.667 185.42 141.739 184.571 141.877C183.639 142.027 182.898 142.732 182.755 143.614C182.577 144.691 181.909 145.687 180.828 146.275C179.751 146.86 178.511 146.911 177.433 146.521C176.539 146.194 175.512 146.464 174.905 147.166C173.818 148.417 172.943 149.833 172.33 151.372C171.977 152.254 172.31 153.22 173.074 153.829C173.926 154.51 174.469 155.527 174.469 156.667C174.469 157.807 173.926 158.824 173.07 159.505C172.31 160.114 171.977 161.08 172.326 161.962C172.943 163.501 173.818 164.92 174.902 166.168C175.512 166.87 176.536 167.137 177.433 166.813C178.507 166.423 179.751 166.471 180.828 167.059C181.909 167.647 182.577 168.643 182.752 169.72C182.895 170.602 183.636 171.307 184.568 171.457C185.42 171.595 186.294 171.667 187.187 171.667C188.081 171.667 188.955 171.595 189.804 171.457C190.736 171.307 191.477 170.602 191.62 169.72C191.795 168.64 192.462 167.647 193.543 167.059C194.621 166.471 195.861 166.423 196.939 166.813C197.836 167.14 198.86 166.87 199.47 166.168C200.557 164.917 201.432 163.501 202.045 161.962C202.398 161.083 202.065 160.114 201.301 159.505C200.449 158.824 199.906 157.807 199.906 156.667ZM187.187 162.667C183.674 162.667 180.828 159.979 180.828 156.667C180.828 153.355 183.674 150.667 187.187 150.667C190.701 150.667 193.547 153.355 193.547 156.667C193.547 159.979 190.701 162.667 187.187 162.667Z" fill="#2457B8" fill-opacity="0.2"/>
<g filter="url(#filter4_f_482_1166)">
<path d="M243.334 206.667C243.334 205.527 243.878 204.51 244.733 203.829C245.493 203.22 245.827 202.254 245.477 201.372C244.861 199.833 243.986 198.414 242.902 197.166C242.291 196.464 241.268 196.197 240.371 196.521C239.293 196.911 238.053 196.86 236.975 196.275C235.894 195.687 235.227 194.691 235.052 193.614C234.909 192.732 234.168 192.027 233.236 191.877C232.384 191.739 231.51 191.667 230.616 191.667C229.723 191.667 228.848 191.739 227.999 191.877C227.068 192.027 226.327 192.732 226.184 193.614C226.006 194.691 225.338 195.687 224.257 196.275C223.179 196.86 221.939 196.911 220.861 196.521C219.968 196.194 218.941 196.464 218.334 197.166C217.246 198.417 216.372 199.833 215.758 201.372C215.405 202.254 215.739 203.22 216.502 203.829C217.354 204.51 217.898 205.527 217.898 206.667C217.898 207.807 217.354 208.824 216.499 209.505C215.739 210.114 215.405 211.08 215.755 211.962C216.372 213.501 217.246 214.92 218.33 216.168C218.941 216.87 219.965 217.137 220.861 216.813C221.936 216.423 223.179 216.471 224.257 217.059C225.338 217.647 226.006 218.643 226.181 219.72C226.324 220.602 227.065 221.307 227.996 221.457C228.848 221.595 229.723 221.667 230.616 221.667C231.51 221.667 232.384 221.595 233.233 221.457C234.165 221.307 234.905 220.602 235.048 219.72C235.223 218.64 235.891 217.647 236.972 217.059C238.05 216.471 239.29 216.423 240.368 216.813C241.264 217.14 242.288 216.87 242.899 216.168C243.986 214.917 244.861 213.501 245.474 211.962C245.827 211.083 245.493 210.114 244.73 209.505C243.878 208.824 243.334 207.807 243.334 206.667ZM230.616 212.667C227.103 212.667 224.257 209.979 224.257 206.667C224.257 203.355 227.103 200.667 230.616 200.667C234.13 200.667 236.975 203.355 236.975 206.667C236.975 209.979 234.13 212.667 230.616 212.667Z" fill="#2457B8" fill-opacity="0.1"/>
</g>
<g filter="url(#filter5_f_482_1166)">
<path d="M360.685 179.667C360.685 179.059 360.975 178.517 361.431 178.153C361.837 177.829 362.015 177.313 361.828 176.843C361.499 176.022 361.033 175.265 360.455 174.6C360.129 174.225 359.583 174.083 359.105 174.256C358.53 174.464 357.869 174.437 357.294 174.125C356.717 173.811 356.361 173.28 356.268 172.705C356.192 172.235 355.796 171.859 355.3 171.779C354.845 171.705 354.379 171.667 353.902 171.667C353.426 171.667 352.96 171.705 352.507 171.779C352.01 171.859 351.615 172.235 351.538 172.705C351.444 173.28 351.087 173.811 350.511 174.125C349.936 174.437 349.275 174.464 348.7 174.256C348.223 174.081 347.676 174.225 347.352 174.6C346.772 175.267 346.305 176.022 345.978 176.843C345.79 177.313 345.968 177.829 346.375 178.153C346.829 178.517 347.119 179.059 347.119 179.667C347.119 180.275 346.829 180.817 346.373 181.181C345.968 181.505 345.79 182.021 345.976 182.491C346.305 183.312 346.772 184.069 347.35 184.734C347.676 185.109 348.222 185.251 348.7 185.078C349.273 184.87 349.936 184.896 350.511 185.209C351.087 185.523 351.444 186.054 351.537 186.629C351.613 187.099 352.008 187.475 352.505 187.555C352.96 187.629 353.426 187.667 353.902 187.667C354.379 187.667 354.845 187.629 355.298 187.555C355.795 187.475 356.19 187.099 356.266 186.629C356.359 186.053 356.716 185.523 357.292 185.209C357.867 184.896 358.528 184.87 359.103 185.078C359.581 185.253 360.127 185.109 360.453 184.734C361.033 184.067 361.499 183.312 361.827 182.491C362.015 182.022 361.837 181.505 361.43 181.181C360.975 180.817 360.685 180.275 360.685 179.667ZM353.902 182.867C352.029 182.867 350.511 181.433 350.511 179.667C350.511 177.901 352.029 176.467 353.902 176.467C355.776 176.467 357.294 177.901 357.294 179.667C357.294 181.433 355.776 182.867 353.902 182.867Z" fill="#2457B8" fill-opacity="0.2"/>
</g>
<g filter="url(#filter6_f_482_1166)">
<path d="M389.792 283.667C389.792 282.755 390.227 281.941 390.911 281.397C391.519 280.909 391.786 280.137 391.506 279.431C391.013 278.2 390.313 277.065 389.446 276.066C388.957 275.505 388.138 275.291 387.421 275.55C386.559 275.862 385.567 275.821 384.704 275.353C383.84 274.883 383.305 274.086 383.166 273.225C383.051 272.519 382.458 271.955 381.713 271.835C381.031 271.725 380.332 271.667 379.617 271.667C378.902 271.667 378.203 271.725 377.524 271.835C376.779 271.955 376.186 272.519 376.071 273.225C375.929 274.086 375.395 274.883 374.53 275.353C373.668 275.821 372.676 275.862 371.813 275.55C371.099 275.289 370.277 275.505 369.791 276.066C368.921 277.067 368.222 278.2 367.731 279.431C367.448 280.137 367.716 280.909 368.326 281.397C369.008 281.941 369.443 282.755 369.443 283.667C369.443 284.579 369.008 285.393 368.323 285.937C367.716 286.425 367.448 287.197 367.728 287.903C368.222 289.134 368.921 290.269 369.789 291.268C370.277 291.829 371.096 292.043 371.813 291.784C372.673 291.472 373.668 291.51 374.53 291.981C375.395 292.451 375.929 293.248 376.069 294.109C376.183 294.815 376.776 295.379 377.521 295.499C378.203 295.609 378.902 295.667 379.617 295.667C380.332 295.667 381.031 295.609 381.711 295.499C382.456 295.379 383.049 294.815 383.163 294.109C383.303 293.245 383.837 292.451 384.702 291.981C385.564 291.51 386.556 291.472 387.418 291.784C388.136 292.045 388.955 291.829 389.443 291.268C390.313 290.267 391.013 289.134 391.504 287.903C391.786 287.2 391.519 286.425 390.908 285.937C390.227 285.393 389.792 284.579 389.792 283.667ZM379.617 288.467C376.806 288.467 374.53 286.317 374.53 283.667C374.53 281.017 376.806 278.867 379.617 278.867C382.428 278.867 384.704 281.017 384.704 283.667C384.704 286.317 382.428 288.467 379.617 288.467Z" fill="#2457B8" fill-opacity="0.2"/>
</g>
</g>
<defs>
<filter id="filter0_f_482_1166" x="-51.1436" y="77.0078" width="496.314" height="570" filterUnits="userSpaceOnUse" color-interpolation-filters="sRGB">
<feFlood flood-opacity="0" result="BackgroundImageFix"/>
<feBlend mode="normal" in="SourceGraphic" in2="BackgroundImageFix" result="shape"/>
<feGaussianBlur stdDeviation="5" result="effect1_foregroundBlur_482_1166"/>
</filter>
<filter id="filter1_f_482_1166" x="15.8086" y="158.008" width="366.41" height="420" filterUnits="userSpaceOnUse" color-interpolation-filters="sRGB">
<feFlood flood-opacity="0" result="BackgroundImageFix"/>
<feBlend mode="normal" in="SourceGraphic" in2="BackgroundImageFix" result="shape"/>
<feGaussianBlur stdDeviation="5" result="effect1_foregroundBlur_482_1166"/>
</filter>
<filter id="filter2_f_482_1166" x="140.003" y="335.002" width="111" height="39.1299" filterUnits="userSpaceOnUse" color-interpolation-filters="sRGB">
<feFlood flood-opacity="0" result="BackgroundImageFix"/>
<feBlend mode="normal" in="SourceGraphic" in2="BackgroundImageFix" result="shape"/>
<feGaussianBlur stdDeviation="7" result="effect1_foregroundBlur_482_1166"/>
</filter>
<filter id="filter3_f_482_1166" x="14.4727" y="307.667" width="28" height="28" filterUnits="userSpaceOnUse" color-interpolation-filters="sRGB">
<feFlood flood-opacity="0" result="BackgroundImageFix"/>
<feBlend mode="normal" in="SourceGraphic" in2="BackgroundImageFix" result="shape"/>
<feGaussianBlur stdDeviation="2" result="effect1_foregroundBlur_482_1166"/>
</filter>
<filter id="filter4_f_482_1166" x="211.616" y="187.667" width="38" height="38" filterUnits="userSpaceOnUse" color-interpolation-filters="sRGB">
<feFlood flood-opacity="0" result="BackgroundImageFix"/>
<feBlend mode="normal" in="SourceGraphic" in2="BackgroundImageFix" result="shape"/>
<feGaussianBlur stdDeviation="2" result="effect1_foregroundBlur_482_1166"/>
</filter>
<filter id="filter5_f_482_1166" x="343.902" y="169.667" width="20" height="20" filterUnits="userSpaceOnUse" color-interpolation-filters="sRGB">
<feFlood flood-opacity="0" result="BackgroundImageFix"/>
<feBlend mode="normal" in="SourceGraphic" in2="BackgroundImageFix" result="shape"/>
<feGaussianBlur stdDeviation="1" result="effect1_foregroundBlur_482_1166"/>
</filter>
<filter id="filter6_f_482_1166" x="359.617" y="263.667" width="40" height="40" filterUnits="userSpaceOnUse" color-interpolation-filters="sRGB">
<feFlood flood-opacity="0" result="BackgroundImageFix"/>
<feBlend mode="normal" in="SourceGraphic" in2="BackgroundImageFix" result="shape"/>
<feGaussianBlur stdDeviation="4" result="effect1_foregroundBlur_482_1166"/>
</filter>
<linearGradient id="paint0_linear_482_1166" x1="313.218" y1="430.175" x2="85.5977" y2="430.175" gradientUnits="userSpaceOnUse">
<stop stop-color="#DDE1E9"/>
<stop offset="0.432292" stop-color="#DDE1E9"/>
<stop offset="0.598958" stop-color="#F2F4F8"/>
<stop offset="1" stop-color="#FBFCFE"/>
</linearGradient>
<linearGradient id="paint1_linear_482_1166" x1="182.169" y1="231.333" x2="182.169" y2="305" gradientUnits="userSpaceOnUse">
<stop stop-color="#BDCEEE"/>
<stop offset="1" stop-color="#4671F6"/>
</linearGradient>
<linearGradient id="paint2_linear_482_1166" x1="226.836" y1="237" x2="226.836" y2="254" gradientUnits="userSpaceOnUse">
<stop stop-color="#BDCEEE"/>
<stop offset="1" stop-color="#4671F6"/>
</linearGradient>
<linearGradient id="paint3_linear_482_1166" x1="226.836" y1="259.667" x2="226.836" y2="276.667" gradientUnits="userSpaceOnUse">
<stop stop-color="#BDCEEE"/>
<stop offset="1" stop-color="#4671F6"/>
</linearGradient>
<linearGradient id="paint4_linear_482_1166" x1="226.836" y1="288" x2="226.836" y2="305" gradientUnits="userSpaceOnUse">
<stop stop-color="#BDCEEE"/>
<stop offset="1" stop-color="#4671F6"/>
</linearGradient>
<clipPath id="clip0_482_1166">
<rect width="388" height="500" rx="10" fill="white"/>
</clipPath>
</defs>
</svg>
