<svg width="388" height="500" viewBox="0 0 388 500" fill="none" xmlns="http://www.w3.org/2000/svg">
<g clip-path="url(#clip0_476_1469)">
<path opacity="0.5" d="M42.5742 325.002C53.6199 325.002 62.5742 316.048 62.5742 305.002C62.5742 293.956 53.6199 285.002 42.5742 285.002C31.5285 285.002 22.5742 293.956 22.5742 305.002C22.5742 316.048 31.5285 325.002 42.5742 325.002Z" fill="url(#paint0_linear_476_1469)"/>
<g opacity="0.05" filter="url(#filter0_f_476_1469)">
<path d="M179 712C344.685 712 479 577.686 479 412C479 246.315 344.685 112 179 112C13.3146 112 -121 246.315 -121 412C-121 577.686 13.3146 712 179 712Z" fill="url(#paint1_linear_476_1469)"/>
</g>
<g opacity="0.1" filter="url(#filter1_f_476_1469)">
<path d="M184 642C308.264 642 409 541.264 409 417C409 292.736 308.264 192 184 192C59.7359 192 -41 292.736 -41 417C-41 541.264 59.7359 642 184 642Z" fill="url(#paint2_linear_476_1469)"/>
</g>
<g opacity="0.4" filter="url(#filter2_f_476_1469)">
<path d="M194 592C285.127 592 359 518.127 359 427C359 335.873 285.127 262 194 262C102.873 262 29 335.873 29 427C29 518.127 102.873 592 194 592Z" fill="url(#paint3_linear_476_1469)"/>
</g>
<path opacity="0.5" d="M331 314C335.971 314 340 309.971 340 305C340 300.029 335.971 296 331 296C326.029 296 322 300.029 322 305C322 309.971 326.029 314 331 314Z" fill="url(#paint4_linear_476_1469)"/>
<rect x="79.5977" y="361.56" width="227.62" height="139.231" fill="url(#paint5_linear_476_1469)"/>
<path d="M182.678 322.401C187.834 320.703 193.392 320.661 198.573 322.282L302.35 354.738C309.375 356.935 309.424 366.861 302.42 369.127L198.822 402.644C193.488 404.37 187.739 404.326 182.433 402.517L84.3294 369.089C77.4727 366.753 77.5223 357.038 84.4025 354.772L182.678 322.401Z" fill="white"/>
<g filter="url(#filter3_f_476_1469)">
<ellipse cx="193.498" cy="356.568" rx="41.5" ry="1.56604" fill="#7294FF"/>
</g>
<path d="M240.499 250.908L232.169 236.096L199.5 254.467L199.5 218.002L182.5 218.002L182.5 254.467L149.832 236.096L141.502 250.908L173.666 269.002L141.502 287.096L149.832 301.908L182.5 283.537L182.5 320.002L199.5 320.002L199.5 283.537L232.169 301.908L240.499 287.096L208.335 269.002L240.499 250.908Z" fill="#BDCEEE"/>
<path d="M191 229.335C197.26 229.335 202.334 224.261 202.334 218.002C202.334 211.743 197.26 206.668 191 206.668C184.741 206.668 179.667 211.743 179.667 218.002C179.667 224.261 184.741 229.335 191 229.335Z" fill="url(#paint6_linear_476_1469)"/>
<path d="M236.333 254.835C242.593 254.835 247.667 249.761 247.667 243.502C247.667 237.243 242.593 232.168 236.333 232.168C230.074 232.168 225 237.243 225 243.502C225 249.761 230.074 254.835 236.333 254.835Z" fill="url(#paint7_linear_476_1469)"/>
<path d="M145.666 254.835C151.926 254.835 157 249.761 157 243.502C157 237.243 151.926 232.168 145.666 232.168C139.407 232.168 134.333 237.243 134.333 243.502C134.333 249.761 139.407 254.835 145.666 254.835Z" fill="url(#paint8_linear_476_1469)"/>
<path d="M191 331.335C197.26 331.335 202.334 326.261 202.334 320.002C202.334 313.743 197.26 308.668 191 308.668C184.741 308.668 179.667 313.743 179.667 320.002C179.667 326.261 184.741 331.335 191 331.335Z" fill="url(#paint9_linear_476_1469)"/>
<path d="M145.666 305.835C151.926 305.835 157 300.761 157 294.502C157 288.243 151.926 283.168 145.666 283.168C139.407 283.168 134.333 288.243 134.333 294.502C134.333 300.761 139.407 305.835 145.666 305.835Z" fill="url(#paint10_linear_476_1469)"/>
<path d="M236.333 305.835C242.593 305.835 247.667 300.761 247.667 294.502C247.667 288.243 242.593 283.168 236.333 283.168C230.074 283.168 225 288.243 225 294.502C225 300.761 230.074 305.835 236.333 305.835Z" fill="url(#paint11_linear_476_1469)"/>
<path d="M191 286.002C200.389 286.002 208 278.391 208 269.002C208 259.613 200.389 252.002 191 252.002C181.611 252.002 174 259.613 174 269.002C174 278.391 181.611 286.002 191 286.002Z" fill="url(#paint12_linear_476_1469)"/>
<g filter="url(#filter4_d_476_1469)">
<path d="M191 288.75C202.184 288.75 211.25 279.684 211.25 268.5C211.25 257.316 202.184 248.25 191 248.25C179.816 248.25 170.75 257.316 170.75 268.5C170.75 279.684 179.816 288.75 191 288.75Z" fill="white"/>
</g>
<path d="M191 264C188.514 264 186.5 266.014 186.5 268.5C186.5 270.986 188.514 273 191 273C193.486 273 195.5 270.986 195.5 268.5C195.5 266.014 193.486 264 191 264Z" fill="#2457B8"/>
<path d="M182.013 250.374C182.081 245.462 186.073 241.5 191 241.5C195.927 241.5 199.919 245.462 199.987 250.374C201.631 251.191 203.146 252.224 204.5 253.436V250.5C204.5 243.044 198.456 237 191 237C183.544 237 177.5 243.044 177.5 250.5V253.436C178.855 252.224 180.369 251.191 182.013 250.374Z" fill="#2457B8"/>
<g opacity="0.5" filter="url(#filter5_f_476_1469)">
<path d="M76 176C80.9706 176 85 171.971 85 167C85 162.029 80.9706 158 76 158C71.0294 158 67 162.029 67 167C67 171.971 71.0294 176 76 176Z" fill="url(#paint13_linear_476_1469)"/>
</g>
<path opacity="0.5" d="M167.991 196.669C170.753 196.669 172.991 194.43 172.991 191.669C172.991 188.907 170.753 186.669 167.991 186.669C165.23 186.669 162.991 188.907 162.991 191.669C162.991 194.43 165.23 196.669 167.991 196.669Z" fill="url(#paint14_linear_476_1469)"/>
<path opacity="0.7" d="M240 142C249.389 142 257 134.389 257 125C257 115.611 249.389 108 240 108C230.611 108 223 115.611 223 125C223 134.389 230.611 142 240 142Z" fill="url(#paint15_linear_476_1469)"/>
<g opacity="0.2" filter="url(#filter6_f_476_1469)">
<path d="M345 212C354.389 212 362 204.389 362 195C362 185.611 354.389 178 345 178C335.611 178 328 185.611 328 195C328 204.389 335.611 212 345 212Z" fill="url(#paint16_linear_476_1469)"/>
</g>
</g>
<defs>
<filter id="filter0_f_476_1469" x="-131" y="102" width="620" height="620" filterUnits="userSpaceOnUse" color-interpolation-filters="sRGB">
<feFlood flood-opacity="0" result="BackgroundImageFix"/>
<feBlend mode="normal" in="SourceGraphic" in2="BackgroundImageFix" result="shape"/>
<feGaussianBlur stdDeviation="5" result="effect1_foregroundBlur_476_1469"/>
</filter>
<filter id="filter1_f_476_1469" x="-51" y="182" width="470" height="470" filterUnits="userSpaceOnUse" color-interpolation-filters="sRGB">
<feFlood flood-opacity="0" result="BackgroundImageFix"/>
<feBlend mode="normal" in="SourceGraphic" in2="BackgroundImageFix" result="shape"/>
<feGaussianBlur stdDeviation="5" result="effect1_foregroundBlur_476_1469"/>
</filter>
<filter id="filter2_f_476_1469" x="-21" y="212" width="430" height="430" filterUnits="userSpaceOnUse" color-interpolation-filters="sRGB">
<feFlood flood-opacity="0" result="BackgroundImageFix"/>
<feBlend mode="normal" in="SourceGraphic" in2="BackgroundImageFix" result="shape"/>
<feGaussianBlur stdDeviation="25" result="effect1_foregroundBlur_476_1469"/>
</filter>
<filter id="filter3_f_476_1469" x="137.998" y="341.002" width="111" height="31.1318" filterUnits="userSpaceOnUse" color-interpolation-filters="sRGB">
<feFlood flood-opacity="0" result="BackgroundImageFix"/>
<feBlend mode="normal" in="SourceGraphic" in2="BackgroundImageFix" result="shape"/>
<feGaussianBlur stdDeviation="7" result="effect1_foregroundBlur_476_1469"/>
</filter>
<filter id="filter4_d_476_1469" x="166.75" y="248.25" width="48.5" height="48.5" filterUnits="userSpaceOnUse" color-interpolation-filters="sRGB">
<feFlood flood-opacity="0" result="BackgroundImageFix"/>
<feColorMatrix in="SourceAlpha" type="matrix" values="0 0 0 0 0 0 0 0 0 0 0 0 0 0 0 0 0 0 127 0" result="hardAlpha"/>
<feOffset dy="4"/>
<feGaussianBlur stdDeviation="2"/>
<feComposite in2="hardAlpha" operator="out"/>
<feColorMatrix type="matrix" values="0 0 0 0 0.45098 0 0 0 0 0.580392 0 0 0 0 0.956863 0 0 0 0.2 0"/>
<feBlend mode="normal" in2="BackgroundImageFix" result="effect1_dropShadow_476_1469"/>
<feBlend mode="normal" in="SourceGraphic" in2="effect1_dropShadow_476_1469" result="shape"/>
</filter>
<filter id="filter5_f_476_1469" x="65" y="156" width="22" height="22" filterUnits="userSpaceOnUse" color-interpolation-filters="sRGB">
<feFlood flood-opacity="0" result="BackgroundImageFix"/>
<feBlend mode="normal" in="SourceGraphic" in2="BackgroundImageFix" result="shape"/>
<feGaussianBlur stdDeviation="1" result="effect1_foregroundBlur_476_1469"/>
</filter>
<filter id="filter6_f_476_1469" x="324" y="174" width="42" height="42" filterUnits="userSpaceOnUse" color-interpolation-filters="sRGB">
<feFlood flood-opacity="0" result="BackgroundImageFix"/>
<feBlend mode="normal" in="SourceGraphic" in2="BackgroundImageFix" result="shape"/>
<feGaussianBlur stdDeviation="2" result="effect1_foregroundBlur_476_1469"/>
</filter>
<linearGradient id="paint0_linear_476_1469" x1="42.5742" y1="285.002" x2="42.5742" y2="325.002" gradientUnits="userSpaceOnUse">
<stop stop-color="#BDCEEE"/>
<stop offset="1" stop-color="#4671F6"/>
</linearGradient>
<linearGradient id="paint1_linear_476_1469" x1="179" y1="112" x2="179" y2="712" gradientUnits="userSpaceOnUse">
<stop stop-color="#BDCEEE"/>
<stop offset="1" stop-color="#4671F6"/>
</linearGradient>
<linearGradient id="paint2_linear_476_1469" x1="184" y1="192" x2="184" y2="642" gradientUnits="userSpaceOnUse">
<stop stop-color="#BDCEEE"/>
<stop offset="1" stop-color="#4671F6"/>
</linearGradient>
<linearGradient id="paint3_linear_476_1469" x1="194" y1="262" x2="194" y2="592" gradientUnits="userSpaceOnUse">
<stop stop-color="#BDCEEE"/>
<stop offset="1" stop-color="#4671F6"/>
</linearGradient>
<linearGradient id="paint4_linear_476_1469" x1="331" y1="296" x2="331" y2="314" gradientUnits="userSpaceOnUse">
<stop stop-color="#BDCEEE"/>
<stop offset="1" stop-color="#4671F6"/>
</linearGradient>
<linearGradient id="paint5_linear_476_1469" x1="307.218" y1="431.175" x2="79.5977" y2="431.175" gradientUnits="userSpaceOnUse">
<stop stop-color="#DDE1E9"/>
<stop offset="0.432292" stop-color="#DDE1E9"/>
<stop offset="0.598958" stop-color="#F2F4F8"/>
<stop offset="1" stop-color="#FBFCFE"/>
</linearGradient>
<linearGradient id="paint6_linear_476_1469" x1="191" y1="206.668" x2="191" y2="229.335" gradientUnits="userSpaceOnUse">
<stop stop-color="#BDCEEE"/>
<stop offset="1" stop-color="#4671F6"/>
</linearGradient>
<linearGradient id="paint7_linear_476_1469" x1="236.333" y1="232.168" x2="236.333" y2="254.835" gradientUnits="userSpaceOnUse">
<stop stop-color="#BDCEEE"/>
<stop offset="1" stop-color="#4671F6"/>
</linearGradient>
<linearGradient id="paint8_linear_476_1469" x1="145.666" y1="232.168" x2="145.666" y2="254.835" gradientUnits="userSpaceOnUse">
<stop stop-color="#BDCEEE"/>
<stop offset="1" stop-color="#4671F6"/>
</linearGradient>
<linearGradient id="paint9_linear_476_1469" x1="191" y1="308.668" x2="191" y2="331.335" gradientUnits="userSpaceOnUse">
<stop stop-color="#BDCEEE"/>
<stop offset="1" stop-color="#4671F6"/>
</linearGradient>
<linearGradient id="paint10_linear_476_1469" x1="145.666" y1="283.168" x2="145.666" y2="305.835" gradientUnits="userSpaceOnUse">
<stop stop-color="#BDCEEE"/>
<stop offset="1" stop-color="#4671F6"/>
</linearGradient>
<linearGradient id="paint11_linear_476_1469" x1="236.333" y1="283.168" x2="236.333" y2="305.835" gradientUnits="userSpaceOnUse">
<stop stop-color="#BDCEEE"/>
<stop offset="1" stop-color="#4671F6"/>
</linearGradient>
<linearGradient id="paint12_linear_476_1469" x1="191" y1="252.002" x2="191" y2="286.002" gradientUnits="userSpaceOnUse">
<stop stop-color="#BDCEEE"/>
<stop offset="1" stop-color="#4671F6"/>
</linearGradient>
<linearGradient id="paint13_linear_476_1469" x1="76" y1="158" x2="76" y2="176" gradientUnits="userSpaceOnUse">
<stop stop-color="#BDCEEE"/>
<stop offset="1" stop-color="#4671F6"/>
</linearGradient>
<linearGradient id="paint14_linear_476_1469" x1="167.991" y1="186.669" x2="167.991" y2="196.669" gradientUnits="userSpaceOnUse">
<stop stop-color="#BDCEEE"/>
<stop offset="1" stop-color="#4671F6"/>
</linearGradient>
<linearGradient id="paint15_linear_476_1469" x1="240" y1="108" x2="240" y2="142" gradientUnits="userSpaceOnUse">
<stop stop-color="#BDCEEE"/>
<stop offset="1" stop-color="#4671F6"/>
</linearGradient>
<linearGradient id="paint16_linear_476_1469" x1="345" y1="178" x2="345" y2="212" gradientUnits="userSpaceOnUse">
<stop stop-color="#BDCEEE"/>
<stop offset="1" stop-color="#4671F6"/>
</linearGradient>
<clipPath id="clip0_476_1469">
<rect width="388" height="500" rx="10" fill="white"/>
</clipPath>
</defs>
</svg>
