<svg width="720" height="427" fill="none" xmlns="http://www.w3.org/2000/svg"><g clip-path="url(#clip0_922_2405)"><path fill="url(#paint0_linear_922_2405)" d="M0 0h720v427H0z"/><path fill-rule="evenodd" clip-rule="evenodd" d="M262 0h-882v427h882v-.005c.5.003 1 .005 1.5.005C381.413 427 477 331.413 477 213.5S381.413 0 263.5 0c-.5 0-1 .002-1.5.005V0z" fill="url(#paint1_linear_922_2405)"/><path fill-rule="evenodd" clip-rule="evenodd" d="M432 0h-882v427h882v-.005c.5.003 1 .005 1.5.005C551.413 427 647 331.413 647 213.5S551.413 0 433.5 0c-.5 0-1 .002-1.5.005V0z" fill="url(#paint2_linear_922_2405)"/><path fill-rule="evenodd" clip-rule="evenodd" d="M42 0h-882v427H42v-.005c.5.003 1 .005 1.5.005C161.413 427 257 331.413 257 213.5S161.413 0 43.5 0c-.5 0-1 .002-1.5.005V0z" fill="url(#paint3_linear_922_2405)"/></g><defs><linearGradient id="paint0_linear_922_2405" x1="720" y1="0" x2="115.5" y2="145.5" gradientUnits="userSpaceOnUse"><stop stop-color="#fff"/><stop offset=".625" stop-color="#4671F6"/><stop offset="1" stop-color="#F2F4F8"/></linearGradient><linearGradient id="paint1_linear_922_2405" x1="477" y1="214" x2="-691" y2="214" gradientUnits="userSpaceOnUse"><stop stop-color="#F3F5F9"/><stop offset="1" stop-color="#F3F5F9" stop-opacity="0"/></linearGradient><linearGradient id="paint2_linear_922_2405" x1="647" y1="214" x2="-414.554" y2="214" gradientUnits="userSpaceOnUse"><stop stop-color="#F3F5F9"/><stop offset="1" stop-color="#F3F5F9" stop-opacity="0"/></linearGradient><linearGradient id="paint3_linear_922_2405" x1="257" y1="214" x2="-911" y2="214" gradientUnits="userSpaceOnUse"><stop stop-color="#F3F5F9"/><stop offset="1" stop-color="#F3F5F9" stop-opacity="0"/></linearGradient><clipPath id="clip0_922_2405"><path fill="#fff" d="M0 0h720v427H0z"/></clipPath></defs></svg>