<svg width="768" height="255" fill="none" xmlns="http://www.w3.org/2000/svg"><g clip-path="url(#clip0_982_5704)"><path fill="url(#paint0_linear_982_5704)" d="M0 0h768v255H0z"/><path fill-rule="evenodd" clip-rule="evenodd" d="M181 42h-882v427h882v-.005c.5.003 1 .005 1.5.005C300.413 469 396 373.413 396 255.5S300.413 42 182.5 42c-.5 0-1 .002-1.5.005V42z" fill="url(#paint1_linear_982_5704)"/><path fill-rule="evenodd" clip-rule="evenodd" d="M351 42h-882v427h882v-.005c.5.003 1 .005 1.5.005C470.413 469 566 373.413 566 255.5S470.413 42 352.5 42c-.5 0-1 .002-1.5.005V42z" fill="url(#paint2_linear_982_5704)"/><path fill-rule="evenodd" clip-rule="evenodd" d="M-39 42h-882v427h882v-.005c.5.003 1 .005 1.5.005C80.413 469 176 373.413 176 255.5S80.413 42-37.5 42c-.5 0-1 .002-1.5.005V42z" fill="url(#paint3_linear_982_5704)"/></g><defs><linearGradient id="paint0_linear_982_5704" x1="384" y1="0" x2="384" y2="255" gradientUnits="userSpaceOnUse"><stop stop-color="#EDF1FC"/><stop offset="1" stop-color="#4671F6"/></linearGradient><linearGradient id="paint1_linear_982_5704" x1="396" y1="256" x2="-772" y2="256" gradientUnits="userSpaceOnUse"><stop stop-color="#F3F5F9"/><stop offset="1" stop-color="#F3F5F9" stop-opacity="0"/></linearGradient><linearGradient id="paint2_linear_982_5704" x1="566" y1="256" x2="-495.554" y2="256" gradientUnits="userSpaceOnUse"><stop stop-color="#F3F5F9"/><stop offset="1" stop-color="#F3F5F9" stop-opacity="0"/></linearGradient><linearGradient id="paint3_linear_982_5704" x1="176" y1="256" x2="-992" y2="256" gradientUnits="userSpaceOnUse"><stop stop-color="#F3F5F9"/><stop offset="1" stop-color="#F3F5F9" stop-opacity="0"/></linearGradient><clipPath id="clip0_982_5704"><path fill="#fff" d="M0 0h768v255H0z"/></clipPath></defs></svg>