<svg width="47" height="46" viewBox="0 0 47 46" fill="none" xmlns="http://www.w3.org/2000/svg">
<path fill-rule="evenodd" clip-rule="evenodd" d="M14.4912 35.5143L13.5329 35.5143L13.5329 31.681L14.4912 31.681C15.5492 31.681 16.4079 30.8204 16.4079 29.7643L16.4079 16.3477C16.4079 15.2916 15.5492 14.431 14.4912 14.431L13.5329 14.431L13.5329 10.5977L14.4912 10.5977C17.6614 10.5977 20.2412 13.1775 20.2412 16.3477L20.2412 21.1393L23.1162 21.1393L23.1162 24.9727L20.2412 24.9727L20.2412 29.7643C20.2412 32.9345 17.6614 35.5143 14.4912 35.5143Z" fill="url(#paint0_linear_192_344)"/>
<path d="M38.223 39.3478L28.6396 39.3478C25.4637 39.3478 22.8896 36.7737 22.8896 33.5978L22.8896 14.4312C22.8896 11.2552 25.4637 8.68115 28.6396 8.68115L38.223 8.68115C41.3989 8.68115 43.973 11.2552 43.973 14.4312L43.973 33.5978C43.973 36.7737 41.3989 39.3478 38.223 39.3478Z" fill="#BDCEEE"/>
<path d="M9.81217 18.2644L5.97884 18.2644C3.86092 18.2644 2.14551 16.549 2.14551 14.4311L2.14551 10.5977C2.14551 8.47982 3.86092 6.7644 5.97884 6.7644L9.81217 6.7644C11.9301 6.7644 13.6455 8.47982 13.6455 10.5977L13.6455 14.4311C13.6455 16.549 11.9301 18.2644 9.81217 18.2644Z" fill="#BDCEEE"/>
<path d="M9.81217 39.3477L5.97884 39.3477C3.86092 39.3477 2.14551 37.6322 2.14551 35.5143L2.14551 31.681C2.14551 29.5631 3.86092 27.8477 5.97884 27.8477L9.81217 27.8477C11.9301 27.8477 13.6455 29.5631 13.6455 31.681L13.6455 35.5143C13.6455 37.6322 11.9301 39.3477 9.81217 39.3477Z" fill="#BDCEEE"/>
<path d="M37.2653 18.2644L29.5986 18.2644C28.0116 18.2644 26.7236 16.9783 26.7236 15.3894C26.7236 13.8005 28.0116 12.5144 29.5986 12.5144L37.2653 12.5144C38.8523 12.5144 40.1403 13.8005 40.1403 15.3894C40.1403 16.9783 38.8523 18.2644 37.2653 18.2644Z" fill="url(#paint1_linear_192_344)"/>
<path d="M37.2653 25.9312L29.5986 25.9312C28.0116 25.9312 26.7236 24.6451 26.7236 23.0562C26.7236 21.4672 28.0116 20.1812 29.5986 20.1812L37.2653 20.1812C38.8523 20.1812 40.1403 21.4672 40.1403 23.0562C40.1403 24.6451 38.8523 25.9312 37.2653 25.9312Z" fill="url(#paint2_linear_192_344)"/>
<path d="M33.4316 35.5144C35.0195 35.5144 36.3066 34.2272 36.3066 32.6394C36.3066 31.0516 35.0195 29.7644 33.4316 29.7644C31.8438 29.7644 30.5566 31.0516 30.5566 32.6394C30.5566 34.2272 31.8438 35.5144 33.4316 35.5144Z" fill="url(#paint3_linear_192_344)"/>
<defs>
<linearGradient id="paint0_linear_192_344" x1="18.3245" y1="10.5977" x2="18.3245" y2="35.5143" gradientUnits="userSpaceOnUse">
<stop stop-color="#BDCEEE"/>
<stop offset="1" stop-color="#4671F6"/>
</linearGradient>
<linearGradient id="paint1_linear_192_344" x1="33.432" y1="12.5144" x2="33.432" y2="18.2644" gradientUnits="userSpaceOnUse">
<stop stop-color="#BDCEEE"/>
<stop offset="1" stop-color="#4671F6"/>
</linearGradient>
<linearGradient id="paint2_linear_192_344" x1="33.432" y1="20.1812" x2="33.432" y2="25.9312" gradientUnits="userSpaceOnUse">
<stop stop-color="#BDCEEE"/>
<stop offset="1" stop-color="#4671F6"/>
</linearGradient>
<linearGradient id="paint3_linear_192_344" x1="33.4316" y1="29.7644" x2="33.4316" y2="35.5144" gradientUnits="userSpaceOnUse">
<stop stop-color="#BDCEEE"/>
<stop offset="1" stop-color="#4671F6"/>
</linearGradient>
</defs>
</svg>
