<svg width="48" height="48" viewBox="0 0 48 48" fill="none" xmlns="http://www.w3.org/2000/svg">
<path d="M17.122 30.878C15.95 29.706 14.052 29.706 12.88 30.878L8.88 34.878L6.39 32.388C5.508 31.508 4 32.132 4 33.38V42C4 43.104 4.896 44 6 44H14.62C15.868 44 16.492 42.492 15.61 41.61L13.12 39.122L17.12 35.122C18.292 33.95 18.292 32.05 17.122 30.878Z" fill="#D1DCFB"/>
<path fill-rule="evenodd" clip-rule="evenodd" d="M34.8788 39.1217L30.879 35.122C29.707 33.952 29.707 32.05 30.879 30.88C32.051 29.708 33.949 29.708 35.121 30.88L39.1208 34.8797L41.6106 32.39C42.4926 31.508 44.0006 32.132 44.0006 33.38V42C44.0006 43.104 43.1046 44 42.0006 44H33.3806C32.1326 44 31.5086 42.492 32.3906 41.61L34.8788 39.1217Z" fill="url(#paint0_linear_215_1457)"/>
<path fill-rule="evenodd" clip-rule="evenodd" d="M6 4H14.62C15.868 4 16.492 5.508 15.61 6.39L13.12 8.87998L17.12 12.88C18.292 14.05 18.292 15.952 17.12 17.122C16.536 17.708 15.768 18 15 18C14.232 18 13.464 17.708 12.878 17.122L8.87802 13.122L6.39 15.61C5.508 16.492 4 15.868 4 14.62V6C4 4.896 4.896 4 6 4Z" fill="url(#paint1_linear_215_1457)"/>
<path d="M42.001 4H33.381C32.133 4 31.509 5.508 32.391 6.39L34.881 8.88L30.881 12.88C29.709 14.05 29.709 15.952 30.881 17.122C31.465 17.708 32.233 18 33.001 18C33.769 18 34.537 17.708 35.123 17.122L39.123 13.122L41.613 15.61C42.493 16.492 44.001 15.868 44.001 14.62V6C44.001 4.896 43.105 4 42.001 4Z" fill="#D1DCFB"/>
<defs>
<linearGradient id="paint0_linear_215_1457" x1="37.0003" y1="30.001" x2="37.0003" y2="44" gradientUnits="userSpaceOnUse">
<stop stop-color="#578FF9"/>
<stop offset="1" stop-color="#2457B8"/>
</linearGradient>
<linearGradient id="paint1_linear_215_1457" x1="10.9995" y1="4" x2="10.9995" y2="18" gradientUnits="userSpaceOnUse">
<stop stop-color="#578FF9"/>
<stop offset="1" stop-color="#2457B8"/>
</linearGradient>
</defs>
</svg>
