<svg width="48" height="48" viewBox="0 0 48 48" fill="none" xmlns="http://www.w3.org/2000/svg">
<path d="M38 30C40.21 30 42 28.21 42 26V22C42 19.79 40.21 18 38 18C40.21 18 42 16.21 42 14V10C42 7.79 40.21 6 38 6H10C7.79 6 6 7.79 6 10V14C6 16.21 7.79 18 10 18C7.79 18 6 19.79 6 22V26C6 28.21 7.79 30 10 30C7.79 30 6 31.79 6 34V38C6 40.21 7.79 42 10 42H31.11C32.496 44.382 35.046 46 38 46C42.418 46 46 42.418 46 38C46 33.582 42.418 30 38 30Z" fill="#D1DCFB"/>
<path d="M42 14V12L10 18H38C40.21 18 42 16.21 42 14Z" fill="url(#paint0_linear_221_2213)"/>
<path d="M24.068 39.3621L10 42.0001H24.588C24.334 41.1521 24.156 40.2701 24.068 39.3621Z" fill="url(#paint1_linear_221_2213)"/>
<path d="M24.782 27.228L10 30H24C24.002 28.996 24.288 28.048 24.782 27.228Z" fill="url(#paint2_linear_221_2213)"/>
<path fill-rule="evenodd" clip-rule="evenodd" d="M28 30.5C28 28.8431 29.3431 27.5 31 27.5H36C37.1046 27.5 38 28.3954 38 29.5C38 30.6046 37.1046 31.5 36 31.5H32V34.5C32 35.6046 31.1046 36.5 30 36.5C28.8954 36.5 28 35.6046 28 34.5V30.5ZM48 45C48 46.6569 46.6569 48 45 48H40C38.8954 48 38 47.1046 38 46C38 44.8954 38.8954 44 40 44H44V41C44 39.8954 44.8954 39 46 39C47.1046 39 48 39.8954 48 41V45ZM38 42C40.2091 42 42 40.2091 42 38C42 35.7909 40.2091 34 38 34C35.7909 34 34 35.7909 34 38C34 40.2091 35.7909 42 38 42Z" fill="url(#paint3_linear_221_2213)"/>
<defs>
<linearGradient id="paint0_linear_221_2213" x1="26" y1="12" x2="26" y2="18" gradientUnits="userSpaceOnUse">
<stop stop-color="#578FF9"/>
<stop offset="1" stop-color="#2558B9"/>
</linearGradient>
<linearGradient id="paint1_linear_221_2213" x1="17.294" y1="39.3621" x2="17.294" y2="42.0001" gradientUnits="userSpaceOnUse">
<stop stop-color="#578FF9"/>
<stop offset="1" stop-color="#2558B9"/>
</linearGradient>
<linearGradient id="paint2_linear_221_2213" x1="17.391" y1="27.228" x2="17.391" y2="30" gradientUnits="userSpaceOnUse">
<stop stop-color="#578FF9"/>
<stop offset="1" stop-color="#2558B9"/>
</linearGradient>
<linearGradient id="paint3_linear_221_2213" x1="38.001" y1="20.5861" x2="38.001" y2="48.0887" gradientUnits="userSpaceOnUse">
<stop stop-color="#578FF9"/>
<stop offset="1" stop-color="#2558B9"/>
</linearGradient>
</defs>
</svg>
