<svg width="48" height="48" viewBox="0 0 48 48" fill="none" xmlns="http://www.w3.org/2000/svg">
<path d="M40 20C40 13.372 34.628 8 28 8C23.53 8 19.64 10.448 17.574 14.072C9.96 14.79 4 21.196 4 29C4 37.284 10.716 44 19 44C26.804 44 33.21 38.04 33.928 30.426C37.552 28.36 40 24.47 40 20Z" fill="#D1DCFB"/>
<path d="M29 4C20.716 4 14 10.716 14 19C14 21.982 14.88 24.752 16.38 27.086C18.574 24.892 22.648 20.818 24.502 18.964L22.514 16.98C21.416 15.88 22.194 14 23.748 14H31.162C32.73 14 34 15.27 34 16.836V24.25C34 25.804 32.12 26.584 31.02 25.484L29.034 23.498C27.18 25.352 23.108 29.424 20.912 31.62C23.248 33.12 26.018 34 29 34C37.284 34 44 27.284 44 19C44 10.716 37.284 4 29 4Z" fill="url(#paint0_linear_275_202)"/>
<defs>
<linearGradient id="paint0_linear_275_202" x1="29" y1="4" x2="29" y2="34" gradientUnits="userSpaceOnUse">
<stop stop-color="#538AF4"/>
<stop offset="1" stop-color="#2D60C2"/>
</linearGradient>
</defs>
</svg>
