<svg width="36" height="36" viewBox="0 0 36 36" fill="none" xmlns="http://www.w3.org/2000/svg">
<path d="M11.9973 3.6001C7.36647 3.6001 3.59961 7.37044 3.59961 12.0024V24.0024C3.59961 28.6332 7.36995 32.4001 12.002 32.4001H24.002C28.6328 32.4001 32.3996 28.6298 32.3996 23.9978V11.9978C32.3996 7.36695 28.6293 3.6001 23.9973 3.6001H11.9973ZM26.3996 8.4001C27.062 8.4001 27.5996 8.9377 27.5996 9.6001C27.5996 10.2625 27.062 10.8001 26.3996 10.8001C25.7372 10.8001 25.1996 10.2625 25.1996 9.6001C25.1996 8.9377 25.7372 8.4001 26.3996 8.4001ZM17.9996 10.8001C21.9704 10.8001 25.1996 14.0293 25.1996 18.0001C25.1996 21.9709 21.9704 25.2001 17.9996 25.2001C14.0288 25.2001 10.7996 21.9709 10.7996 18.0001C10.7996 14.0293 14.0288 10.8001 17.9996 10.8001ZM17.9996 13.2001C16.7266 13.2001 15.5057 13.7058 14.6055 14.606C13.7053 15.5062 13.1996 16.7271 13.1996 18.0001C13.1996 19.2731 13.7053 20.494 14.6055 21.3942C15.5057 22.2944 16.7266 22.8001 17.9996 22.8001C19.2726 22.8001 20.4935 22.2944 21.3937 21.3942C22.2939 20.494 22.7996 19.2731 22.7996 18.0001C22.7996 16.7271 22.2939 15.5062 21.3937 14.606C20.4935 13.7058 19.2726 13.2001 17.9996 13.2001Z" fill="white"/>
</svg>
