<svg width="36" height="36" viewBox="0 0 36 36" fill="none" xmlns="http://www.w3.org/2000/svg">
<path d="M33.6001 8.32444C32.4517 8.83444 31.2181 9.17764 29.9233 9.33244C31.2457 8.54044 32.2597 7.28644 32.7373 5.79124C31.5013 6.52444 30.1309 7.05724 28.6717 7.34524C27.5041 6.10084 25.8409 5.32324 24.0001 5.32324C20.4649 5.32324 17.5993 8.19004 17.5993 11.724C17.5993 12.2256 17.6569 12.7152 17.7649 13.182C12.4453 12.9156 7.72933 10.3668 4.57093 6.49324C4.02133 7.43884 3.70573 8.53804 3.70573 9.71284C3.70573 11.9328 4.83493 13.8924 6.55213 15.0396C5.50333 15.006 4.51573 14.718 3.65293 14.2392C3.65293 14.2668 3.65293 14.292 3.65293 14.3196C3.65293 17.4216 5.85853 20.0088 8.78773 20.5956C8.25133 20.742 7.68493 20.82 7.10053 20.82C6.68893 20.82 6.28693 20.7792 5.89693 20.706C6.71173 23.2488 9.07573 25.1004 11.8765 25.152C9.68653 26.8692 6.92653 27.8928 3.92653 27.8928C3.41053 27.8928 2.90053 27.8628 2.39893 27.8028C5.23213 29.6184 8.59573 30.678 12.2113 30.678C23.9857 30.678 30.4225 20.9244 30.4225 12.4656C30.4225 12.1884 30.4165 11.9124 30.4045 11.6376C31.6561 10.734 32.7421 9.60724 33.6001 8.32444Z" fill="#F9FAFB"/>
</svg>
