<svg width="70" height="70" viewBox="0 0 70 70" fill="none" xmlns="http://www.w3.org/2000/svg">
<g clip-path="url(#clip0_192_222)">
<rect width="70" height="70" rx="8" fill="#F2F4F8"/>
<g filter="url(#filter0_f_192_222)">
<path d="M20 59L50 59L50 61L20 61L20 59Z" fill="#7888DC"/>
</g>
<path d="M59.5508 42.6455L51.5029 45.1995L37.0029 35.6993L46.3097 32.7639C46.6843 32.6457 47.0854 32.6405 47.463 32.7488L59.4974 36.2022C60.3549 36.4482 60.9457 37.2324 60.9457 38.1245L60.9458 40.7392C60.9458 41.6107 60.3814 42.3819 59.5508 42.6455Z" fill="url(#paint0_linear_192_222)"/>
<path d="M52.613 41.0286C52.5894 40.1434 51.9865 39.379 51.1311 39.1499L38.05 35.6468C36.7506 35.2988 35.4851 36.3071 35.534 37.6514L35.6133 39.8326C35.6449 40.7023 36.2353 41.4518 37.0735 41.6861L50.1372 45.338C51.4337 45.7005 52.7107 44.7044 52.675 43.3587L52.613 41.0286Z" fill="#4671F6"/>
<path d="M59.5488 34.6458L51.501 37.1998L37.001 27.6995L46.3078 24.7641C46.6824 24.646 47.0835 24.6407 47.461 24.7491L59.4954 28.2024C60.3529 28.4485 60.9438 29.2327 60.9438 30.1248L60.9438 32.7394C60.9438 33.611 60.3795 34.3822 59.5488 34.6458Z" fill="url(#paint1_linear_192_222)"/>
<path d="M52.611 33.0289C52.5875 32.1436 51.9846 31.3792 51.1291 31.1501L38.0481 27.647C36.7487 27.2991 35.4831 28.3073 35.532 29.6516L35.6113 31.8328C35.6429 32.7026 36.2333 33.452 37.0715 33.6863L50.1353 37.3383C51.4317 37.7007 52.7088 36.7047 52.673 35.359L52.611 33.0289Z" fill="#4671F6"/>
<path d="M59.5478 26.6458L51.5 29.1998L37 19.6995L46.3068 16.7641C46.6814 16.646 47.0825 16.6407 47.46 16.7491L59.4945 20.2024C60.352 20.4485 60.9428 21.2327 60.9428 22.1248L60.9429 24.7394C60.9429 25.611 60.3785 26.3822 59.5478 26.6458Z" fill="url(#paint2_linear_192_222)"/>
<path d="M52.6101 25.0289C52.5865 24.1436 51.9836 23.3792 51.1281 23.1501L38.0471 19.647C36.7477 19.2991 35.4822 20.3073 35.531 21.6516L35.6103 23.8328C35.6419 24.7026 36.2324 25.452 37.0705 25.6863L50.1343 29.3383C51.4307 29.7007 52.7078 28.7047 52.672 27.359L52.6101 25.0289Z" fill="#4671F6"/>
<g opacity="0.5" filter="url(#filter1_f_192_222)">
<path d="M31.5895 31.5406L29.6108 32.2725L24.8175 29.1927L26.897 28.6312C27.6589 28.4255 28.4626 28.4318 29.2212 28.6495L31.5058 29.3051C32.0105 29.4499 32.3583 29.9115 32.3583 30.4365C32.3583 30.9292 32.0515 31.3697 31.5895 31.5406Z" fill="url(#paint3_linear_192_222)"/>
<path d="M29.8193 31.1504C29.8081 30.7299 29.5217 30.3668 29.1154 30.258L25.7812 29.3651C25.1762 29.203 24.587 29.6725 24.6098 30.2984C24.6245 30.7033 24.8994 31.0522 25.2896 31.1613L28.6139 32.0906C29.2297 32.2628 29.8363 31.7896 29.8193 31.1504Z" fill="#4671F6"/>
<path d="M31.5895 29.14L29.6108 29.8719L24.8175 26.7921L26.897 26.2306C27.6589 26.0249 28.4626 26.0312 29.2212 26.2489L31.5058 26.9044C32.0105 27.0493 32.3583 27.5108 32.3583 28.0359C32.3583 28.5285 32.0515 28.9691 31.5895 29.14Z" fill="url(#paint4_linear_192_222)"/>
<path d="M29.8193 28.7498C29.8081 28.3292 29.5217 27.9662 29.1154 27.8573L25.7812 26.9644C25.1762 26.8024 24.587 27.2718 24.6098 27.8977C24.6245 28.3027 24.8994 28.6516 25.2896 28.7607L28.6139 29.69C29.2297 29.8621 29.8363 29.389 29.8193 28.7498Z" fill="#4671F6"/>
<path d="M31.5895 26.7393L29.6108 27.4712L24.8175 24.3915L26.897 23.83C27.6589 23.6242 28.4626 23.6305 29.2212 23.8482L31.5058 24.5038C32.0105 24.6486 32.3583 25.1102 32.3583 25.6353C32.3583 26.1279 32.0515 26.5684 31.5895 26.7393Z" fill="url(#paint5_linear_192_222)"/>
<path d="M29.8193 26.3491C29.8081 25.9286 29.5217 25.5655 29.1154 25.4567L25.7812 24.5638C25.1762 24.4018 24.587 24.8712 24.6098 25.4971C24.6245 25.902 24.8994 26.2509 25.2896 26.36L28.6139 27.2893C29.2297 27.4615 29.8363 26.9884 29.8193 26.3491Z" fill="#4671F6"/>
</g>
<g filter="url(#filter2_f_192_222)">
<path d="M72.0628 47.8121L68.1054 49.2759L58.5188 43.1164L63.394 41.8C64.4493 41.5151 65.5624 41.5238 66.6131 41.8253L71.8954 43.3411C72.9048 43.6308 73.6003 44.5539 73.6003 45.604C73.6003 46.5893 72.9868 47.4703 72.0628 47.8121Z" fill="url(#paint6_linear_192_222)"/>
<path d="M68.5215 47.0318C68.4991 46.1907 67.9263 45.4645 67.1136 45.2469L60.4452 43.4611C59.2352 43.1371 58.0568 44.0759 58.1023 45.3277C58.1318 46.1375 58.6815 46.8354 59.462 47.0536L66.1105 48.9122C67.3422 49.2565 68.5555 48.3102 68.5215 47.0318Z" fill="#4671F6"/>
<path d="M72.0637 43.0106L68.1063 44.4744L58.5197 38.3149L63.395 36.9985C64.4503 36.7136 65.5634 36.7223 66.614 37.0238L71.8964 38.5396C72.9058 38.8292 73.6013 39.7524 73.6013 40.8025C73.6013 41.7878 72.9878 42.6688 72.0637 43.0106Z" fill="url(#paint7_linear_192_222)"/>
<path d="M68.5224 42.2302C68.5001 41.3892 67.9273 40.663 67.1146 40.4454L60.4461 38.6596C59.2362 38.3355 58.0578 39.2744 58.1033 40.5262C58.1327 41.336 58.6825 42.0339 59.463 42.2521L66.1115 44.1106C67.3432 44.455 68.5564 43.5087 68.5224 42.2302Z" fill="#4671F6"/>
<path d="M72.0637 38.2096L68.1063 39.6734L58.5197 33.5139L63.395 32.1975C64.4503 31.9125 65.5634 31.9213 66.614 32.2228L71.8964 33.7386C72.9058 34.0282 73.6013 34.9514 73.6013 36.0015C73.6013 36.9867 72.9878 37.8678 72.0637 38.2096Z" fill="url(#paint8_linear_192_222)"/>
<path d="M68.5224 37.4292C68.5001 36.5882 67.9273 35.862 67.1146 35.6443L60.4461 33.8585C59.2362 33.5345 58.0578 34.4734 58.1033 35.7251C58.1327 36.535 58.6825 37.2328 59.463 37.451L66.1115 39.3096C67.3432 39.6539 68.5564 38.7077 68.5224 37.4292Z" fill="#4671F6"/>
</g>
<g filter="url(#filter3_dd_192_222)">
<path d="M4.73159 34.0161C4.73159 28.4933 9.02437 25.2877 14.3198 26.8563L26.9046 30.5841C32.2 32.1526 36.4928 37.9014 36.4928 43.4242L36.4928 51.4533C36.4928 56.9761 32.2 60.1817 26.9046 58.6131L14.3198 54.8854C9.02438 53.3168 4.73159 47.5681 4.73159 42.0452L4.73159 34.0161Z" fill="#C8CFE2"/>
<rect width="33.1253" height="28.0291" rx="10" transform="matrix(0.95882 0.284015 -5.4602e-09 1 2.18262 25.0779)" fill="url(#paint9_linear_192_222)"/>
</g>
<g clip-path="url(#clip1_192_222)">
<path d="M13.2114 37.8434C13.0037 37.7879 12.7957 37.7591 12.5899 37.7531C12.3887 37.7471 12.2163 37.6106 12.1645 37.4162L11.8831 36.3657L10.9976 36.6027L11.2763 37.6426C11.3276 37.8342 11.2525 38.0414 11.0824 38.1441C10.707 38.3705 10.3857 38.6867 10.1525 39.0717C10.0498 39.2404 9.84262 39.3137 9.65241 39.2624L9.07628 39.1084L8.83887 39.9939L9.41499 40.1483C9.60566 40.1992 9.7482 40.3665 9.75233 40.5641C9.76195 41.0091 9.87928 41.439 10.0869 41.8194C10.1813 41.9931 10.1428 42.2086 10.0035 42.3483L9.2587 43.0931L9.90724 43.7412L10.653 42.9955C10.7955 42.853 11.0141 42.8204 11.1915 42.9171C11.3762 43.018 11.5756 43.0996 11.7882 43.1564C12.006 43.2146 12.2241 43.2439 12.44 43.2476C12.6421 43.2513 12.8163 43.3892 12.8685 43.5845L13.133 44.5717L14.0185 44.3343L13.7517 43.3388C13.7009 43.1486 13.7747 42.9433 13.9424 42.8397C14.3068 42.6146 14.6185 42.3048 14.8467 41.9285C14.9494 41.7598 15.1561 41.6856 15.3467 41.7369L15.9229 41.8914L16.1603 41.0059L15.5842 40.8514C15.3935 40.8006 15.251 40.6333 15.2468 40.4357C15.2372 39.9907 15.1199 39.5608 14.9122 39.1803C14.8178 39.0066 14.8563 38.7912 14.9957 38.6514L15.7405 37.9066L15.0919 37.2586L14.3462 38.0043C14.2037 38.1468 13.985 38.1793 13.8077 38.0826C13.623 37.9818 13.424 37.9007 13.2114 37.8434Z" fill="#C0C0C0"/>
<path d="M8.5153 40.3492C9.02156 40.3492 9.43197 39.9388 9.43197 39.4325C9.43197 38.9263 9.02156 38.5159 8.5153 38.5159C8.00904 38.5159 7.59863 38.9263 7.59863 39.4325C7.59863 39.9388 8.00904 40.3492 8.5153 40.3492Z" fill="#585858"/>
<path d="M9.58268 44.3336C10.0889 44.3336 10.4993 43.9232 10.4993 43.4169C10.4993 42.9106 10.0889 42.5002 9.58268 42.5002C9.07642 42.5002 8.66602 42.9106 8.66602 43.4169C8.66602 43.9232 9.07642 44.3336 9.58268 44.3336Z" fill="#585858"/>
<path d="M13.568 45.401C14.0743 45.401 14.4847 44.9906 14.4847 44.4843C14.4847 43.978 14.0743 43.5676 13.568 43.5676C13.0618 43.5676 12.6514 43.978 12.6514 44.4843C12.6514 44.9906 13.0618 45.401 13.568 45.401Z" fill="#585858"/>
<path d="M16.484 42.4842C16.9903 42.4842 17.4007 42.0738 17.4007 41.5675C17.4007 41.0613 16.9903 40.6509 16.484 40.6509C15.9778 40.6509 15.5674 41.0613 15.5674 41.5675C15.5674 42.0738 15.9778 42.4842 16.484 42.4842Z" fill="#585858"/>
<path d="M15.4167 38.4998C15.9229 38.4998 16.3333 38.0894 16.3333 37.5832C16.3333 37.0769 15.9229 36.6665 15.4167 36.6665C14.9104 36.6665 14.5 37.0769 14.5 37.5832C14.5 38.0894 14.9104 38.4998 15.4167 38.4998Z" fill="#585858"/>
<path d="M11.4323 37.4325C11.9386 37.4325 12.349 37.022 12.349 36.5158C12.349 36.0095 11.9386 35.5991 11.4323 35.5991C10.926 35.5991 10.5156 36.0095 10.5156 36.5158C10.5156 37.022 10.926 37.4325 11.4323 37.4325Z" fill="#585858"/>
<path d="M13.1875 42.3333C13.5672 42.3333 13.875 42.0254 13.875 41.6458C13.875 41.2661 13.5672 40.9583 13.1875 40.9583C12.8078 40.9583 12.5 41.2661 12.5 41.6458C12.5 42.0254 12.8078 42.3333 13.1875 42.3333Z" fill="#585858"/>
<path d="M13.8753 40.0417C14.1285 40.0417 14.3337 39.8365 14.3337 39.5833C14.3337 39.3302 14.1285 39.125 13.8753 39.125C13.6222 39.125 13.417 39.3302 13.417 39.5833C13.417 39.8365 13.6222 40.0417 13.8753 40.0417Z" fill="#585858"/>
<path d="M11.5837 40.9583C12.0899 40.9583 12.5003 40.5479 12.5003 40.0417C12.5003 39.5354 12.0899 39.125 11.5837 39.125C11.0774 39.125 10.667 39.5354 10.667 40.0417C10.667 40.5479 11.0774 40.9583 11.5837 40.9583Z" fill="#585858"/>
</g>
<g clip-path="url(#clip2_192_222)" filter="url(#filter4_f_192_222)">
<path d="M2.38793 43.8095C2.27468 43.7742 2.16118 43.7558 2.04893 43.752C1.93918 43.7482 1.84518 43.6613 1.81693 43.5376L1.66343 42.8691L1.18043 43.0199L1.33243 43.6817C1.36043 43.8036 1.31943 43.9355 1.22668 44.0008C1.02193 44.1449 0.84668 44.3461 0.71943 44.5911C0.66343 44.6985 0.55043 44.7451 0.44668 44.7125L0.13243 44.6145L0.00292967 45.178L0.31718 45.2763C0.42118 45.3086 0.49893 45.4151 0.50118 45.5408C0.50643 45.824 0.57043 46.0976 0.68368 46.3397C0.73518 46.4502 0.71418 46.5873 0.63818 46.6763L0.23193 47.1502L0.58568 47.5626L0.99243 47.0881C1.07018 46.9974 1.18943 46.9767 1.28618 47.0382C1.38693 47.1024 1.49568 47.1543 1.61168 47.1905C1.73043 47.2275 1.84943 47.2462 1.96718 47.2485C2.07743 47.2508 2.17243 47.3386 2.20093 47.4629L2.34518 48.0911L2.82818 47.9401L2.68268 47.3066C2.65493 47.1855 2.69518 47.0548 2.78668 46.9889C2.98543 46.8457 3.15543 46.6486 3.27993 46.4091C3.33593 46.3018 3.44868 46.2545 3.55268 46.2872L3.86693 46.3855L3.99643 45.822L3.68218 45.7237C3.57818 45.6913 3.50043 45.5848 3.49818 45.4591C3.49293 45.1759 3.42893 44.9023 3.31568 44.6603C3.26418 44.5497 3.28518 44.4126 3.36118 44.3237L3.76743 43.8497L3.41368 43.4373L3.00693 43.9118C2.92918 44.0026 2.80993 44.0233 2.71318 43.9617C2.61243 43.8976 2.50393 43.8459 2.38793 43.8095Z" fill="#C0C0C0"/>
<path d="M-0.172852 45.404C0.103291 45.404 0.327149 45.1428 0.327149 44.8206C0.327149 44.4985 0.103291 44.2373 -0.172852 44.2373C-0.448994 44.2373 -0.672852 44.4985 -0.672852 44.8206C-0.672852 45.1428 -0.448994 45.404 -0.172852 45.404Z" fill="#585858"/>
<path d="M0.40918 47.9396C0.685322 47.9396 0.90918 47.6784 0.90918 47.3563C0.90918 47.0341 0.685322 46.7729 0.40918 46.7729C0.133037 46.7729 -0.0908203 47.0341 -0.0908203 47.3563C-0.0908203 47.6784 0.133037 47.9396 0.40918 47.9396Z" fill="#585858"/>
<path d="M2.58203 48.6188C2.85817 48.6188 3.08203 48.3576 3.08203 48.0355C3.08203 47.7133 2.85817 47.4521 2.58203 47.4521C2.30589 47.4521 2.08203 47.7133 2.08203 48.0355C2.08203 48.3576 2.30589 48.6188 2.58203 48.6188Z" fill="#585858"/>
<path d="M4.17285 46.7626C4.44899 46.7626 4.67285 46.5014 4.67285 46.1793C4.67285 45.8571 4.44899 45.5959 4.17285 45.5959C3.89671 45.5959 3.67285 45.8571 3.67285 46.1793C3.67285 46.5014 3.89671 46.7626 4.17285 46.7626Z" fill="#585858"/>
<path d="M3.59082 44.2272C3.86696 44.2272 4.09082 43.966 4.09082 43.6439C4.09082 43.3217 3.86696 43.0605 3.59082 43.0605C3.31468 43.0605 3.09082 43.3217 3.09082 43.6439C3.09082 43.966 3.31468 44.2272 3.59082 44.2272Z" fill="#585858"/>
<path d="M1.41797 43.5478C1.69411 43.5478 1.91797 43.2866 1.91797 42.9644C1.91797 42.6423 1.69411 42.3811 1.41797 42.3811C1.14183 42.3811 0.917969 42.6423 0.917969 42.9644C0.917969 43.2866 1.14183 43.5478 1.41797 43.5478Z" fill="#585858"/>
<path d="M2.375 46.6667C2.58211 46.6667 2.75 46.4709 2.75 46.2292C2.75 45.9876 2.58211 45.7917 2.375 45.7917C2.16789 45.7917 2 45.9876 2 46.2292C2 46.4709 2.16789 46.6667 2.375 46.6667Z" fill="#585858"/>
<path d="M2.75 45.2083C2.88807 45.2083 3 45.0777 3 44.9167C3 44.7556 2.88807 44.625 2.75 44.625C2.61193 44.625 2.5 44.7556 2.5 44.9167C2.5 45.0777 2.61193 45.2083 2.75 45.2083Z" fill="#585858"/>
<path d="M1.5 45.7917C1.77614 45.7917 2 45.5305 2 45.2083C2 44.8862 1.77614 44.625 1.5 44.625C1.22386 44.625 1 44.8862 1 45.2083C1 45.5305 1.22386 45.7917 1.5 45.7917Z" fill="#585858"/>
</g>
<g clip-path="url(#clip3_192_222)" filter="url(#filter5_f_192_222)">
<path d="M27.2589 50.0339C27.1834 50.0137 27.1078 50.0032 27.0329 50.0011C26.9598 49.9989 26.8971 49.9492 26.8783 49.8786L26.7759 49.4966L26.4539 49.5827L26.5553 49.9609C26.5739 50.0306 26.5466 50.1059 26.4848 50.1432C26.3483 50.2256 26.2314 50.3406 26.1466 50.4806C26.1093 50.5419 26.0339 50.5686 25.9648 50.5499L25.7553 50.4939L25.6689 50.8159L25.8784 50.8721C25.9478 50.8906 25.9996 50.9514 26.0011 51.0232C26.0046 51.1851 26.0473 51.3414 26.1228 51.4797C26.1571 51.5429 26.1431 51.6212 26.0924 51.6721L25.8216 51.9429L26.0574 52.1786L26.3286 51.9074C26.3804 51.8556 26.4599 51.8437 26.5244 51.8789C26.5916 51.9156 26.6641 51.9452 26.7414 51.9659C26.8206 51.9871 26.8999 51.9977 26.9784 51.9991C27.0519 52.0004 27.1153 52.0506 27.1343 52.1216L27.2304 52.4806L27.5524 52.3942L27.4554 52.0322C27.4369 51.9631 27.4638 51.8884 27.5248 51.8507C27.6573 51.7689 27.7706 51.6562 27.8536 51.5194C27.8909 51.4581 27.9661 51.4311 28.0354 51.4497L28.2449 51.5059L28.3313 51.1839L28.1218 51.1277C28.0524 51.1092 28.0006 51.0484 27.9991 50.9766C27.9956 50.8147 27.9529 50.6584 27.8774 50.5201C27.8431 50.4569 27.8571 50.3786 27.9078 50.3277L28.1786 50.0569L27.9428 49.8212L27.6716 50.0924C27.6198 50.1442 27.5403 50.1561 27.4758 50.1209C27.4086 50.0842 27.3363 50.0547 27.2589 50.0339Z" fill="#C0C0C0"/>
<path d="M25.5511 50.9452C25.7352 50.9452 25.8844 50.796 25.8844 50.6119C25.8844 50.4278 25.7352 50.2786 25.5511 50.2786C25.367 50.2786 25.2178 50.4278 25.2178 50.6119C25.2178 50.796 25.367 50.9452 25.5511 50.9452Z" fill="#585858"/>
<path d="M25.9398 52.394C26.1239 52.394 26.2731 52.2447 26.2731 52.0606C26.2731 51.8765 26.1239 51.7273 25.9398 51.7273C25.7557 51.7273 25.6064 51.8765 25.6064 52.0606C25.6064 52.2447 25.7557 52.394 25.9398 52.394Z" fill="#585858"/>
<path d="M27.388 52.7821C27.5721 52.7821 27.7214 52.6329 27.7214 52.4488C27.7214 52.2647 27.5721 52.1155 27.388 52.1155C27.2039 52.1155 27.0547 52.2647 27.0547 52.4488C27.0547 52.6329 27.2039 52.7821 27.388 52.7821Z" fill="#585858"/>
<path d="M28.4486 51.7216C28.6327 51.7216 28.7819 51.5724 28.7819 51.3883C28.7819 51.2042 28.6327 51.0549 28.4486 51.0549C28.2645 51.0549 28.1152 51.2042 28.1152 51.3883C28.1152 51.5724 28.2645 51.7216 28.4486 51.7216Z" fill="#585858"/>
<path d="M28.0609 50.2726C28.245 50.2726 28.3942 50.1234 28.3942 49.9393C28.3942 49.7552 28.245 49.606 28.0609 49.606C27.8768 49.606 27.7275 49.7552 27.7275 49.9393C27.7275 50.1234 27.8768 50.2726 28.0609 50.2726Z" fill="#585858"/>
<path d="M26.6117 49.8844C26.7957 49.8844 26.945 49.7352 26.945 49.5511C26.945 49.367 26.7957 49.2178 26.6117 49.2178C26.4276 49.2178 26.2783 49.367 26.2783 49.5511C26.2783 49.7352 26.4276 49.8844 26.6117 49.8844Z" fill="#585858"/>
<path d="M27.25 51.6667C27.3881 51.6667 27.5 51.5548 27.5 51.4167C27.5 51.2787 27.3881 51.1667 27.25 51.1667C27.1119 51.1667 27 51.2787 27 51.4167C27 51.5548 27.1119 51.6667 27.25 51.6667Z" fill="#585858"/>
<path d="M27.4997 50.8333C27.5917 50.8333 27.6663 50.7587 27.6663 50.6667C27.6663 50.5746 27.5917 50.5 27.4997 50.5C27.4076 50.5 27.333 50.5746 27.333 50.6667C27.333 50.7587 27.4076 50.8333 27.4997 50.8333Z" fill="#585858"/>
<path d="M26.6663 51.1667C26.8504 51.1667 26.9997 51.0174 26.9997 50.8333C26.9997 50.6492 26.8504 50.5 26.6663 50.5C26.4822 50.5 26.333 50.6492 26.333 50.8333C26.333 51.0174 26.4822 51.1667 26.6663 51.1667Z" fill="#585858"/>
</g>
<g clip-path="url(#clip4_192_222)">
<path d="M54.2431 9.12927C54.2719 8.60245 53.914 7.99405 53.4096 7.74258C51.3139 6.69906 51.4749 5.0585 49.2212 4.32621C46.9674 3.59392 47.1285 5.33915 45.0328 5.02078C44.5284 4.94396 43.2403 5.52764 43.269 6.07368C43.4851 10.1943 45.7378 12.7789 49.0023 15.3106C52.2668 14.9003 54.027 13.1095 54.2431 9.12927Z" fill="url(#paint10_linear_192_222)"/>
</g>
<g clip-path="url(#clip5_192_222)">
<path d="M53.1823 9.76612C53.211 9.23931 52.8531 8.6309 52.3487 8.37944C50.253 7.33592 50.414 5.69536 48.1603 4.96307C45.9065 4.23078 46.0676 5.97601 43.9719 5.65764C43.4675 5.58082 43.1096 5.95661 43.1383 6.50266C43.3544 10.6233 44.8958 13.0484 48.1603 15.5801C51.4248 15.1699 52.9662 13.7463 53.1823 9.76612Z" fill="url(#paint11_linear_192_222)"/>
<path d="M53.1823 9.76612C53.211 9.23931 52.8531 8.6309 52.3487 8.37944C50.253 7.33592 50.414 5.69536 48.1603 4.96307C45.9065 4.23078 46.0676 5.97601 43.9719 5.65764C43.4675 5.58082 43.1096 5.95661 43.1383 6.50266C43.3544 10.6233 44.8958 13.0484 48.1603 15.5801C51.4248 15.1699 52.9662 13.7463 53.1823 9.76612Z" fill="url(#paint12_linear_192_222)"/>
<path d="M53.1823 9.76612C53.211 9.23931 52.8531 8.6309 52.3487 8.37944C50.253 7.33592 50.414 5.69536 48.1603 4.96307C45.9065 4.23078 46.0676 5.97601 43.9719 5.65764C43.4675 5.58082 43.1096 5.95661 43.1383 6.50266C43.3544 10.6233 44.8958 13.0484 48.1603 15.5801C51.4248 15.1699 52.9662 13.7463 53.1823 9.76612Z" fill="#4771F6"/>
</g>
<g filter="url(#filter6_f_192_222)">
<g clip-path="url(#clip6_192_222)">
<path d="M69.6041 26.6813C69.6197 26.3962 69.426 26.067 69.153 25.9309C68.0189 25.3662 68.106 24.4784 66.8864 24.0821C65.6667 23.6858 65.7539 24.6302 64.6198 24.458C64.3468 24.4164 63.6497 24.7323 63.6653 25.0278C63.7822 27.2577 65.0013 28.6564 66.7679 30.0264C68.5346 29.8044 69.4872 28.8353 69.6041 26.6813Z" fill="url(#paint13_linear_192_222)"/>
</g>
<g clip-path="url(#clip7_192_222)">
<path d="M69.0281 27.0258C69.0437 26.7407 68.85 26.4114 68.577 26.2754C67.4429 25.7106 67.53 24.8228 66.3104 24.4265C65.0907 24.0302 65.1779 24.9747 64.0438 24.8024C63.7708 24.7608 63.5771 24.9642 63.5927 25.2597C63.7096 27.4897 64.5438 28.8021 66.3104 30.1721C68.077 29.9501 68.9112 29.1797 69.0281 27.0258Z" fill="url(#paint14_linear_192_222)"/>
<path d="M69.0281 27.0258C69.0437 26.7407 68.85 26.4114 68.577 26.2754C67.4429 25.7106 67.53 24.8228 66.3104 24.4265C65.0907 24.0302 65.1779 24.9747 64.0438 24.8024C63.7708 24.7608 63.5771 24.9642 63.5927 25.2597C63.7096 27.4897 64.5438 28.8021 66.3104 30.1721C68.077 29.9501 68.9112 29.1797 69.0281 27.0258Z" fill="url(#paint15_linear_192_222)"/>
<path d="M69.0281 27.0258C69.0437 26.7407 68.85 26.4114 68.577 26.2754C67.4429 25.7106 67.53 24.8228 66.3104 24.4265C65.0907 24.0302 65.1779 24.9747 64.0438 24.8024C63.7708 24.7608 63.5771 24.9642 63.5927 25.2597C63.7096 27.4897 64.5438 28.8021 66.3104 30.1721C68.077 29.9501 68.9112 29.1797 69.0281 27.0258Z" fill="#4771F6"/>
</g>
</g>
<g opacity="0.5" filter="url(#filter7_f_192_222)">
<g clip-path="url(#clip8_192_222)">
<path d="M30.2435 20.4349C30.2525 20.2701 30.1406 20.0798 29.9828 20.0011C29.3272 19.6747 29.3776 19.1615 28.6726 18.9324C27.9676 18.7033 28.018 19.2493 27.3624 19.1497C27.2046 19.1256 26.8017 19.3082 26.8107 19.479C26.8783 20.768 27.583 21.5765 28.6041 22.3684C29.6253 22.2401 30.1759 21.6799 30.2435 20.4349Z" fill="url(#paint16_linear_192_222)"/>
</g>
<g clip-path="url(#clip9_192_222)">
<path d="M29.9109 20.6341C29.9199 20.4693 29.808 20.279 29.6502 20.2004C28.9946 19.8739 29.045 19.3608 28.34 19.1317C27.635 18.9026 27.6854 19.4485 27.0298 19.349C26.872 19.3249 26.7601 19.4425 26.7691 19.6133C26.8367 20.9023 27.3188 21.6609 28.34 22.4528C29.3612 22.3245 29.8433 21.8792 29.9109 20.6341Z" fill="url(#paint17_linear_192_222)"/>
<path d="M29.9109 20.6341C29.9199 20.4693 29.808 20.279 29.6502 20.2004C28.9946 19.8739 29.045 19.3608 28.34 19.1317C27.635 18.9026 27.6854 19.4485 27.0298 19.349C26.872 19.3249 26.7601 19.4425 26.7691 19.6133C26.8367 20.9023 27.3188 21.6609 28.34 22.4528C29.3612 22.3245 29.8433 21.8792 29.9109 20.6341Z" fill="url(#paint18_linear_192_222)"/>
<path d="M29.9109 20.6341C29.9199 20.4693 29.808 20.279 29.6502 20.2004C28.9946 19.8739 29.045 19.3608 28.34 19.1317C27.635 18.9026 27.6854 19.4485 27.0298 19.349C26.872 19.3249 26.7601 19.4425 26.7691 19.6133C26.8367 20.9023 27.3188 21.6609 28.34 22.4528C29.3612 22.3245 29.8433 21.8792 29.9109 20.6341Z" fill="#4771F6"/>
</g>
</g>
</g>
<defs>
<filter id="filter0_f_192_222" x="5" y="44" width="60" height="32" filterUnits="userSpaceOnUse" color-interpolation-filters="sRGB">
<feFlood flood-opacity="0" result="BackgroundImageFix"/>
<feBlend mode="normal" in="SourceGraphic" in2="BackgroundImageFix" result="shape"/>
<feGaussianBlur stdDeviation="7.5" result="effect1_foregroundBlur_192_222"/>
</filter>
<filter id="filter1_f_192_222" x="23.6094" y="22.6802" width="9.74902" height="10.5923" filterUnits="userSpaceOnUse" color-interpolation-filters="sRGB">
<feFlood flood-opacity="0" result="BackgroundImageFix"/>
<feBlend mode="normal" in="SourceGraphic" in2="BackgroundImageFix" result="shape"/>
<feGaussianBlur stdDeviation="0.5" result="effect1_foregroundBlur_192_222"/>
</filter>
<filter id="filter2_f_192_222" x="57.1006" y="30.99" width="17.501" height="19.2859" filterUnits="userSpaceOnUse" color-interpolation-filters="sRGB">
<feFlood flood-opacity="0" result="BackgroundImageFix"/>
<feBlend mode="normal" in="SourceGraphic" in2="BackgroundImageFix" result="shape"/>
<feGaussianBlur stdDeviation="0.5" result="effect1_foregroundBlur_192_222"/>
</filter>
<filter id="filter3_dd_192_222" x="-10.8174" y="25.458" width="64.3105" height="64.615" filterUnits="userSpaceOnUse" color-interpolation-filters="sRGB">
<feFlood flood-opacity="0" result="BackgroundImageFix"/>
<feColorMatrix in="SourceAlpha" type="matrix" values="0 0 0 0 0 0 0 0 0 0 0 0 0 0 0 0 0 0 127 0" result="hardAlpha"/>
<feOffset dx="2" dy="15"/>
<feGaussianBlur stdDeviation="7.5"/>
<feComposite in2="hardAlpha" operator="out"/>
<feColorMatrix type="matrix" values="0 0 0 0 0.278431 0 0 0 0 0.443137 0 0 0 0 0.964706 0 0 0 0.05 0"/>
<feBlend mode="normal" in2="BackgroundImageFix" result="effect1_dropShadow_192_222"/>
<feColorMatrix in="SourceAlpha" type="matrix" values="0 0 0 0 0 0 0 0 0 0 0 0 0 0 0 0 0 0 127 0" result="hardAlpha"/>
<feOffset dx="2" dy="2"/>
<feGaussianBlur stdDeviation="1.5"/>
<feComposite in2="hardAlpha" operator="out"/>
<feColorMatrix type="matrix" values="0 0 0 0 0.278431 0 0 0 0 0.443137 0 0 0 0 0.964706 0 0 0 0.1 0"/>
<feBlend mode="normal" in2="effect1_dropShadow_192_222" result="effect2_dropShadow_192_222"/>
<feBlend mode="normal" in="SourceGraphic" in2="effect2_dropShadow_192_222" result="shape"/>
</filter>
<filter id="filter4_f_192_222" x="-2" y="41" width="8" height="9" filterUnits="userSpaceOnUse" color-interpolation-filters="sRGB">
<feFlood flood-opacity="0" result="BackgroundImageFix"/>
<feBlend mode="normal" in="SourceGraphic" in2="BackgroundImageFix" result="shape"/>
<feGaussianBlur stdDeviation="0.5" result="effect1_foregroundBlur_192_222"/>
</filter>
<filter id="filter5_f_192_222" x="24" y="48" width="6" height="6" filterUnits="userSpaceOnUse" color-interpolation-filters="sRGB">
<feFlood flood-opacity="0" result="BackgroundImageFix"/>
<feBlend mode="normal" in="SourceGraphic" in2="BackgroundImageFix" result="shape"/>
<feGaussianBlur stdDeviation="0.5" result="effect1_foregroundBlur_192_222"/>
</filter>
<filter id="filter6_f_192_222" x="62.0322" y="21.4421" width="9.13281" height="11.3699" filterUnits="userSpaceOnUse" color-interpolation-filters="sRGB">
<feFlood flood-opacity="0" result="BackgroundImageFix"/>
<feBlend mode="normal" in="SourceGraphic" in2="BackgroundImageFix" result="shape"/>
<feGaussianBlur stdDeviation="0.5" result="effect1_foregroundBlur_192_222"/>
</filter>
<filter id="filter7_f_192_222" x="25.4453" y="16.9846" width="6.12207" height="7.41626" filterUnits="userSpaceOnUse" color-interpolation-filters="sRGB">
<feFlood flood-opacity="0" result="BackgroundImageFix"/>
<feBlend mode="normal" in="SourceGraphic" in2="BackgroundImageFix" result="shape"/>
<feGaussianBlur stdDeviation="0.5" result="effect1_foregroundBlur_192_222"/>
</filter>
<linearGradient id="paint0_linear_192_222" x1="49.6888" y1="22.6393" x2="60.0029" y2="48.4998" gradientUnits="userSpaceOnUse">
<stop stop-color="#5780FF"/>
<stop offset="0.536458" stop-color="#698EFF"/>
<stop offset="0.635417" stop-color="#A4BCFD"/>
<stop offset="1" stop-color="#A4BCFD"/>
</linearGradient>
<linearGradient id="paint1_linear_192_222" x1="49.6868" y1="14.6396" x2="60.001" y2="40.5" gradientUnits="userSpaceOnUse">
<stop stop-color="#5780FF"/>
<stop offset="0.536458" stop-color="#698EFF"/>
<stop offset="0.635417" stop-color="#A4BCFD"/>
<stop offset="1" stop-color="#A4BCFD"/>
</linearGradient>
<linearGradient id="paint2_linear_192_222" x1="49.6859" y1="6.63956" x2="60" y2="32.5" gradientUnits="userSpaceOnUse">
<stop stop-color="#5780FF"/>
<stop offset="0.536458" stop-color="#698EFF"/>
<stop offset="0.635417" stop-color="#A4BCFD"/>
<stop offset="1" stop-color="#A4BCFD"/>
</linearGradient>
<linearGradient id="paint3_linear_192_222" x1="28.9186" y1="25.2785" x2="32.9007" y2="33.2252" gradientUnits="userSpaceOnUse">
<stop stop-color="#5780FF"/>
<stop offset="0.536458" stop-color="#698EFF"/>
<stop offset="0.635417" stop-color="#A4BCFD"/>
<stop offset="1" stop-color="#A4BCFD"/>
</linearGradient>
<linearGradient id="paint4_linear_192_222" x1="28.9186" y1="22.8779" x2="32.9007" y2="30.8246" gradientUnits="userSpaceOnUse">
<stop stop-color="#5780FF"/>
<stop offset="0.536458" stop-color="#698EFF"/>
<stop offset="0.635417" stop-color="#A4BCFD"/>
<stop offset="1" stop-color="#A4BCFD"/>
</linearGradient>
<linearGradient id="paint5_linear_192_222" x1="28.9186" y1="20.4772" x2="32.9007" y2="28.424" gradientUnits="userSpaceOnUse">
<stop stop-color="#5780FF"/>
<stop offset="0.536458" stop-color="#698EFF"/>
<stop offset="0.635417" stop-color="#A4BCFD"/>
<stop offset="1" stop-color="#A4BCFD"/>
</linearGradient>
<linearGradient id="paint6_linear_192_222" x1="66.7211" y1="35.288" x2="74.6851" y2="51.1814" gradientUnits="userSpaceOnUse">
<stop stop-color="#5780FF"/>
<stop offset="0.536458" stop-color="#698EFF"/>
<stop offset="0.635417" stop-color="#A4BCFD"/>
<stop offset="1" stop-color="#A4BCFD"/>
</linearGradient>
<linearGradient id="paint7_linear_192_222" x1="66.7221" y1="30.4864" x2="74.6861" y2="46.3799" gradientUnits="userSpaceOnUse">
<stop stop-color="#5780FF"/>
<stop offset="0.536458" stop-color="#698EFF"/>
<stop offset="0.635417" stop-color="#A4BCFD"/>
<stop offset="1" stop-color="#A4BCFD"/>
</linearGradient>
<linearGradient id="paint8_linear_192_222" x1="66.7221" y1="25.6854" x2="74.6861" y2="41.5789" gradientUnits="userSpaceOnUse">
<stop stop-color="#5780FF"/>
<stop offset="0.536458" stop-color="#698EFF"/>
<stop offset="0.635417" stop-color="#A4BCFD"/>
<stop offset="1" stop-color="#A4BCFD"/>
</linearGradient>
<linearGradient id="paint9_linear_192_222" x1="0.000270889" y1="5.09565" x2="23.8874" y2="32.7984" gradientUnits="userSpaceOnUse">
<stop stop-color="white"/>
<stop offset="0.25" stop-color="#F1F3F6"/>
<stop offset="0.515625" stop-color="white"/>
<stop offset="1" stop-color="white"/>
</linearGradient>
<linearGradient id="paint10_linear_192_222" x1="49.2212" y1="4.32622" x2="46.101" y2="13.9295" gradientUnits="userSpaceOnUse">
<stop stop-color="#B8CAEF"/>
<stop offset="1" stop-color="#4A74F6"/>
</linearGradient>
<linearGradient id="paint11_linear_192_222" x1="48.1603" y1="4.96307" x2="45.04" y2="14.5663" gradientUnits="userSpaceOnUse">
<stop stop-color="#B8CAEF"/>
<stop offset="1" stop-color="#4A74F6"/>
</linearGradient>
<linearGradient id="paint12_linear_192_222" x1="48.1603" y1="4.96307" x2="45.04" y2="14.5663" gradientUnits="userSpaceOnUse">
<stop stop-color="#B8CAEF"/>
<stop offset="1" stop-color="#4A74F6"/>
</linearGradient>
<linearGradient id="paint13_linear_192_222" x1="66.8864" y1="24.0821" x2="65.1978" y2="29.279" gradientUnits="userSpaceOnUse">
<stop stop-color="#B8CAEF"/>
<stop offset="1" stop-color="#4A74F6"/>
</linearGradient>
<linearGradient id="paint14_linear_192_222" x1="66.3104" y1="24.4265" x2="64.6218" y2="29.6235" gradientUnits="userSpaceOnUse">
<stop stop-color="#B8CAEF"/>
<stop offset="1" stop-color="#4A74F6"/>
</linearGradient>
<linearGradient id="paint15_linear_192_222" x1="66.3104" y1="24.4265" x2="64.6218" y2="29.6235" gradientUnits="userSpaceOnUse">
<stop stop-color="#B8CAEF"/>
<stop offset="1" stop-color="#4A74F6"/>
</linearGradient>
<linearGradient id="paint16_linear_192_222" x1="28.6726" y1="18.9324" x2="27.6966" y2="21.9364" gradientUnits="userSpaceOnUse">
<stop stop-color="#B8CAEF"/>
<stop offset="1" stop-color="#4A74F6"/>
</linearGradient>
<linearGradient id="paint17_linear_192_222" x1="28.34" y1="19.1317" x2="27.3639" y2="22.1357" gradientUnits="userSpaceOnUse">
<stop stop-color="#B8CAEF"/>
<stop offset="1" stop-color="#4A74F6"/>
</linearGradient>
<linearGradient id="paint18_linear_192_222" x1="28.34" y1="19.1317" x2="27.3639" y2="22.1357" gradientUnits="userSpaceOnUse">
<stop stop-color="#B8CAEF"/>
<stop offset="1" stop-color="#4A74F6"/>
</linearGradient>
<clipPath id="clip0_192_222">
<rect width="70" height="70" rx="8" fill="white"/>
</clipPath>
<clipPath id="clip1_192_222">
<rect width="11" height="11" fill="white" transform="translate(7 35)"/>
</clipPath>
<clipPath id="clip2_192_222">
<rect width="6" height="7" fill="white" transform="translate(-1 42)"/>
</clipPath>
<clipPath id="clip3_192_222">
<rect width="4" height="4" fill="white" transform="translate(25 49)"/>
</clipPath>
<clipPath id="clip4_192_222">
<rect width="12.7405" height="12.7405" fill="white" transform="matrix(0.951057 0.309017 -5.4602e-09 1 43.1631 1.2959)"/>
</clipPath>
<clipPath id="clip5_192_222">
<rect width="12.7405" height="12.7405" fill="white" transform="matrix(0.951057 0.309017 -5.4602e-09 1 42.1016 1.93286)"/>
</clipPath>
<clipPath id="clip6_192_222">
<rect width="6.89472" height="6.89473" fill="white" transform="matrix(0.951057 0.309017 -5.4602e-09 1 63.6074 22.4421)"/>
</clipPath>
<clipPath id="clip7_192_222">
<rect width="6.89472" height="6.89473" fill="white" transform="matrix(0.951057 0.309017 -5.4602e-09 1 63.0322 22.7866)"/>
</clipPath>
<clipPath id="clip8_192_222">
<rect width="3.98538" height="3.98538" fill="white" transform="matrix(0.951057 0.309017 -5.4602e-09 1 26.7773 17.9846)"/>
</clipPath>
<clipPath id="clip9_192_222">
<rect width="3.98538" height="3.98538" fill="white" transform="matrix(0.951057 0.309017 -5.4602e-09 1 26.4453 18.1838)"/>
</clipPath>
</defs>
</svg>
