<svg width="20" height="20" viewBox="0 0 20 20" fill="none" xmlns="http://www.w3.org/2000/svg">
<path d="M10.0003 18.3333C14.6027 18.3333 18.3337 14.6023 18.3337 9.99996C18.3337 5.39759 14.6027 1.66663 10.0003 1.66663C5.39795 1.66663 1.66699 5.39759 1.66699 9.99996C1.66699 14.6023 5.39795 18.3333 10.0003 18.3333Z" fill="#DBDBDB"/>
<path d="M9.16699 14.1666V9.99996C9.16699 9.53996 9.54033 9.16663 10.0003 9.16663C10.4603 9.16663 10.8337 9.53996 10.8337 9.99996V14.1666C10.8337 14.6266 10.4603 15 10.0003 15C9.54033 15 9.16699 14.6266 9.16699 14.1666Z" fill="#474B53"/>
<path d="M10 7.5C10.6904 7.5 11.25 6.94036 11.25 6.25C11.25 5.55964 10.6904 5 10 5C9.30964 5 8.75 5.55964 8.75 6.25C8.75 6.94036 9.30964 7.5 10 7.5Z" fill="#474B53"/>
</svg>
