<svg width="28" height="28" viewBox="0 0 28 28" fill="none" xmlns="http://www.w3.org/2000/svg">
<rect width="28" height="28" rx="8" fill="#F1F4F9"/>
<g clip-path="url(#clip0_175_323)">
<path d="M14.0003 22.3333C18.6027 22.3333 22.3337 18.6023 22.3337 14C22.3337 9.39759 18.6027 5.66663 14.0003 5.66663C9.39795 5.66663 5.66699 9.39759 5.66699 14C5.66699 18.6023 9.39795 22.3333 14.0003 22.3333Z" fill="#4671F6"/>
<path d="M13.167 18.1666V14C13.167 13.54 13.5403 13.1666 14.0003 13.1666C14.4603 13.1666 14.8337 13.54 14.8337 14V18.1666C14.8337 18.6266 14.4603 19 14.0003 19C13.5403 19 13.167 18.6266 13.167 18.1666Z" fill="white"/>
<path d="M14 11.5C14.6904 11.5 15.25 10.9404 15.25 10.25C15.25 9.55964 14.6904 9 14 9C13.3096 9 12.75 9.55964 12.75 10.25C12.75 10.9404 13.3096 11.5 14 11.5Z" fill="white"/>
</g>
<defs>
<clipPath id="clip0_175_323">
<rect width="20" height="20" fill="white" transform="translate(4 4)"/>
</clipPath>
</defs>
</svg>
