<svg width="40" height="40" viewBox="0 0 40 40" fill="none" xmlns="http://www.w3.org/2000/svg">
<g clip-path="url(#clip0_982_4428)">
<rect width="40" height="40" rx="8" fill="#F2F4F8"/>
<g filter="url(#filter0_f_982_4428)">
<path d="M11 35L28 35L28 36L11 36L11 35Z" fill="#7888DC"/>
</g>
<path d="M33.1958 26.1847L28.6696 27.6211L20.6483 22.3656L25.5401 20.8227C25.9147 20.7046 26.3158 20.6993 26.6933 20.8077L33.1691 22.6659C33.5978 22.7889 33.8933 23.1811 33.8933 23.6271L33.8933 25.2315C33.8933 25.6673 33.6111 26.0529 33.1958 26.1847Z" fill="url(#paint0_linear_982_4428)"/>
<path d="M29.2817 25.2343C29.2699 24.7917 28.9685 24.4095 28.5407 24.2949L21.0886 22.2993C20.4389 22.1253 19.8061 22.6294 19.8306 23.3015L19.8825 24.7297C19.8983 25.1646 20.1935 25.5393 20.6126 25.6565L28.053 27.7364C28.7013 27.9176 29.3398 27.4196 29.3219 26.7468L29.2817 25.2343Z" fill="#4671F6"/>
<path d="M33.1938 21.7594L28.6676 23.1958L20.6463 17.9403L25.5382 16.3974C25.9127 16.2793 26.3138 16.274 26.6914 16.3824L33.1671 18.2406C33.5959 18.3637 33.8913 18.7558 33.8913 19.2018L33.8913 20.8062C33.8913 21.242 33.6092 21.6276 33.1938 21.7594Z" fill="url(#paint1_linear_982_4428)"/>
<path d="M29.2797 20.8093C29.268 20.3666 28.9665 19.9844 28.5388 19.8699L21.0867 17.8742C20.4369 17.7002 19.8042 18.2043 19.8286 18.8765L19.8805 20.3047C19.8964 20.7395 20.1916 21.1143 20.6107 21.2314L28.0511 23.3114C28.6993 23.4926 29.3379 22.9946 29.32 22.3217L29.2797 20.8093Z" fill="#4671F6"/>
<path d="M33.1938 17.3341L28.6676 18.7705L20.6463 13.515L25.5382 11.9721C25.9127 11.854 26.3138 11.8488 26.6914 11.9571L33.1671 13.8153C33.5959 13.9384 33.8913 14.3305 33.8913 14.7765L33.8913 16.3809C33.8913 16.8167 33.6092 17.2023 33.1938 17.3341Z" fill="url(#paint2_linear_982_4428)"/>
<path d="M29.2797 16.3837C29.268 15.9411 28.9665 15.5589 28.5388 15.4443L21.0867 13.4487C20.4369 13.2747 19.8042 13.7788 19.8286 14.451L19.8805 15.8791C19.8964 16.314 20.1916 16.6887 20.6107 16.8059L28.0511 18.8858C28.6993 19.0671 29.3379 18.569 29.32 17.8962L29.2797 16.3837Z" fill="#4671F6"/>
<g opacity="0.5" filter="url(#filter1_f_982_4428)">
<path d="M17.6553 20.065L16.5607 20.4699L13.9091 18.7662L15.0595 18.4555C15.4809 18.3417 15.9255 18.3452 16.3451 18.4657L17.609 18.8283C17.8882 18.9084 18.0806 19.1638 18.0806 19.4542C18.0806 19.7268 17.9109 19.9704 17.6553 20.065Z" fill="url(#paint3_linear_982_4428)"/>
<path d="M16.676 19.8493C16.6698 19.6167 16.5114 19.4158 16.2866 19.3556L14.4421 18.8617C14.1075 18.7721 13.7815 19.0317 13.7941 19.378C13.8023 19.602 13.9543 19.795 14.1702 19.8554L16.0092 20.3694C16.3498 20.4647 16.6854 20.2029 16.676 19.8493Z" fill="#4671F6"/>
<path d="M17.6553 18.7371L16.5607 19.142L13.9091 17.4383L15.0595 17.1277C15.4809 17.0139 15.9255 17.0174 16.3451 17.1378L17.609 17.5004C17.8882 17.5806 18.0806 17.8359 18.0806 18.1264C18.0806 18.3989 17.9109 18.6426 17.6553 18.7371Z" fill="url(#paint4_linear_982_4428)"/>
<path d="M16.676 18.5212C16.6698 18.2886 16.5114 18.0877 16.2866 18.0275L14.4421 17.5336C14.1075 17.4439 13.7815 17.7036 13.7941 18.0499C13.8023 18.2739 13.9543 18.4669 14.1702 18.5272L16.0092 19.0413C16.3498 19.1365 16.6854 18.8748 16.676 18.5212Z" fill="#4671F6"/>
<path d="M17.6553 17.409L16.5607 17.8139L13.9091 16.1102L15.0595 15.7995C15.4809 15.6857 15.9255 15.6892 16.3451 15.8096L17.609 16.1723C17.8882 16.2524 18.0806 16.5078 18.0806 16.7982C18.0806 17.0707 17.9109 17.3144 17.6553 17.409Z" fill="url(#paint5_linear_982_4428)"/>
<path d="M16.676 17.1933C16.6698 16.9607 16.5114 16.7598 16.2866 16.6996L14.4421 16.2057C14.1075 16.1161 13.7815 16.3757 13.7941 16.722C13.8023 16.946 13.9543 17.139 14.1702 17.1994L16.0092 17.7134C16.3498 17.8087 16.6854 17.5469 16.676 17.1933Z" fill="#4671F6"/>
</g>
<g filter="url(#filter2_f_982_4428)">
<path d="M40.042 29.0665L37.8528 29.8763L32.5496 26.4689L34.8504 25.8476C35.6933 25.62 36.5825 25.627 37.4217 25.8678L39.9494 26.5932C40.5078 26.7534 40.8926 27.2641 40.8926 27.845C40.8926 28.39 40.5532 28.8774 40.042 29.0665Z" fill="url(#paint6_linear_982_4428)"/>
<path d="M38.0835 28.6347C38.0711 28.1694 37.7543 27.7677 37.3047 27.6473L33.6157 26.6594C32.9464 26.4802 32.2945 26.9995 32.3197 27.692C32.336 28.14 32.6401 28.5261 33.0719 28.6468L36.7498 29.6749C37.4311 29.8654 38.1023 29.3419 38.0835 28.6347Z" fill="#4671F6"/>
<path d="M40.043 26.41L37.8538 27.2198L32.5505 23.8124L34.8513 23.1911C35.6943 22.9635 36.5834 22.9705 37.4227 23.2113L39.9504 23.9367C40.5088 24.0969 40.8935 24.6076 40.8935 25.1885C40.8936 25.7335 40.5542 26.2209 40.043 26.41Z" fill="url(#paint7_linear_982_4428)"/>
<path d="M38.0845 25.9782C38.0721 25.5129 37.7552 25.1112 37.3057 24.9908L33.6167 24.0029C32.9474 23.8237 32.2955 24.343 32.3207 25.0355C32.337 25.4835 32.6411 25.8696 33.0729 25.9903L36.7508 27.0184C37.4321 27.2089 38.1033 26.6854 38.0845 25.9782Z" fill="#4671F6"/>
<path d="M40.043 23.7542L37.8538 24.564L32.5505 21.1566L34.8513 20.5354C35.6943 20.3077 36.5834 20.3147 37.4227 20.5556L39.9504 21.2809C40.5088 21.4411 40.8935 21.9518 40.8935 22.5327C40.8936 23.0778 40.5542 23.5652 40.043 23.7542Z" fill="url(#paint8_linear_982_4428)"/>
<path d="M38.0845 23.3224C38.0721 22.8572 37.7552 22.4555 37.3057 22.3351L33.6167 21.3472C32.9474 21.1679 32.2955 21.6873 32.3207 22.3797C32.337 22.8278 32.6411 23.2138 33.0729 23.3345L36.7508 24.3627C37.4321 24.5531 38.1033 24.0297 38.0845 23.3224Z" fill="#4671F6"/>
</g>
<g filter="url(#filter3_dd_982_4428)">
<path d="M2.796 18.9027C2.796 17.2458 4.08383 16.2842 5.67246 16.7547L17.4896 20.2551C19.0782 20.7257 20.366 22.4503 20.366 24.1072L20.366 33.6127C20.366 35.2695 19.0782 36.2312 17.4896 35.7606L5.67246 32.2602C4.08383 31.7897 2.796 30.065 2.796 28.4082L2.796 18.9027Z" fill="#C8CFE2"/>
<rect width="18.3247" height="15.5055" rx="3" transform="matrix(0.95882 0.284015 -5.4602e-09 1 1.38574 16.49)" fill="url(#paint9_linear_982_4428)"/>
</g>
<g clip-path="url(#clip1_982_4428)">
<path d="M7.38793 23.5511C7.27468 23.5209 7.16118 23.5051 7.04893 23.5019C6.93918 23.4986 6.84518 23.4241 6.81693 23.3181L6.66343 22.7451L6.18043 22.8744L6.33243 23.4416C6.36043 23.5461 6.31943 23.6591 6.22668 23.7151C6.02193 23.8386 5.84668 24.0111 5.71943 24.2211C5.66343 24.3131 5.55043 24.3531 5.44668 24.3251L5.13243 24.2411L5.00293 24.7241L5.31718 24.8084C5.42118 24.8361 5.49893 24.9274 5.50118 25.0351C5.50643 25.2779 5.57043 25.5124 5.68368 25.7199C5.73518 25.8146 5.71418 25.9321 5.63818 26.0084L5.23193 26.4146L5.58568 26.7681L5.99243 26.3614C6.07018 26.2836 6.18943 26.2659 6.28618 26.3186C6.38693 26.3736 6.49568 26.4181 6.61168 26.4491C6.73043 26.4809 6.84943 26.4969 6.96718 26.4989C7.07743 26.5009 7.17243 26.5761 7.20093 26.6826L7.34518 27.2211L7.82818 27.0916L7.68268 26.5486C7.65493 26.4449 7.69518 26.3329 7.78668 26.2764C7.98543 26.1536 8.15543 25.9846 8.27993 25.7794C8.33593 25.6874 8.44868 25.6469 8.55268 25.6749L8.86693 25.7591L8.99643 25.2761L8.68218 25.1919C8.57818 25.1641 8.50043 25.0729 8.49818 24.9651C8.49293 24.7224 8.42893 24.4879 8.31568 24.2804C8.26418 24.1856 8.28518 24.0681 8.36118 23.9919L8.76743 23.5856L8.41368 23.2321L8.00693 23.6389C7.92918 23.7166 7.80993 23.7344 7.71318 23.6816C7.61243 23.6266 7.50393 23.5824 7.38793 23.5511Z" fill="#C0C0C0"/>
<path d="M4.82715 24.9177C5.10329 24.9177 5.32715 24.6939 5.32715 24.4177C5.32715 24.1416 5.10329 23.9177 4.82715 23.9177C4.55101 23.9177 4.32715 24.1416 4.32715 24.4177C4.32715 24.6939 4.55101 24.9177 4.82715 24.9177Z" fill="#585858"/>
<path d="M5.40918 27.0911C5.68532 27.0911 5.90918 26.8672 5.90918 26.5911C5.90918 26.3149 5.68532 26.0911 5.40918 26.0911C5.13304 26.0911 4.90918 26.3149 4.90918 26.5911C4.90918 26.8672 5.13304 27.0911 5.40918 27.0911Z" fill="#585858"/>
<path d="M7.58203 27.6733C7.85817 27.6733 8.08203 27.4495 8.08203 27.1733C8.08203 26.8972 7.85817 26.6733 7.58203 26.6733C7.30589 26.6733 7.08203 26.8972 7.08203 27.1733C7.08203 27.4495 7.30589 27.6733 7.58203 27.6733Z" fill="#585858"/>
<path d="M9.17285 26.0823C9.44899 26.0823 9.67285 25.8584 9.67285 25.5823C9.67285 25.3061 9.44899 25.0823 9.17285 25.0823C8.89671 25.0823 8.67285 25.3061 8.67285 25.5823C8.67285 25.8584 8.89671 26.0823 9.17285 26.0823Z" fill="#585858"/>
<path d="M8.59082 23.9089C8.86696 23.9089 9.09082 23.6851 9.09082 23.4089C9.09082 23.1328 8.86696 22.9089 8.59082 22.9089C8.31468 22.9089 8.09082 23.1328 8.09082 23.4089C8.09082 23.6851 8.31468 23.9089 8.59082 23.9089Z" fill="#585858"/>
<path d="M6.41797 23.3267C6.69411 23.3267 6.91797 23.1028 6.91797 22.8267C6.91797 22.5505 6.69411 22.3267 6.41797 22.3267C6.14183 22.3267 5.91797 22.5505 5.91797 22.8267C5.91797 23.1028 6.14183 23.3267 6.41797 23.3267Z" fill="#585858"/>
<path d="M7.375 26C7.58211 26 7.75 25.8321 7.75 25.625C7.75 25.4179 7.58211 25.25 7.375 25.25C7.16789 25.25 7 25.4179 7 25.625C7 25.8321 7.16789 26 7.375 26Z" fill="#585858"/>
<path d="M7.75 24.75C7.88807 24.75 8 24.6381 8 24.5C8 24.3619 7.88807 24.25 7.75 24.25C7.61193 24.25 7.5 24.3619 7.5 24.5C7.5 24.6381 7.61193 24.75 7.75 24.75Z" fill="#585858"/>
<path d="M6.5 25.25C6.77614 25.25 7 25.0261 7 24.75C7 24.4739 6.77614 24.25 6.5 24.25C6.22386 24.25 6 24.4739 6 24.75C6 25.0261 6.22386 25.25 6.5 25.25Z" fill="#585858"/>
</g>
<g clip-path="url(#clip2_982_4428)" filter="url(#filter4_f_982_4428)">
<path d="M1.69445 27.0339C1.63783 27.0137 1.58108 27.0032 1.52495 27.0011C1.47008 26.9989 1.42308 26.9492 1.40895 26.8786L1.3322 26.4966L1.0907 26.5827L1.1667 26.9609C1.1807 27.0306 1.1602 27.1059 1.11383 27.1432C1.01145 27.2256 0.923828 27.3406 0.860203 27.4806C0.832203 27.5419 0.775703 27.5686 0.723828 27.5499L0.566703 27.4939L0.501953 27.8159L0.659078 27.8721C0.711078 27.8906 0.749953 27.9514 0.751078 28.0232C0.753703 28.1851 0.785703 28.3414 0.842328 28.4797C0.868078 28.5429 0.857578 28.6212 0.819578 28.6721L0.616453 28.9429L0.793328 29.1786L0.996703 28.9074C1.03558 28.8556 1.0952 28.8437 1.14358 28.8789C1.19395 28.9156 1.24833 28.9452 1.30633 28.9659C1.3657 28.9871 1.4252 28.9977 1.48408 28.9991C1.5392 29.0004 1.5867 29.0506 1.60095 29.1216L1.67308 29.4806L1.91458 29.3942L1.84183 29.0322C1.82795 28.9631 1.84808 28.8884 1.89383 28.8507C1.9932 28.7689 2.0782 28.6562 2.14045 28.5194C2.16845 28.4581 2.22483 28.4311 2.27683 28.4497L2.43395 28.5059L2.4987 28.1839L2.34158 28.1277C2.28958 28.1092 2.2507 28.0484 2.24958 27.9766C2.24695 27.8147 2.21495 27.6584 2.15833 27.5201C2.13258 27.4569 2.14308 27.3786 2.18108 27.3277L2.3842 27.0569L2.20733 26.8212L2.00395 27.0924C1.96508 27.1442 1.90545 27.1561 1.85708 27.1209C1.8067 27.0842 1.75245 27.0547 1.69445 27.0339Z" fill="#C0C0C0"/>
<path d="M0.413086 27.9452C0.551157 27.9452 0.663086 27.796 0.663086 27.6119C0.663086 27.4278 0.551157 27.2786 0.413086 27.2786C0.275015 27.2786 0.163086 27.4278 0.163086 27.6119C0.163086 27.796 0.275015 27.9452 0.413086 27.9452Z" fill="#585858"/>
<path d="M0.704102 29.394C0.842173 29.394 0.954102 29.2447 0.954102 29.0606C0.954102 28.8765 0.842173 28.7273 0.704102 28.7273C0.56603 28.7273 0.454102 28.8765 0.454102 29.0606C0.454102 29.2447 0.56603 29.394 0.704102 29.394Z" fill="#585858"/>
<path d="M1.79102 29.7821C1.92909 29.7821 2.04102 29.6329 2.04102 29.4488C2.04102 29.2647 1.92909 29.1155 1.79102 29.1155C1.65294 29.1155 1.54102 29.2647 1.54102 29.4488C1.54102 29.6329 1.65294 29.7821 1.79102 29.7821Z" fill="#585858"/>
<path d="M2.58691 28.7216C2.72499 28.7216 2.83691 28.5724 2.83691 28.3883C2.83691 28.2042 2.72499 28.0549 2.58691 28.0549C2.44884 28.0549 2.33691 28.2042 2.33691 28.3883C2.33691 28.5724 2.44884 28.7216 2.58691 28.7216Z" fill="#585858"/>
<path d="M2.2959 27.2726C2.43397 27.2726 2.5459 27.1234 2.5459 26.9393C2.5459 26.7552 2.43397 26.606 2.2959 26.606C2.15783 26.606 2.0459 26.7552 2.0459 26.9393C2.0459 27.1234 2.15783 27.2726 2.2959 27.2726Z" fill="#585858"/>
<path d="M1.20898 26.8844C1.34706 26.8844 1.45898 26.7352 1.45898 26.5511C1.45898 26.367 1.34706 26.2178 1.20898 26.2178C1.07091 26.2178 0.958984 26.367 0.958984 26.5511C0.958984 26.7352 1.07091 26.8844 1.20898 26.8844Z" fill="#585858"/>
<path d="M1.6875 28.6667C1.79105 28.6667 1.875 28.5548 1.875 28.4167C1.875 28.2787 1.79105 28.1667 1.6875 28.1667C1.58395 28.1667 1.5 28.2787 1.5 28.4167C1.5 28.5548 1.58395 28.6667 1.6875 28.6667Z" fill="#585858"/>
<path d="M1.875 27.8333C1.94404 27.8333 2 27.7587 2 27.6667C2 27.5746 1.94404 27.5 1.875 27.5C1.80596 27.5 1.75 27.5746 1.75 27.6667C1.75 27.7587 1.80596 27.8333 1.875 27.8333Z" fill="#585858"/>
<path d="M1.25 28.1667C1.38807 28.1667 1.5 28.0174 1.5 27.8333C1.5 27.6492 1.38807 27.5 1.25 27.5C1.11193 27.5 1 27.6492 1 27.8333C1 28.0174 1.11193 28.1667 1.25 28.1667Z" fill="#585858"/>
</g>
<g clip-path="url(#clip3_982_4428)" filter="url(#filter5_f_982_4428)">
<path d="M15.129 30.517C15.0912 30.5069 15.0534 30.5016 15.016 30.5005C14.9794 30.4995 14.9481 30.4746 14.9387 30.4393L14.8875 30.2483L14.7265 30.2914L14.7772 30.4805C14.7865 30.5153 14.7728 30.553 14.7419 30.5716C14.6737 30.6128 14.6152 30.6703 14.5728 30.7403C14.5542 30.771 14.5165 30.7843 14.4819 30.775L14.3772 30.747L14.334 30.908L14.4387 30.936C14.4734 30.9453 14.4993 30.9757 14.5001 31.0116C14.5018 31.0925 14.5232 31.1707 14.5609 31.2399C14.5781 31.2715 14.5711 31.3106 14.5457 31.336L14.4103 31.4715L14.5282 31.5893L14.6638 31.4537C14.6897 31.4278 14.7295 31.4219 14.7617 31.4395C14.7953 31.4578 14.8316 31.4726 14.8702 31.483C14.9098 31.4935 14.9495 31.4989 14.9887 31.4995C15.0255 31.5002 15.0572 31.5253 15.0667 31.5608L15.1147 31.7403L15.2757 31.6971L15.2272 31.5161C15.218 31.4815 15.2314 31.4442 15.2619 31.4254C15.3282 31.3845 15.3848 31.3281 15.4263 31.2597C15.445 31.229 15.4826 31.2155 15.5172 31.2249L15.622 31.253L15.6652 31.092L15.5604 31.0639C15.5257 31.0546 15.4998 31.0242 15.4991 30.9883C15.4973 30.9074 15.476 30.8292 15.4382 30.76C15.4211 30.7285 15.4281 30.6893 15.4534 30.6639L15.5888 30.5285L15.4709 30.4106L15.3353 30.5462C15.3094 30.5721 15.2697 30.578 15.2374 30.5605C15.2038 30.5421 15.1677 30.5274 15.129 30.517Z" fill="#C0C0C0"/>
<path d="M14.276 30.9725C14.3681 30.9725 14.4427 30.8979 14.4427 30.8058C14.4427 30.7138 14.3681 30.6392 14.276 30.6392C14.184 30.6392 14.1094 30.7138 14.1094 30.8058C14.1094 30.8979 14.184 30.9725 14.276 30.9725Z" fill="#585858"/>
<path d="M14.4694 31.6971C14.5614 31.6971 14.6361 31.6225 14.6361 31.5304C14.6361 31.4384 14.5614 31.3638 14.4694 31.3638C14.3774 31.3638 14.3027 31.4384 14.3027 31.5304C14.3027 31.6225 14.3774 31.6971 14.4694 31.6971Z" fill="#585858"/>
<path d="M15.194 31.8912C15.2861 31.8912 15.3607 31.8166 15.3607 31.7245C15.3607 31.6325 15.2861 31.5579 15.194 31.5579C15.102 31.5579 15.0273 31.6325 15.0273 31.7245C15.0273 31.8166 15.102 31.8912 15.194 31.8912Z" fill="#585858"/>
<path d="M15.7243 31.3607C15.8163 31.3607 15.891 31.2861 15.891 31.194C15.891 31.102 15.8163 31.0273 15.7243 31.0273C15.6322 31.0273 15.5576 31.102 15.5576 31.194C15.5576 31.2861 15.6322 31.3607 15.7243 31.3607Z" fill="#585858"/>
<path d="M15.5299 30.6363C15.622 30.6363 15.6966 30.5617 15.6966 30.4696C15.6966 30.3776 15.622 30.303 15.5299 30.303C15.4379 30.303 15.3633 30.3776 15.3633 30.4696C15.3633 30.5617 15.4379 30.6363 15.5299 30.6363Z" fill="#585858"/>
<path d="M14.8063 30.4422C14.8984 30.4422 14.973 30.3676 14.973 30.2756C14.973 30.1835 14.8984 30.1089 14.8063 30.1089C14.7143 30.1089 14.6396 30.1835 14.6396 30.2756C14.6396 30.3676 14.7143 30.4422 14.8063 30.4422Z" fill="#585858"/>
<path d="M15.125 31.3333C15.194 31.3333 15.25 31.2773 15.25 31.2083C15.25 31.1392 15.194 31.0833 15.125 31.0833C15.056 31.0833 15 31.1392 15 31.2083C15 31.2773 15.056 31.3333 15.125 31.3333Z" fill="#585858"/>
<path d="M15.2503 30.9167C15.2963 30.9167 15.3337 30.8794 15.3337 30.8333C15.3337 30.7873 15.2963 30.75 15.2503 30.75C15.2043 30.75 15.167 30.7873 15.167 30.8333C15.167 30.8794 15.2043 30.9167 15.2503 30.9167Z" fill="#585858"/>
<path d="M14.8337 31.0833C14.9257 31.0833 15.0003 31.0087 15.0003 30.9167C15.0003 30.8246 14.9257 30.75 14.8337 30.75C14.7416 30.75 14.667 30.8246 14.667 30.9167C14.667 31.0087 14.7416 31.0833 14.8337 31.0833Z" fill="#585858"/>
</g>
<g clip-path="url(#clip4_982_4428)">
<path d="M30.1853 7.66739C30.2012 7.37596 30.0032 7.03939 29.7242 6.90028C28.5649 6.32302 28.654 5.41547 27.4072 5.01037C26.1604 4.60528 26.2495 5.57072 25.0902 5.3946C24.8112 5.35211 24.0986 5.67499 24.1145 5.97706C24.2341 8.25656 25.4802 9.68631 27.2861 11.0868C29.092 10.8599 30.0658 9.86921 30.1853 7.66739Z" fill="url(#paint10_linear_982_4428)"/>
</g>
<g clip-path="url(#clip5_982_4428)">
<path d="M29.5981 8.01969C29.6141 7.72826 29.416 7.39169 29.137 7.25258C27.9777 6.67532 28.0668 5.76777 26.82 5.36267C25.5733 4.95758 25.6624 5.92302 24.503 5.7469C24.224 5.70441 24.026 5.91229 24.0419 6.21436C24.1614 8.49386 25.0141 9.83545 26.82 11.236C28.6259 11.009 29.4786 10.2215 29.5981 8.01969Z" fill="url(#paint11_linear_982_4428)"/>
<path d="M29.5981 8.01969C29.6141 7.72826 29.416 7.39169 29.137 7.25258C27.9777 6.67532 28.0668 5.76777 26.82 5.36267C25.5733 4.95758 25.6624 5.92302 24.503 5.7469C24.224 5.70441 24.026 5.91229 24.0419 6.21436C24.1614 8.49386 25.0141 9.83545 26.82 11.236C28.6259 11.009 29.4786 10.2215 29.5981 8.01969Z" fill="url(#paint12_linear_982_4428)"/>
<path d="M29.5981 8.01969C29.6141 7.72826 29.416 7.39169 29.137 7.25258C27.9777 6.67532 28.0668 5.76777 26.82 5.36267C25.5733 4.95758 25.6624 5.92302 24.503 5.7469C24.224 5.70441 24.026 5.91229 24.0419 6.21436C24.1614 8.49386 25.0141 9.83545 26.82 11.236C28.6259 11.009 29.4786 10.2215 29.5981 8.01969Z" fill="#4771F6"/>
</g>
<g filter="url(#filter6_f_982_4428)">
<g clip-path="url(#clip6_982_4428)">
<path d="M38.6829 17.377C38.6915 17.2193 38.5844 17.0372 38.4334 16.9619C37.806 16.6495 37.8542 16.1583 37.1795 15.9391C36.5048 15.7199 36.553 16.2424 35.9256 16.1471C35.7746 16.1241 35.389 16.2988 35.3976 16.4623C35.4623 17.6959 36.1367 18.4696 37.114 19.2275C38.0913 19.1047 38.6182 18.5686 38.6829 17.377Z" fill="url(#paint13_linear_982_4428)"/>
</g>
<g clip-path="url(#clip7_982_4428)">
<path d="M38.3647 17.5674C38.3734 17.4097 38.2662 17.2276 38.1152 17.1523C37.4878 16.8399 37.536 16.3487 36.8613 16.1295C36.1866 15.9103 36.2348 16.4328 35.6074 16.3374C35.4565 16.3145 35.3493 16.427 35.3579 16.5904C35.4226 17.824 35.884 18.55 36.8613 19.3079C37.8386 19.1851 38.3001 18.759 38.3647 17.5674Z" fill="url(#paint14_linear_982_4428)"/>
<path d="M38.3647 17.5674C38.3734 17.4097 38.2662 17.2276 38.1152 17.1523C37.4878 16.8399 37.536 16.3487 36.8613 16.1295C36.1866 15.9103 36.2348 16.4328 35.6074 16.3374C35.4565 16.3145 35.3493 16.427 35.3579 16.5904C35.4226 17.824 35.884 18.55 36.8613 19.3079C37.8386 19.1851 38.3001 18.759 38.3647 17.5674Z" fill="url(#paint15_linear_982_4428)"/>
<path d="M38.3647 17.5674C38.3734 17.4097 38.2662 17.2276 38.1152 17.1523C37.4878 16.8399 37.536 16.3487 36.8613 16.1295C36.1866 15.9103 36.2348 16.4328 35.6074 16.3374C35.4565 16.3145 35.3493 16.427 35.3579 16.5904C35.4226 17.824 35.884 18.55 36.8613 19.3079C37.8386 19.1851 38.3001 18.759 38.3647 17.5674Z" fill="#4771F6"/>
</g>
</g>
<g opacity="0.5" filter="url(#filter7_f_982_4428)">
<g clip-path="url(#clip8_982_4428)">
<path d="M16.9089 13.9215C16.9138 13.8303 16.8519 13.725 16.7646 13.6815C16.402 13.5009 16.4298 13.217 16.0398 13.0903C15.6498 12.9636 15.6777 13.2656 15.3151 13.2105C15.2278 13.1972 15.0049 13.2982 15.0098 13.3927C15.0472 14.1058 15.4371 14.553 16.002 14.9911C16.5669 14.9201 16.8715 14.6102 16.9089 13.9215Z" fill="url(#paint16_linear_982_4428)"/>
</g>
<g clip-path="url(#clip9_982_4428)">
<path d="M16.7247 14.0318C16.7296 13.9407 16.6677 13.8354 16.5804 13.7919C16.2178 13.6113 16.2456 13.3274 15.8556 13.2007C15.4656 13.0739 15.4935 13.376 15.1308 13.3209C15.0436 13.3076 14.9816 13.3726 14.9866 13.4671C15.024 14.1801 15.2907 14.5998 15.8556 15.0379C16.4205 14.9669 16.6873 14.7206 16.7247 14.0318Z" fill="url(#paint17_linear_982_4428)"/>
<path d="M16.7247 14.0318C16.7296 13.9407 16.6677 13.8354 16.5804 13.7919C16.2178 13.6113 16.2456 13.3274 15.8556 13.2007C15.4656 13.0739 15.4935 13.376 15.1308 13.3209C15.0436 13.3076 14.9816 13.3726 14.9866 13.4671C15.024 14.1801 15.2907 14.5998 15.8556 15.0379C16.4205 14.9669 16.6873 14.7206 16.7247 14.0318Z" fill="url(#paint18_linear_982_4428)"/>
<path d="M16.7247 14.0318C16.7296 13.9407 16.6677 13.8354 16.5804 13.7919C16.2178 13.6113 16.2456 13.3274 15.8556 13.2007C15.4656 13.0739 15.4935 13.376 15.1308 13.3209C15.0436 13.3076 14.9816 13.3726 14.9866 13.4671C15.024 14.1801 15.2907 14.5998 15.8556 15.0379C16.4205 14.9669 16.6873 14.7206 16.7247 14.0318Z" fill="#4771F6"/>
</g>
</g>
</g>
<defs>
<filter id="filter0_f_982_4428" x="-4" y="20" width="47" height="31" filterUnits="userSpaceOnUse" color-interpolation-filters="sRGB">
<feFlood flood-opacity="0" result="BackgroundImageFix"/>
<feBlend mode="normal" in="SourceGraphic" in2="BackgroundImageFix" result="shape"/>
<feGaussianBlur stdDeviation="7.5" result="effect1_foregroundBlur_982_4428"/>
</filter>
<filter id="filter1_f_982_4428" x="12.7939" y="14.7168" width="6.28613" height="6.75317" filterUnits="userSpaceOnUse" color-interpolation-filters="sRGB">
<feFlood flood-opacity="0" result="BackgroundImageFix"/>
<feBlend mode="normal" in="SourceGraphic" in2="BackgroundImageFix" result="shape"/>
<feGaussianBlur stdDeviation="0.5" result="effect1_foregroundBlur_982_4428"/>
</filter>
<filter id="filter2_f_982_4428" x="31.3193" y="19.3696" width="10.5742" height="11.5066" filterUnits="userSpaceOnUse" color-interpolation-filters="sRGB">
<feFlood flood-opacity="0" result="BackgroundImageFix"/>
<feBlend mode="normal" in="SourceGraphic" in2="BackgroundImageFix" result="shape"/>
<feGaussianBlur stdDeviation="0.5" result="effect1_foregroundBlur_982_4428"/>
</filter>
<filter id="filter3_dd_982_4428" x="-11.6143" y="15.6353" width="48.9805" height="50.832" filterUnits="userSpaceOnUse" color-interpolation-filters="sRGB">
<feFlood flood-opacity="0" result="BackgroundImageFix"/>
<feColorMatrix in="SourceAlpha" type="matrix" values="0 0 0 0 0 0 0 0 0 0 0 0 0 0 0 0 0 0 127 0" result="hardAlpha"/>
<feOffset dx="2" dy="15"/>
<feGaussianBlur stdDeviation="7.5"/>
<feComposite in2="hardAlpha" operator="out"/>
<feColorMatrix type="matrix" values="0 0 0 0 0.278431 0 0 0 0 0.443137 0 0 0 0 0.964706 0 0 0 0.05 0"/>
<feBlend mode="normal" in2="BackgroundImageFix" result="effect1_dropShadow_982_4428"/>
<feColorMatrix in="SourceAlpha" type="matrix" values="0 0 0 0 0 0 0 0 0 0 0 0 0 0 0 0 0 0 127 0" result="hardAlpha"/>
<feOffset dx="2" dy="2"/>
<feGaussianBlur stdDeviation="1.5"/>
<feComposite in2="hardAlpha" operator="out"/>
<feColorMatrix type="matrix" values="0 0 0 0 0.278431 0 0 0 0 0.443137 0 0 0 0 0.964706 0 0 0 0.1 0"/>
<feBlend mode="normal" in2="effect1_dropShadow_982_4428" result="effect2_dropShadow_982_4428"/>
<feBlend mode="normal" in="SourceGraphic" in2="effect2_dropShadow_982_4428" result="shape"/>
</filter>
<filter id="filter4_f_982_4428" x="-1" y="25" width="5" height="6" filterUnits="userSpaceOnUse" color-interpolation-filters="sRGB">
<feFlood flood-opacity="0" result="BackgroundImageFix"/>
<feBlend mode="normal" in="SourceGraphic" in2="BackgroundImageFix" result="shape"/>
<feGaussianBlur stdDeviation="0.5" result="effect1_foregroundBlur_982_4428"/>
</filter>
<filter id="filter5_f_982_4428" x="13" y="29" width="4" height="4" filterUnits="userSpaceOnUse" color-interpolation-filters="sRGB">
<feFlood flood-opacity="0" result="BackgroundImageFix"/>
<feBlend mode="normal" in="SourceGraphic" in2="BackgroundImageFix" result="shape"/>
<feGaussianBlur stdDeviation="0.5" result="effect1_foregroundBlur_982_4428"/>
</filter>
<filter id="filter6_f_982_4428" x="34.0479" y="14.032" width="5.94531" height="7.18311" filterUnits="userSpaceOnUse" color-interpolation-filters="sRGB">
<feFlood flood-opacity="0" result="BackgroundImageFix"/>
<feBlend mode="normal" in="SourceGraphic" in2="BackgroundImageFix" result="shape"/>
<feGaussianBlur stdDeviation="0.5" result="effect1_foregroundBlur_982_4428"/>
</filter>
<filter id="filter7_f_982_4428" x="13.8076" y="11.5659" width="4.28027" height="4.99634" filterUnits="userSpaceOnUse" color-interpolation-filters="sRGB">
<feFlood flood-opacity="0" result="BackgroundImageFix"/>
<feBlend mode="normal" in="SourceGraphic" in2="BackgroundImageFix" result="shape"/>
<feGaussianBlur stdDeviation="0.5" result="effect1_foregroundBlur_982_4428"/>
</filter>
<linearGradient id="paint0_linear_982_4428" x1="27.666" y1="15.1409" x2="33.3717" y2="29.4468" gradientUnits="userSpaceOnUse">
<stop stop-color="#5780FF"/>
<stop offset="0.536458" stop-color="#698EFF"/>
<stop offset="0.635417" stop-color="#A4BCFD"/>
<stop offset="1" stop-color="#A4BCFD"/>
</linearGradient>
<linearGradient id="paint1_linear_982_4428" x1="27.6641" y1="10.7157" x2="33.3698" y2="25.0215" gradientUnits="userSpaceOnUse">
<stop stop-color="#5780FF"/>
<stop offset="0.536458" stop-color="#698EFF"/>
<stop offset="0.635417" stop-color="#A4BCFD"/>
<stop offset="1" stop-color="#A4BCFD"/>
</linearGradient>
<linearGradient id="paint2_linear_982_4428" x1="27.6641" y1="6.29036" x2="33.3698" y2="20.5962" gradientUnits="userSpaceOnUse">
<stop stop-color="#5780FF"/>
<stop offset="0.536458" stop-color="#698EFF"/>
<stop offset="0.635417" stop-color="#A4BCFD"/>
<stop offset="1" stop-color="#A4BCFD"/>
</linearGradient>
<linearGradient id="paint3_linear_982_4428" x1="16.1778" y1="16.6008" x2="18.3806" y2="20.9969" gradientUnits="userSpaceOnUse">
<stop stop-color="#5780FF"/>
<stop offset="0.536458" stop-color="#698EFF"/>
<stop offset="0.635417" stop-color="#A4BCFD"/>
<stop offset="1" stop-color="#A4BCFD"/>
</linearGradient>
<linearGradient id="paint4_linear_982_4428" x1="16.1778" y1="15.273" x2="18.3806" y2="19.669" gradientUnits="userSpaceOnUse">
<stop stop-color="#5780FF"/>
<stop offset="0.536458" stop-color="#698EFF"/>
<stop offset="0.635417" stop-color="#A4BCFD"/>
<stop offset="1" stop-color="#A4BCFD"/>
</linearGradient>
<linearGradient id="paint5_linear_982_4428" x1="16.1778" y1="13.9448" x2="18.3806" y2="18.3409" gradientUnits="userSpaceOnUse">
<stop stop-color="#5780FF"/>
<stop offset="0.536458" stop-color="#698EFF"/>
<stop offset="0.635417" stop-color="#A4BCFD"/>
<stop offset="1" stop-color="#A4BCFD"/>
</linearGradient>
<linearGradient id="paint6_linear_982_4428" x1="37.087" y1="22.1382" x2="41.4927" y2="30.9304" gradientUnits="userSpaceOnUse">
<stop stop-color="#5780FF"/>
<stop offset="0.536458" stop-color="#698EFF"/>
<stop offset="0.635417" stop-color="#A4BCFD"/>
<stop offset="1" stop-color="#A4BCFD"/>
</linearGradient>
<linearGradient id="paint7_linear_982_4428" x1="37.088" y1="19.4817" x2="41.4936" y2="28.2739" gradientUnits="userSpaceOnUse">
<stop stop-color="#5780FF"/>
<stop offset="0.536458" stop-color="#698EFF"/>
<stop offset="0.635417" stop-color="#A4BCFD"/>
<stop offset="1" stop-color="#A4BCFD"/>
</linearGradient>
<linearGradient id="paint8_linear_982_4428" x1="37.088" y1="16.826" x2="41.4936" y2="25.6181" gradientUnits="userSpaceOnUse">
<stop stop-color="#5780FF"/>
<stop offset="0.536458" stop-color="#698EFF"/>
<stop offset="0.635417" stop-color="#A4BCFD"/>
<stop offset="1" stop-color="#A4BCFD"/>
</linearGradient>
<linearGradient id="paint9_linear_982_4428" x1="0.000149854" y1="2.81888" x2="13.2143" y2="18.1438" gradientUnits="userSpaceOnUse">
<stop stop-color="white"/>
<stop offset="0.25" stop-color="#F1F3F6"/>
<stop offset="0.515625" stop-color="white"/>
<stop offset="1" stop-color="white"/>
</linearGradient>
<linearGradient id="paint10_linear_982_4428" x1="27.4072" y1="5.01038" x2="25.6811" y2="10.3228" gradientUnits="userSpaceOnUse">
<stop stop-color="#B8CAEF"/>
<stop offset="1" stop-color="#4A74F6"/>
</linearGradient>
<linearGradient id="paint11_linear_982_4428" x1="26.82" y1="5.36267" x2="25.0939" y2="10.6751" gradientUnits="userSpaceOnUse">
<stop stop-color="#B8CAEF"/>
<stop offset="1" stop-color="#4A74F6"/>
</linearGradient>
<linearGradient id="paint12_linear_982_4428" x1="26.82" y1="5.36267" x2="25.0939" y2="10.6751" gradientUnits="userSpaceOnUse">
<stop stop-color="#B8CAEF"/>
<stop offset="1" stop-color="#4A74F6"/>
</linearGradient>
<linearGradient id="paint13_linear_982_4428" x1="37.1795" y1="15.9391" x2="36.2454" y2="18.814" gradientUnits="userSpaceOnUse">
<stop stop-color="#B8CAEF"/>
<stop offset="1" stop-color="#4A74F6"/>
</linearGradient>
<linearGradient id="paint14_linear_982_4428" x1="36.8613" y1="16.1295" x2="35.9272" y2="19.0044" gradientUnits="userSpaceOnUse">
<stop stop-color="#B8CAEF"/>
<stop offset="1" stop-color="#4A74F6"/>
</linearGradient>
<linearGradient id="paint15_linear_982_4428" x1="36.8613" y1="16.1295" x2="35.9272" y2="19.0044" gradientUnits="userSpaceOnUse">
<stop stop-color="#B8CAEF"/>
<stop offset="1" stop-color="#4A74F6"/>
</linearGradient>
<linearGradient id="paint16_linear_982_4428" x1="16.0398" y1="13.0903" x2="15.4999" y2="14.7521" gradientUnits="userSpaceOnUse">
<stop stop-color="#B8CAEF"/>
<stop offset="1" stop-color="#4A74F6"/>
</linearGradient>
<linearGradient id="paint17_linear_982_4428" x1="15.8556" y1="13.2007" x2="15.3157" y2="14.8625" gradientUnits="userSpaceOnUse">
<stop stop-color="#B8CAEF"/>
<stop offset="1" stop-color="#4A74F6"/>
</linearGradient>
<linearGradient id="paint18_linear_982_4428" x1="15.8556" y1="13.2007" x2="15.3157" y2="14.8625" gradientUnits="userSpaceOnUse">
<stop stop-color="#B8CAEF"/>
<stop offset="1" stop-color="#4A74F6"/>
</linearGradient>
<clipPath id="clip0_982_4428">
<rect width="40" height="40" rx="8" fill="white"/>
</clipPath>
<clipPath id="clip1_982_4428">
<rect width="6" height="6" fill="white" transform="translate(4 22)"/>
</clipPath>
<clipPath id="clip2_982_4428">
<rect width="3" height="4" fill="white" transform="translate(0 26)"/>
</clipPath>
<clipPath id="clip3_982_4428">
<rect width="2" height="2" fill="white" transform="translate(14 30)"/>
</clipPath>
<clipPath id="clip4_982_4428">
<rect width="7.04795" height="7.04795" fill="white" transform="matrix(0.951057 0.309017 -5.4602e-09 1 24.0557 3.33398)"/>
</clipPath>
<clipPath id="clip5_982_4428">
<rect width="7.04795" height="7.04795" fill="white" transform="matrix(0.951057 0.309017 -5.4602e-09 1 23.4688 3.68628)"/>
</clipPath>
<clipPath id="clip6_982_4428">
<rect width="3.81411" height="3.81411" fill="white" transform="matrix(0.951057 0.309017 -5.4602e-09 1 35.3662 15.032)"/>
</clipPath>
<clipPath id="clip7_982_4428">
<rect width="3.81411" height="3.81411" fill="white" transform="matrix(0.951057 0.309017 -5.4602e-09 1 35.0479 15.2224)"/>
</clipPath>
<clipPath id="clip8_982_4428">
<rect width="2.20468" height="2.20468" fill="white" transform="matrix(0.951057 0.309017 -5.4602e-09 1 14.9912 12.5659)"/>
</clipPath>
<clipPath id="clip9_982_4428">
<rect width="2.20468" height="2.20468" fill="white" transform="matrix(0.951057 0.309017 -5.4602e-09 1 14.8076 12.6763)"/>
</clipPath>
</defs>
</svg>
