<svg width="254" height="33" fill="none" xmlns="http://www.w3.org/2000/svg"><path d="M56.695 20.915c0 4.095-3.37 7.398-7.815 7.398s-7.788-3.237-7.788-7.398c0-4.16 3.343-7.415 7.788-7.415s7.815 3.291 7.815 7.415zm-11.737 0c0 2.268 1.613 3.958 3.824 3.958a4.05 4.05 0 001.545-.296c.49-.199.933-.491 1.305-.86a3.87 3.87 0 00.86-1.288c.197-.481.292-.996.28-1.514 0-2.296-1.7-3.928-3.907-3.928s-3.892 1.632-3.892 3.928h-.015zm18.314-5.699a5.606 5.606 0 011.925-1.281 5.718 5.718 0 012.293-.406c3.408 0 5.607 2.297 5.607 5.726v8.714H69.19v-8.048c0-1.687-.962-2.852-2.65-2.852-1.928 0-3.2 1.165-3.2 3.155v7.745h-3.938V13.777h3.881l-.011 1.439zm151.986-.098a5.61 5.61 0 011.926-1.281 5.712 5.712 0 012.292-.405c3.408 0 5.608 2.297 5.608 5.725v8.714h-3.908v-8.048c0-1.686-.961-2.852-2.65-2.852-1.927 0-3.2 1.166-3.2 3.155v7.745h-3.937V13.68h3.881l-.012 1.438zm-124.88 9.811c-1.447 2.1-3.628 3.373-6.884 3.373-4.646 0-7.644-3.18-7.644-7.397 0-4.095 3.112-7.416 7.675-7.416 4.562 0 7.36 3.129 7.36 7.223 0 .551-.053 1.273-.053 1.354H79.734c.17.864.653 1.64 1.362 2.183a3.79 3.79 0 002.493.776c.752.028 1.5-.13 2.173-.458a4.44 4.44 0 001.677-1.425l2.939 1.787zm-10.507-5.7h7.057c-.424-1.742-1.84-2.589-3.426-2.589a3.616 3.616 0 00-2.288.663 3.472 3.472 0 00-1.343 1.926zM241.819 24.5c-1.446 2.1-3.627 3.373-6.883 3.373-4.646 0-7.645-3.181-7.645-7.398 0-4.094 3.112-7.415 7.675-7.415 4.562 0 7.36 3.129 7.36 7.223 0 .551-.053 1.272-.053 1.354h-11.097c.169.864.653 1.64 1.361 2.183.708.544 1.594.82 2.493.776.752.028 1.5-.13 2.173-.459s1.25-.819 1.678-1.424l2.938 1.787zm-10.507-5.7h7.058c-.424-1.742-1.84-2.59-3.427-2.59a3.613 3.613 0 00-2.287.664 3.47 3.47 0 00-1.344 1.926zm-58.014 7.88v5.948h-3.938V13.565h3.938v1.11a7.206 7.206 0 014.248-1.243c.968.002 1.925.19 2.818.554a7.364 7.364 0 012.384 1.568 7.16 7.16 0 011.586 2.341c.366.875.552 1.812.546 2.757a7.163 7.163 0 01-2.123 5.13 7.513 7.513 0 01-5.211 2.174 7.215 7.215 0 01-4.248-1.276zm-.072-5.947a3.81 3.81 0 001.176 2.708 3.993 3.993 0 002.788 1.109 3.974 3.974 0 002.159-.67 3.835 3.835 0 001.417-1.725 3.74 3.74 0 00.201-2.204 3.791 3.791 0 00-1.084-1.942 3.94 3.94 0 00-2.004-1.03 3.997 3.997 0 00-2.253.227 3.894 3.894 0 00-1.746 1.409 3.756 3.756 0 00-.654 2.118zm80.327-6.982v3.432h-3.57v5.7c0 1.298.594 1.768 1.927 1.768h1.643v3.292h-1.927c-3.881 0-5.577-1.657-5.577-4.867v-5.893h-2.098v-3.432h2.098v-3.65h3.934v3.65h3.57z" fill="#fff"/><path d="M132.777 20.546c0 4.094-3.37 7.397-7.819 7.397s-7.788-3.236-7.788-7.397 3.343-7.416 7.788-7.416 7.819 3.292 7.819 7.416zm-11.737 0c0 2.267 1.613 3.957 3.824 3.957a4.05 4.05 0 001.545-.296c.489-.198.933-.49 1.305-.86.372-.369.665-.807.861-1.288.195-.48.291-.996.279-1.513 0-2.297-1.696-3.928-3.907-3.928-2.211 0-3.896 1.63-3.896 3.928h-.011zm-12.851 4.131c-1.386 2.22-3.567 3.625-6.77 3.625-4.502 0-7.675-3.292-7.675-7.398 0-4.105 3.173-7.415 7.675-7.415a7.693 7.693 0 013.934.923 7.468 7.468 0 012.881 2.775l-3.089 1.88c-.758-1.188-1.757-2.076-3.567-2.076-2.294 0-3.854 1.58-3.854 3.902 0 2.323 1.56 3.928 3.854 3.928 1.81 0 2.802-.884 3.567-2.075l3.044 1.931z" fill="#6DB7F9"/><path d="M186.963 27.969V9.02h3.964v18.948h-3.964z" fill="#fff"/><path d="M110.479 27.969V9.02h3.965v18.948h-3.965z" fill="#6DB7F9"/><path d="M204.656 26.919a7.179 7.179 0 01-4.248 1.246 7.52 7.52 0 01-5.149-2.184 7.175 7.175 0 01-2.119-5.078c0-1.898.76-3.721 2.119-5.079a7.52 7.52 0 015.149-2.184 7.186 7.186 0 014.248 1.273v-1.136h3.938V27.97h-3.938v-1.05zm-7.731-5.974c-.011.497.08.992.268 1.454.187.463.467.884.823 1.24a3.897 3.897 0 002.733 1.123 3.962 3.962 0 001.518-.266 3.894 3.894 0 001.291-.823c.37-.356.662-.78.861-1.25.198-.468.298-.97.294-1.478a3.81 3.81 0 00-1.174-2.71 3.994 3.994 0 00-2.79-1.11 3.923 3.923 0 00-1.48.298 3.837 3.837 0 00-1.248.832 3.744 3.744 0 00-.824 1.238 3.674 3.674 0 00-.272 1.452z" fill="#fff"/><path d="M162.533 26.918v1.05h3.938V9.022h-3.938v5.891a7.186 7.186 0 00-4.248-1.272 7.522 7.522 0 00-5.15 2.184 7.18 7.18 0 00-2.119 5.079 7.18 7.18 0 002.119 5.078 7.522 7.522 0 005.15 2.184 7.18 7.18 0 004.248-1.247zm-7.732-5.973c-.008-.496.084-.99.272-1.45a3.75 3.75 0 01.821-1.237 3.858 3.858 0 011.246-.833c.468-.195.97-.297 1.478-.3a3.994 3.994 0 012.79 1.11 3.81 3.81 0 011.174 2.71 3.722 3.722 0 01-.294 1.479 3.786 3.786 0 01-.861 1.249c-.37.356-.809.636-1.292.823a3.956 3.956 0 01-1.517.266 3.904 3.904 0 01-1.48-.295 3.836 3.836 0 01-1.248-.831 3.689 3.689 0 01-1.089-2.69z" fill="#6DB7F9"/><mask id="a" style="mask-type:alpha" maskUnits="userSpaceOnUse" x="0" y="0" width="34" height="33"><path fill-rule="evenodd" clip-rule="evenodd" d="M28.958 17.434c2.47-1.628 4.096-4.388 4.096-7.518 0-5.005-4.154-9.062-9.277-9.062-3.205 0-6.03 1.587-7.696 4.001L14.98 3.78C11.653.53 6.259.53 2.932 3.78a8.186 8.186 0 000 11.769l15.26 14.907c3.328 3.25 8.721 3.25 12.049 0a8.187 8.187 0 000-11.769l-1.283-1.253z" fill="#181B2D"/></mask><g mask="url(#a)"><path fill-rule="evenodd" clip-rule="evenodd" d="M28.958 17.434c2.47-1.628 4.096-4.388 4.096-7.518 0-5.005-4.154-9.062-9.277-9.062-3.205 0-6.03 1.587-7.696 4.001L14.98 3.78C11.653.53 6.259.53 2.932 3.78a8.186 8.186 0 000 11.769l15.26 14.907c3.328 3.25 8.721 3.25 12.049 0a8.187 8.187 0 000-11.769l-1.283-1.253z" fill="#6DB7F9"/><path d="M13.192 9.648l-.002-.002a3.432 3.432 0 00-1.745-.94 3.484 3.484 0 00-1.984.175l.19.458-.19-.458a3.394 3.394 0 00-1.546 1.228c-.379.55-.58 1.2-.58 1.863a3.28 3.28 0 00.587 1.86c.38.55.92.975 1.55 1.223.63.247 1.321.305 1.986.167a3.432 3.432 0 001.741-.946h0l.004-.004c.4-.415.88-.747 1.414-.975a4.418 4.418 0 011.689-.356h.399s0 0 0 0a4.562 4.562 0 011.742.353 4.47 4.47 0 011.464.99h0l.007.007.056.055h0l.007.007a4.37 4.37 0 011.014 1.43c.237.537.36 1.116.364 1.701v.302a4.295 4.295 0 01-.364 1.701 4.382 4.382 0 01-1.014 1.43h0l-.007.007-.053.052h0l-.006.007a4.5 4.5 0 01-1.473.99 4.59 4.59 0 01-1.75.354h-.294s0 0 0 0a4.593 4.593 0 01-1.753-.35 4.503 4.503 0 01-1.474-.99l-.002-.002a3.433 3.433 0 00-1.746-.937 3.484 3.484 0 00-1.984.177 3.394 3.394 0 00-1.544 1.229 3.272 3.272 0 00.01 3.722c.38.549.92.974 1.55 1.221.63.248 1.322.306 1.985.167a3.43 3.43 0 001.741-.946h0l.005-.004a4.33 4.33 0 011.413-.975 4.418 4.418 0 011.69-.356h.002l.393-.002a4.59 4.59 0 011.744.356c.552.232 1.05.569 1.467.991h0l.007.007a3.448 3.448 0 002.409.974c.903 0 1.77-.35 2.409-.974a3.29 3.29 0 00.997-2.353 3.29 3.29 0 00-.997-2.353h0l-.007-.007a4.374 4.374 0 01-1.013-1.433 4.288 4.288 0 01-.36-1.704s0 0 0 0v-.302s0 0 0 0a4.277 4.277 0 01.362-1.7 4.362 4.362 0 011.012-1.428 3.33 3.33 0 00.776-1.08 3.264 3.264 0 00.036-2.589 3.325 3.325 0 00-.748-1.1 3.416 3.416 0 00-1.127-.731l-.19.458.19-.458a3.48 3.48 0 00-2.65.035 3.409 3.409 0 00-1.106.758 4.485 4.485 0 01-1.463.989 4.6 4.6 0 01-1.742.355h-.292a4.575 4.575 0 01-1.742-.355 4.486 4.486 0 01-1.464-.989z" fill="#0F2948" stroke="#0F2948"/></g><path d="M149.091 13.1v14.753h-3.844v-1.864c-.49.639-1.135 1.145-1.935 1.518a6.126 6.126 0 01-2.563.532c-1.181 0-2.226-.24-3.135-.719-.908-.497-1.626-1.216-2.153-2.157-.509-.959-.764-2.095-.764-3.409V13.1h3.817v8.122c0 1.172.335 1.74.934 2.379.6.621 1.515.925 2.443.78 1.041-.163 1.857-.546 2.457-1.168.6-.639.899-1.544.899-2.716V13.1h3.844z" fill="#6DB7F9"/></svg>