<svg width="428" height="500" viewBox="0 0 428 500" fill="none" xmlns="http://www.w3.org/2000/svg">
<g clip-path="url(#clip0_503_3893)">
<g opacity="0.3" filter="url(#filter0_f_503_3893)">
<path d="M18 446.333C18 435.287 26.6181 423.902 37.2491 420.904L361.597 329.429C372.228 326.431 380.846 332.954 380.846 344V408C380.846 419.046 372.228 430.431 361.597 433.429L37.2491 524.904C26.6181 527.902 18 521.379 18 510.333V446.333Z" fill="#4671F6"/>
</g>
<path opacity="0.3" d="M48.4812 416.197C48.4812 405.428 56.8839 394.327 67.2491 391.404L391.597 299.929C401.962 297.005 410.364 303.366 410.364 314.136V378.136C410.364 388.905 401.962 400.005 391.597 402.929L67.2491 494.404C56.8839 497.327 48.4812 490.967 48.4812 480.197V416.197Z" stroke="#4671F6"/>
<path opacity="0.15" d="M48.4812 286.197C48.4812 275.428 56.8839 264.327 67.2491 261.404L391.597 169.929C401.962 167.005 410.364 173.366 410.364 184.136V248.136C410.364 258.905 401.962 270.005 391.597 272.929L67.2491 364.404C56.8839 367.327 48.4812 360.967 48.4812 350.197V286.197Z" stroke="#4671F6"/>
<path opacity="0.05" d="M48.4812 156.197C48.4812 145.428 56.8839 134.327 67.2491 131.404L391.597 39.9288C401.962 37.0055 410.364 43.3661 410.364 54.1357V118.136C410.364 128.905 401.962 140.005 391.597 142.929L67.2491 234.404C56.8839 237.327 48.4812 230.967 48.4812 220.197V156.197Z" stroke="#4671F6"/>
<g opacity="0.2" filter="url(#filter1_f_503_3893)">
<path d="M18 322.333C18 311.287 26.6181 299.902 37.2491 296.904L361.597 205.429C372.228 202.431 380.846 208.954 380.846 220V284C380.846 295.046 372.228 306.431 361.597 309.429L37.2491 400.904C26.6181 403.902 18 397.379 18 386.333V322.333Z" fill="#4671F6"/>
</g>
<g opacity="0.03" filter="url(#filter2_f_503_3893)">
<path d="M18 198.333C18 187.287 26.6181 175.902 37.2491 172.904L361.597 81.4288C372.228 78.4305 380.846 84.9543 380.846 95.9999V160C380.846 171.046 372.228 182.431 361.597 185.429L37.2491 276.904C26.6181 279.902 18 273.379 18 262.333V198.333Z" fill="#4671F6"/>
</g>
<rect x="99.5977" y="361.102" width="227.62" height="139.231" fill="url(#paint0_linear_503_3893)"/>
<path d="M202.678 321.944C207.834 320.246 213.392 320.204 218.573 321.825L322.35 354.281C329.375 356.478 329.424 366.404 322.42 368.67L218.822 402.187C213.488 403.913 207.739 403.869 202.433 402.06L104.329 368.632C97.4727 366.296 97.5223 356.581 104.403 354.315L202.678 321.944Z" fill="white"/>
<g filter="url(#filter3_f_503_3893)">
<path d="M183 350.333L246 350.333L246 355.333L183 355.333L183 350.333Z" fill="#A5BDFE"/>
</g>
<path d="M157.1 327.085L195.528 341.298L269.405 293.831L221.017 280.766C219.961 280.481 218.848 280.49 217.798 280.791L157.527 298.086C154.954 298.824 153.182 301.177 153.182 303.853L153.182 321.457C153.182 323.968 154.745 326.213 157.1 327.085Z" fill="url(#paint1_linear_503_3893)"/>
<path d="M192.488 317.554C192.559 314.898 194.368 312.605 196.934 311.918L265.472 293.563C269.37 292.52 273.167 295.544 273.02 299.577L272.388 316.969C272.293 319.578 270.522 321.826 268.007 322.529L199.619 341.647C195.729 342.735 191.898 339.746 192.005 335.709L192.488 317.554Z" fill="#4671F6"/>
<path d="M157.1 290.085L195.528 304.298L269.405 256.831L221.017 243.766C219.961 243.481 218.848 243.49 217.798 243.791L157.527 261.086C154.954 261.824 153.182 264.177 153.182 266.853L153.182 284.457C153.182 286.968 154.745 289.213 157.1 290.085Z" fill="url(#paint2_linear_503_3893)"/>
<path d="M192.488 280.554C192.559 277.898 194.368 275.605 196.934 274.918L265.472 256.563C269.37 255.52 273.167 258.544 273.02 262.577L272.388 279.969C272.293 282.578 270.522 284.826 268.007 285.529L199.619 304.647C195.729 305.735 191.898 302.746 192.005 298.709L192.488 280.554Z" fill="#4671F6"/>
<path d="M157.098 253.085L195.526 267.299L269.403 219.832L221.015 206.766C219.96 206.481 218.846 206.49 217.796 206.792L157.525 224.087C154.952 224.825 153.18 227.178 153.18 229.854L153.18 247.458C153.18 249.969 154.743 252.214 157.098 253.085Z" fill="url(#paint3_linear_503_3893)"/>
<path d="M192.486 243.555C192.557 240.899 194.366 238.606 196.932 237.919L265.47 219.564C269.368 218.52 273.165 221.545 273.018 225.578L272.386 242.969C272.291 245.579 270.52 247.827 268.005 248.53L199.617 267.648C195.727 268.735 191.896 265.747 192.003 261.71L192.486 243.555Z" fill="#4671F6"/>
</g>
<defs>
<filter id="filter0_f_503_3893" x="14" y="324.7" width="370.846" height="204.933" filterUnits="userSpaceOnUse" color-interpolation-filters="sRGB">
<feFlood flood-opacity="0" result="BackgroundImageFix"/>
<feBlend mode="normal" in="SourceGraphic" in2="BackgroundImageFix" result="shape"/>
<feGaussianBlur stdDeviation="2" result="effect1_foregroundBlur_503_3893"/>
</filter>
<filter id="filter1_f_503_3893" x="8" y="194.7" width="382.846" height="216.933" filterUnits="userSpaceOnUse" color-interpolation-filters="sRGB">
<feFlood flood-opacity="0" result="BackgroundImageFix"/>
<feBlend mode="normal" in="SourceGraphic" in2="BackgroundImageFix" result="shape"/>
<feGaussianBlur stdDeviation="5" result="effect1_foregroundBlur_503_3893"/>
</filter>
<filter id="filter2_f_503_3893" x="-12" y="50.6999" width="422.846" height="256.933" filterUnits="userSpaceOnUse" color-interpolation-filters="sRGB">
<feFlood flood-opacity="0" result="BackgroundImageFix"/>
<feBlend mode="normal" in="SourceGraphic" in2="BackgroundImageFix" result="shape"/>
<feGaussianBlur stdDeviation="15" result="effect1_foregroundBlur_503_3893"/>
</filter>
<filter id="filter3_f_503_3893" x="168" y="335.333" width="93" height="35" filterUnits="userSpaceOnUse" color-interpolation-filters="sRGB">
<feFlood flood-opacity="0" result="BackgroundImageFix"/>
<feBlend mode="normal" in="SourceGraphic" in2="BackgroundImageFix" result="shape"/>
<feGaussianBlur stdDeviation="7.5" result="effect1_foregroundBlur_503_3893"/>
</filter>
<linearGradient id="paint0_linear_503_3893" x1="327.218" y1="430.717" x2="99.5977" y2="430.717" gradientUnits="userSpaceOnUse">
<stop stop-color="#DDE1E9"/>
<stop offset="0.432292" stop-color="#DDE1E9"/>
<stop offset="0.598958" stop-color="#F2F4F8"/>
<stop offset="1" stop-color="#FBFCFE"/>
</linearGradient>
<linearGradient id="paint1_linear_503_3893" x1="206.195" y1="233.503" x2="144.822" y2="355.983" gradientUnits="userSpaceOnUse">
<stop stop-color="#5780FF"/>
<stop offset="0.536458" stop-color="#698EFF"/>
<stop offset="0.635417" stop-color="#A4BCFD"/>
<stop offset="1" stop-color="#A4BCFD"/>
</linearGradient>
<linearGradient id="paint2_linear_503_3893" x1="206.195" y1="196.503" x2="144.822" y2="318.983" gradientUnits="userSpaceOnUse">
<stop stop-color="#5780FF"/>
<stop offset="0.536458" stop-color="#698EFF"/>
<stop offset="0.635417" stop-color="#A4BCFD"/>
<stop offset="1" stop-color="#A4BCFD"/>
</linearGradient>
<linearGradient id="paint3_linear_503_3893" x1="206.193" y1="159.503" x2="144.82" y2="281.983" gradientUnits="userSpaceOnUse">
<stop stop-color="#5780FF"/>
<stop offset="0.536458" stop-color="#698EFF"/>
<stop offset="0.635417" stop-color="#A4BCFD"/>
<stop offset="1" stop-color="#A4BCFD"/>
</linearGradient>
<clipPath id="clip0_503_3893">
<rect width="428" height="500" fill="white"/>
</clipPath>
</defs>
</svg>
