<svg width="16" height="16" viewBox="0 0 16 16" fill="none" xmlns="http://www.w3.org/2000/svg">
<g opacity="0.7">
<path d="M7.99967 14.6666C11.6816 14.6666 14.6663 11.6818 14.6663 7.99992C14.6663 4.31802 11.6816 1.33325 7.99967 1.33325C4.31778 1.33325 1.33301 4.31802 1.33301 7.99992C1.33301 11.6818 4.31778 14.6666 7.99967 14.6666Z" fill="#DBDBDB"/>
<path d="M7.33301 11.3333V7.99992C7.33301 7.63192 7.63167 7.33325 7.99967 7.33325C8.36767 7.33325 8.66634 7.63192 8.66634 7.99992V11.3333C8.66634 11.7013 8.36767 11.9999 7.99967 11.9999C7.63167 11.9999 7.33301 11.7013 7.33301 11.3333Z" fill="#474B53"/>
<path d="M8 6C8.55228 6 9 5.55228 9 5C9 4.44772 8.55228 4 8 4C7.44772 4 7 4.44772 7 5C7 5.55228 7.44772 6 8 6Z" fill="#474B53"/>
</g>
</svg>
