<svg width="36" height="36" viewBox="0 0 36 36" fill="none" xmlns="http://www.w3.org/2000/svg">
<path d="M17.9995 2.43994C26.5933 2.43994 33.5595 9.40609 33.5595 17.9999C33.5595 26.5938 26.5933 33.5599 17.9995 33.5599C9.4056 33.5599 2.43945 26.5938 2.43945 17.9999C2.43945 9.40609 9.4056 2.43994 17.9995 2.43994ZM23.367 24.3423C23.6531 23.4642 24.994 14.7127 25.1598 12.9883C25.2098 12.466 25.0448 12.1189 24.7214 11.964C24.3303 11.7759 23.7512 11.87 23.0795 12.1122C22.158 12.4443 10.3784 17.4459 9.69786 17.7354C9.05245 18.0094 8.44223 18.3084 8.44223 18.7414C8.44223 19.0458 8.62286 19.217 9.12078 19.3949C9.639 19.5796 10.944 19.9754 11.7146 20.1878C12.4567 20.3928 13.3017 20.2149 13.7753 19.9206C14.2772 19.6087 20.0703 15.7322 20.4863 15.3926C20.9017 15.053 21.2332 15.488 20.8936 15.8283C20.554 16.1679 16.5774 20.0275 16.0531 20.5619C15.4165 21.2107 15.8684 21.8832 16.2953 22.1524C16.7831 22.4596 20.2908 24.8125 20.8192 25.19C21.3476 25.5675 21.8834 25.7387 22.3738 25.7387C22.8643 25.7387 23.1228 25.0926 23.367 24.3423Z" fill="#F9FAFB"/>
</svg>
